<?xml version="1.0" encoding="utf-8"?>
<!-- Generator: Adobe Illustrator 25.1.0, SVG Export Plug-In . SVG Version: 6.00 Build 0)  -->
<svg version="1.1" id="Layer_1" xmlns="http://www.w3.org/2000/svg" xmlns:xlink="http://www.w3.org/1999/xlink" x="0px" y="0px"
	 viewBox="0 0 100 100" style="enable-background:new 0 0 100 100;" xml:space="preserve">
<style type="text/css">
	.st0{fill:#0193DA;}
</style>
<g id="Map-5">
	<path class="st0" d="M95.2,22h-5.4c0.5-1.5,0.7-3.1,0.8-4.7c0-7.7-6.3-14-14-14s-14,6.3-14,14c0,1.6,0.3,3.2,0.8,4.7H24.9
		c-0.9-6-6.5-10-12.4-9.1c-5.3,0.8-9.2,5.3-9.3,10.7v62.3c0,6,4.9,10.9,10.9,10.9h81c0.9,0,1.6-0.7,1.6-1.6V23.5
		C96.7,22.6,96,22,95.2,22z M76.5,6.4c6,0,10.9,4.9,10.9,10.9c0,7-7.8,18.2-10.9,22.4c-3.1-4.1-10.9-15.3-10.9-22.4
		C65.6,11.3,70.5,6.4,76.5,6.4z M6.4,23.5c0-4.3,3.5-7.8,7.8-7.8s7.8,3.5,7.8,7.8v54.7c-4.2-4.3-11.1-4.4-15.4-0.2
		c-0.1,0.1-0.1,0.1-0.2,0.2V23.5z M93.6,93.6H14.2c-4.3,0-7.8-3.5-7.8-7.8S9.9,78,14.2,78s7.8,3.5,7.8,7.8c0,0.9,0.7,1.6,1.6,1.6
		c0.9,0,1.6-0.7,1.6-1.6V25.1h39.2c2.9,6.5,6.6,12.6,11,18.1c0.5,0.7,1.5,0.8,2.2,0.2c0.1-0.1,0.2-0.2,0.2-0.2
		c4.4-5.6,8.1-11.6,11-18.1h4.9V93.6z"/>
	<path class="st0" d="M84.3,17.3c0-4.3-3.5-7.8-7.8-7.8s-7.8,3.5-7.8,7.8s3.5,7.8,7.8,7.8C80.8,25.1,84.3,21.6,84.3,17.3z
		 M71.8,17.3c0-2.6,2.1-4.7,4.7-4.7s4.7,2.1,4.7,4.7S79.1,22,76.5,22S71.8,19.9,71.8,17.3z"/>
	<path class="st0" d="M48.4,43.8V31.3h-3.1v10.9h-14v3.1h15.6C47.7,45.3,48.4,44.6,48.4,43.8z"/>
	<path class="st0" d="M56.2,45.3h14v-3.1H57.8V31.3h-3.1v12.5C54.7,44.6,55.4,45.3,56.2,45.3z"/>
	<path class="st0" d="M71.8,51.6H56.2c-0.9,0-1.6,0.7-1.6,1.6v12.5c0,0.9,0.7,1.6,1.6,1.6h15.6c0.9,0,1.6-0.7,1.6-1.6V53.1
		C73.4,52.3,72.7,51.6,71.8,51.6z M70.3,64H57.8v-9.3h12.5V64z"/>
	<path class="st0" d="M48.4,65.6V53.1c0-0.9-0.7-1.6-1.6-1.6H31.3v3.1h14V64h-14v3.1h15.6C47.7,67.1,48.4,66.4,48.4,65.6z"/>
	<path class="st0" d="M71.8,76.5H31.3v3.1h39v7.8h3.1V78C73.4,77.2,72.7,76.5,71.8,76.5z"/>
	<path class="st0" d="M79.6,53.1v12.5c0,0.9,0.7,1.6,1.6,1.6h6.2V64h-4.7v-9.3h4.7v-3.1h-6.2C80.3,51.6,79.6,52.3,79.6,53.1z"/>
	<path class="st0" d="M79.6,78v9.3h3.1v-7.8h4.7v-3.1h-6.2C80.3,76.5,79.6,77.2,79.6,78z"/>
</g>
</svg>
