<?xml version="1.0" encoding="utf-8"?>
<!-- Generator: Adobe Illustrator 25.1.0, SVG Export Plug-In . SVG Version: 6.00 Build 0)  -->
<svg version="1.1" id="Layer_1" xmlns="http://www.w3.org/2000/svg" xmlns:xlink="http://www.w3.org/1999/xlink" x="0px" y="0px"
	 viewBox="0 0 100 100" style="enable-background:new 0 0 100 100;" xml:space="preserve">
<style type="text/css">
	.st0{fill:#0193DA;}
</style>
<g id="syringe-medical-coronavirus-covid19-drug">
	<path class="st0" d="M23.4,78.3h3.3v3.3c0,0.9,0.7,1.7,1.7,1.7H35c0.9,0,1.7-0.7,1.7-1.7v-3.3H40c0.9,0,1.7-0.7,1.7-1.7V70
		c0-0.9-0.7-1.7-1.7-1.7h-3.3V65c0-0.9-0.7-1.7-1.7-1.7h-6.7c-0.9,0-1.7,0.7-1.7,1.7v3.3h-3.3c-0.9,0-1.7,0.7-1.7,1.7v6.7
		C21.7,77.6,22.4,78.3,23.4,78.3z M25,71.7h3.3c0.9,0,1.7-0.7,1.7-1.7v-3.3h3.3V70c0,0.9,0.7,1.7,1.7,1.7h3.3V75H35
		c-0.9,0-1.7,0.7-1.7,1.7V80H30v-3.3c0-0.9-0.7-1.7-1.7-1.7H25V71.7z"/>
	<path class="st0" d="M41.7,43.3V40h1.7c0.9,0,1.7-0.7,1.7-1.7v-6.7c0-2.8-2.2-5-5-5H23.4c-2.8,0-5,2.2-5,5v6.7
		c0,0.9,0.7,1.7,1.7,1.7h1.7v3.3C15.2,43.3,10,48.6,10,55v40c0,2.8,2.2,5,5,5h33.3c2.8,0,5-2.2,5-5V55
		C53.3,48.6,48.1,43.3,41.7,43.3z M21.7,31.7c0-0.9,0.7-1.7,1.7-1.7H40c0.9,0,1.7,0.7,1.7,1.7v5h-20V31.7z M50,95
		c0,0.9-0.7,1.7-1.7,1.7H15c-0.9,0-1.7-0.7-1.7-1.7v-5H50V95z M50,86.7H13.4V60H50V86.7z M50,56.7H13.4V55c0-4.6,3.7-8.3,8.3-8.3
		c1.8,0,3.3-1.5,3.3-3.3V40h13.3v3.3c0,1.8,1.5,3.3,3.3,3.3c4.6,0,8.3,3.7,8.3,8.3V56.7z"/>
	<path class="st0" d="M85,83.3c2.8,0,5-2.3,5-5c0-2.1-1.3-3.9-3.3-4.7V25c0-2.8-2.2-5-5-5H80v-1.7c0-2.8-2.2-5-5-5V1.7
		C75,0.7,74.3,0,73.4,0c-0.9,0-1.7,0.7-1.7,1.7v11.7c-2.8,0-5,2.2-5,5V20H65c-2.8,0-5,2.2-5,5v48.6c-2.6,0.9-3.9,3.8-3,6.4
		c0.7,2,2.6,3.3,4.7,3.3h5V90H65c-2.8,0-5,2.2-5,5s2.2,5,5,5h16.7c2.8,0,5-2.2,5-5s-2.2-5-5-5H80v-6.7H85z M70,18.3
		c0-0.9,0.7-1.7,1.7-1.7H75c0.9,0,1.7,0.7,1.7,1.7V20H70V18.3z M63.4,25c0-0.9,0.7-1.7,1.7-1.7h16.7c0.9,0,1.7,0.7,1.7,1.7v1.7h-5
		c-0.9,0-1.7,0.7-1.7,1.7c0,0.9,0.7,1.7,1.7,1.7h5v3.3H75c-0.9,0-1.7,0.7-1.7,1.7s0.7,1.7,1.7,1.7h8.3V40h-5c-0.9,0-1.7,0.7-1.7,1.7
		c0,0.9,0.7,1.7,1.7,1.7h5v3.3H75c-0.9,0-1.7,0.7-1.7,1.7c0,0.9,0.7,1.7,1.7,1.7h8.3v3.3h-5c-0.9,0-1.7,0.7-1.7,1.7s0.7,1.7,1.7,1.7
		h5V60H75c-0.9,0-1.7,0.7-1.7,1.7c0,0.9,0.7,1.7,1.7,1.7h8.3v10h-20V25z M81.7,93.3c0.9,0,1.7,0.7,1.7,1.7s-0.7,1.7-1.7,1.7H65
		c-0.9,0-1.7-0.7-1.7-1.7s0.7-1.7,1.7-1.7H81.7z M70,90v-6.7h6.7V90H70z M61.7,80c-0.9,0-1.7-0.7-1.7-1.7c0-0.9,0.7-1.7,1.7-1.7H85
		c0.9,0,1.7,0.7,1.7,1.7c0,0.9-0.7,1.7-1.7,1.7H61.7z"/>
</g>
</svg>
