<?xml version="1.0" encoding="utf-8"?>
<!-- Generator: Adobe Illustrator 25.1.0, SVG Export Plug-In . SVG Version: 6.00 Build 0)  -->
<svg version="1.1" id="Layer_1" xmlns="http://www.w3.org/2000/svg" xmlns:xlink="http://www.w3.org/1999/xlink" x="0px" y="0px"
	 viewBox="0 0 60 60" style="enable-background:new 0 0 60 60;" xml:space="preserve">
<style type="text/css">
	.st0{display:none;}
	.st1{display:inline;fill:#F0F0F0;}
	.st2{display:inline;}
	.st3{fill:#D80027;}
	.st4{display:inline;fill:#0052B4;}
	.st5{fill:#FFDA44;}
	.st6{display:inline;fill:#D80027;}
</style>
<g id="EUA" class="st0">
	<circle class="st1" cx="30" cy="30" r="30"/>
	<g class="st2">
		<path class="st3" d="M28.7,30H60c0-2.7-0.4-5.3-1-7.8H28.7V30z"/>
		<path class="st3" d="M28.7,14.3h26.9c-1.8-3-4.2-5.6-6.9-7.8h-20V14.3z"/>
		<path class="st3" d="M30,60c7.1,0,13.5-2.4,18.7-6.5H11.3C16.5,57.6,22.9,60,30,60z"/>
		<path class="st3" d="M4.4,45.7h51.2c1.5-2.4,2.6-5,3.4-7.8H1C1.8,40.6,2.9,43.2,4.4,45.7z"/>
	</g>
	<path class="st4" d="M13.9,4.7h2.7l-2.5,1.8l1,3l-2.5-1.8L10,9.5l0.8-2.6C8.6,8.8,6.6,11,5,13.4h0.9l-1.6,1.2
		C4,15,3.8,15.4,3.5,15.9l0.8,2.4l-1.4-1c-0.4,0.8-0.7,1.5-1,2.3l0.9,2.6h3.1L3.3,24l1,3l-2.5-1.8l-1.5,1.1C0.1,27.5,0,28.7,0,30h30
		c0-16.6,0-18.5,0-30C24.1,0,18.5,1.7,13.9,4.7z M15.1,27l-2.5-1.8L10,27l1-3l-2.5-1.8h3.1l1-3l1,3h3.1L14.1,24L15.1,27z M14.1,15.3
		l1,3l-2.5-1.8L10,18.3l1-3l-2.5-1.8h3.1l1-3l1,3h3.1L14.1,15.3z M25.8,27l-2.5-1.8L20.7,27l1-3l-2.5-1.8h3.1l1-3l1,3h3.1L24.8,24
		L25.8,27z M24.8,15.3l1,3l-2.5-1.8l-2.5,1.8l1-3l-2.5-1.8h3.1l1-3l1,3h3.1L24.8,15.3z M24.8,6.5l1,3l-2.5-1.8l-2.5,1.8l1-3
		l-2.5-1.8h3.1l1-3l1,3h3.1L24.8,6.5z"/>
</g>
<g id="alemanha">
	<path class="st5" d="M1.9,40.4C6.1,51.7,17,59.8,29.8,59.8s23.7-8.1,27.9-19.4l-27.9-2.6L1.9,40.4z"/>
	<path d="M29.8,0.2C17,0.2,6.1,8.3,1.9,19.7l27.9,2.6l27.9-2.6C53.5,8.3,42.6,0.2,29.8,0.2z"/>
	<path class="st3" d="M1.9,19.7C0.7,22.9,0,26.4,0,30s0.7,7.1,1.9,10.4h55.9c1.2-3.2,1.9-6.7,1.9-10.4s-0.7-7.1-1.9-10.4H1.9z"/>
</g>
<g id="china" class="st0">
	<circle class="st6" cx="29.9" cy="29.9" r="29.9"/>
	<g class="st2">
		<polygon class="st5" points="16.4,18.2 18.9,26.1 27.3,26.1 20.5,31 23.1,39 16.4,34.1 9.6,39 12.2,31 5.4,26.1 13.8,26.1 		"/>
		<polygon class="st5" points="35.4,46.3 33.5,43.8 30.5,45 32.2,42.4 30.3,39.9 33.3,40.7 35,38.1 35.1,41.2 38.2,42 35.2,43.1 		
			"/>
		<polygon class="st5" points="39.3,39.2 40.3,36.2 37.7,34.4 40.8,34.3 41.8,31.3 42.8,34.3 45.9,34.3 43.4,36.1 44.4,39.1 
			41.9,37.3 		"/>
		<polygon class="st5" points="44.6,21.9 43.3,24.7 45.5,26.9 42.4,26.5 41,29.3 40.5,26.2 37.4,25.8 40.2,24.3 39.6,21.2 
			41.9,23.4 		"/>
		<polygon class="st5" points="35.5,13.4 35.3,16.5 38.2,17.7 35.1,18.5 34.9,21.6 33.3,18.9 30.2,19.7 32.2,17.3 30.6,14.6 
			33.5,15.8 		"/>
	</g>
</g>
<g>
</g>
<g>
</g>
<g>
</g>
<g>
</g>
<g>
</g>
<g>
</g>
</svg>
