<svg xmlns="http://www.w3.org/2000/svg" width="138.323" height="138.357" viewBox="0 0 138.323 138.357"><g transform="translate(-0.064 0)"><g transform="translate(0.064 0)"><g transform="translate(0 0)"><path d="M30.911,11.576A68.9,68.9,0,0,1,80.124.879a5.92,5.92,0,0,1,.9.086,69.159,69.159,0,0,1,56.331,79.966,70.778,70.778,0,0,1-2.179,8.968,51.745,51.745,0,0,0,2.64,37.341,5.76,5.76,0,0,1-6.732,8.011L105.247,128.2a68.55,68.55,0,0,1-35.9,10.161,69.617,69.617,0,0,1-13.792-1.383,69.163,69.163,0,0,1-24.644-125.4Zm-9.705,89.51a57.623,57.623,0,0,0,79.9,16.08,5.748,5.748,0,0,1,4.715-.755l17.59,4.8a63.413,63.413,0,0,1,.755-34.736,58.711,58.711,0,0,0,1.827-7.515A57.626,57.626,0,0,0,79.819,12.469a6.661,6.661,0,0,1-.824-.086,57.631,57.631,0,0,0-57.789,88.7Z" transform="translate(-0.064 0)" fill="#fff"/></g></g><g transform="translate(63.485 34.024)"><path d="M240.524,125.909a5.758,5.758,0,0,0-5.763,5.763v34.58a5.763,5.763,0,0,0,11.527,0v-34.58A5.758,5.758,0,0,0,240.524,125.909Z" transform="translate(-234.761 -125.909)" fill="#fff"/></g><g transform="translate(63.485 92.223)"><path d="M245.822,344.862a5.373,5.373,0,0,0-1.21-1.9,5.49,5.49,0,0,0-.922-.691,6.243,6.243,0,0,0-2.075-.865,5.757,5.757,0,0,0-5.181,1.556,5.379,5.379,0,0,0-1.21,1.9,5.433,5.433,0,0,0,0,4.38,5.2,5.2,0,0,0,3.112,3.112,5.419,5.419,0,0,0,4.374,0,6.731,6.731,0,0,0,1.9-1.21,6.658,6.658,0,0,0,1.21-1.9,5.433,5.433,0,0,0,0-4.38Z" transform="translate(-234.762 -341.284)" fill="#fff"/></g></g></svg>