<svg xmlns="http://www.w3.org/2000/svg" width="140" height="139.994" viewBox="0 0 140 139.994"><path d="M22.612,11.3A8.171,8.171,0,0,0,16.2,13.9c-1.6,1.6-2.4,4.206-2.4,7.41v5.608H31.424V21.314c0-3.2-.8-5.808-2.4-7.41A8.171,8.171,0,0,0,22.612,11.3Z" transform="translate(13.838 11.331)" fill="#f9f9f9"/><path d="M129.98,63.288H76.906V10.214A10.257,10.257,0,0,0,66.692,0H10.214A10.257,10.257,0,0,0,0,10.214V66.692A10.257,10.257,0,0,0,10.214,76.906H63.087V129.78A10.257,10.257,0,0,0,73.3,139.994H129.78a10.257,10.257,0,0,0,10.214-10.214V73.5A9.962,9.962,0,0,0,129.98,63.288ZM58.08,58.08H45.263V48.067H27.638V58.08H15.021V33.647a23.174,23.174,0,0,1,2.6-11.616,18.118,18.118,0,0,1,7.611-7.41,25.022,25.022,0,0,1,11.216-2.6,22.634,22.634,0,0,1,11.216,2.6,18.089,18.089,0,0,1,7.611,7.41,23.69,23.69,0,0,1,2.6,11.616V58.08Zm62.286,64.69H85.719v-7.611l17.624-20.228H86.319V85.518h33.246v7.611l-17.624,20.428h18.626v9.213Z" fill="#f9f9f9"/></svg>