<svg xmlns="http://www.w3.org/2000/svg" width="139.353" height="139.314" viewBox="0 0 139.353 139.314"><g transform="translate(-3 -1.2)"><path d="M37.932,10.1H5.287A2.308,2.308,0,0,0,3,12.387v9.357H40.22V12.387A2.308,2.308,0,0,0,37.932,10.1Z" transform="translate(0 9.606)" fill="#fff"/><path d="M3,94.419H40.22V17.9H3Zm7.07-67.37a2.308,2.308,0,0,1,2.287-2.287H30.863a2.308,2.308,0,0,1,2.287,2.287V45.555a2.308,2.308,0,0,1-2.287,2.287H12.357a2.308,2.308,0,0,1-2.287-2.287Z" transform="translate(0 18.024)" fill="#fff"/><path d="M3,73.044a2.308,2.308,0,0,0,2.287,2.287H37.724a2.308,2.308,0,0,0,2.287-2.287V61.4H3Z" transform="translate(0 64.974)" fill="#fff"/><rect width="37.22" height="4.574" transform="translate(3 117.225)" fill="#fff"/><rect width="30.15" height="4.574" transform="translate(44.794 117.225)" fill="#fff"/><path d="M53.25,3.487A2.308,2.308,0,0,0,50.963,1.2H25.387A2.308,2.308,0,0,0,23.1,3.487v6.862H53.25Z" transform="translate(21.694 0)" fill="#fff"/><path d="M23.1,73.044a2.308,2.308,0,0,0,2.287,2.287H50.963a2.308,2.308,0,0,0,2.287-2.287V61.4H23.1Z" transform="translate(21.694 64.974)" fill="#fff"/><rect width="30.15" height="6.862" transform="translate(44.794 14.923)" fill="#fff"/><path d="M79.1,19.2,39.8,29.8l1.248,4.574,39.3-10.4Z" transform="translate(39.719 19.428)" fill="#fff"/><path d="M87.3,50.4,48,60.8l2.5,9.565,39.3-10.4Z" transform="translate(48.569 53.102)" fill="#fff"/><path d="M80.3,23.7,41,34.1,54.308,85.248l39.3-10.6Z" transform="translate(41.014 24.284)" fill="#fff"/><path d="M92.757,11.82a2.365,2.365,0,0,0-2.911-1.663L55.121,19.513A2.254,2.254,0,0,0,53.458,21.8V17.018H23.1v85.875H53.25V22.216l3.327,12.892,39.3-10.4Z" transform="translate(21.694 9.55)" fill="#fff"/><path d="M91.8,67.8,89.1,57.2,49.8,67.6l2.7,10.6a3.73,3.73,0,0,0,1.04,1.455,2.955,2.955,0,0,0,1.248.416h.624l34.724-9.357A2.55,2.55,0,0,0,91.8,67.8Z" transform="translate(50.512 60.441)" fill="#fff"/></g></svg>