<svg xmlns="http://www.w3.org/2000/svg" width="140" height="140" viewBox="0 0 140 140"><path d="M11.7,61.2a8.8,8.8,0,1,0,0,17.6,8.8,8.8,0,1,0,0-17.6Z" transform="translate(2.9 61.2)" fill="#fff"/><path d="M26.2,52.5A11.6,11.6,0,1,0,37.8,64.1,11.608,11.608,0,0,0,26.2,52.5Z" transform="translate(14.6 52.5)" fill="#fff"/><path d="M93.4,0A46.136,46.136,0,0,0,58,16.4a40,40,0,0,0-18.6-4.6,39.3,39.3,0,1,0,0,78.6h.4A23.212,23.212,0,0,0,82.2,92a41.943,41.943,0,0,0,11.2,1.4A46.7,46.7,0,0,0,93.4,0Z" fill="#fff"/></svg>