<svg xmlns="http://www.w3.org/2000/svg" width="137.5" height="137.5" viewBox="0 0 137.5 137.5"><path d="M140.174,25.813l6.947-2.878a5.371,5.371,0,0,0-4.111-9.924l-6.947,2.878a5.371,5.371,0,1,0,4.111,9.924Z" transform="translate(-97.096 -9.216)" fill="#fff"/><path d="M68.75,0a5.371,5.371,0,0,0,0,10.742A58.008,58.008,0,1,1,10.742,68.75,5.371,5.371,0,0,0,0,68.75,68.75,68.75,0,1,0,68.75,0Z" fill="#fff"/><path d="M68.392,73.709l5.317-5.317a5.371,5.371,0,0,0-7.6-7.6L60.8,66.113a5.371,5.371,0,0,0,7.6,7.6Z" transform="translate(-43.318 -43.318)" fill="#fff"/><path d="M15.918,150.029a5.372,5.372,0,0,0,7.018-2.907l2.878-6.948a5.371,5.371,0,1,0-9.924-4.111l-2.878,6.947A5.371,5.371,0,0,0,15.918,150.029Z" transform="translate(-9.217 -97.097)" fill="#fff"/><path d="M156,182.855a5.371,5.371,0,0,0,5.371,5.371h16.113V204.34a5.371,5.371,0,0,0,10.742,0V188.227H204.34a5.371,5.371,0,0,0,0-10.742H188.227V161.371a5.371,5.371,0,0,0-10.742,0v16.113H161.371A5.371,5.371,0,0,0,156,182.855Z" transform="translate(-114.105 -114.105)" fill="#fff"/></svg>