<?xml version="1.0" encoding="utf-8"?>
<!-- Generator: Adobe Illustrator 25.0.1, SVG Export Plug-In . SVG Version: 6.00 Build 0)  -->
<svg version="1.1" id="Layer_1" xmlns="http://www.w3.org/2000/svg" xmlns:xlink="http://www.w3.org/1999/xlink" x="0px" y="0px"
	 viewBox="0 0 190.5 162.8" style="enable-background:new 0 0 190.5 162.8;" xml:space="preserve">
<style type="text/css">
	.st0{fill-rule:evenodd;clip-rule:evenodd;fill:#FFFFFF;}
</style>
<g>
	<path class="st0" d="M85.4,62.9l0.1-0.8l0.2-0.9l0.2-0.9l0.2-0.9l0.3-0.9l0.3-0.9l0.3-1l0.3-0.9l0.4-0.9l0.4-0.9l0.4-0.9l0.5-0.9
		l0.5-0.9l0.5-0.8l0.5-0.8l0.5-0.8l0.5-0.7l0.5-0.7l0.5-0.6l0.5-0.5l0.5-0.5l0.5-0.4l0.5-0.3l0.5-0.2l0.5-0.2l0.5-0.1h0.5l0.5,0.1
		l0.5,0.2l0.4,0.3l0.5,0.4l0.4,0.5L98.7,47l0.3,0.9l-0.2,0.9l-0.1,0.9l-0.2,0.9l-0.2,0.9l-0.2,0.9L98,53.2L97.8,54l-0.2,0.8
		l-0.2,0.9l-0.2,0.8L97,57.4l-0.2,0.8L96.4,59l-0.3,0.8l-0.3,0.8l-0.3,0.8l-0.3,0.8L94.9,63l-0.3,0.8l-0.3,0.8L94,65.3L93.6,66
		l-0.4,0.7l-0.4,0.7l-0.4,0.7L92,68.5l-0.4,0.7l-0.4,0.6l-0.4,0.6L90.3,71L90,70.8l-0.3-0.3L89.3,70l-0.4-0.4L88.5,69l-0.4-0.5
		l-0.8-1.2L87,66.8l-0.3-0.6l-0.3-0.6L86,65l-0.2-0.5L85.6,64l-0.1-0.5L85.4,62.9z M46.7,67.5l0.2-1.2l0.3-1.2l0.4-1.3l0.5-1.3
		l0.5-1.2l0.6-1.2l0.6-1.1l0.7-1l0.7-0.9l0.8-0.8l0.8-0.6l0.8-0.4l0.7-0.2l0.7,0.1l0.6,0.3l0.6,0.6L56,57.2l-0.2,1.2l-0.2,1.2
		l-0.3,1.2L55,61.9L54.7,63l-0.3,1.1L54,65.2l-0.4,1.1l-0.4,1l-0.5,1l-0.5,1l-0.5,0.9L51,71.1L50.5,72l-0.6,0.8l-0.4-0.5l-0.4-0.7
		L48.5,71L48,70.2l-0.5-0.8l-0.4-0.8L46.9,68L46.7,67.5z M120.2,93.8V93l0.1-0.8l0.1-0.8l0.1-0.8l0.1-0.7l0.1-0.8l0.2-1.4L121,87
		l0.1-0.7l0.1-0.7l0.1-0.7l0.2-0.7l0.1-0.7l0.2-0.7l0.2-0.7l0.2-0.7l0.2-0.7l0.2-0.7l0.2-0.7l0.2-0.7l0.2-0.7l0.2-0.7l0.2-0.6
		l0.2-0.7l0.2-0.7l0.2-0.7l0.2-0.7l0.3-0.6l0.2-0.7l0.3-0.7l0.3-0.7l0.3,0.6l0.3,0.7l0.3,0.6l0.4,0.7l0.4,0.7l0.5,0.6l0.5,0.6
		l0.7,0.6l0.4-0.1l0.3-0.1l0.4-0.1l0.3-0.1l0.3-0.1l0.3-0.1l0.3-0.1L132,76l0.3-0.1l0.3-0.1l0.3-0.1l0.3-0.1l0.3-0.1l0.3-0.1
		l0.4-0.1l0.3-0.1l0.1-1l0.2-1l0.2-1l0.3-0.9l0.3-0.9l0.7-1.8l0.4-0.9l0.4-1l0.4-1l0.4-1.1l0.4-1.2l0.4-1.2l0.4-1.3l0.4-1.4l0.4-1.6
		l0.5,0.9l0.4,1l0.4,1l0.4,1l0.4,1l0.4,1l0.3,1l0.3,1.1l0.3,1.1l0.3,1.1l0.3,1.1l0.3,1.1l0.3,1.1l0.2,1.1l0.2,1.1l0.2,1.1l0.2,1.1
		l0.2,1.1l0.2,1.1l0.2,1.1l0.2,1.2l0.2,1.1l0.1,1.1l0.2,1.2l0.1,1.1l0.1,1.1l0.1,1.1l0.1,1.1l0.1,1.1l0.1,1.1l0.1,1.1l0.1,1.1
		l0.2,1.2l0.5,0.9l0.8,0.5l0.9,0.2l0.9-0.1l0.8-0.4l0.5-0.6l0.2-0.9l-0.1-1.3l-0.2-1.3l-0.3-2.5l-0.2-1.3l-0.2-1.3l-0.2-1.3
		l-0.2-1.3l-0.2-1.3l-0.2-1.3l-0.3-1.3l-0.2-1.3l-0.3-1.3l-0.3-1.3l-0.3-1.3l-0.3-1.2l-0.3-1.3l-0.3-1.2l-0.3-1.2l-0.4-1.2l-0.4-1.2
		l-0.4-1.2l-0.4-1.2l-0.4-1.2l-0.4-1.2l-0.4-1.2l-0.5-1.2l-1-2.3l-0.5-1.2l-0.5-1.1l-0.5-1.1v-1.3l0.1-1.3l0.1-1.4l0.1-1.4l0.1-1.4
		l0.2-1.4l0.2-1.4l0.2-1.4l0.2-1.4l0.2-1.4l0.2-1.3l0.2-1.3l0.2-1.2l0.2-1.1l0.3-1.1l0.2-1l0.1-0.3v-0.3V32v-0.7V31v-0.3v-0.2
		l-2.5,7.8l-0.6-0.7l0.6-2.1l1.1-7.3l-0.2,0.8l-0.2,0.8l-0.2,0.7l-0.2,0.8l-0.2,0.8l-0.2,0.8l-0.2,0.8l-0.2,0.8l-0.2,0.8l-0.2,0.8
		l-0.2,0.8l-0.2,0.8l-0.2,0.8l-0.2,0.8l-0.2,0.8l-0.1,0.8l-0.2,0.8l-0.2,0.8l-0.1,0.8L140,44l-0.1,0.8l-0.2,0.8l-0.1,0.8l-0.1,0.8
		l-0.2,0.8l-0.1,0.8l-0.1,0.8l-0.3,1.6l-0.2,0.8l-0.1,0.8l-0.1,0.8l-0.7-0.4l-0.7-0.3l-0.7-0.1h-0.7l-0.7,0.1l-0.7,0.2l-0.8,0.3
		l-0.8,0.4l-0.8,0.4l-0.8,0.5l-0.8,0.6l-0.8,0.6l-0.8,0.8l-0.9,0.8l-0.9,0.9L126,59l-0.3-0.8l-0.5-1.5L125,56l-0.2-0.7l-0.2-0.7
		l-0.2-0.7l-0.2-0.7l-0.2-0.7l-0.2-0.8l-0.2-0.8l-0.3-0.8l-0.2-0.9l-0.3-0.9l-0.3-1l-0.3-1.1l-0.5-0.5l-0.5-0.3l-0.6-0.1l-0.5,0.1
		l-0.5,0.2l-0.4,0.3l-0.3,0.4l-0.2,0.5l0.2,1.2l0.2,1.3l0.2,1.3l0.5,2.7l0.3,1.4L120,56l0.3,1.3l0.3,1.3l0.4,1.3l0.3,1.2l0.4,1.2
		l0.4,1.1l0.3,1l0.4,0.9l0.3,0.8l-0.4,0.9l-0.4,0.9l-0.4,0.9l-0.4,0.9l-0.8,1.8l-0.3,0.9l-0.4,0.9l-0.4,0.9l-0.3,0.9L119,76
		l-0.3,0.9l-0.7,1.7l-0.6,1.7l-0.2-1.2l-0.3-1.2l-0.2-1.2l-0.8-3.5l-0.3-1.2l-0.3-1.2l-0.3-1.2l-0.3-1.2l-0.3-1.2L114,66l-0.3-1.2
		l-0.3-1.2l-0.3-1.1l-0.4-1.2l-0.4-1.2l-0.4-1.1l-0.4-1.1l-0.4-1.2l-0.8-2.3l-0.4-1.1l-0.4-1.1l-0.4-1.1l-0.4-1.1l-0.5-1.1l-0.5-1.1
		l-0.4-1.1l-0.5-1.1l-0.5-1.1l-0.5-1.1v-2.7v-1v-1l0.1-1v-1l0.1-1l0.1-1.1l0.1-1.1l0.1-1.1l0.1-1.1l0.1-1.1l0.1-1.1l0.1-1.1l0.1-1.1
		l0.1-1.1l0.2-1.1l0.3-2.1l0.2-1l0.2-1l0.1-1l0.2-0.9l0.2-0.9l0.2-0.9l0.2-0.9l0.1-0.8l0.2-0.8l0.2-0.7l0.1-0.7l0.2-0.7l0.2-0.7
		l0.1-0.6v-0.5V10V9.6V9.4l0.1-0.3L106,20.3l-0.7-1.1l0.4-3.1l2.2-10.6l-0.3,1.1l-0.3,1.1L107,8.8l-0.3,1.1l-0.3,1.1l-0.6,2.3
		l-0.3,1.1l-0.3,1.1l-0.3,1.1l-0.3,1.1l-0.2,1.2l-0.3,1.1l-0.2,1.1l-0.2,1.2l-0.5,2.3l-0.2,1.2l-0.2,1.1l-0.2,1.2l-0.2,1.2l-0.2,1.1
		l-0.2,1.2l-0.2,1.2l-0.4,2.3l-0.2,1.2l-0.2,1.2l-0.2,1.2l-0.2,1.2L99.9,41l-0.2,1.2l-1.1-0.6l-1.1-0.4L96.4,41h-1.1l-1.1,0.1
		l-1.1,0.3L92,41.8l-1,0.6l-1.1,0.7L88.7,44l-1.2,0.9l-1.2,1L85.1,47l-1.3,1.2l-1.4,1.2L81,50.7l-0.4-1.2l-0.4-1.1l-0.3-1.1
		l-0.4-1.1l-0.3-1.1L78.9,44l-0.4-1l-0.3-1.1l-0.3-1.1l-0.3-1.2l-0.4-1.2l-0.4-1.3l-0.4-1.3L76,34.4l-0.4-1.5L75,31.3l-0.7-0.8
		l-0.8-0.4L72.7,30l-0.8,0.1l-0.8,0.3L70.5,31L70,31.7l-0.4,0.8l0.1,0.9l0.1,0.9l0.1,0.9l0.2,0.9l0.1,1l0.2,1l0.2,1l0.2,1l0.2,1
		l0.2,1l0.2,1l0.2,1l0.5,2l0.3,1l0.2,1l0.3,1l0.2,1l0.3,0.9l0.3,0.9l0.3,0.9l0.3,0.9l0.3,0.9l0.3,0.8l0.3,0.8l0.3,0.8l0.3,0.8
		l0.3,0.7l0.3,0.7l0.3,0.7l0.3,0.6l0.3,0.6l-0.6,1.3L76,63.7L75.5,65l-0.6,1.3l-0.5,1.3L73.8,69l-0.5,1.3l-0.5,1.3l-0.5,1.3
		l-0.5,1.3l-0.5,1.3l-0.5,1.3l-0.5,1.3l-0.5,1.3l-0.4,1.3L69,82l-0.2-0.9l-0.2-0.9l-0.2-0.9l-0.2-0.9L68,77.6l-0.2-0.9l-0.2-0.9
		l-0.2-0.9L67.2,74L67,73.1l-0.2-0.9l-0.2-0.9l-0.3-0.9l-0.5-1.8l-0.3-0.9l-0.3-0.9L64.9,66l-0.3-0.9l-0.3-0.9L64,63.3l-0.3-0.9
		l-0.3-0.9l-0.3-0.9L62.8,60l-0.3-0.9l-0.3-0.9l-0.4-0.8l-0.3-0.9L61,55.8L60.6,55l-0.4-0.8v-1.3l0.1-1.3l0.1-1.3l0.1-1.4l0.1-1.4
		l0.2-1.4l0.1-1.4L61,43l0.2-1.4l0.2-1.4l0.2-1.3l0.2-1.3l0.2-1.2l0.2-1.1l0.2-1l0.2-0.9l0.1-0.3l0.1-0.3v-0.3v-0.3v-0.3v-0.3v-0.3
		V31l-2.3,7.8L60,38.1l0.4-2.1l1.6-7.3l-0.3,0.8l-0.2,0.8L61.2,31L61,31.8l-0.2,0.8l-0.2,0.8L60.3,34l-0.2,0.8l-0.2,0.8l-0.2,0.8
		L59.4,37l-0.2,0.8L59,38.6l-0.2,0.8l-0.2,0.8L58.4,41l-0.2,0.8l-0.1,0.8l-0.2,0.8L58,44l-0.2,0.8l-0.1,0.8l-0.2,0.8l-0.1,0.8
		L57.3,48l-0.1,0.8L57,49.6l-0.1,0.8L56.6,51l-0.1,0.8l-0.1,0.8l-0.2,0.8L55.4,53l-0.7-0.3L54,52.6h-0.7l-0.7,0.1l-0.7,0.2l-0.7,0.3
		l-0.7,0.4L49.7,54l-0.8,0.5l-0.8,0.6l-0.8,0.6l-0.8,0.8l-0.9,0.8l-0.9,0.9L44,59l-0.3-0.8l-0.3-0.8l-0.3-0.8L42.8,56l-0.2-0.7
		l-0.3-0.7l-0.2-0.7l-0.2-0.7l-0.2-0.7l-0.2-0.8l-0.3-0.8L40.9,50l-0.3-0.9l-0.3-0.9l-0.3-1l-0.3-1.1l-0.5-0.5l-0.5-0.3l-0.5-0.1
		l-0.5,0.1l-0.5,0.2l-0.4,0.3l-0.3,0.4l-0.3,0.5l0.1,1.2l0.2,1.3l0.2,1.3l0.2,1.3l0.3,1.3l0.3,1.4l0.7,2.7l0.4,1.3l0.4,1.3l0.4,1.2
		l0.4,1.2l0.4,1.1l0.4,1l0.4,0.9l0.4,0.8L41,66.9l-0.4,0.8l-0.3,0.8l-0.4,0.9l-0.3,0.8L39.2,71l-0.3,0.8l-0.3,0.8l-0.3,0.8L38,74.2
		L37.7,75l-0.3,0.8l-0.3,0.8l-0.3,0.8l-0.3,0.8L35.8,80l-0.3,0.8l-0.2,0.9L35,82.5l-0.2,0.9l-0.2,0.9l-0.2,0.9l-0.2,0.9L34,86.8
		l-0.2,0.9l-0.1,0.9l-0.1,0.9l-0.1,0.9l-0.1,1l-0.1,1l-0.1,1l0.2,1.2l0.3,1l0.5,0.6l0.6,0.4l0.7,0.1l0.8-0.2l0.9-0.6l0.9-0.9v-0.8
		l0.1-0.8v-0.8l0.1-0.8l0.1-0.8l0.3-2.3l0.1-0.8l0.3-1.5l0.2-0.7l0.1-0.8l0.2-0.7l0.2-0.8l0.2-0.7l0.2-0.7l0.2-0.7l0.2-0.7l0.4-1.4
		l0.2-0.7l0.2-0.7l0.2-0.7l0.2-0.7l0.2-0.7l0.2-0.7l0.2-0.7l0.2-0.7l0.3-0.7l0.2-0.7l0.3-0.7l0.3,0.6l0.3,0.7l0.3,0.6l0.4,0.7
		l0.4,0.7l0.5,0.6l0.5,0.6l0.5,0.6l0.4-0.1l0.4-0.1l0.4-0.1l0.4-0.1l0.4-0.1L49,76l0.4-0.1L50,76l0.3-0.1l0.4-0.1l0.3-0.1l0.4-0.1
		l0.3-0.1l0.4-0.1l0.4-0.1l0.4-0.1l0.1-1l0.1-1l0.2-1l0.2-0.9l0.3-0.9l0.3-0.9l0.3-0.9l0.4-0.9l0.4-1l0.4-1l0.4-1.1l0.4-1.2l0.4-1.2
		l0.4-1.3l0.4-1.4l0.3-1.6l0.5,0.9l0.5,1l0.4,1l0.8,2l0.4,1l0.3,1l0.3,1.1l0.3,1.1l0.3,1.1l0.3,1.1l0.3,1.1l0.2,1.1l0.7,3.4l0.2,1.1
		l0.2,1.1l0.2,1.1l0.2,1.1l0.2,1.2l0.1,1.1l0.2,1.1l0.1,1.2l0.1,1.1l0.1,1.1l0.1,1.1l0.1,1.1l0.1,1.1l0.1,1.1l0.1,1.1l0.1,1.1v0.5
		v0.1v0.2l0.1,0.1L66,94l0.1,0.1L66,94.6l-0.1,0.5l-0.1,0.5l-0.1,0.5l-0.1,0.5l0,0.4l-0.1,0.5V98l-0.1,0.5V99v0.5v0.5v0.5v0.5v1.1
		l0.1,0.9l0.2,0.8l0.2,0.7l0.3,0.6l0.4,0.5L67,106l0.4,0.3l0.5,0.2l0.5,0.1h0.5l0.6-0.1l0.6-0.2l0.6-0.3l0.6-0.5l0.6-0.6l0.6-0.8
		l0.1-1.2l0.1-1.2l0.1-1.2l0.1-1.2l0.4-3.5l0.2-1.1l0.2-1.1l0.2-1.1l0.2-1.1l0.2-1.1l0.2-1.1l0.2-1.1l0.2-1.1l0.3-1.1l0.3-1.1
		l0.3-1.1l0.3-1.1l0.3-1.1l0.3-1l0.3-1.1l0.3-1l0.3-1l0.4-1l0.3-1l0.4-1l0.4-1l0.4-1l0.4-1l0.4-1l0.4-1l0.2,0.4l0.3,0.4l0.2,0.4
		l0.5,1l0.3,0.5l0.3,0.5l0.3,0.5l0.3,0.5l0.3,0.5l0.4,0.5l0.8,1l0.9,0.9L86,77l0.6-0.1l0.6-0.1l0.5-0.1l0.6-0.1l0.5-0.1l1.1-0.3
		l0.5-0.1l0.5-0.1l0.5-0.1l0.5-0.1l0.5-0.1l0.5-0.1l0.5-0.1l0.5-0.1l0.5-0.1l0.1-0.8l0.1-0.8l0.1-0.7l0.1-0.7l0.1-0.7l0.2-0.7
		l0.2-0.6l0.2-0.7l0.2-0.6l0.2-0.7l0.2-0.7l0.2-0.7l0.2-0.7l0.3-0.7l0.3-0.7l0.3-0.7l0.3-0.7l0.3-0.8l0.3-0.8l0.3-0.8l0.3-0.8
		l0.3-0.8l0.3-0.9l0.3-0.9l0.3-1l0.3-1l0.3-1l0.3-1.1l0.3-1.1l0.3-1.1l0.3-1.2l0.3-1.2l0.7,1.4l0.7,1.4l0.6,1.5l0.6,1.5l0.6,1.5
		l0.5,1.6l1,3.2l0.5,1.6l0.4,1.6l0.4,1.6l0.4,1.6l0.4,1.7l0.4,1.7l0.3,1.7l0.3,1.7l0.3,1.7l0.3,1.7l0.3,1.7l0.3,1.7l0.5,3.4l0.2,1.7
		l0.2,1.7l0.2,1.7l0.2,1.7l0.2,1.7l0.2,1.7l0.2,1.6l0.2,1.7l0.2,1.6l0.2,1.6v1l0.2,0.8l0.3,0.7l0.4,0.5l0.5,0.5l0.6,0.3l0.7,0.2
		l0.7,0.1h0.7l0.7-0.1l0.6-0.3l0.6-0.3l0.5-0.4l0.4-0.5l0.2-0.7l0.1-0.7l-0.1-0.5l-0.1-0.5l-0.1-0.6l-0.1-0.5l-0.1-0.5l-0.1-0.5
		l-0.1-0.5l-0.1-0.5l-0.1-0.5l-0.1-0.5l-0.1-0.5l-0.1-0.5l-0.1-0.5l-0.1-0.6l-0.1-0.5L120.2,93.8z M128.8,67.5l0.1-1.2l0.3-1.2
		l0.3-1.3l0.4-1.3l0.5-1.2l0.6-1.2l0.6-1.1l0.7-1l0.7-0.9l0.8-0.8l0.7-0.6l0.7-0.4l0.7-0.2l0.7,0.1l0.6,0.3l0.5,0.6l-0.1,1.2
		l-0.2,1.2l-0.2,1.2l-0.2,1.2l-0.3,1.1l-0.3,1.1l-0.3,1.1l-0.3,1.1l-0.4,1.1l-0.4,1l-0.4,1l-0.5,1l-0.5,0.9l-0.5,0.9l-0.6,0.9
		l-0.6,0.8l-0.4-0.5l-0.4-0.7l-0.5-0.7l-0.5-0.8l-0.5-0.8l-0.4-0.8L129,68L128.8,67.5z M48.2,31.8l0.9,0.2l0.9,0.4l0.8,0.4l0.6,0.6
		l0.5,0.7l0.3,0.7l0.2,0.8v0.8l-0.2,0.7l-0.3,0.6l-0.5,0.6l-0.6,0.4L50,39.1l-0.8,0.3l-0.9,0.2h-1l-0.9-0.2l-0.8-0.3l-0.8-0.4
		L44.1,38l-0.5-0.6l-0.3-0.7l-0.2-0.8v-0.8l0.2-0.7l0.3-0.7l0.5-0.6l0.6-0.5l0.8-0.4l0.8-0.3l0.9-0.1L48.2,31.8z M87.6,10.1l0.7,0.1
		l0.7,0.2l0.6,0.2l0.6,0.3l0.6,0.3l0.5,0.4l0.5,0.4l0.4,0.4l0.4,0.5l0.3,0.5l0.3,0.5l0.2,0.6l0.2,0.5l0.1,0.5v0.6v0.6l-0.1,0.5
		l-0.2,0.5l-0.2,0.5L93,18.7l-0.4,0.4l-0.4,0.4l-0.4,0.4l-0.5,0.3l-0.5,0.3l-0.6,0.3L89.5,21l-0.7,0.2l-0.7,0.1l-0.7,0.1h-0.7H86
		l-0.7-0.1l-0.6-0.2l-0.6-0.2l-0.6-0.3L83,20.3L82.4,20l-0.5-0.4l-0.4-0.4l-0.8-0.9l-0.3-0.5l-0.2-0.5L80,16.7l-0.1-0.5v-0.6L80,15
		l0.1-0.5l0.2-0.5l0.2-0.5l0.3-0.5l0.3-0.4l0.4-0.4l0.4-0.4l0.5-0.3l0.5-0.3l0.6-0.3l0.6-0.2l0.6-0.2l0.7-0.1l0.7-0.1l0.8-0.1
		L87.6,10.1L87.6,10.1z M130.2,31.8l0.9,0.2l0.9,0.4l0.8,0.4l0.7,0.6l0.5,0.7l0.4,0.7l0.2,0.8v0.8l-0.2,0.7l-0.4,0.6l-0.5,0.6
		l-0.7,0.4l-0.8,0.4l-0.9,0.3l-0.9,0.2h-1l-0.9-0.2l-0.9-0.3l-0.8-0.4L126,38l-0.5-0.6l-0.3-0.7l-0.2-0.8v-0.8l0.2-0.7l0.4-0.7
		l0.5-0.6l0.6-0.5l0.8-0.4l0.8-0.3l0.9-0.1L130.2,31.8z"/>
	<path class="st0" d="M6.5,118.9c0.1,0,0.2,0,0.2-0.1s0.1-0.2,0.1-0.4h0.1v3.2H6.8c0-0.2,0-0.4-0.1-0.4c0-0.1-0.1-0.1-0.2-0.1H2
		v-0.3c0.1-0.1,0.2-0.1,0.2-0.2s0-0.2,0-0.4v-9.8c0-0.2,0-0.4,0-0.5s-0.1-0.2-0.2-0.2v-0.3h4.4c0.1,0,0.2,0,0.2-0.1s0.1-0.2,0.1-0.4
		h0.1v3.2H6.7c0-0.2,0-0.4-0.1-0.4c0-0.1-0.1-0.1-0.2-0.1H3.3v2.6h2c0.1,0,0.2,0,0.2-0.1s0.1-0.2,0.1-0.4h0.1v3H5.6
		c0-0.2,0-0.4-0.1-0.4c0-0.1-0.1-0.1-0.2-0.1h-2v3h3.2V118.9z M8.2,120.1l0.5-2.8l0.2,0.2c0,0,0,0,0,0.1s0,0.1,0,0.2
		c0,0.3,0.2,0.6,0.6,1c0.4,0.3,0.8,0.5,1.2,0.5s0.7-0.2,0.9-0.5s0.4-0.7,0.4-1.1c0-0.7-0.4-1.1-1.2-1.2c-0.3,0-0.5-0.1-0.7-0.1
		c-0.6-0.1-1-0.5-1.3-1s-0.4-1.3-0.4-2.2c0-1.2,0.2-2.1,0.6-2.8c0.4-0.7,1-1.1,1.7-1.1c0.6,0,1.2,0.3,1.9,1.1
		c0.2,0.2,0.3,0.3,0.3,0.3s0,0,0.1,0c0,0,0.1-0.1,0.1-0.2l0.1,0.1l-0.6,2.8l-0.2-0.2l0,0c0,0,0,0,0-0.1c0-0.3-0.2-0.7-0.6-1.1
		c-0.4-0.4-0.8-0.6-1.2-0.6s-0.7,0.1-0.9,0.4s-0.3,0.6-0.3,1c0,0.6,0.4,1,1.1,1.1c0.4,0.1,0.7,0.1,0.9,0.2c0.6,0.2,1.1,0.6,1.4,1.2
		c0.3,0.6,0.5,1.4,0.5,2.3c0,1.1-0.2,2-0.7,2.8c-0.5,0.7-1.1,1.1-1.8,1.1s-1.3-0.3-2-1c-0.1-0.1-0.2-0.2-0.2-0.2H8.5
		c0,0,0,0.1,0,0.2L8.2,120.1z M19,117l0.1-0.2l0.7,2.5l-0.1,0.2c0-0.1-0.1-0.1-0.1-0.1s0,0-0.1,0c0,0-0.1,0.1-0.3,0.3
		c-0.8,1-1.5,1.6-2.2,1.6c-0.8,0-1.5-0.6-2-1.7c-0.5-1.2-0.8-2.6-0.8-4.3c0-1.8,0.3-3.2,0.8-4.4c0.6-1.1,1.3-1.7,2.2-1.7
		c0.5,0,0.9,0.2,1.4,0.5s0.7,0.5,0.7,0.5h0.1h0.1l0.1,0.2l-0.7,2.6l-0.1-0.2l0,0c0,0,0,0,0-0.1c0-0.3-0.2-0.7-0.5-1
		c-0.4-0.3-0.7-0.5-1.1-0.5c-0.6,0-1,0.4-1.4,1.1c-0.4,0.8-0.5,1.7-0.5,2.8c0,1.2,0.2,2.2,0.5,2.9c0.4,0.7,0.8,1.1,1.4,1.1
		c0.4,0,0.8-0.2,1.2-0.6c0.4-0.4,0.6-0.8,0.6-1c0-0.1,0-0.1,0-0.2C19.1,117.2,19,117.1,19,117L19,117z M23.5,109.2
		c0.8,0,1.5,0.6,2.1,1.7c0.5,1.1,0.8,2.6,0.8,4.3c0,1.7-0.3,3.2-0.8,4.3c-0.5,1.1-1.2,1.7-2.1,1.7c-0.8,0-1.5-0.6-2-1.7
		c-0.5-1.2-0.8-2.6-0.8-4.3c0-1.7,0.3-3.2,0.8-4.3C22,109.7,22.7,109.2,23.5,109.2L23.5,109.2z M21.7,115.1c0,1.2,0.2,2.1,0.5,2.9
		c0.3,0.7,0.8,1.1,1.3,1.1s1-0.4,1.3-1.1s0.5-1.7,0.5-2.9c0-1.2-0.2-2.1-0.5-2.9c-0.3-0.7-0.8-1.1-1.3-1.1s-1,0.4-1.3,1.1
		C21.9,113,21.7,113.9,21.7,115.1L21.7,115.1z M32.1,118.9c0.1,0,0.2,0,0.2-0.1s0.1-0.2,0.1-0.4h0.1v3.2h-0.1c0-0.2,0-0.4-0.1-0.4
		c0-0.1-0.1-0.1-0.2-0.1h-4.4v-0.3c0.1-0.1,0.2-0.1,0.2-0.2s0-0.2,0-0.4v-9.8c0-0.2,0-0.4,0-0.5s-0.1-0.2-0.2-0.2v-0.3h1.6v0.3
		c-0.1,0.1-0.2,0.1-0.2,0.2s0,0.2,0,0.5v8.6L32.1,118.9L32.1,118.9z M33.3,121v-0.3c0.2-0.1,0.3-0.4,0.4-1c0-0.1,0-0.1,0-0.1
		l1.8-9.1c0-0.1,0-0.2,0-0.2v-0.1c0-0.1,0-0.2-0.1-0.3c0-0.1-0.1-0.2-0.2-0.2v-0.3h1.7v0.3c-0.1,0.1-0.2,0.1-0.2,0.2s0,0.2,0,0.3
		c0,0.1,0,0.1,0,0.2s0,0.1,0,0.2l1.9,9.1c0.1,0.4,0.2,0.7,0.2,0.8c0.1,0.2,0.1,0.3,0.2,0.3v0.3h-1.8v-0.3c0.1-0.1,0.1-0.1,0.2-0.2
		c0-0.1,0.1-0.2,0.1-0.3c0,0,0-0.1,0-0.2s0-0.1,0-0.2l-0.4-1.8H35l-0.3,1.8c0,0.1,0,0.2,0,0.2c0,0.1,0,0.1,0,0.2s0,0.2,0.1,0.3
		c0,0.1,0.1,0.1,0.2,0.2v0.3h-1.7V121z M36.2,112.3l-0.8,4.1H37L36.2,112.3z M44.3,113.1v7c0,0.2,0,0.4,0,0.5s0.1,0.1,0.2,0.2v0.3
		h-1.4v-0.3c0.1-0.1,0.2-0.1,0.2-0.2s0-0.2,0-0.4v-9.8c0-0.2,0-0.4,0-0.5s-0.1-0.2-0.2-0.2v-0.3h1.8v0.3l-0.1,0.1c0,0.1,0,0.1,0,0.2
		s0,0.2,0,0.2c0,0.1,0.1,0.2,0.1,0.3l2.7,6.4v-6.7c0-0.2,0-0.4,0-0.5s-0.1-0.1-0.2-0.2v-0.3h1.4v0.3c-0.1,0.1-0.2,0.1-0.2,0.2
		s0,0.2,0,0.4v9.8c0,0.2,0,0.4,0,0.5s0.1,0.1,0.2,0.2v0.3h-1.6v-0.3c0.1,0,0.1-0.1,0.1-0.1c0-0.1,0-0.1,0-0.2s0-0.2,0-0.2
		c0-0.1-0.1-0.2-0.1-0.3L44.3,113.1z M49.6,121v-0.3c0.2-0.1,0.3-0.4,0.4-1c0-0.1,0-0.1,0-0.1l1.8-9.1c0-0.1,0-0.2,0-0.2v-0.1
		c0-0.1,0-0.2-0.1-0.3c0-0.1-0.1-0.2-0.2-0.2v-0.3h1.7v0.3c-0.1,0.1-0.2,0.1-0.2,0.2s0,0.2,0,0.3c0,0.1,0,0.1,0,0.2s0,0.1,0,0.2
		l1.9,9.1c0.1,0.4,0.2,0.7,0.2,0.8c0.1,0.2,0.1,0.3,0.2,0.3v0.3h-1.8v-0.3c0.1-0.1,0.1-0.1,0.2-0.2c0-0.1,0.1-0.2,0.1-0.3
		c0,0,0-0.1,0-0.2s0-0.1,0-0.2l-0.4-1.8h-2.3l-0.3,1.8c0,0.1,0,0.2,0,0.2c0,0.1,0,0.1,0,0.2s0,0.2,0.1,0.3c0,0.1,0.1,0.1,0.2,0.2
		v0.3h-1.5V121z M52.5,112.3l-0.8,4.1h1.6L52.5,112.3z M60.9,117l0.1-0.2l0.7,2.5l-0.1,0.2c0-0.1-0.1-0.1-0.1-0.1s0,0-0.1,0
		c0,0-0.1,0.1-0.3,0.3c-0.8,1-1.5,1.6-2.2,1.6c-0.8,0-1.5-0.6-2-1.7c-0.5-1.2-0.8-2.6-0.8-4.3c0-1.8,0.3-3.2,0.8-4.4
		c0.6-1.1,1.3-1.7,2.2-1.7c0.5,0,0.9,0.2,1.4,0.5s0.7,0.5,0.7,0.5h0.1h0.1l0.1,0.2l-0.7,2.6l-0.1-0.2l0,0c0,0,0,0,0-0.1
		c0-0.3-0.2-0.7-0.5-1c-0.4-0.3-0.7-0.5-1.1-0.5c-0.6,0-1,0.4-1.4,1.1c-0.4,0.8-0.5,1.7-0.5,2.8c0,1.2,0.2,2.2,0.5,2.9
		c0.4,0.7,0.8,1.1,1.4,1.1c0.4,0,0.8-0.2,1.2-0.6s0.6-0.8,0.6-1c0-0.1,0-0.1,0-0.2C60.9,117.2,60.9,117.1,60.9,117L60.9,117z
		 M64.2,120.1c0,0.2,0,0.4,0,0.5s0.1,0.1,0.2,0.2v0.3h-1.6v-0.3c0.1-0.1,0.2-0.1,0.2-0.2s0-0.2,0-0.4v-9.8c0-0.2,0-0.4,0-0.5
		s-0.1-0.1-0.2-0.2v-0.3h1.6v0.3c-0.1,0-0.2,0.1-0.2,0.2s0,0.2,0,0.5V120.1z M68.6,109.2c0.8,0,1.5,0.6,2.1,1.7
		c0.5,1.1,0.8,2.6,0.8,4.3c0,1.7-0.3,3.2-0.8,4.3c-0.5,1.1-1.2,1.7-2.1,1.7c-0.8,0-1.5-0.6-2-1.7c-0.5-1.2-0.8-2.6-0.8-4.3
		c0-1.7,0.3-3.2,0.8-4.3C67,109.7,67.7,109.2,68.6,109.2L68.6,109.2z M66.8,115.1c0,1.2,0.2,2.1,0.5,2.9c0.3,0.7,0.8,1.1,1.3,1.1
		s1-0.4,1.3-1.1s0.5-1.7,0.5-2.9c0-1.2-0.2-2.1-0.5-2.9c-0.3-0.7-0.8-1.1-1.3-1.1s-1,0.4-1.3,1.1C66.9,113,66.8,113.9,66.8,115.1
		L66.8,115.1z M73.9,113.1v7c0,0.2,0,0.4,0,0.5s0.1,0.1,0.2,0.2v0.3h-1.4v-0.3c0.1-0.1,0.2-0.1,0.2-0.2s0-0.2,0-0.4v-9.8
		c0-0.2,0-0.4,0-0.5s-0.1-0.2-0.2-0.2v-0.3h1.8v0.3l-0.1,0.1c0,0.1,0,0.1,0,0.2s0,0.2,0,0.2c0,0.1,0.1,0.2,0.1,0.3l2.7,6.4v-6.7
		c0-0.2,0-0.4,0-0.5s-0.1-0.1-0.2-0.2v-0.3h1.4v0.3c-0.1,0.1-0.2,0.1-0.2,0.2s0,0.2,0,0.4v9.8c0,0.2,0,0.4,0,0.5s0.1,0.1,0.2,0.2
		v0.3h-1.6v-0.3c0.1,0,0.1-0.1,0.1-0.1c0-0.1,0-0.1,0-0.2s0-0.2,0-0.2c0-0.1-0.1-0.2-0.1-0.3L73.9,113.1z M79.2,121v-0.3
		c0.2-0.1,0.3-0.4,0.4-1c0-0.1,0-0.1,0-0.1l1.8-9.1c0-0.1,0-0.2,0-0.2v-0.1c0-0.1,0-0.2-0.1-0.3c0-0.1-0.1-0.2-0.2-0.2v-0.3H83v0.3
		c-0.1,0.1-0.2,0.1-0.2,0.2s0,0.2,0,0.3c0,0.1,0,0.1,0,0.2s0,0.1,0,0.2l1.9,9.1c0.1,0.4,0.2,0.7,0.2,0.8c0.1,0.2,0.1,0.3,0.2,0.3
		v0.3h-1.8v-0.3c0.1-0.1,0.1-0.1,0.2-0.2c0-0.1,0.1-0.2,0.1-0.3c0,0,0-0.1,0-0.2s0-0.1,0-0.2l-0.4-1.8h-2.3l-0.3,1.8
		c0,0.1,0,0.2,0,0.2c0,0.1,0,0.1,0,0.2s0,0.2,0.1,0.3c0,0.1,0.1,0.1,0.2,0.2v0.3h-1.7V121z M82.1,112.3l-0.8,4.1h1.6L82.1,112.3z
		 M90.5,118.9c0.1,0,0.2,0,0.2-0.1s0.1-0.2,0.1-0.4h0.1v3.2h-0.1c0-0.2,0-0.4-0.1-0.4c0-0.1-0.1-0.1-0.2-0.1H86v-0.3
		c0.1-0.1,0.2-0.1,0.2-0.2s0-0.2,0-0.4v-9.8c0-0.2,0-0.4,0-0.5s-0.1-0.2-0.2-0.2v-0.3h1.6v0.3c-0.1,0.1-0.2,0.1-0.2,0.2s0,0.2,0,0.5
		v8.6L90.5,118.9L90.5,118.9z M96.5,111.3v7.8h1.3c0.6,0,1-0.3,1.3-1s0.4-1.6,0.4-2.9s-0.1-2.2-0.4-2.9c-0.3-0.7-0.7-1-1.3-1H96.5z
		 M97.6,109.4c0.6,0,1.1,0.1,1.4,0.3c0.3,0.2,0.6,0.5,0.9,1s0.5,1.1,0.6,1.9s0.2,1.6,0.2,2.6s-0.1,1.8-0.2,2.6
		c-0.1,0.8-0.3,1.4-0.6,1.9c-0.2,0.5-0.5,0.8-0.9,1c-0.3,0.2-0.8,0.3-1.4,0.3h-2.4v-0.3c0.1-0.1,0.2-0.1,0.2-0.2s0-0.2,0-0.4v-9.8
		c0-0.2,0-0.4,0-0.5s-0.1-0.2-0.2-0.2v-0.3L97.6,109.4L97.6,109.4z M106.4,118.9c0.1,0,0.2,0,0.2-0.1s0.1-0.2,0.1-0.4h0.1v3.2h-0.1
		c0-0.2-0.1-0.4-0.1-0.4c0-0.1-0.1-0.1-0.2-0.1h-4.5v-0.3c0.1-0.1,0.2-0.1,0.2-0.2s0-0.2,0-0.4v-9.8c0-0.2,0-0.4,0-0.5
		s-0.1-0.2-0.2-0.2v-0.3h4.4c0.1,0,0.2,0,0.2-0.1s0.1-0.2,0.1-0.4h0.1v3.2h-0.1c0-0.2,0-0.4-0.1-0.4c0-0.1-0.1-0.1-0.2-0.1h-3.2v2.6
		h2c0.1,0,0.2,0,0.2-0.1s0.1-0.2,0.1-0.4h0.1v3h-0.1c0-0.2,0-0.4-0.1-0.4c0-0.1-0.1-0.1-0.2-0.1h-2v3h3.3V118.9z M111.1,120.1
		l0.5-2.8l0.2,0.2c0,0,0,0,0,0.1s0,0.1,0,0.2c0,0.3,0.2,0.6,0.6,1c0.4,0.3,0.8,0.5,1.2,0.5c0.4,0,0.7-0.2,0.9-0.5
		c0.2-0.3,0.4-0.7,0.4-1.1c0-0.7-0.4-1.1-1.2-1.2c-0.3,0-0.5-0.1-0.7-0.1c-0.6-0.1-1-0.5-1.3-1s-0.4-1.3-0.4-2.2
		c0-1.2,0.2-2.1,0.6-2.8c0.4-0.7,1-1.1,1.7-1.1c0.6,0,1.2,0.3,1.9,1.1c0.2,0.2,0.3,0.3,0.3,0.3s0,0,0.1,0c0,0,0.1-0.1,0.1-0.2
		l0.1,0.1l-0.6,2.8l-0.2-0.2l0,0c0,0,0,0,0-0.1c0-0.3-0.2-0.7-0.6-1.1s-0.8-0.6-1.2-0.6c-0.4,0-0.7,0.1-0.9,0.4
		c-0.2,0.3-0.3,0.6-0.3,1c0,0.6,0.4,1,1.1,1.1c0.4,0.1,0.7,0.1,0.9,0.2c0.6,0.2,1.1,0.6,1.4,1.2s0.5,1.4,0.5,2.3
		c0,1.1-0.2,2-0.7,2.8c-0.5,0.7-1.1,1.1-1.8,1.1c-0.7,0-1.4-0.3-2-1c-0.1-0.1-0.2-0.2-0.2-0.2h-0.1c0,0,0,0.1,0,0.2L111.1,120.1z
		 M116.7,121v-0.3c0.2-0.1,0.3-0.4,0.4-1c0-0.1,0-0.1,0-0.1l1.8-9.1c0-0.1,0-0.2,0-0.2v-0.1c0-0.1,0-0.2-0.1-0.3
		c0-0.1-0.1-0.2-0.2-0.2v-0.3h1.7v0.3c-0.1,0.1-0.2,0.1-0.2,0.2s0,0.2,0,0.3c0,0.1,0,0.1,0,0.2s0,0.1,0,0.2l1.9,9.1
		c0.1,0.4,0.2,0.7,0.2,0.8c0.1,0.2,0.1,0.3,0.2,0.3v0.3h-1.8v-0.3c0.1-0.1,0.1-0.1,0.2-0.2c0-0.1,0.1-0.2,0.1-0.3c0,0,0-0.1,0-0.2
		s0-0.1,0-0.2l-0.4-1.8h-2.3l-0.3,1.8c0,0.1,0,0.2,0,0.2c0,0.1,0,0.1,0,0.2s0,0.2,0.1,0.3c0,0.1,0.1,0.1,0.2,0.2v0.3h-1.5V121z
		 M119.5,112.3l-0.8,4.1h1.6L119.5,112.3z M124.8,116.4c0,1.1,0.1,1.8,0.3,2.2c0.2,0.4,0.6,0.6,1.1,0.6s0.9-0.2,1.1-0.7
		s0.3-1.2,0.3-2.2v-6.1c0-0.2,0-0.4,0-0.5s-0.1-0.1-0.2-0.2v-0.3h1.6v0.3c-0.1,0.1-0.2,0.1-0.2,0.2s0,0.2,0,0.5v6.3
		c0,1.7-0.2,2.9-0.6,3.6c-0.4,0.7-1,1.1-1.9,1.1s-1.5-0.4-1.9-1.1s-0.6-1.9-0.6-3.6v-6.3c0-0.2,0-0.4,0-0.5s-0.1-0.1-0.2-0.2v-0.3
		h1.5v0.3c-0.1,0-0.1,0.1-0.2,0.2c0,0.1,0,0.2,0,0.5v6.2H124.8z M125.4,108l1.3-3.3c0.1-0.2,0.2-0.4,0.2-0.5
		c0.1-0.1,0.2-0.2,0.2-0.2c0.1,0,0.2,0.1,0.2,0.2c0.1,0.2,0.1,0.4,0.1,0.6s0,0.4-0.1,0.5c-0.1,0.2-0.2,0.3-0.3,0.6l-1.4,2h-0.2V108z
		 M131.9,111.3v7.8h1.3c0.6,0,1-0.3,1.3-1s0.4-1.6,0.4-2.9s-0.1-2.2-0.4-2.9c-0.3-0.7-0.7-1-1.3-1H131.9z M133.1,109.4
		c0.6,0,1.1,0.1,1.4,0.3c0.3,0.2,0.6,0.5,0.9,1c0.3,0.5,0.5,1.1,0.6,1.9s0.2,1.6,0.2,2.6s-0.1,1.8-0.2,2.6c-0.1,0.8-0.3,1.4-0.6,1.9
		c-0.2,0.5-0.5,0.8-0.9,1c-0.3,0.2-0.8,0.3-1.4,0.3h-2.4v-0.3c0.1-0.1,0.2-0.1,0.2-0.2s0-0.2,0-0.4v-9.8c0-0.2,0-0.4,0-0.5
		s-0.1-0.2-0.2-0.2v-0.3L133.1,109.4L133.1,109.4z M141.9,118.9c0.1,0,0.2,0,0.2-0.1s0.1-0.2,0.1-0.4h0.1v3.2h-0.1
		c0-0.2-0.1-0.4-0.1-0.4c0-0.1-0.1-0.1-0.2-0.1h-4.5v-0.3c0.1-0.1,0.2-0.1,0.2-0.2s0-0.2,0-0.4v-9.8c0-0.2,0-0.4,0-0.5
		s-0.1-0.2-0.2-0.2v-0.3h4.4c0.1,0,0.2,0,0.2-0.1s0.1-0.2,0.1-0.4h0.1v3.2h-0.1c0-0.2,0-0.4-0.1-0.4c0-0.1-0.1-0.1-0.2-0.1h-3.2v2.6
		h2c0.1,0,0.2,0,0.2-0.1s0.1-0.2,0.1-0.4h0.1v3l0,0c0-0.2,0-0.4-0.1-0.4c0-0.1-0.1-0.1-0.2-0.1h-2v3h3.2V118.9z M146.8,121v-0.3
		c0.1,0,0.2-0.1,0.2-0.2s0-0.2,0-0.4v-9.8c0-0.2,0-0.3,0-0.4s-0.1-0.2-0.2-0.2v-0.3h3c0.6,0,1.1,0.3,1.5,0.9s0.5,1.4,0.5,2.5
		s-0.2,1.9-0.5,2.6c-0.3,0.6-0.8,0.9-1.4,0.9H148v3.8c0,0.2,0,0.4,0,0.4c0,0.1,0.1,0.1,0.2,0.2v0.3H146.8z M149.6,111.3h-1.4v3h1.5
		c0.4,0,0.8-0.1,1-0.4c0.2-0.2,0.3-0.6,0.3-1.1s-0.1-0.9-0.3-1.1C150.4,111.4,150,111.3,149.6,111.3L149.6,111.3z M154.6,116.4
		c0,1.1,0.1,1.8,0.3,2.2c0.2,0.4,0.6,0.6,1.1,0.6s0.9-0.2,1.1-0.7c0.2-0.5,0.3-1.2,0.3-2.2v-6.1c0-0.2,0-0.4,0-0.5s-0.1-0.1-0.2-0.2
		v-0.3h1.6v0.3c-0.1,0.1-0.2,0.1-0.2,0.2s0,0.2,0,0.5v6.3c0,1.7-0.2,2.9-0.6,3.6c-0.4,0.7-1,1.1-1.9,1.1s-1.5-0.4-1.9-1.1
		s-0.6-1.9-0.6-3.6v-6.3c0-0.2,0-0.4,0-0.5s-0.1-0.1-0.2-0.2v-0.3h1.6v0.3c-0.1,0-0.1,0.1-0.2,0.2c0,0.1,0,0.2,0,0.5v6.2H154.6z
		 M155.2,108l1.3-3.3c0.1-0.2,0.2-0.4,0.2-0.5c0.1-0.1,0.2-0.2,0.2-0.2c0.1,0,0.2,0.1,0.2,0.2c0.1,0.2,0.1,0.4,0.1,0.6
		s0,0.4-0.1,0.5c-0.1,0.2-0.2,0.3-0.3,0.6l-1.4,2h-0.2V108z M160.5,121v-0.3c0.1-0.1,0.2-0.1,0.2-0.2s0-0.2,0-0.4v-9.8
		c0-0.2,0-0.4,0-0.5s-0.1-0.2-0.2-0.2v-0.3h3.3c0.6,0,1,0.3,1.3,0.8s0.5,1.3,0.5,2.2c0,0.5-0.1,1-0.2,1.4c-0.1,0.4-0.3,0.7-0.5,1
		c0.3,0.3,0.5,0.7,0.6,1.2s0.2,1,0.2,1.7c0,1.1-0.2,1.9-0.5,2.5c-0.4,0.6-0.9,0.9-1.5,0.9C163.7,121,160.5,121,160.5,121z
		 M163.4,115.9h-1.6v3.2h1.6c0.5,0,0.8-0.1,1-0.4c0.2-0.2,0.3-0.6,0.3-1.2s-0.1-1-0.3-1.2C164.2,116,163.8,115.9,163.4,115.9
		L163.4,115.9z M163.5,111.3h-1.7v2.5h1.9c0.3,0,0.5-0.1,0.7-0.3c0.1-0.2,0.2-0.5,0.2-1s-0.1-0.8-0.2-1
		C164.2,111.4,163.9,111.3,163.5,111.3L163.5,111.3z M171.6,118.9c0.1,0,0.2,0,0.2-0.1s0.1-0.2,0.1-0.4h0.1v3.2h-0.1
		c0-0.2,0-0.4-0.1-0.4c0-0.1-0.1-0.1-0.2-0.1h-4.4v-0.3c0.1-0.1,0.2-0.1,0.2-0.2s0-0.2,0-0.4v-9.8c0-0.2,0-0.4,0-0.5
		s-0.1-0.2-0.2-0.2v-0.3h1.6v0.3c-0.1,0.1-0.2,0.1-0.2,0.2s0,0.2,0,0.5v8.6L171.6,118.9L171.6,118.9z M174.6,120.1
		c0,0.2,0,0.4,0,0.5s0.1,0.1,0.2,0.2v0.3h-1.5v-0.3c0.1-0.1,0.2-0.1,0.2-0.2s0-0.2,0-0.4v-9.8c0-0.2,0-0.4,0-0.5s-0.1-0.1-0.2-0.2
		v-0.3h1.5v0.3c-0.1,0-0.1,0.1-0.2,0.2c0,0.1,0,0.2,0,0.5V120.1z"/>
	<path class="st0" d="M181,117l0.1-0.2l0.7,2.5l-0.1,0.2c0-0.1-0.1-0.1-0.1-0.1s0,0-0.1,0c0,0-0.1,0.1-0.3,0.3
		c-0.8,1-1.5,1.6-2.2,1.6c-0.8,0-1.5-0.6-2-1.7c-0.5-1.2-0.8-2.6-0.8-4.3c0-1.8,0.3-3.2,0.8-4.4c0.6-1.1,1.3-1.7,2.2-1.7
		c0.5,0,0.9,0.2,1.4,0.5s0.7,0.5,0.7,0.5h0.1h0.1l0.1,0.2l-0.7,2.6l-0.1-0.2l0,0c0,0,0,0,0-0.1c0-0.3-0.2-0.7-0.5-1
		c-0.4-0.3-0.7-0.5-1.1-0.5c-0.6,0-1,0.4-1.4,1.1c-0.4,0.8-0.5,1.7-0.5,2.8c0,1.2,0.2,2.2,0.5,2.9c0.4,0.7,0.8,1.1,1.4,1.1
		c0.4,0,0.8-0.2,1.2-0.6s0.6-0.8,0.6-1c0-0.1,0-0.1,0-0.2C181,117.2,181,117.1,181,117L181,117z M182.6,121v-0.3
		c0.2-0.1,0.3-0.4,0.4-1c0-0.1,0-0.1,0-0.1l1.8-9.1c0-0.1,0-0.2,0-0.2v-0.1c0-0.1,0-0.2-0.1-0.3c0-0.1-0.1-0.2-0.2-0.2v-0.3h1.7v0.3
		c-0.1,0.1-0.2,0.1-0.2,0.2s0,0.2,0,0.3c0,0.1,0,0.1,0,0.2s0,0.1,0,0.2l1.9,9.1c0.1,0.4,0.2,0.7,0.2,0.8c0.1,0.2,0.1,0.3,0.2,0.3
		v0.3h-1.8v-0.3c0.1-0.1,0.1-0.1,0.2-0.2c0-0.1,0.1-0.2,0.1-0.3c0,0,0-0.1,0-0.2s0-0.1,0-0.2l-0.4-1.8h-2.3l-0.3,1.8
		c0,0.1,0,0.2,0,0.2c0,0.1,0,0.1,0,0.2s0,0.2,0.1,0.3c0,0.1,0.1,0.1,0.2,0.2v0.3h-1.5V121z M185.4,112.3l-0.8,4.1h1.6L185.4,112.3z"
		/>
	<path class="st0" d="M82.1,154.5c0.2,0,0.3,0,0.4-0.1s0.1-0.2,0.2-0.5h0.2v3.4h-0.2c0-0.2-0.1-0.4-0.2-0.5s-0.2-0.1-0.4-0.1H73
		v-0.3c0.2-0.1,0.3-0.1,0.4-0.2c0.1-0.1,0.1-0.2,0.1-0.5v-10.5c0-0.2,0-0.4-0.1-0.5s-0.2-0.2-0.4-0.2v-0.3h9c0.2,0,0.3,0,0.4-0.1
		s0.1-0.2,0.2-0.5h0.3v3.4h-0.3c0-0.2-0.1-0.4-0.2-0.5s-0.2-0.1-0.3-0.1h-6.4v2.7h4.1c0.2,0,0.3,0,0.4-0.1s0.1-0.2,0.2-0.5h0.2v3.2
		h-0.2c0-0.2-0.1-0.4-0.2-0.5s-0.2-0.1-0.4-0.1h-4.1v3.3h6.4V154.5z M88.5,148.3v7.5c0,0.2,0,0.4,0.1,0.5s0.2,0.1,0.4,0.2v0.3h-2.9
		v-0.3c0.2-0.1,0.3-0.1,0.4-0.2c0.1-0.1,0.1-0.2,0.1-0.5v-10.5c0-0.2,0-0.4-0.1-0.5s-0.2-0.2-0.4-0.2v-0.3h3.6v0.3
		c-0.1,0-0.2,0.1-0.2,0.1c-0.1,0.1-0.1,0.1-0.1,0.2c0,0.1,0,0.2,0.1,0.3c0,0.1,0.1,0.2,0.2,0.3l5.5,6.9v-7.1c0-0.2,0-0.4-0.1-0.5
		s-0.2-0.2-0.4-0.2v-0.3h2.9v0.3c-0.2,0.1-0.3,0.1-0.4,0.2c-0.1,0.1-0.1,0.2-0.1,0.5v10.5c0,0.2,0,0.4,0.1,0.5s0.2,0.2,0.4,0.2v0.3
		h-3.3v-0.3c0.1,0,0.2-0.1,0.2-0.1c0.1-0.1,0.1-0.1,0.1-0.2c0-0.1,0-0.2-0.1-0.3c0-0.1-0.1-0.2-0.2-0.3L88.5,148.3z M100.5,155.8
		l1.1-3l0.3,0.2c0,0,0,0,0,0.1s0,0.1,0,0.2c0,0.3,0.4,0.6,1.2,1c0.8,0.4,1.7,0.6,2.5,0.6s1.4-0.2,1.9-0.5s0.8-0.7,0.8-1.2
		c0-0.8-0.8-1.2-2.5-1.3c-0.6,0-1.1-0.1-1.5-0.1c-1.2-0.1-2.1-0.5-2.7-1.1s-0.9-1.4-0.9-2.4c0-1.2,0.4-2.2,1.3-3s2-1.1,3.4-1.1
		c1.2,0,2.4,0.4,3.8,1.1c0.3,0.2,0.6,0.3,0.6,0.3h0.1c0,0,0.1-0.1,0.2-0.2l0.2,0.1l-1.2,3l-0.3-0.2c0,0,0,0,0-0.1c0,0,0,0,0-0.1
		c0-0.4-0.4-0.8-1.1-1.2c-0.8-0.4-1.6-0.6-2.4-0.6c-0.7,0-1.3,0.1-1.8,0.4c-0.5,0.3-0.7,0.7-0.7,1.1c0,0.7,0.7,1.1,2.2,1.2
		c0.8,0.1,1.4,0.1,1.8,0.2c1.2,0.2,2.1,0.6,2.8,1.2c0.6,0.6,1,1.5,1,2.5c0,1.2-0.5,2.2-1.4,3s-2.1,1.2-3.6,1.2c-1.4,0-2.8-0.4-4-1.1
		c-0.2-0.1-0.4-0.2-0.4-0.2c-0.1,0-0.1,0-0.2,0.1c0,0-0.1,0.1-0.1,0.2L100.5,155.8z M113.5,156.8v-0.3c0.2,0,0.3-0.1,0.4-0.2
		c0.1-0.1,0.1-0.3,0.1-0.5v-10.5c0-0.2,0-0.4-0.1-0.5s-0.2-0.2-0.4-0.2v-0.3h6.2c1.3,0,2.3,0.3,3.1,1c0.7,0.6,1.1,1.5,1.1,2.7
		s-0.3,2.1-1,2.8s-1.6,1-2.8,1h-3.8v4.1c0,0.2,0,0.4,0.1,0.5s0.2,0.2,0.4,0.2v0.3h-3.3V156.8z M119.1,146.4h-2.9v3.2h3
		c0.9,0,1.5-0.1,1.9-0.4c0.4-0.3,0.6-0.7,0.6-1.2s-0.2-0.9-0.6-1.2S120,146.4,119.1,146.4L119.1,146.4z"/>
	<path class="st0" d="M47.9,137l0.7-2.6l0.2,0.1c0,0,0,0,0,0.1s0,0.1,0,0.2c0,0.3,0.3,0.6,0.8,0.9c0.5,0.3,1.1,0.5,1.6,0.5
		s0.9-0.1,1.2-0.4c0.3-0.3,0.5-0.6,0.5-1c0-0.7-0.5-1.1-1.6-1.1c-0.4,0-0.7-0.1-0.9-0.1c-0.8-0.1-1.3-0.4-1.7-0.9s-0.6-1.2-0.6-2.1
		c0-1.1,0.3-1.9,0.8-2.6c0.5-0.7,1.3-1,2.1-1c0.7,0,1.5,0.3,2.4,1c0.2,0.2,0.3,0.2,0.4,0.2h0.1c0,0,0.1-0.1,0.1-0.2l0.2,0.1
		l-0.8,2.5l-0.2-0.2l0,0c0,0,0,0,0-0.1c0-0.3-0.2-0.7-0.7-1c-0.5-0.4-1-0.5-1.5-0.5s-0.8,0.1-1.1,0.4c-0.3,0.2-0.4,0.6-0.4,1
		c0,0.6,0.5,0.9,1.4,1c0.5,0.1,0.9,0.1,1.1,0.2c0.8,0.2,1.4,0.5,1.8,1.1c0.4,0.5,0.6,1.3,0.6,2.1c0,1-0.3,1.9-0.9,2.5
		c-0.6,0.7-1.4,1-2.3,1c-0.9,0-1.7-0.3-2.5-1c-0.2-0.1-0.2-0.2-0.3-0.2h-0.1c0,0,0,0.1-0.1,0.2L47.9,137z M61.9,135.9
		c0.1,0,0.2,0,0.3-0.1c0-0.1,0.1-0.2,0.1-0.4h0.2v2.9h-0.2c0-0.2-0.1-0.3-0.1-0.4c0-0.1-0.1-0.1-0.2-0.1h-5.8v-0.3
		c0.1-0.1,0.2-0.1,0.2-0.2c0-0.1,0.1-0.2,0.1-0.4v-9c0-0.2,0-0.3-0.1-0.4c0-0.1-0.1-0.1-0.2-0.2V127h5.7c0.1,0,0.2,0,0.2-0.1
		s0.1-0.2,0.1-0.4h0.2v2.9h-0.2c0-0.2-0.1-0.3-0.1-0.4c0-0.1-0.1-0.1-0.2-0.1h-4.1v2.4h2.6c0.1,0,0.2,0,0.2-0.1s0.1-0.2,0.1-0.4h0.2
		v2.7h-0.2c0-0.2-0.1-0.3-0.1-0.4c0-0.1-0.1-0.1-0.3-0.1h-2.6v2.8h4.2V135.9z M64.3,137.9v-0.3c0.1,0,0.2-0.1,0.2-0.2
		c0-0.1,0.1-0.2,0.1-0.4v-9c0-0.2,0-0.3-0.1-0.4c0-0.1-0.1-0.1-0.2-0.2v-0.3h4c0.8,0,1.5,0.3,1.9,0.8c0.5,0.5,0.7,1.3,0.7,2.3
		c0,0.8-0.1,1.5-0.4,2s-0.7,0.9-1.3,1.2l1.3,3.2c0.1,0.2,0.2,0.4,0.3,0.5c0.1,0.1,0.3,0.3,0.5,0.5v0.3H69v-0.3
		c0.1,0,0.2-0.1,0.2-0.1c0-0.1,0.1-0.1,0.1-0.2c0,0,0-0.1,0-0.2c0-0.1-0.1-0.2-0.1-0.3l-1.3-3.3H66v3.5c0,0.2,0,0.3,0.1,0.4
		c0,0.1,0.1,0.1,0.2,0.2v0.3L64.3,137.9L64.3,137.9z M68,129h-2v2.9h2c0.6,0,1-0.1,1.2-0.4c0.2-0.2,0.4-0.6,0.4-1.2
		c0-0.5-0.1-0.9-0.4-1.1C69,129.1,68.6,129,68,129L68,129z M79.4,135.5c0,0.2,0,0.3,0.1,0.4c0,0.1,0.1,0.1,0.2,0.2v0.3
		c-0.6,0.6-1.2,1-1.8,1.3c-0.6,0.3-1.2,0.5-1.8,0.5c-1.1,0-1.9-0.5-2.6-1.6s-1.1-2.4-1.1-4s0.4-3,1.1-4c0.7-1.1,1.6-1.6,2.8-1.6
		c0.6,0,1.1,0.1,1.7,0.4s0.8,0.4,0.9,0.4c0,0,0.1,0,0.3-0.1h0.1l0.1,0.1l-0.8,2.6l-0.1-0.1l0,0c0,0,0,0,0-0.1c0-0.3-0.2-0.6-0.7-0.9
		c-0.5-0.3-1-0.5-1.5-0.5c-0.7,0-1.3,0.3-1.8,1.1c-0.5,0.7-0.7,1.6-0.7,2.7c0,1,0.3,1.9,0.8,2.6c0.5,0.7,1.1,1.1,1.9,1.1
		c0.3,0,0.6-0.1,0.9-0.2c0.3-0.1,0.7-0.3,1-0.5V134h-1.6c-0.1,0-0.2,0-0.2,0.1s-0.1,0.2-0.1,0.4h-0.2V132h0.2c0,0.2,0.1,0.3,0.1,0.4
		c0,0.1,0.1,0.1,0.2,0.1h3v0.3c-0.1,0-0.2,0.1-0.2,0.2c0,0.1-0.1,0.2-0.1,0.4v2.1H79.4z M83.1,137c0,0.2,0,0.3,0.1,0.4
		c0,0.1,0.1,0.1,0.2,0.2v0.3h-2v-0.3c0.1,0,0.2-0.1,0.2-0.2c0-0.1,0.1-0.2,0.1-0.4v-9c0-0.2,0-0.3-0.1-0.4c0-0.1-0.1-0.1-0.2-0.2
		v-0.3h2v0.3c-0.1,0-0.2,0.1-0.2,0.2s-0.1,0.2-0.1,0.4V137z M88.8,127c1.1,0,2,0.5,2.7,1.6s1,2.4,1,4s-0.3,2.9-1,4s-1.6,1.6-2.6,1.6
		c-1.1,0-1.9-0.5-2.6-1.6s-1-2.4-1-4s0.3-2.9,1-4C86.9,127.5,87.7,127,88.8,127L88.8,127z M86.5,132.4c0,1.1,0.2,2,0.6,2.6
		c0.4,0.7,1,1,1.7,1s1.3-0.3,1.7-1c0.4-0.7,0.6-1.5,0.6-2.6s-0.2-2-0.6-2.6c-0.4-0.7-1-1-1.7-1s-1.3,0.3-1.7,1
		C86.7,130.5,86.5,131.3,86.5,132.4L86.5,132.4z M97,137.9v-0.3c0.2-0.1,0.4-0.4,0.5-0.9v-0.1l2.4-8.3c0-0.1,0-0.2,0-0.2V128
		c0-0.1,0-0.2-0.1-0.3c-0.1-0.1-0.1-0.2-0.3-0.2v-0.3h2.2v0.3c-0.1,0.1-0.2,0.1-0.2,0.2s-0.1,0.2-0.1,0.3c0,0,0,0.1,0,0.2
		s0,0.1,0,0.2l2.4,8.3c0.1,0.4,0.2,0.6,0.3,0.8c0.1,0.1,0.2,0.2,0.3,0.3v0.3h-2.3v-0.3c0.1-0.1,0.2-0.1,0.2-0.2
		c0-0.1,0.1-0.2,0.1-0.3c0,0,0-0.1,0-0.2c0,0,0-0.1,0-0.2l-0.5-1.6H99l-0.4,1.6c0,0.1,0,0.2,0,0.2c0,0.1,0,0.1,0,0.2
		c0,0.1,0,0.2,0.1,0.3c0,0.1,0.1,0.1,0.2,0.2v0.3H97V137.9z M100.7,129.9l-1.1,3.8h2.1L100.7,129.9z M105.8,137.9v-0.3
		c0.1,0,0.2-0.1,0.2-0.2c0-0.1,0.1-0.2,0.1-0.4v-9c0-0.2,0-0.3-0.1-0.4c0-0.1-0.1-0.1-0.2-0.2v-0.3h4c0.8,0,1.5,0.3,1.9,0.8
		c0.5,0.5,0.7,1.3,0.7,2.3c0,0.8-0.1,1.5-0.4,2s-0.7,0.9-1.3,1.2l1.3,3.2c0.1,0.2,0.2,0.4,0.3,0.5c0.1,0.1,0.3,0.3,0.5,0.5v0.3h-2.3
		v-0.3c0.1,0,0.2-0.1,0.2-0.1c0-0.1,0.1-0.1,0.1-0.2c0,0,0-0.1,0-0.2c0-0.1-0.1-0.2-0.1-0.3l-1.3-3.3h-1.7v3.5c0,0.2,0,0.3,0.1,0.4
		c0,0.1,0.1,0.1,0.2,0.2v0.3L105.8,137.9L105.8,137.9z M109.4,129h-1.9v2.9h2c0.6,0,1-0.1,1.2-0.4c0.2-0.2,0.4-0.6,0.4-1.2
		c0-0.5-0.1-0.9-0.4-1.1C110.4,129.1,110,129,109.4,129L109.4,129z M117.5,127c1.1,0,2,0.5,2.7,1.6s1,2.4,1,4s-0.3,2.9-1,4
		s-1.6,1.6-2.7,1.6s-1.9-0.5-2.6-1.6s-1-2.4-1-4s0.3-2.9,1-4C115.5,127.5,116.4,127,117.5,127L117.5,127z M115.2,132.4
		c0,1.1,0.2,2,0.6,2.6c0.4,0.7,1,1,1.7,1s1.3-0.3,1.7-1c0.4-0.7,0.6-1.5,0.6-2.6s-0.2-2-0.6-2.6c-0.4-0.7-1-1-1.7-1s-1.3,0.3-1.7,1
		C115.4,130.5,115.2,131.3,115.2,132.4L115.2,132.4z M124.6,133.6c0,1,0.1,1.6,0.4,2s0.7,0.6,1.4,0.6c0.6,0,1.1-0.2,1.4-0.6
		c0.3-0.4,0.4-1.1,0.4-2.1V128c0-0.2,0-0.3-0.1-0.4c0-0.1-0.1-0.1-0.2-0.2v-0.3h2v0.3c-0.1,0-0.2,0.1-0.2,0.2s-0.1,0.2-0.1,0.4v5.8
		c0,1.5-0.2,2.6-0.7,3.3s-1.3,1-2.5,1c-1.1,0-2-0.3-2.5-1s-0.8-1.8-0.8-3.3V128c0-0.2,0-0.3-0.1-0.4c0-0.1-0.1-0.1-0.2-0.2v-0.3h2
		v0.3c-0.1,0-0.2,0.1-0.2,0.2s-0.1,0.2-0.1,0.4L124.6,133.6L124.6,133.6z M137.8,134.2l0.1-0.1l0.9,2.3l-0.1,0.2
		c0-0.1-0.1-0.1-0.1-0.1s0,0-0.1,0c0,0-0.2,0.1-0.4,0.3c-1,1-1.9,1.4-2.8,1.4c-1.1,0-1.9-0.5-2.6-1.6c-0.7-1.1-1.1-2.4-1.1-4
		s0.4-3,1.1-4c0.7-1,1.6-1.6,2.8-1.6c0.6,0,1.2,0.2,1.8,0.5s0.9,0.5,0.9,0.5s0.1,0,0.2,0c0.1,0,0.1,0,0.2,0l0.1,0.1l-0.9,2.4
		l-0.2-0.1l0,0c0,0,0,0,0-0.1c0-0.3-0.2-0.6-0.7-0.9c-0.5-0.3-1-0.5-1.5-0.5c-0.7,0-1.3,0.3-1.8,1s-0.7,1.6-0.7,2.6
		c0,1.1,0.2,2,0.7,2.7s1.1,1,1.8,1c0.5,0,1.1-0.2,1.6-0.6c0.5-0.4,0.8-0.7,0.8-1c0,0,0-0.1,0-0.2
		C137.8,134.3,137.8,134.2,137.8,134.2L137.8,134.2z M139.8,137.9v-0.3c0.2-0.1,0.4-0.4,0.5-0.9v-0.1l2.4-8.3c0-0.1,0-0.2,0-0.2V128
		c0-0.1,0-0.2-0.1-0.3c-0.1-0.1-0.1-0.2-0.3-0.2v-0.3h2.2v0.3c-0.1,0.1-0.2,0.1-0.2,0.2s-0.1,0.2-0.1,0.3c0,0,0,0.1,0,0.2
		s0,0.1,0,0.2l2.4,8.3c0.1,0.4,0.2,0.6,0.3,0.8c0.1,0.1,0.2,0.2,0.3,0.3v0.3h-2.3v-0.3c0.1-0.1,0.2-0.1,0.2-0.2
		c0-0.1,0.1-0.2,0.1-0.3c0,0,0-0.1,0-0.2c0,0,0-0.1,0-0.2l-0.5-1.6H142l-0.4,1.6c0,0.1,0,0.2,0,0.2c0,0.1,0,0.1,0,0.2
		c0,0.1,0,0.2,0.1,0.3c0,0.1,0.1,0.1,0.2,0.2v0.3h-2.1V137.9z M143.5,129.9l-1.1,3.8h2.1L143.5,129.9z"/>
</g>
</svg>
