<?xml version="1.0" encoding="utf-8"?>
<!-- Generator: Adobe Illustrator 27.7.0, SVG Export Plug-In . SVG Version: 6.00 Build 0)  -->
<svg version="1.1" id="Layer_1" xmlns="http://www.w3.org/2000/svg" xmlns:xlink="http://www.w3.org/1999/xlink" x="0px" y="0px"
	 viewBox="0 0 316 69" style="enable-background:new 0 0 316 69;" xml:space="preserve">
<style type="text/css">
	.st0{fill:#FFFFFF;}
</style>
<g>
	<g>
		<g>
			<path class="st0" d="M47.7,31.7v-4.1l-1.7,3.1h-0.5l-1.7-3.1v4.1h-0.9v-5.8h1l1.9,3.6l1.9-3.6h1v5.8H47.7z"/>
			<path class="st0" d="M51.8,31.7v-5.8h0.9v5.8H51.8z"/>
			<path class="st0" d="M56.9,27.6v4.1H56v-5.8h0.8l3.3,4.2v-4.2H61v5.8h-0.8L56.9,27.6z"/>
			<path class="st0" d="M64.2,31.7v-5.8h0.9v5.8H64.2z"/>
			<path class="st0" d="M71.8,27.2c-0.1-0.1-0.3-0.3-0.6-0.4s-0.6-0.2-0.9-0.2c-0.4,0-0.7,0.1-0.9,0.2s-0.3,0.3-0.3,0.6
				c0,0.1,0,0.2,0,0.2c0,0.1,0,0.1,0.1,0.2c0,0,0.1,0.1,0.1,0.1c0.1,0,0.1,0.1,0.2,0.1c0.1,0,0.2,0.1,0.3,0.1s0.2,0.1,0.3,0.1
				s0.2,0.1,0.4,0.1c0.3,0.1,0.5,0.1,0.7,0.2c0.2,0.1,0.4,0.1,0.5,0.2c0.2,0.1,0.3,0.2,0.4,0.3c0.1,0.1,0.2,0.3,0.2,0.4
				c0.1,0.2,0.1,0.3,0.1,0.6c0,0.2,0,0.4-0.1,0.6c-0.1,0.2-0.2,0.3-0.3,0.5c-0.1,0.1-0.3,0.2-0.5,0.3c-0.2,0.1-0.4,0.1-0.6,0.2
				c-0.2,0-0.4,0.1-0.7,0.1c-0.4,0-0.9-0.1-1.3-0.2s-0.8-0.3-1.1-0.6l0.4-0.8c0.2,0.2,0.4,0.3,0.8,0.5s0.8,0.2,1.2,0.2
				c0.4,0,0.6-0.1,0.8-0.2c0.2-0.1,0.3-0.3,0.3-0.6c0-0.1,0-0.2,0-0.3c0-0.1-0.1-0.1-0.2-0.2c-0.1-0.1-0.1-0.1-0.2-0.2
				c-0.1,0-0.2-0.1-0.3-0.1c-0.1,0-0.3-0.1-0.4-0.1c-0.1,0-0.3-0.1-0.5-0.1c-0.3-0.1-0.6-0.2-0.8-0.2c-0.2-0.1-0.4-0.2-0.5-0.3
				c-0.2-0.1-0.3-0.3-0.3-0.4s-0.1-0.4-0.1-0.6c0-0.3,0.1-0.5,0.2-0.8c0.1-0.2,0.3-0.4,0.4-0.6c0.2-0.1,0.4-0.3,0.7-0.3
				c0.3-0.1,0.5-0.1,0.8-0.1c0.7,0,1.4,0.2,2,0.7L71.8,27.2z"/>
			<path class="st0" d="M79.6,26.7h-1.9v5h-0.9v-5h-1.9v-0.8h4.8V26.7z"/>
			<path class="st0" d="M86.3,30.9v0.8h-4v-5.8h3.9v0.8h-3v1.7h2.6v0.8h-2.6v1.8H86.3z M84.7,25.3l-0.6-0.2l0.5-0.9h0.9L84.7,25.3z"
				/>
			<path class="st0" d="M89.2,31.7v-5.8h2.5c0.3,0,0.5,0.1,0.7,0.2c0.2,0.1,0.4,0.3,0.6,0.4c0.2,0.2,0.3,0.4,0.4,0.6
				c0.1,0.2,0.1,0.5,0.1,0.7c0,0.4-0.1,0.8-0.3,1.1c-0.2,0.3-0.5,0.5-0.8,0.6l1.4,2.2h-1l-1.3-2h-1.4v2H89.2z M90.1,28.8h1.6
				c0.3,0,0.5-0.1,0.6-0.3c0.2-0.2,0.2-0.5,0.2-0.8c0-0.3-0.1-0.6-0.3-0.8c-0.2-0.2-0.4-0.3-0.6-0.3h-1.6V28.8z"/>
			<path class="st0" d="M96.5,31.7v-5.8h0.9v5.8H96.5z"/>
			<path class="st0" d="M100.3,28.8c0-0.4,0.1-0.8,0.2-1.1c0.1-0.4,0.3-0.7,0.6-0.9c0.2-0.3,0.5-0.5,0.9-0.6
				c0.3-0.2,0.7-0.2,1.1-0.2c0.4,0,0.8,0.1,1.1,0.3s0.6,0.4,0.9,0.7c0.2,0.3,0.4,0.6,0.6,0.9c0.1,0.4,0.2,0.7,0.2,1.1
				c0,0.4-0.1,0.8-0.2,1.1c-0.1,0.4-0.3,0.7-0.6,0.9s-0.5,0.5-0.9,0.6s-0.7,0.2-1.1,0.2c-0.3,0-0.6-0.1-0.9-0.2s-0.6-0.3-0.8-0.4
				c-0.2-0.2-0.4-0.4-0.6-0.7c-0.2-0.2-0.3-0.5-0.4-0.8C100.4,29.4,100.3,29.1,100.3,28.8z M103.1,30.9c0.3,0,0.5-0.1,0.8-0.2
				c0.2-0.1,0.4-0.3,0.6-0.5c0.2-0.2,0.3-0.4,0.4-0.7c0.1-0.3,0.1-0.5,0.1-0.8c0-0.3,0-0.5-0.1-0.8s-0.2-0.5-0.4-0.7
				s-0.4-0.4-0.6-0.5s-0.5-0.2-0.8-0.2c-0.3,0-0.5,0.1-0.8,0.2c-0.2,0.1-0.4,0.3-0.6,0.5c-0.2,0.2-0.3,0.4-0.4,0.7s-0.1,0.5-0.1,0.8
				c0,0.4,0.1,0.7,0.2,1c0.1,0.3,0.4,0.6,0.7,0.8S102.8,30.9,103.1,30.9z"/>
			<path class="st0" d="M112.8,31.7v-5.8h2.1c0.5,0,0.9,0.1,1.2,0.2s0.7,0.4,0.9,0.6c0.2,0.3,0.4,0.6,0.5,0.9
				c0.1,0.3,0.2,0.7,0.2,1.1c0,0.9-0.3,1.6-0.8,2.1c-0.5,0.5-1.2,0.8-2.1,0.8H112.8z M114.8,26.7h-1.1v4.2h1.1c0.4,0,0.7-0.1,1-0.3
				s0.5-0.4,0.7-0.8s0.2-0.7,0.2-1.1c0-0.6-0.2-1.1-0.5-1.5C115.9,26.9,115.4,26.7,114.8,26.7z"/>
			<path class="st0" d="M122,25.9h0.9l2.3,5.8h-1l-0.6-1.6h-2.2l-0.6,1.6h-1L122,25.9z M123.4,29.4l-0.9-2.5l-1,2.5H123.4z"/>
		</g>
		<g>
			<path class="st0" d="M95.3,40C95.2,40,95.2,40,95.3,40c-0.1-0.1-0.2-0.1-0.3-0.2c-0.1-0.1-0.2-0.1-0.4-0.2
				c-0.1,0-0.3-0.1-0.4-0.1c-0.2,0-0.3-0.1-0.4-0.1c-0.3,0-0.5,0.1-0.5,0.3c0,0,0,0.1,0,0.1c0,0,0,0.1,0.1,0.1c0,0,0.1,0.1,0.1,0.1
				s0.1,0,0.2,0.1s0.1,0,0.2,0.1c0.1,0,0.1,0,0.2,0.1c0.1,0,0.2,0.1,0.3,0.1c0.2,0.1,0.4,0.1,0.6,0.2s0.3,0.2,0.5,0.3
				c0.2,0.1,0.3,0.2,0.4,0.3s0.2,0.3,0.2,0.4c0.1,0.2,0.1,0.4,0.1,0.6c0,0.3,0,0.5-0.1,0.7s-0.2,0.4-0.3,0.5s-0.3,0.3-0.5,0.3
				s-0.4,0.2-0.6,0.2c-0.2,0-0.4,0.1-0.6,0.1c-0.4,0-0.9-0.1-1.3-0.2s-0.9-0.3-1.2-0.5l0.7-1.4c0,0,0.1,0,0.1,0.1
				c0,0,0.1,0.1,0.3,0.2s0.3,0.1,0.4,0.2c0.1,0.1,0.3,0.1,0.5,0.2c0.2,0,0.4,0.1,0.5,0.1c0.3,0,0.5-0.1,0.5-0.3c0-0.1,0-0.1-0.1-0.2
				c0,0-0.1-0.1-0.2-0.1c-0.1,0-0.2-0.1-0.3-0.1c-0.1,0-0.2-0.1-0.4-0.1c-0.2,0-0.3-0.1-0.4-0.1c-0.5-0.2-0.9-0.4-1.1-0.6
				s-0.3-0.6-0.3-1c0-0.3,0.1-0.6,0.2-0.8c0.1-0.3,0.3-0.5,0.5-0.6c0.2-0.2,0.4-0.3,0.7-0.4c0.3-0.1,0.5-0.1,0.8-0.1
				c0.6,0,1.3,0.2,2.2,0.6L95.3,40z"/>
			<path class="st0" d="M99.9,38.1h1.8l1.9,5.8h-1.6l-0.4-1.1H100l-0.3,1.1h-1.6L99.9,38.1z M101.3,41.7l-0.5-2l-0.5,2H101.3z"/>
			<path class="st0" d="M108.3,44c-0.4,0-0.7-0.1-1-0.2c-0.3-0.1-0.5-0.2-0.7-0.4c-0.2-0.2-0.4-0.4-0.5-0.6
				c-0.1-0.2-0.2-0.5-0.3-0.8s-0.1-0.6-0.1-0.9v-3h1.6v3c0,0.2,0,0.4,0.1,0.6c0,0.2,0.1,0.3,0.2,0.5c0.1,0.1,0.2,0.2,0.3,0.3
				c0.1,0.1,0.3,0.1,0.5,0.1c0.2,0,0.3,0,0.5-0.1s0.2-0.2,0.3-0.3s0.1-0.3,0.2-0.5c0-0.2,0.1-0.4,0.1-0.5v-3h1.6v3
				c0,0.4-0.1,0.8-0.2,1.1c-0.1,0.3-0.3,0.6-0.5,0.9c-0.2,0.3-0.5,0.5-0.8,0.6C109.1,43.9,108.7,44,108.3,44z M108.8,37.9l-1-0.3
				l0.4-1.2h1.4L108.8,37.9z"/>
			<path class="st0" d="M113.8,43.9v-5.8h2.2c0.5,0,0.9,0.1,1.3,0.2c0.4,0.2,0.7,0.4,0.9,0.6s0.4,0.6,0.5,0.9
				c0.1,0.3,0.2,0.7,0.2,1.1c0,0.9-0.3,1.6-0.8,2.1s-1.2,0.8-2.1,0.8H113.8z M116,39.5h-0.6v3h0.6c0.4,0,0.7-0.1,1-0.4
				s0.4-0.6,0.4-1.1c0-0.5-0.1-0.8-0.4-1.1C116.7,39.6,116.4,39.5,116,39.5z"/>
			<path class="st0" d="M125.7,42.5v1.4h-4.1v-5.8h4.1v1.4h-2.5v0.8h2.1v1.3h-2.1v0.9H125.7z"/>
		</g>
	</g>
	<g>
		<path class="st0" d="M158.8,59.4c0,0.2,0,0.3,0,0.5c0,0.2-0.1,0.3-0.1,0.4s-0.1,0.3-0.2,0.4c-0.1,0.1-0.2,0.2-0.4,0.2
			c-0.1,0.1-0.3,0.1-0.5,0.1c-0.2,0-0.4,0-0.5-0.1c-0.1-0.1-0.3-0.1-0.4-0.2c-0.1-0.1-0.2-0.2-0.2-0.4c-0.1-0.1-0.1-0.3-0.1-0.4
			c0-0.2,0-0.3,0-0.5V57h-0.7v2.3c0,0.2,0,0.5,0.1,0.7c0,0.2,0.1,0.4,0.2,0.6c0.1,0.2,0.2,0.4,0.4,0.5c0.2,0.1,0.3,0.3,0.6,0.3
			c0.2,0.1,0.5,0.1,0.8,0.1c0.3,0,0.6-0.1,0.9-0.2c0.3-0.1,0.5-0.3,0.6-0.5c0.2-0.2,0.3-0.5,0.3-0.7c0.1-0.3,0.1-0.6,0.1-0.9V57
			h-0.7V59.4z M165,60.4l-2.6-3.3h-0.6v4.6h0.7v-3.3l2.6,3.3h0.6V57H165V60.4z M168,61.7h0.7V57H168V61.7z M172.4,57l-1.8,4.6h0.8
			l0.5-1.3h1.8l0.5,1.3h0.8l-1.8-4.6H172.4z M172,59.9l0.8-2l0.7,2H172z M172,56.4c0,0,0-0.1,0-0.1s0.1-0.1,0.1-0.1c0,0,0.1,0,0.2,0
			c0.1,0,0.2,0,0.2,0.1c0.1,0,0.2,0.1,0.3,0.1c0.1,0,0.2,0.1,0.3,0.1c0.1,0,0.2,0,0.3-0.1c0.1,0,0.2-0.1,0.2-0.2
			c0.1-0.1,0.1-0.1,0.1-0.2c0-0.1,0.1-0.1,0.1-0.2c0-0.1,0-0.1,0-0.1h-0.4c0,0,0,0,0,0c0,0,0,0,0,0.1c0,0,0,0.1-0.1,0.1
			c0,0-0.1,0.1-0.1,0.1c0,0-0.1,0-0.2,0c-0.1,0-0.2,0-0.3-0.1c-0.1,0-0.2-0.1-0.3-0.1c-0.1,0-0.2-0.1-0.3-0.1c-0.1,0-0.2,0-0.3,0.1
			c-0.1,0-0.2,0.1-0.2,0.2c0,0.1-0.1,0.1-0.1,0.2c0,0.1-0.1,0.1-0.1,0.2c0,0.1,0,0.1,0,0.1L172,56.4C172,56.5,172,56.5,172,56.4
			 M180.1,57.7c-0.2-0.2-0.4-0.4-0.7-0.5c-0.3-0.1-0.6-0.2-0.9-0.2c-0.3,0-0.6,0.1-0.9,0.2c-0.3,0.1-0.5,0.3-0.7,0.5
			c-0.2,0.2-0.3,0.5-0.5,0.7c-0.1,0.3-0.2,0.6-0.2,0.9c0,0.2,0,0.5,0.1,0.7c0.1,0.2,0.2,0.4,0.3,0.6c0.1,0.2,0.3,0.4,0.5,0.5
			c0.2,0.2,0.4,0.3,0.6,0.4c0.2,0.1,0.5,0.1,0.7,0.1c0.3,0,0.6-0.1,0.9-0.2c0.3-0.1,0.5-0.3,0.7-0.5c0.2-0.2,0.3-0.5,0.5-0.7
			c0.1-0.3,0.2-0.6,0.2-0.9c0-0.3-0.1-0.6-0.2-0.9C180.5,58.2,180.3,58,180.1,57.7 M179.9,60c-0.1,0.2-0.2,0.4-0.3,0.5
			c-0.1,0.2-0.3,0.3-0.5,0.4c-0.2,0.1-0.4,0.1-0.6,0.1c-0.3,0-0.6-0.1-0.8-0.2c-0.2-0.2-0.4-0.4-0.5-0.6c-0.1-0.3-0.2-0.5-0.2-0.8
			c0-0.2,0-0.4,0.1-0.6c0.1-0.2,0.2-0.4,0.3-0.5c0.1-0.2,0.3-0.3,0.5-0.4c0.2-0.1,0.4-0.1,0.6-0.1c0.2,0,0.4,0,0.6,0.1
			c0.2,0.1,0.3,0.2,0.5,0.4c0.1,0.2,0.2,0.3,0.3,0.5c0.1,0.2,0.1,0.4,0.1,0.6C180,59.6,180,59.8,179.9,60 M186.4,59.6h2.1V59h-2.1
			v-1.3h2.4V57h-3.1v4.6h3.2V61h-2.4V59.6z M197,59.4c0.2-0.3,0.2-0.5,0.2-0.8c0-0.2,0-0.4-0.1-0.5c-0.1-0.2-0.2-0.3-0.3-0.5
			c-0.1-0.1-0.3-0.3-0.5-0.3c-0.2-0.1-0.4-0.1-0.6-0.1h-2v4.6h0.7V60h1.1l1,1.6h0.8l-1.1-1.8C196.6,59.8,196.8,59.6,197,59.4
			 M195.8,59.4h-1.3v-1.7h1.2c0.2,0,0.4,0.1,0.5,0.3c0.1,0.2,0.2,0.4,0.2,0.6c0,0.2-0.1,0.4-0.2,0.6C196.2,59.3,196,59.4,195.8,59.4
			 M200.1,59.6h2.1V59h-2.1v-1.3h2.4V57h-3.1v4.6h3.2V61h-2.4V59.6z M207.3,60.7c-0.1,0.1-0.3,0.2-0.4,0.3c-0.2,0-0.3,0.1-0.5,0.1
			c-0.3,0-0.5-0.1-0.8-0.2c-0.2-0.2-0.4-0.4-0.5-0.6c-0.1-0.3-0.2-0.5-0.2-0.8c0-0.2,0-0.3,0.1-0.5c0-0.2,0.1-0.3,0.2-0.5
			c0.1-0.1,0.2-0.3,0.3-0.4c0.1-0.1,0.3-0.2,0.4-0.3c0.2-0.1,0.3-0.1,0.5-0.1c0.1,0,0.2,0,0.3,0c0.1,0,0.2,0.1,0.3,0.1
			c0.1,0.1,0.2,0.1,0.3,0.2c0.1,0.1,0.2,0.2,0.2,0.3l0.6-0.4c-0.2-0.3-0.4-0.5-0.7-0.7c-0.3-0.2-0.7-0.3-1.1-0.3
			c-0.3,0-0.5,0-0.8,0.1c-0.2,0.1-0.4,0.2-0.6,0.4c-0.2,0.2-0.3,0.3-0.5,0.5c-0.1,0.2-0.2,0.4-0.3,0.6c-0.1,0.2-0.1,0.4-0.1,0.7
			c0,0.3,0.1,0.6,0.2,0.9c0.1,0.3,0.3,0.5,0.4,0.8c0.2,0.2,0.4,0.4,0.7,0.5c0.3,0.1,0.6,0.2,0.9,0.2c0.2,0,0.5,0,0.7-0.1
			c0.2-0.1,0.5-0.2,0.7-0.4c0.2-0.2,0.4-0.4,0.4-0.6l-0.6-0.3C207.6,60.4,207.5,60.6,207.3,60.7 M213.7,57.7
			c-0.2-0.2-0.4-0.4-0.7-0.5c-0.3-0.1-0.6-0.2-0.9-0.2c-0.3,0-0.6,0.1-0.9,0.2c-0.3,0.1-0.5,0.3-0.7,0.5c-0.2,0.2-0.3,0.5-0.5,0.7
			c-0.1,0.3-0.2,0.6-0.2,0.9c0,0.2,0,0.5,0.1,0.7c0.1,0.2,0.2,0.4,0.3,0.6c0.1,0.2,0.3,0.4,0.5,0.5c0.2,0.2,0.4,0.3,0.6,0.4
			c0.2,0.1,0.5,0.1,0.7,0.1c0.3,0,0.6-0.1,0.9-0.2c0.3-0.1,0.5-0.3,0.7-0.5c0.2-0.2,0.3-0.5,0.5-0.7c0.1-0.3,0.2-0.6,0.2-0.9
			c0-0.3-0.1-0.6-0.2-0.9C214,58.2,213.9,58,213.7,57.7 M213.5,60c-0.1,0.2-0.2,0.4-0.3,0.5c-0.1,0.2-0.3,0.3-0.5,0.4
			c-0.2,0.1-0.4,0.1-0.6,0.1c-0.3,0-0.6-0.1-0.8-0.2c-0.2-0.2-0.4-0.4-0.5-0.6c-0.1-0.3-0.2-0.5-0.2-0.8c0-0.2,0-0.4,0.1-0.6
			c0.1-0.2,0.2-0.4,0.3-0.5c0.1-0.2,0.3-0.3,0.5-0.4c0.2-0.1,0.4-0.1,0.6-0.1c0.2,0,0.4,0,0.6,0.1c0.2,0.1,0.3,0.2,0.5,0.4
			c0.1,0.2,0.2,0.3,0.3,0.5c0.1,0.2,0.1,0.4,0.1,0.6C213.6,59.6,213.5,59.8,213.5,60 M219.6,60.4L217,57h-0.6v4.6h0.7v-3.3l2.6,3.3
			h0.6V57h-0.7V60.4z M225.6,59.6c-0.1-0.1-0.2-0.2-0.3-0.2c-0.1-0.1-0.3-0.1-0.4-0.2c-0.1,0-0.3-0.1-0.5-0.1
			c-0.1,0-0.2-0.1-0.3-0.1c-0.1,0-0.2,0-0.3-0.1c-0.1,0-0.2-0.1-0.2-0.1c-0.1,0-0.1-0.1-0.2-0.1c-0.1,0-0.1-0.1-0.1-0.1
			c0,0,0-0.1-0.1-0.1c0-0.1,0-0.1,0-0.2c0-0.2,0.1-0.4,0.2-0.5c0.1-0.1,0.4-0.2,0.7-0.2c0.3,0,0.5,0.1,0.7,0.2
			c0.2,0.1,0.4,0.2,0.5,0.3l0.3-0.6c-0.5-0.3-1-0.5-1.6-0.5c-0.2,0-0.5,0-0.7,0.1c-0.2,0.1-0.4,0.2-0.5,0.3
			c-0.2,0.1-0.3,0.3-0.4,0.4c-0.1,0.2-0.1,0.4-0.1,0.6c0,0.2,0,0.3,0.1,0.5c0.1,0.1,0.1,0.2,0.3,0.3c0.1,0.1,0.3,0.2,0.4,0.2
			c0.2,0.1,0.4,0.1,0.6,0.2c0.2,0,0.3,0.1,0.4,0.1c0.1,0,0.2,0.1,0.3,0.1c0.1,0,0.2,0.1,0.3,0.1c0.1,0,0.1,0.1,0.2,0.1
			c0.1,0,0.1,0.1,0.1,0.2c0,0.1,0,0.1,0,0.2c0,0.2-0.1,0.3-0.2,0.4c-0.2,0.1-0.4,0.2-0.7,0.2c-0.3,0-0.6-0.1-0.9-0.2
			c-0.3-0.1-0.5-0.3-0.7-0.4l-0.3,0.6c0.3,0.2,0.6,0.4,0.9,0.5c0.3,0.1,0.7,0.2,1,0.2c0.2,0,0.4,0,0.5,0c0.2,0,0.3-0.1,0.5-0.1
			c0.1-0.1,0.3-0.2,0.4-0.3c0.1-0.1,0.2-0.2,0.2-0.4c0.1-0.1,0.1-0.3,0.1-0.5c0-0.2,0-0.3-0.1-0.4C225.8,59.8,225.7,59.7,225.6,59.6
			 M227.5,57.7h1.5v4h0.7v-4h1.5V57h-3.8V57.7z M236.4,59.4c0.2-0.3,0.2-0.5,0.2-0.8c0-0.2,0-0.4-0.1-0.5c-0.1-0.2-0.2-0.3-0.3-0.5
			c-0.1-0.1-0.3-0.3-0.5-0.3c-0.2-0.1-0.4-0.1-0.6-0.1h-2v4.6h0.7V60h1.1l1,1.6h0.8l-1.1-1.8C236,59.8,236.2,59.6,236.4,59.4
			 M235.2,59.4h-1.3v-1.7h1.2c0.2,0,0.4,0.1,0.5,0.3c0.1,0.2,0.2,0.4,0.2,0.6c0,0.2-0.1,0.4-0.2,0.6
			C235.6,59.3,235.4,59.4,235.2,59.4 M242,59.4c0,0.2,0,0.3,0,0.5c0,0.2-0.1,0.3-0.1,0.4c-0.1,0.1-0.1,0.3-0.2,0.4
			c-0.1,0.1-0.2,0.2-0.4,0.2c-0.1,0.1-0.3,0.1-0.5,0.1c-0.2,0-0.4,0-0.5-0.1c-0.1-0.1-0.3-0.1-0.4-0.2c-0.1-0.1-0.2-0.2-0.2-0.4
			c-0.1-0.1-0.1-0.3-0.1-0.4c0-0.2,0-0.3,0-0.5V57h-0.7v2.3c0,0.2,0,0.5,0.1,0.7c0,0.2,0.1,0.4,0.2,0.6c0.1,0.2,0.2,0.4,0.4,0.5
			c0.2,0.1,0.3,0.3,0.6,0.3c0.2,0.1,0.5,0.1,0.8,0.1c0.3,0,0.6-0.1,0.9-0.2c0.3-0.1,0.5-0.3,0.6-0.5c0.2-0.2,0.3-0.5,0.3-0.7
			c0.1-0.3,0.1-0.6,0.1-0.9V57H242V59.4z M247.8,60.7c-0.1,0.1-0.3,0.2-0.4,0.3c-0.2,0-0.3,0.1-0.5,0.1c-0.3,0-0.5-0.1-0.8-0.2
			c-0.2-0.2-0.4-0.4-0.5-0.6c-0.1-0.3-0.2-0.5-0.2-0.8c0-0.2,0-0.3,0.1-0.5c0-0.2,0.1-0.3,0.2-0.5c0.1-0.1,0.2-0.3,0.3-0.4
			c0.1-0.1,0.3-0.2,0.4-0.3c0.2-0.1,0.3-0.1,0.5-0.1c0.1,0,0.2,0,0.3,0c0.1,0,0.2,0.1,0.3,0.1c0.1,0.1,0.2,0.1,0.3,0.2
			c0.1,0.1,0.2,0.2,0.2,0.3l0.6-0.4c-0.2-0.3-0.4-0.5-0.7-0.7c-0.3-0.2-0.7-0.3-1.1-0.3c-0.3,0-0.5,0-0.8,0.1
			c-0.2,0.1-0.4,0.2-0.6,0.4c-0.2,0.2-0.3,0.3-0.5,0.5c-0.1,0.2-0.2,0.4-0.3,0.6c-0.1,0.2-0.1,0.4-0.1,0.7c0,0.3,0.1,0.6,0.2,0.8
			c0.1,0.3,0.2,0.5,0.4,0.7c0.2,0.2,0.4,0.4,0.6,0.5c0.3,0.1,0.5,0.2,0.8,0.3c0.2,0.2,0.3,0.3,0.3,0.5c0,0.1,0,0.2-0.1,0.2
			c-0.1,0.1-0.2,0.1-0.3,0.1c-0.1,0-0.3,0-0.5-0.1l-0.2,0.4c0.2,0.1,0.5,0.2,0.8,0.2c0.2,0,0.4-0.1,0.5-0.2c0.1-0.1,0.2-0.3,0.2-0.4
			c0-0.2-0.1-0.4-0.3-0.6c0.3,0,0.7-0.2,0.9-0.4c0.3-0.2,0.5-0.4,0.6-0.7l-0.6-0.3C248,60.4,247.9,60.6,247.8,60.7 M252,57l-1.8,4.6
			h0.8l0.5-1.3h1.8l0.5,1.3h0.8l-1.8-4.6H252z M251.5,59.9l0.8-2l0.7,2H251.5z M251.6,56.4c0,0,0-0.1,0-0.1c0,0,0.1-0.1,0.1-0.1
			c0,0,0.1,0,0.2,0c0.1,0,0.2,0,0.2,0.1c0.1,0,0.2,0.1,0.3,0.1c0.1,0,0.2,0.1,0.3,0.1c0.1,0,0.2,0,0.3-0.1c0.1,0,0.2-0.1,0.2-0.2
			c0.1-0.1,0.1-0.1,0.1-0.2c0-0.1,0.1-0.1,0.1-0.2c0-0.1,0-0.1,0-0.1h-0.4c0,0,0,0,0,0c0,0,0,0,0,0.1c0,0,0,0.1-0.1,0.1
			c0,0-0.1,0.1-0.1,0.1c0,0-0.1,0-0.2,0c-0.1,0-0.2,0-0.3-0.1c-0.1,0-0.2-0.1-0.3-0.1c-0.1,0-0.2-0.1-0.3-0.1c-0.1,0-0.2,0-0.3,0.1
			c-0.1,0-0.2,0.1-0.2,0.2c0,0.1-0.1,0.1-0.1,0.2c0,0.1-0.1,0.1-0.1,0.2c0,0.1,0,0.1,0,0.1L251.6,56.4
			C251.6,56.5,251.6,56.5,251.6,56.4 M260.1,58.5c-0.1-0.3-0.3-0.5-0.4-0.8c-0.2-0.2-0.4-0.4-0.7-0.5c-0.3-0.1-0.6-0.2-0.9-0.2
			c-0.3,0-0.6,0.1-0.9,0.2c-0.3,0.1-0.5,0.3-0.7,0.5c-0.2,0.2-0.3,0.5-0.5,0.7c-0.1,0.3-0.2,0.6-0.2,0.9c0,0.2,0,0.5,0.1,0.7
			c0.1,0.2,0.2,0.4,0.3,0.6c0.1,0.2,0.3,0.4,0.5,0.5c0.2,0.2,0.4,0.3,0.6,0.4c0.2,0.1,0.5,0.1,0.7,0.1c0.3,0,0.6-0.1,0.9-0.2
			c0.3-0.1,0.5-0.3,0.7-0.5c0.2-0.2,0.3-0.5,0.5-0.7c0.1-0.3,0.2-0.6,0.2-0.9C260.3,59.1,260.2,58.8,260.1,58.5 M259.4,60
			c-0.1,0.2-0.2,0.4-0.3,0.5c-0.1,0.2-0.3,0.3-0.5,0.4c-0.2,0.1-0.4,0.1-0.6,0.1c-0.3,0-0.6-0.1-0.8-0.2c-0.2-0.2-0.4-0.4-0.5-0.6
			c-0.1-0.3-0.2-0.5-0.2-0.8c0-0.2,0-0.4,0.1-0.6c0.1-0.2,0.2-0.4,0.3-0.5c0.1-0.2,0.3-0.3,0.5-0.4c0.2-0.1,0.4-0.1,0.6-0.1
			c0.2,0,0.4,0,0.6,0.1c0.2,0.1,0.3,0.2,0.5,0.4c0.1,0.2,0.2,0.3,0.3,0.5c0.1,0.2,0.1,0.4,0.1,0.6C259.5,59.6,259.5,59.8,259.4,60"
			/>
		<path class="st0" d="M158.1,10.5h1.6c-0.1,0.4-0.5,0.7-1.2,0.7c-0.9,0-1.5-0.6-1.5-1.5c0-0.9,0.6-1.6,1.5-1.6c0.6,0,1,0.3,1.3,0.7
			l1.3-0.8c-0.5-0.9-1.5-1.5-2.6-1.5c-1.7,0-3.1,1.4-3.1,3.1c0,1.7,1.4,3.1,3.1,3.1c1.6,0,2.8-1.2,2.8-3V9.3h-3.3V10.5z M166.6,6.6
			c-1.7,0-3.1,1.4-3.1,3.1c0,1.7,1.4,3.1,3.1,3.1c1.7,0,3.1-1.4,3.1-3.1C169.7,8,168.3,6.6,166.6,6.6 M166.6,11.1
			c-0.8,0-1.4-0.6-1.4-1.5c0-0.8,0.6-1.5,1.4-1.5c0.8,0,1.4,0.6,1.4,1.5C168,10.5,167.4,11.1,166.6,11.1 M174.2,10.4l-1.4-3.6h-1.7
			l2.3,5.9h1.6l2.3-5.9h-1.7L174.2,10.4z M179.4,12.6h4.2v-1.4H181v-0.9h1.7V9.1H181V8.2h2.6V6.8h-4.2V12.6z M190.9,8.7
			c0-1.1-0.9-1.9-2-1.9H186v5.9h1.6v-2h0.7l1.2,2h1.8l-1.3-2.3C190.5,10,190.9,9.4,190.9,8.7 M188.7,9.3h-1.1V8.2h1.1
			c0.4,0,0.6,0.3,0.6,0.6C189.3,9,189.1,9.3,188.7,9.3 M197,9.9l-2.4-3.1h-1.3v5.9h1.6V9.5l2.4,3.1h1.3V6.8H197V9.9z M204,6.6
			c-1.7,0-3.1,1.4-3.1,3.1c0,1.7,1.4,3.1,3.1,3.1c1.7,0,3.1-1.4,3.1-3.1C207,8,205.7,6.6,204,6.6 M204,11.1c-0.8,0-1.4-0.6-1.4-1.5
			c0-0.8,0.6-1.5,1.4-1.5c0.8,0,1.4,0.6,1.4,1.5C205.3,10.5,204.7,11.1,204,11.1 M213.2,12.6h1.6v-2.1h1.7V9.2h-1.7v-1h2.6V6.8h-4.2
			V12.6z M219.8,12.6h4.2v-1.4h-2.6v-0.9h1.7V9.1h-1.7V8.2h2.6V6.8h-4.2V12.6z M228.8,6.8h-2.4v5.9h2.4c1.8,0,3.1-1.3,3.1-2.9
			C232,8,230.6,6.8,228.8,6.8 M228.7,11.1H228V8.3h0.7c0.9,0,1.6,0.6,1.6,1.4C230.3,10.5,229.7,11.1,228.7,11.1 M234.2,12.6h4.2
			v-1.4h-2.6v-0.9h1.7V9.1h-1.7V8.2h2.6V6.8h-4.2V12.6z M245.7,8.7c0-1.1-0.9-1.9-2-1.9h-2.8v5.9h1.6v-2h0.7l1.2,2h1.8l-1.3-2.3
			C245.3,10,245.7,9.4,245.7,8.7 M243.5,9.3h-1.1V8.2h1.1c0.4,0,0.6,0.3,0.6,0.6C244.2,9,243.9,9.3,243.5,9.3 M250.2,6.8l-2.5,5.9
			h1.6l0.4-1h2.3l0.4,1h1.6l-2.5-5.9H250.2z M250.4,10.2l0.6-1.4l0.6,1.4H250.4z M257.9,11.1V6.8h-1.7v5.9h4.1v-1.5H257.9z"/>
		<path class="st0" d="M214,40.8l5.2,8.8h4.3V33H214V40.8z M227.4,30.5h-3.3v19.1h3.3c5.3,0,9.6-4.3,9.6-9.6
			C236.9,34.8,232.6,30.5,227.4,30.5 M220.6,32.5h3V19.3h-3c-3.6,0-6.6,3-6.6,6.6C214,29.5,217,32.5,220.6,32.5 M168.3,19.9v17.5
			h11.4L168.3,19.9z M250,39.2h10.1v-20H250V39.2z M235.1,19.3h-11V30h11V19.3z M260.7,49.6h10.1v-9.8h-10.1V49.6z M250,49.6h10.1
			v-9.8H250V49.6z M237.5,49.6h10.1V19.3h-10.1V49.6z M214,49.6h4.6l-4.6-7.7V49.6z M163.7,25.2c0-3.3-2.7-5.9-5.9-5.9h-2.2v11.9
			h2.2C161,31.1,163.7,28.5,163.7,25.2 M144.9,31.1H155V19.3h-10.1V31.1z M144.9,49.6H155v-18h-10.1V49.6z M158.8,31.7h-3.2v18h3.2
			c5,0,9-4,9-9C167.8,35.7,163.8,31.7,158.8,31.7 M185.1,45.7l-2.3,3.9h4.9v0L185.1,45.7z M185.4,45.2l2.9,4.4h0.8
			c0.1-3,1.3-5.8,3.5-8c2.2-2.1,5.1-3.3,8.1-3.3c3,0,5.9,1.2,8.1,3.3c2.2,2.1,3.4,4.9,3.5,8h1.2V41l-12.8-21.5L185.4,45.2z
			 M189.3,28.3c0-5-4.1-9.1-9.1-9.1h-11.6l11.8,18.1C185.3,37.3,189.3,33.2,189.3,28.3 M200.7,38.9c-2.9,0-5.6,1.1-7.7,3.2
			c-2.1,2-3.2,4.7-3.3,7.6h22c-0.1-2.9-1.2-5.6-3.3-7.6C206.3,40,203.6,38.9,200.7,38.9 M180,37.9h-11.7v11.7h13.8l2.6-4.4L180,37.9
			z"/>
	</g>
</g>
</svg>
