<?xml version="1.0" encoding="utf-8"?>
<!-- Generator: Adobe Illustrator 25.0.1, SVG Export Plug-In . SVG Version: 6.00 Build 0)  -->
<svg version="1.1" id="Layer_1" xmlns="http://www.w3.org/2000/svg" xmlns:xlink="http://www.w3.org/1999/xlink" x="0px" y="0px"
	 viewBox="0 0 365 40" style="enable-background:new 0 0 365 40;" xml:space="preserve">
<style type="text/css">
	.st0{fill:#FFFFFF;}
	.st1{fill-rule:evenodd;clip-rule:evenodd;fill:#FFFFFF;}
</style>
<g>
	<g>
		<path class="st0" d="M144.6,22.4h-1.2v-8.3h1.2C144.6,14.1,144.6,22.4,144.6,22.4z M152,22.4h-1.2v-3.1c0-0.6,0-1.2-0.3-1.5
			s-0.6-0.6-0.9-0.6c-0.6,0-0.9,0.3-1.2,0.6s-0.3,0.9-0.3,1.9v2.8h-1.5v-5.9h0.9v0.9l0,0c0.3-0.3,0.3-0.6,0.9-0.9
			c0.3-0.3,0.6-0.3,1.2-0.3c1.5,0,2.2,0.9,2.2,2.5v3.7H152z M157,20.6c0,0.6-0.3,0.9-0.6,1.5c-0.3,0.3-0.9,0.6-1.5,0.6
			c-0.6,0-1.2,0-1.5-0.3v-0.9c0.6,0,0.9,0,1.5,0c0.3,0,0.6,0,0.6-0.3c0.3,0,0.3-0.3,0.3-0.6s-0.3-0.6-0.6-0.9
			c-0.3-0.3-0.9-0.3-1.2-0.6c-0.3,0-0.6-0.6-0.6-0.9c0-0.6,0.3-0.9,0.6-1.5c0.3-0.3,0.9-0.3,1.5-0.3c0.3,0,0.9,0,1.2,0.3v0.9
			c0,0-0.3,0-0.6-0.3c-0.3,0-0.3,0-0.6,0c-0.3,0-0.6,0-0.6,0.3c-0.3,0-0.3,0.3-0.3,0.6s0.3,0.6,0.6,0.9c0.3,0.3,0.9,0.3,1.2,0.6
			C157,19.6,157,20,157,20.6 M161.9,22.4c-0.3,0-0.6,0.3-0.9,0.3c-1.2,0-1.9-0.6-1.9-1.9v-3.4h-1.5v-0.9h1.2V15l1.2-0.3v1.9h1.5v0.9
			h-1.5v3.4c0,0.3,0,0.6,0.3,0.9c0.3,0.3,0.3,0.3,0.6,0.3c0.3,0,0.6,0,0.6-0.3v0.6H161.9z M164.4,15h-1.2v-1.2h1.2V15z M164.4,22.4
			h-1.2v-5.9h1.2V22.4z M169.6,22.4c-0.3,0-0.6,0.3-0.9,0.3c-1.2,0-1.9-0.6-1.9-1.9v-3.4h-1.2v-0.9h1.2V15l1.2-0.3v1.9h1.5v0.9h-1.5
			v3.4c0,0.3,0,0.6,0.3,0.9c0-0.3,0.3-0.3,0.6-0.3c0.3,0,0.6,0,0.6-0.3V22.4z M176.4,22.4h-0.9v-0.9l0,0c-0.3,0.3-0.3,0.6-0.9,0.9
			c-0.3,0.3-0.6,0.3-1.2,0.3c-1.5,0-2.2-0.9-2.2-2.5v-3.7h1.2v3.1c0,0.6,0,1.2,0.3,1.5c0.3,0.3,0.6,0.6,0.9,0.6
			c0.6,0,0.9-0.3,1.2-0.6c0.3-0.3,0.3-0.9,0.3-1.9v-2.8h1.2V22.4z M181.7,22.4c-0.3,0-0.6,0.3-0.9,0.3c-1.2,0-1.9-0.6-1.9-1.9v-3.4
			h-1.2v-0.9h1.2V15l1.2-0.3v1.9h1.5v0.9h-1.5v3.4c0,0.3,0,0.6,0.3,0.9c0.3,0.3,0.3,0.3,0.6,0.3c0.3,0,0.6,0,0.6-0.3
			C181.7,21.8,181.7,22.4,181.7,22.4z M188.8,19.3c0,0.9-0.3,1.5-0.9,2.2c-0.6,0.6-1.2,0.9-2.2,0.9s-1.5-0.3-2.2-0.9
			c-0.6-0.6-0.9-1.2-0.9-2.2c0-0.9,0.3-1.5,0.9-2.2c0.6-0.6,1.2-0.9,2.2-0.9c0.9,0,1.5,0.3,2.2,0.9
			C188.5,17.8,188.8,18.4,188.8,19.3 M187.6,19.3c0-0.6-0.3-1.2-0.6-1.5c-0.3-0.3-0.9-0.6-1.2-0.6c-0.6,0-0.9,0.3-1.5,0.6
			c-0.3,0.3-0.6,0.9-0.6,1.5s0,1.2,0.3,1.5c0.3,0.6,0.9,0.6,1.5,0.6s1.2-0.3,1.5-0.6C187.3,20.6,187.6,20,187.6,19.3 M198.7,22.4
			h-0.9v-0.9l0,0c-0.3,0.6-1.2,0.9-2.2,0.9s-1.5-0.3-1.9-0.9c-0.3-0.6-0.6-1.2-0.6-2.2c0-0.9,0.3-1.5,0.6-2.2
			c0.3-0.6,1.2-0.9,1.9-0.9c0.9,0,1.5,0.3,1.9,0.9l0,0v-3.7h1.2V22.4z M197.8,19.3c0-0.6,0-1.2-0.3-1.5c-0.3-0.6-0.9-0.6-1.2-0.6
			c-0.6,0-0.9,0.3-1.2,0.6c-0.3,0.3-0.3,0.9-0.3,1.5s0,0.9,0.3,1.5c0.3,0.6,0.6,0.9,1.2,0.9c0.6,0,0.9-0.3,1.2-0.6
			C197.5,20.6,197.8,20,197.8,19.3 M205.8,19.6h-4.3c0,0.6,0.3,0.9,0.6,1.5c0.3,0.3,0.9,0.6,1.2,0.6c0.3,0,0.6,0,1.2-0.3
			c0.3,0,0.6-0.3,0.6-0.3v1.2c-0.6,0.3-1.2,0.3-1.9,0.3c-0.9,0-1.9-0.3-2.5-0.9c-0.6-0.6-0.6-1.2-0.6-2.5c0-0.9,0.3-1.5,0.9-2.2
			c0.6-0.6,1.2-0.9,2.2-0.9C204.9,16.2,205.8,17.5,205.8,19.6 M204.6,18.7c0-0.6,0-0.9-0.3-1.2c-0.3-0.3-0.6-0.6-1.2-0.6
			s-0.9,0.3-1.2,0.6c-0.3,0.3-0.3,0.6-0.3,1.2H204.6z M216.3,22.1c-0.6,0.3-1.2,0.3-1.9,0.3c-1.2,0-2.5-0.3-3.1-1.2
			c-0.9-0.9-1.2-1.9-1.2-3.1s0.3-2.2,1.2-3.1c0.9-0.6,1.9-1.2,3.1-1.2c0.6,0,1.2,0,1.9,0.3v1.2c-0.6-0.3-1.2-0.6-1.9-0.6
			c-0.9,0-1.5,0.3-2.2,0.9c-0.6,0.6-0.9,1.2-0.9,2.2c0,0.9,0.3,1.9,0.9,2.5c0.6,0.6,1.2,0.9,2.2,0.9c0.6,0,1.2,0,1.9-0.3V22.1z
			 M223.4,19.3c0,0.9-0.3,1.5-0.9,2.2c-0.6,0.6-1.2,0.9-2.2,0.9s-1.5-0.3-2.2-0.9c-0.6-0.6-0.9-1.2-0.9-2.2c0-0.9,0.3-1.5,0.9-2.2
			c0.6-0.6,1.2-0.9,2.2-0.9s1.5,0.3,2.2,0.9C223.1,17.8,223.4,18.4,223.4,19.3 M222.2,19.3c0-0.6-0.3-1.2-0.6-1.5
			c-0.3-0.3-0.9-0.6-1.2-0.6c-0.3,0-0.9,0.3-1.5,0.6c-0.3,0.3-0.6,0.9-0.6,1.5s0.3,1.2,0.3,1.5c0.3,0.6,0.9,0.6,1.5,0.6
			s1.2-0.3,1.5-0.6C222.2,20.6,222.2,20,222.2,19.3 M233.6,22.4h-1.2v-3.7c0-1.2-0.3-1.5-0.9-1.5s-0.9,0.3-1.2,0.6
			c-0.3,0.3-0.3,0.9-0.3,1.5v3.1h-1.2v-3.7c0-1.2-0.3-1.5-0.9-1.5s-0.9,0.3-1.2,0.6c-0.3,0.3-0.3,0.9-0.3,1.5v3.1H225v-5.9h0.9v0.9
			l0,0c0.3-0.6,0.9-0.9,1.9-0.9s1.5,0.3,1.9,1.2c0.3-0.3,0.6-0.6,0.9-0.9c0.3-0.3,0.6-0.3,0.9-0.3c1.5,0,2.2,0.6,2.2,2.2
			C233.6,18.7,233.6,22.4,233.6,22.4z M240.7,22.4h-0.9v-0.9l0,0c-0.3,0.3-0.3,0.6-0.9,0.9c-0.3,0.3-0.6,0.3-1.2,0.3
			c-1.5,0-2.2-0.9-2.2-2.5v-3.7h1.2v3.1c0,0.6,0,1.2,0.3,1.5s0.6,0.6,0.9,0.6c0.6,0,0.9-0.3,1.2-0.6c0.3-0.3,0.3-0.9,0.3-1.9v-2.8
			h1.2V22.4z M248.2,22.4h-1.2v-3.1c0-0.6,0-1.2-0.3-1.5s-0.6-0.6-0.9-0.6c-0.6,0-0.9,0.3-1.2,0.6c-0.3,0.3-0.3,0.9-0.3,1.9v2.8
			h-1.2v-5.9h0.9v0.9l0,0c0.3-0.3,0.3-0.6,0.9-0.9c0.3-0.3,0.6-0.3,1.2-0.3c1.5,0,2.2,0.9,2.2,2.5V22.4z M251.2,15H250v-1.2h1.2V15z
			 M251.2,22.4H250v-5.9h1.2V22.4z M257.4,22.1c-0.3,0.3-0.9,0.3-1.5,0.3c-0.9,0-1.5-0.3-2.2-0.9c-0.6-0.6-0.9-1.2-0.9-2.2
			c0-0.9,0.3-1.5,0.9-2.2c0.6-0.6,1.2-0.9,2.2-0.9c0.6,0,0.9,0,1.2,0.3v0.9c-0.3-0.3-0.9-0.3-1.2-0.3c-0.6,0-0.9,0.3-1.5,0.6
			c-0.3,0.3-0.6,0.9-0.6,1.5s0,1.2,0.6,1.5c0.6,0.6,0.9,0.6,1.9,0.6c0.3,0,0.9,0,1.2-0.3V22.1z M263.3,22.4h-0.9v-0.9l0,0
			c-0.3,0.6-0.9,0.9-1.9,0.9c-0.6,0-1.2-0.3-1.5-0.3c-0.6-0.3-0.6-0.9-0.6-1.5c0-0.6,0.3-1.2,0.9-1.5c0.6-0.3,1.2-0.3,1.9-0.3
			c0.6,0,0.9,0,1.2,0c0-0.6,0-0.9-0.3-1.2s-0.6-0.3-1.2-0.3c-0.6,0-1.2,0.3-1.9,0.6v-0.9c0.6-0.3,1.2-0.6,1.9-0.6
			c0.9,0,1.5,0.3,1.9,0.6c0.3,0.3,0.6,0.9,0.6,1.9v2.5C263.3,21.8,263.3,22.1,263.3,22.4 M262.1,20v-0.6h-0.3h-0.3
			c-1.5,0-2.2,0.3-2.2,1.2c0,0.3,0,0.6,0.3,0.6c0.3,0.3,0.6,0.3,0.6,0.3c0.6,0,0.9,0,1.2-0.3C262.1,20.9,262.1,20.6,262.1,20
			 M269.2,22.1c-0.3,0.3-0.9,0.3-1.5,0.3l0,0l-0.3,0.6l0,0h0.3c0.3,0,0.6,0,0.6,0.3c0.3,0.3,0.3,0.3,0.3,0.6c0,0.3-0.3,0.6-0.6,0.9
			c-0.3,0.3-0.6,0.3-0.9,0.3s-0.6,0-0.9-0.3l0.3-0.3c0.3,0,0.6,0.3,0.6,0.3c0.3,0,0.6-0.3,0.6-0.6S267.3,24,267,24
			c-0.3,0-0.3,0-0.6,0l-0.3-0.3l0.6-0.9c-0.6,0-1.2-0.6-1.9-0.9c-0.3-0.6-0.6-1.2-0.6-2.2c0-0.9,0.3-1.5,0.9-2.2
			c0.6-0.6,1.2-0.9,2.2-0.9c0.6,0,0.9,0,1.2,0.3v0.9c-0.3-0.3-0.9-0.3-1.2-0.3c-0.6,0-0.9,0.3-1.5,0.6c-0.3,0.3-0.6,0.9-0.6,1.5
			s0,1.2,0.6,1.5c0.3,0.6,0.9,0.6,1.5,0.6c0.3,0,0.9,0,1.2-0.3L269.2,22.1z M275.4,22.4h-0.9v-0.9l0,0c-0.3,0.6-0.9,0.9-1.9,0.9
			c-0.6,0-1.2-0.3-1.5-0.3c-0.3-0.3-0.6-0.9-0.6-1.5c0-0.6,0.3-1.2,0.9-1.5c0.6-0.3,1.2-0.3,1.9-0.3c0.6,0,0.9,0,1.2,0
			c0-0.6,0-0.9-0.3-1.2s-0.6-0.3-1.2-0.3c-0.6,0-1.2,0.3-1.9,0.6v-0.9c0.6-0.3,1.2-0.6,1.9-0.6c0.9,0,1.5,0.3,1.9,0.6
			c0.3,0.3,0.6,0.9,0.6,1.9v2.5C275.1,21.8,275.1,22.1,275.4,22.4 M275.1,14.1c0,0.9-0.6,1.2-1.2,1.2c-0.3,0-0.6,0-0.9-0.3
			s-0.6-0.3-0.9-0.3s-0.6,0-0.6,0.6h-0.6c0-0.9,0.6-1.2,1.2-1.2c0.3,0,0.6,0,0.9,0.3s0.6,0.3,0.9,0.3s0.6-0.3,0.6-0.6H275.1z
			 M274.1,20v-0.6h-0.3h-0.3c-1.5,0-2.2,0.3-2.2,1.2c0,0.3,0,0.6,0.3,0.6c0.3,0.3,0.6,0.3,0.6,0.3c0.6,0,0.9,0,1.2-0.3
			C273.8,20.9,274.1,20.6,274.1,20 M282.8,19.3c0,0.9-0.3,1.5-0.9,2.2c-0.6,0.6-1.2,0.9-2.2,0.9c-0.9,0-1.5-0.3-2.2-0.9
			c-0.6-0.6-0.9-1.2-0.9-2.2c0-0.9,0.3-1.5,0.9-2.2c0.6-0.6,1.2-0.9,2.2-0.9c0.9,0,1.5,0.3,2.2,0.9
			C282.5,17.8,282.8,18.4,282.8,19.3 M281.5,19.3c0-0.6-0.3-1.2-0.6-1.5c-0.3-0.3-0.9-0.6-1.2-0.6c-0.3,0-0.9,0.3-1.5,0.6
			c-0.3,0.3-0.6,0.9-0.6,1.5s0,1.2,0.3,1.5c0.3,0.6,0.9,0.6,1.5,0.6c0.6,0,1.2-0.3,1.5-0.6C281.5,20.6,281.5,20,281.5,19.3
			 M292.7,19.6h-4.3c0,0.6,0.3,0.9,0.6,1.5c0.3,0.3,0.9,0.3,1.5,0.3c0.3,0,0.6,0,1.2-0.3c0.3,0,0.6-0.3,0.6-0.3v1.2
			c-0.6,0.3-1.2,0.3-1.9,0.3c-0.9,0-1.9-0.3-2.5-0.9c-0.6-0.6-0.6-1.2-0.6-2.5c0-0.9,0.3-1.5,0.9-2.2c0.6-0.6,1.2-0.9,2.2-0.9
			C291.7,16.2,292.7,17.5,292.7,19.6 M291.4,18.7c0-0.6,0-0.9-0.3-1.2s-0.6-0.6-1.2-0.6c-0.6,0-0.9,0.3-1.2,0.6
			c-0.3,0.3-0.3,0.6-0.3,1.2H291.4z M298.9,22.4h-1.2v-8.3h1.2V22.4z M306,22.4h-1.2v-3.1c0-0.6,0-1.2-0.3-1.5s-0.6-0.6-0.9-0.6
			c-0.6,0-0.9,0.3-1.2,0.6c-0.3,0.3-0.3,0.9-0.3,1.9v2.8h-1.2v-5.9h0.9v0.9l0,0c0.3-0.3,0.3-0.6,0.9-0.9c0.3-0.3,0.6-0.3,1.2-0.3
			c1.5,0,2.2,0.9,2.2,2.5V22.4z M311.5,13.5v0.9c0,0-0.3,0-0.6,0s-0.6,0-0.9,0.3c0,0.3-0.3,0.6-0.3,0.9v0.6h1.5v0.9h-1.5v5.3h-1.2
			v-5.3h-1.5v-0.9h1.5v-0.6c0-0.9,0-1.5,0.3-1.9c0.3-0.3,0.9-0.6,1.5-0.6C310.9,13.5,311.2,13.5,311.5,13.5 M318.3,19.3
			c0,0.9-0.3,1.5-0.9,2.2c-0.6,0.6-1.2,0.9-2.2,0.9c-0.9,0-1.5-0.3-2.2-0.9c-0.6-0.6-0.9-1.2-0.9-2.2c0-0.9,0.3-1.5,0.9-2.2
			c0.6-0.6,1.2-0.9,2.2-0.9c0.9,0,1.5,0.3,2.2,0.9C318,17.8,318.3,18.4,318.3,19.3 M317.1,19.3c0-0.6-0.3-1.2-0.6-1.5
			c-0.3-0.3-0.9-0.6-1.2-0.6c-0.6,0-0.9,0.3-1.5,0.6c-0.3,0.3-0.6,0.9-0.6,1.5s0.3,1.2,0.3,1.5c0.3,0.6,0.9,0.6,1.5,0.6
			c0.6,0,1.2-0.3,1.5-0.6C317.1,20.6,317.1,20,317.1,19.3 M323.3,17.2c-0.3,0-0.3,0-0.6,0c-0.6,0-0.9,0.3-1.2,0.6
			c-0.3,0.3-0.3,0.9-0.3,1.9v2.8h-1.2v-5.9h0.9v0.9l0,0c0.3-0.3,0.3-0.6,0.6-0.9c0.3-0.3,0.6-0.3,0.9-0.3s0.3,0,0.6,0v0.9H323.3z
			 M333.2,22.4h-1.2v-3.7c0-1.2-0.3-1.5-0.9-1.5c-0.6,0-0.9,0.3-1.2,0.6c-0.3,0.3-0.3,0.9-0.3,1.5v3.1h-1.2v-3.7
			c0-1.2-0.3-1.5-0.9-1.5c-0.6,0-0.9,0.3-1.2,0.6c-0.3,0.3-0.3,0.9-0.3,1.5v3.1h-1.2v-5.9h0.9v0.9l0,0c0.3-0.6,0.9-0.9,1.9-0.9
			s1.5,0.3,1.9,1.2c0.3-0.3,0.6-0.6,0.9-0.9c0.3-0.3,0.6-0.3,0.9-0.3c1.5,0,2.2,0.6,2.2,2.2V22.4z M339.7,22.4h-0.9v-0.9l0,0
			c-0.3,0.6-0.9,0.9-1.9,0.9c-0.6,0-1.2-0.3-1.5-0.3c-0.3-0.3-0.6-0.9-0.6-1.5c0-0.6,0.3-1.2,0.9-1.5c0.6-0.3,1.2-0.3,1.9-0.3
			s0.9,0,1.2,0c0-0.6,0-0.9-0.3-1.2s-0.6-0.3-1.2-0.3c-0.6,0-1.2,0.3-1.9,0.6v-0.9c0.6-0.3,1.2-0.6,1.9-0.6c0.9,0,1.5,0.3,1.9,0.6
			c0.3,0.3,0.6,0.9,0.6,1.9v2.5C339.7,21.8,339.7,22.1,339.7,22.4 M338.7,20v-0.6h-0.3h-0.3c-1.5,0-2.2,0.3-2.2,1.2
			c0,0.3,0,0.6,0.3,0.6c0.3,0.3,0.6,0.3,0.6,0.3c0.6,0,0.9,0,1.2-0.3S338.7,20.6,338.7,20 M345.5,22.1c-0.3,0.3-0.9,0.3-1.5,0.3l0,0
			l-0.3,0.6l0,0h0.3c0.3,0,0.6,0,0.6,0.3c0.3,0.3,0.3,0.3,0.3,0.6c0,0.3-0.3,0.6-0.6,0.9c-0.3,0.3-0.6,0.3-0.9,0.3
			c-0.3,0-0.6,0-0.9-0.3l0.3-0.3c0.3,0,0.6,0.3,0.6,0.3c0.3,0,0.6-0.3,0.6-0.6s-0.3-0.3-0.6-0.3c0,0-0.3,0-0.6,0l-0.3-0.3l0.6-0.9
			c-0.6,0-1.2-0.6-1.9-0.9c-0.3-0.6-0.6-1.2-0.6-2.2c0-0.9,0.3-1.5,0.9-2.2c0.6-0.6,1.2-0.9,2.2-0.9c0.6,0,0.9,0,1.2,0.3v0.9
			c-0.3-0.3-0.9-0.3-1.2-0.3c-0.6,0-0.9,0.3-1.5,0.6c-0.3,0.3-0.6,0.9-0.6,1.5s0,1.2,0.6,1.5c0.3,0.6,0.9,0.6,1.5,0.6
			c0.3,0,0.9,0,1.2-0.3L345.5,22.1z M351.7,22.4h-0.9v-0.9l0,0c-0.3,0.6-0.9,0.9-1.9,0.9c-0.6,0-1.2-0.3-1.5-0.3
			c-0.3-0.3-0.6-0.9-0.6-1.5c0-0.6,0.3-1.2,0.9-1.5c0.6-0.3,1.2-0.3,1.9-0.3s0.9,0,1.2,0c0-0.6,0-0.9-0.3-1.2s-0.6-0.3-1.2-0.3
			c-0.6,0-1.2,0.3-1.9,0.6v-0.9c0.6-0.3,1.2-0.6,1.9-0.6c0.9,0,1.5,0.3,1.9,0.6c0.3,0.3,0.6,0.9,0.6,1.9v2.5
			C351.7,21.8,351.7,22.1,351.7,22.4 M351.4,14.1c0,0.9-0.6,1.2-1.2,1.2c-0.3,0-0.6,0-0.9-0.3c-0.3-0.3-0.6-0.3-0.9-0.3
			c-0.3,0-0.6,0-0.6,0.6h-0.6c0-0.9,0.6-1.2,1.2-1.2c0.3,0,0.6,0,0.9,0.3c0.3,0.3,0.6,0.3,0.9,0.3c0.3,0,0.6-0.3,0.6-0.6H351.4z
			 M350.5,20v-0.6h-0.3h-0.3c-1.5,0-2.2,0.3-2.2,1.2c0,0.3,0,0.6,0.3,0.6c0.3,0.3,0.6,0.3,0.6,0.3c0.6,0,0.9,0,1.2-0.3
			C350.5,20.9,350.5,20.6,350.5,20 M359.1,19.3c0,0.9-0.3,1.5-0.9,2.2c-0.6,0.6-1.2,0.9-2.2,0.9c-0.9,0-1.5-0.3-2.2-0.9
			c-0.6-0.6-0.9-1.2-0.9-2.2c0-0.9,0.3-1.5,0.9-2.2c0.6-0.6,1.2-0.9,2.2-0.9c0.9,0,1.5,0.3,2.2,0.9
			C358.8,17.8,359.1,18.4,359.1,19.3 M358.2,19.3c0-0.6-0.3-1.2-0.6-1.5s-0.9-0.6-1.2-0.6c-0.6,0-0.9,0.3-1.5,0.6
			c-0.3,0.3-0.6,0.9-0.6,1.5s0.3,1.2,0.3,1.5c0.3,0.6,0.9,0.6,1.5,0.6s1.2-0.3,1.5-0.6C357.9,20.6,358.2,20,358.2,19.3"/>
		<path class="st0" d="M149.2,36.3c-8,2.9-7.9-10.8,0-8v1.2c-6.4-2.6-6.3,8.4,0,5.9V36.3z M151.7,29.2h-1.2V28h1.2V29.2z
			 M151.7,36.3h-0.9v-5.9h1.2v5.9H151.7z M158.8,33.9h-4.3c0.1,1.9,2.2,2.8,3.7,1.5v1.2C147.8,39.4,156.8,23.4,158.8,33.9
			 M157.9,32.9c0.4-2.4-3.4-2.4-3.1,0H157.9z M165.9,36.3h-1.2c0.9-6.9-3.7-7-2.8,0h-1.2v-5.9h0.9v0.9l0,0
			C165.3,27.3,166.5,33.2,165.9,36.3z M170.9,36.3c-3.4,1.6-2.8-3-2.8-4.9h-1.2v-0.9h1.2v-1.5l1.2-0.3v1.9h1.5v0.9h-1.5
			c0.1,1-0.6,6,1.5,4.3C170.9,35.7,170.9,36.3,170.9,36.3z M173.7,36.3h-1.2v-5.9h1.2V36.3z M174.9,28l-1.5,1.5h-0.9l0.9-1.5H174.9z
			 M179.2,27.7v0.9c-0.3,0-1.2-0.1-1.5,0.3c-0.1,0.5-0.4,1-0.3,1.5h1.5v0.9h-1.5v5.3h-1.2v-5.3h-1.2v-0.9h1.5
			C176.1,28.4,177.2,26.6,179.2,27.7 M181.7,29.2h-1.2V28h1.2V29.2z M181.4,36.3h-1.2v-5.9h1.2V36.3z M187.6,36.3
			c-5.6,2.5-6.1-7.8-0.3-5.6v0.9c-2-1.4-4.8,1.8-2.8,3.4c0.5,0.9,2,0.8,2.8,0.3L187.6,36.3z M193.4,36.3h-0.9v-0.9l0,0
			c-4.4,3.7-5.9-4.2,0-2.8c0.3-2.1-2.2-1.7-3.4-0.9v-0.9C193.5,28.2,193.8,33.4,193.4,36.3 M192.5,34.2v-0.6
			c-1.7-0.3-3.7,0.6-2.5,1.9C191.2,36.3,192.4,35.2,192.5,34.2 M203.6,33.9h-4c0.1,1.9,2.2,2.8,3.7,1.5v1.2
			C192.8,39.3,202.1,23.4,203.6,33.9 M202.7,32.9c0.4-2.4-3.4-2.4-3.1,0H202.7z M214.2,29.2h-2.5v7.1h-1.2v-7.1H208v-0.9h6.2
			C214.2,28.3,214.2,29.2,214.2,29.2z M220.3,33.9H216c0.1,1.9,2.2,2.8,3.7,1.5v1.2C209.3,39.4,218.3,23.4,220.3,33.9 M219.1,32.9
			c0.4-2.4-3.4-2.4-3.1,0H219.1z M225.6,36.3c-5.6,2.5-6.1-7.8-0.3-5.6v0.9c-4.3-2.1-4.4,5.9,0,3.7L225.6,36.3z M232.4,36.3h-1.2
			c0.9-6.9-3.7-7-2.8,0h-1.2v-5.9h0.9v0.9l0,0C231.8,27.3,232.9,33.2,232.4,36.3z M240.1,33.6c0,4-6.2,4-6.2,0
			C233.9,29.6,240.2,29.5,240.1,33.6 M238.9,33.6c0-2.8-4-2.7-4,0C234.4,36.7,239,36.1,238.9,33.6 M242.9,36.3h-1.2v-8.7h1.2V36.3z
			 M250.6,33.6c0,4-6.2,4-6.2,0C244.4,29.6,250.7,29.5,250.6,33.6 M249.4,33.6c0-2.8-4-2.7-4,0C244.9,36.7,249.5,36.1,249.4,33.6
			 M249.1,28l-1.5,1.5h-0.9l0.9-1.5H249.1z M257.4,36.3c0.2,2.8-2.8,3.2-5.3,2.5v-0.9c2.2,1.2,4.3,0.4,4-2.2l0,0
			c-6.3,4.8-5.7-9.2,0-4.3l0,0v-0.9h0.9v5.9H257.4z M256.2,33.6c-0.2-4.2-4.5-1.5-2.8,1.5C254.5,36.5,256.6,35.2,256.2,33.6
			 M260.5,29.2h-1.2V28h1.2V29.2z M260.5,36.3h-1.2v-5.9h1.2V36.3z M266.7,36.3c-5.6,2.5-6.1-7.8-0.3-5.6v0.9
			c-2-1.4-4.8,1.8-2.8,3.4c0.5,0.9,2,0.8,2.8,0.3L266.7,36.3z M272.6,36.3h-0.9v-0.9l0,0c-4.4,3.6-6.1-3.6,0-2.5
			c0.3-2.1-2.2-1.7-3.4-0.9v-0.9C272.4,28.6,273,33.3,272.6,36.3 M271.7,34.2v-0.6c-1.7-0.3-3.7,0.6-2.5,1.9
			C270.4,36.3,271.6,35.2,271.7,34.2 M282.8,33.9h-4.3c0.1,1.9,2.2,2.8,3.7,1.5v1.2C271.7,39.4,280.8,23.4,282.8,33.9 M281.5,32.9
			c0.4-2.4-3.4-2.4-3.1,0H281.5z M293,36.3h-1.2c0.8-7.8-3.3-6.4-2.5,0.3H288c0.9-7.3-3.2-6.9-2.5,0h-1.2v-5.9h0.9v0.9l0,0
			c0.6-1.3,3.3-1.3,3.7,0.3C292.4,28.2,293.5,33.5,293,36.3z M302.6,34.2c0,2.4-2.7,2.9-4.6,2.2v-1.2c3.9,1.4,4.4-2.2,0.6-3.1
			c-2.7-2.1,0.9-5.2,3.4-3.7l-0.3,1.2c-1.9-1.1-4.5,0.6-2.2,2.2C301.1,33.1,302.5,32,302.6,34.2 M308.8,36.3h-0.9v-0.9l0,0
			c-4.4,3.7-5.9-4.2,0-2.8c0.3-2.1-2.2-1.7-3.4-0.9v-0.9C308.8,28.2,309.1,33.4,308.8,36.3 M307.8,34.2v-0.6
			c-1.6-0.3-3.7,0.6-2.5,1.9C306.5,36.3,307.7,35.2,307.8,34.2 M316.2,36.3h-0.9v-0.9l0,0c-3.7,4.1-4.9-1.8-4.3-4.9h1.2
			c-0.9,6.9,3.7,7,2.8,0h1.2V36.3z M314.9,28l-1.5,1.5h-0.9l0.9-1.5H314.9z M323.3,36.3h-0.9v-0.9l0,0c-5.9,5-6-9.1-0.3-4.3l0,0
			v-3.4h1.2V36.3z M322,33.6c0.5-2.9-3.6-2.7-3.1,0C318.6,36.8,322.6,36.5,322,33.6 M330.4,33.9h-4.3c0.1,1.9,2.2,2.8,3.7,1.5v1.2
			C319.4,39.4,328.4,23.4,330.4,33.9 M329.2,32.9c0.4-2.4-3.4-2.4-3.1,0H329.2z"/>
	</g>
	<g>
		<polygon class="st1" points="7.8,21.2 7.8,30.5 49.8,30.3 49.8,28.1 37.9,17.5 43.6,15.3 55.1,25.8 55.1,35.4 2.4,35.4 2.4,26 		
			"/>
		<path class="st1" d="M28.8,1.6l14.8,13.7l6.1-2.1C49.6,13.2,28.8,1.6,28.8,1.6"/>
		<polygon class="st1" points="29,9.3 38,17.5 7.8,28.1 		"/>
		<rect x="63.3" y="15.3" class="st0" width="2.8" height="20.1"/>
		<path class="st0" d="M84.3,35.3c-1.2,0.5-2.7,0.7-4.6,0.7c-3.2,0-5.7-0.9-7.7-2.8c-2-2-2.8-4.5-2.8-7.7c0-3,1.1-5.5,3-7.5
			s4.5-2.8,7.7-2.8c1.8,0,3.2,0.4,4.5,0.9l-0.2,2.8c-1.2-0.7-2.7-1.1-4.1-1.1c-2.3,0-4.1,0.7-5.5,2.3c-1.4,1.4-2.1,3.4-2.1,5.7
			s0.7,4.3,2.1,5.7c1.4,1.4,3.2,2.1,5.3,2.1c1.8,0,3.2-0.4,4.5-0.9L84.3,35.3"/>
		<rect x="87.9" y="15.5" class="st0" width="2.8" height="20.1"/>
		<path class="st0" d="M108.9,35.1c-1.2,0.5-2.7,0.7-4.6,0.7c-3.2,0-5.7-0.9-7.7-2.8c-2-2-2.8-4.5-2.8-7.7c0-3,1.1-5.5,3-7.5
			s4.5-2.8,7.7-2.8c1.8,0,3.2,0.4,4.5,0.9l-0.2,2.8c-1.2-0.7-2.7-1.1-4.1-1.1c-2.3,0-4.1,0.7-5.5,2.3c-1.4,1.4-2.1,3.4-2.1,5.7
			c0,2.3,0.7,4.3,2.1,5.7c1.4,1.4,3.2,2.1,5.3,2.1c1.8,0,3.2-0.4,4.5-0.9L108.9,35.1"/>
		<polygon class="st0" points="126.7,18 120.5,18 120.5,35.4 117.6,35.4 117.6,18 111.4,18 111.4,15.3 126.7,15.3 		"/>
	</g>
</g>
</svg>
