<?xml version="1.0" encoding="utf-8"?>
<!-- Generator: Adobe Illustrator 25.0.1, SVG Export Plug-In . SVG Version: 6.00 Build 0)  -->
<svg version="1.1" id="Camada_1" xmlns="http://www.w3.org/2000/svg" xmlns:xlink="http://www.w3.org/1999/xlink" x="0px" y="0px"
	 viewBox="0 0 992 344" style="enable-background:new 0 0 992 344;" xml:space="preserve">
<style type="text/css">
	.st0{fill:#58595B;}
	.st1{fill:#E6BD2A;}
	.st2{fill:none;stroke:#E6BD2A;stroke-width:0.216;stroke-miterlimit:22.926;}
	.st3{fill:#D0462C;}
	.st4{fill:none;stroke:#D0462C;stroke-width:1.051;stroke-linecap:round;stroke-linejoin:round;stroke-miterlimit:22.926;}
	.st5{fill:none;stroke:#E6BD2A;stroke-width:0.696;stroke-miterlimit:22.926;}
</style>
<path class="st0" d="M542.1,261.5c0.2-0.1,0.4-0.2,0.8-0.2c0.4-0.1,0.8-0.2,1.1-0.3c0.2-0.2,0.3-0.4,0.4-0.7
	c0.1-0.4,0.1-1.9,0.1-4.3c0-2.4-0.1-4-0.2-4.7c-0.2-0.2-0.6-0.3-1-0.4c-0.1,0-0.4-0.1-0.8-0.2v-0.6c0.7-0.2,1.2-0.5,1.6-0.8
	c0.4-0.3,1-0.9,1.7-1.8h0.1c0.1,0,0.2,0,0.3,0c0.1,0,0.2,0,0.2,0.1l0,2c0,0.4,0,0.8,0,1.3c1.2-1.1,2.3-1.9,3.3-2.3
	c0.7-0.3,1.4-0.4,2.2-0.4c1,0,1.8,0.2,2.4,0.6c0.6,0.4,1.1,1,1.7,2c1-1,1.9-1.7,2.7-2.1c0.8-0.4,1.7-0.6,2.5-0.6
	c1.3,0,2.3,0.4,3.1,1.2c0.8,0.8,1.2,2.1,1.3,3.7v1.4l0,1.6l0,4c0,0.5,0.1,0.8,0.3,1.1c0.1,0,0.4,0.1,1,0.3c0.4,0.1,0.6,0.2,0.7,0.2
	c0.1,0,0.1,0.1,0.1,0.2c0,0.1,0,0.3-0.1,0.4h-0.1l-1.7-0.1c-0.2,0-0.5,0-1,0c-0.5,0-1.3,0-2.3,0.1h-0.9c-0.1,0-0.4,0-0.7,0
	c0-0.1,0-0.2,0-0.3c0-0.1,0-0.2,0.1-0.3c0.3-0.1,0.7-0.2,1.3-0.3c0.5-0.1,0.9-0.2,1-0.5c0.1-0.2,0.2-1.1,0.2-2.6
	c0-3.3,0-5.3-0.1-5.8c-0.1-0.9-0.5-1.5-1.1-2c-0.6-0.5-1.3-0.7-2.2-0.7c-0.7,0-1.3,0.2-2,0.5c-0.6,0.4-1.3,0.9-1.9,1.6l0,0.4v2.6
	l-0.1,2c0,2.1,0,3.2,0.1,3.5c0,0.3,0.1,0.5,0.3,0.6c0.1,0.1,0.6,0.2,1.3,0.3c0.3,0.1,0.6,0.1,0.8,0.1c0.1,0.1,0.2,0.3,0.2,0.4
	c0,0.1-0.1,0.2-0.2,0.3h-0.3l-0.9,0h-5l-1.4,0c0-0.2,0-0.3,0-0.4l0-0.2c0.3-0.1,0.7-0.3,1.4-0.4c0.4-0.1,0.7-0.1,1.1-0.3
	c0.1-0.1,0.1-0.1,0.1-0.2c0.1-0.2,0.1-0.6,0.1-1.4l0.1-2l0-2.2l0-1.2c0-1.4-0.3-2.4-0.8-3.1c-0.6-0.6-1.3-1-2.1-1
	c-0.8,0-1.6,0.2-2.4,0.6c-0.8,0.4-1.5,0.9-2,1.6c0,0.3,0,0.6,0,0.9l0.1,5.7c0,1.3,0.1,2,0.2,2.1c0.1,0.2,0.4,0.3,0.9,0.4
	c0.7,0.1,1.2,0.2,1.4,0.4c0.1,0.1,0.2,0.2,0.2,0.3c0,0.1,0,0.2,0,0.3c-1.3-0.1-2.2-0.1-2.6-0.1c-0.5,0-0.9,0-1.2,0l-0.8,0H544
	l-1.9,0.1c0-0.1,0-0.1,0-0.2C542,261.8,542.1,261.7,542.1,261.5 M524.2,252.5h0.8c0.6,0,2.3-0.1,5.2-0.3c0.5,0,0.7-0.1,0.8-0.1
	c0.2-0.2,0.3-0.4,0.3-0.6c0-0.4-0.1-0.8-0.3-1.2c-0.2-0.4-0.6-0.8-1.1-1c-0.5-0.2-1-0.4-1.6-0.4c-1.3,0-2.4,0.5-3.2,1.5
	C524.5,251.1,524.2,251.8,524.2,252.5 M533.7,253.1l-6.8,0.1h-1.3c-0.5,0-1.1,0-1.6,0.1c-0.1,0.3-0.1,0.6-0.1,0.7v0.2v0.2v0.8
	c0,0.7,0.2,1.5,0.6,2.5c0.4,1,1.1,1.8,1.9,2.3c0.8,0.5,1.8,0.8,3,0.8c0.6,0,1.2-0.1,1.6-0.2c0.4-0.1,0.9-0.4,1.6-0.9l1.2-1l0.1,0.7
	c0,0.1,0,0.2,0,0.3c-0.5,0.7-1.2,1.2-2,1.7c-0.8,0.5-1.6,0.9-2.4,1.1c-0.4,0.1-1,0.1-1.9,0.1c-0.8,0-1.6-0.2-2.4-0.5
	c-1.2-0.5-2.1-1.3-2.8-2.4c-0.7-1.1-1-2.4-1-4c0-0.5,0.1-1.1,0.3-1.9c0.2-0.8,0.5-1.6,1-2.5c0.3-0.6,0.7-1.1,1.2-1.5
	c0.7-0.5,1.3-0.9,1.8-1.1c0.7-0.3,1.6-0.5,2.6-0.5c1.1,0,1.9,0.2,2.6,0.6c0.9,0.5,1.6,1.2,2,2c0.4,0.8,0.7,1.6,0.7,2.2V253.1z
	 M308,252.5h0.8c0.6,0,2.3-0.1,5.2-0.3c0.5,0,0.7-0.1,0.8-0.1c0.2-0.2,0.3-0.4,0.3-0.6c0-0.4-0.1-0.8-0.3-1.2
	c-0.2-0.4-0.6-0.8-1.1-1c-0.5-0.2-1-0.4-1.6-0.4c-1.3,0-2.4,0.5-3.2,1.5C308.3,251.1,308,251.8,308,252.5 M317.5,253.1l-6.8,0.1
	h-1.3c-0.5,0-1.1,0-1.6,0.1c-0.1,0.3-0.1,0.6-0.1,0.7l0,0.2v0.2l0,0.8c0,0.7,0.2,1.5,0.7,2.5c0.4,1,1.1,1.8,1.9,2.3
	c0.8,0.5,1.8,0.8,3,0.8c0.7,0,1.2-0.1,1.6-0.2c0.4-0.1,0.9-0.4,1.6-0.9l1.2-1l0.1,0.7c0,0.1,0,0.2,0,0.3c-0.5,0.7-1.2,1.2-1.9,1.7
	c-0.8,0.5-1.6,0.9-2.4,1.1c-0.4,0.1-1,0.1-1.9,0.1c-0.8,0-1.6-0.2-2.4-0.5c-1.2-0.5-2.1-1.3-2.7-2.4c-0.7-1.1-1-2.4-1-4
	c0-0.5,0.1-1.1,0.3-1.9c0.2-0.8,0.5-1.6,1-2.5c0.3-0.6,0.7-1.1,1.2-1.5c0.7-0.5,1.3-0.9,1.8-1.1c0.7-0.3,1.6-0.5,2.6-0.5
	c1.1,0,1.9,0.2,2.6,0.6c0.9,0.5,1.6,1.2,2,2c0.4,0.8,0.7,1.6,0.7,2.2V253.1z M292.3,260.3c0-0.8,0.1-2.3,0.1-4.7
	c0-2-0.1-3.3-0.3-3.8c-0.2-0.5-0.7-1-1.4-1.5c-0.7-0.5-1.6-0.7-2.5-0.7c-1.3,0-2.4,0.5-3.3,1.5c-0.9,1-1.4,2.5-1.4,4.5
	c0,1.7,0.5,3.1,1.5,4.2c1,1,2.2,1.6,3.7,1.6c0.8,0,1.6-0.1,2.3-0.4C291.6,260.7,292.1,260.5,292.3,260.3 M292.3,249.7l0-0.5l0-2
	l0-3.8c0-1.1-0.1-1.7-0.3-2c-0.2-0.3-0.9-0.6-2-0.9c-0.1,0-0.2-0.1-0.4-0.1v-0.2c0-0.1,0-0.2,0-0.4c1.5-0.2,2.9-0.4,4-0.8l0.9,0
	c0,0.8,0.1,1.6,0.1,2.6l-0.1,6.6l0.1,7.4l-0.1,3.9c0,0.8,0.1,1.3,0.2,1.4c0.2,0.2,0.7,0.4,1.5,0.4c0.2,0,0.4,0,0.7,0v0.3
	c0,0.1,0,0.2,0,0.2c-0.4,0.1-0.7,0.2-1.1,0.2l-2.5,0.5c-0.4,0.1-0.7,0.1-0.9,0.1v-1.6c-0.2,0.1-0.5,0.2-0.9,0.3
	c-1.8,0.8-3.4,1.1-4.9,1.1c-0.9,0-1.8-0.3-2.7-0.9c-0.9-0.6-1.6-1.4-2.1-2.4c-0.5-1-0.8-2.1-0.8-3.2c0-1,0.2-1.9,0.5-2.8
	c0.3-0.9,0.8-1.6,1.3-2.2c0.3-0.4,0.8-0.8,1.5-1.1c0.6-0.4,1.1-0.6,1.6-0.7c1-0.3,1.7-0.4,2-0.4c1.5,0,2.8,0.2,3.8,0.7
	C291.9,249.6,292.2,249.7,292.3,249.7 M255.5,261.9c0.9,0,1.7-0.2,2.5-0.7c0.8-0.5,1.4-1.2,1.9-2.2c0.5-1,0.7-2.2,0.7-3.6
	c0-0.9-0.2-1.9-0.6-3.1c-0.4-1.2-0.9-2-1.7-2.6c-0.8-0.6-1.7-0.9-2.7-0.9c-0.8,0-1.5,0.2-2.3,0.5c-0.8,0.3-1.4,1-2,2
	c-0.5,1-0.8,2.4-0.8,4.3c0,2.1,0.5,3.6,1.4,4.7C252.9,261.4,254.1,261.9,255.5,261.9 M247.9,255.3c0-0.8,0.2-1.6,0.5-2.5
	c0.3-0.9,0.8-1.7,1.5-2.4c0.7-0.7,1.4-1.2,2.1-1.6c1-0.5,2.3-0.7,3.8-0.7c2.1,0,3.9,0.7,5.3,2.2c1.4,1.5,2.1,3.2,2.1,5.2
	c0,1.8-0.7,3.4-2.2,4.9c-1.5,1.4-3.4,2.1-5.7,2.1c-1.4,0-2.7-0.4-4-1.1c-0.9-0.6-1.7-1.4-2.4-2.5
	C248.2,257.9,247.9,256.7,247.9,255.3 M229.5,252.5h0.8c0.6,0,2.3-0.1,5.2-0.3c0.4,0,0.7-0.1,0.8-0.1c0.2-0.2,0.3-0.4,0.3-0.6
	c0-0.4-0.1-0.8-0.3-1.2c-0.2-0.4-0.6-0.8-1-1c-0.5-0.2-1-0.4-1.7-0.4c-1.3,0-2.4,0.5-3.2,1.5C229.8,251.1,229.5,251.8,229.5,252.5
	 M239,253.1l-6.8,0.1h-1.3c-0.5,0-1.1,0-1.6,0.1c-0.1,0.3-0.1,0.6-0.1,0.7l0,0.2v0.2l0,0.8c0,0.7,0.2,1.5,0.7,2.5
	c0.4,1,1.1,1.8,1.9,2.3c0.8,0.5,1.8,0.8,3.1,0.8c0.6,0,1.2-0.1,1.6-0.2c0.4-0.1,0.9-0.4,1.6-0.9l1.2-1l0.1,0.7c0,0.1,0,0.2,0,0.3
	c-0.5,0.7-1.2,1.2-2,1.7c-0.8,0.5-1.6,0.9-2.4,1.1c-0.4,0.1-1,0.1-1.9,0.1c-0.8,0-1.6-0.2-2.4-0.5c-1.2-0.5-2.1-1.3-2.7-2.4
	c-0.7-1.1-1-2.4-1-4c0-0.5,0.1-1.1,0.3-1.9c0.2-0.8,0.5-1.6,1-2.5c0.3-0.6,0.7-1.1,1.2-1.5c0.7-0.5,1.3-0.9,1.8-1.1
	c0.7-0.3,1.6-0.5,2.6-0.5c1.1,0,1.9,0.2,2.6,0.6c0.9,0.5,1.6,1.2,2,2c0.5,0.8,0.7,1.6,0.7,2.2V253.1z M211.7,241v-0.4
	c0.3-0.1,0.7-0.2,1.1-0.3c0.6-0.2,1.4-0.4,2.5-0.8h0.8c0,0.5,0,0.9,0,0.9c0,9.3,0,14.9-0.1,16.7c0,1.1-0.1,1.6-0.1,1.7
	c0,1.3,0.1,2,0.2,2.1c0.1,0.2,0.5,0.4,1.3,0.4c0.7,0.1,1.1,0.2,1.2,0.2c0.1,0,0.1,0.1,0.1,0.2c0,0.1,0,0.2-0.1,0.3
	c0,0-0.1,0.1-0.3,0.1c-0.1,0-0.7,0-1.8,0l-2.2-0.1l-2.9,0.1c-0.2,0-0.3,0-0.4-0.1c-0.1-0.1-0.1-0.1-0.1-0.2c0-0.1,0-0.2,0.1-0.2
	c0.1,0,0.5-0.1,1.2-0.3c0.7-0.1,1.2-0.2,1.3-0.3c0.1-0.1,0.2-0.3,0.2-0.6c0-0.4,0.1-1.6,0.1-3.5l0-3.9l0.1-4.1l0-4.1l0-2
	c0-0.4-0.1-0.7-0.2-0.9c-0.1-0.2-0.4-0.3-0.8-0.5C212.4,241.3,211.9,241.1,211.7,241 M203.3,259l0,1.1c-0.9,0.9-1.8,1.6-2.6,2
	c-0.9,0.4-1.9,0.6-3.1,0.6c-1.3,0-2.4-0.3-3.4-1c-1-0.7-1.8-1.6-2.4-2.8c-0.5-1.2-0.8-2.4-0.8-3.6c0-1.3,0.3-2.5,1-3.6
	c0.7-1.1,1.6-2,2.6-2.6c1.1-0.5,2.5-0.8,4.1-0.8c1.6,0,2.8,0.3,3.6,0.8c0.5,0.3,0.7,0.7,0.7,1.2c0,0.4-0.1,0.7-0.4,0.9
	c-0.2,0.2-0.5,0.4-0.9,0.4c-0.6,0-1.2-0.4-1.9-1.1c-0.4-0.4-0.8-0.7-1.1-0.9c-0.3-0.2-0.7-0.2-1.1-0.2c-1,0-1.9,0.4-2.5,1.2
	c-0.9,1.2-1.4,2.7-1.4,4.5c0,1.8,0.5,3.3,1.4,4.4c1,1.1,2.1,1.6,3.4,1.6c0.9,0,1.7-0.1,2.4-0.4C201.5,260.3,202.3,259.8,203.3,259
	 M172.8,245.3l2.1-3c0.6-0.9,1.2-1.6,1.8-2c0.2-0.2,0.5-0.3,0.8-0.3c0.3,0,0.5,0.1,0.7,0.3c0.2,0.2,0.3,0.4,0.3,0.6
	c0,0.2-0.1,0.4-0.2,0.7c-0.2,0.2-0.5,0.6-1.1,1l-4,2.7l-0.2,0L172.8,245.3z M166.4,248.7h1.3l0.6,0l0.5,0c1.2,0,1.9,0,2.2,0l0,0.3
	c0,1.6,0,3.2-0.1,4.7c0,0.9-0.1,1.4-0.1,1.5c0,2,0.1,3.2,0.2,3.7c0.1,0.5,0.4,0.9,0.9,1.2c0.5,0.3,1.1,0.5,1.7,0.5
	c0.8,0,1.6-0.2,2.4-0.5c0.7-0.4,1.4-0.8,1.9-1.3c0.1-0.4,0.1-0.9,0.1-1.4c0-1.7,0-2.8,0-3.4c0-0.4,0-0.7,0-0.9
	c0-1.8-0.1-2.9-0.3-3.1c-0.2-0.2-0.9-0.4-2.1-0.5c-0.4-0.1-0.7-0.1-0.9-0.1c-0.1-0.2-0.1-0.3-0.1-0.4l0.1-0.2c0.3,0,0.6,0,0.9,0
	l2.7,0c1,0,1.5,0,1.5,0c0.1,0,0.2,0,0.4,0l0,1.2c-0.1,1.7-0.1,3.9-0.1,6.4l0,1.4l0.1,2.3c0.1,0.2,0.2,0.3,0.3,0.3
	c0.1,0.1,0.4,0.1,0.8,0.1h0.2c0.1,0,0.6,0,1.3,0.1c0,0.1,0,0.3,0,0.3v0.2c-1.5,0.3-2.8,0.7-3.7,1c-0.4,0.1-0.7,0.2-1,0.3
	c0-0.4-0.1-0.6-0.1-0.7v-1.4c0-0.1,0-0.2,0-0.5c-0.1,0.1-0.3,0.2-0.5,0.4c-0.9,0.7-1.8,1.3-2.8,1.8c-0.7,0.3-1.3,0.5-1.9,0.5
	c-1.2,0-2.2-0.5-2.9-1.3c-0.8-0.9-1.1-2.4-1.1-4.5c0-0.1,0-0.3,0-0.6c0.1-0.5,0.1-0.9,0.1-1.1c0-0.1,0-0.3,0-0.7c0-0.2,0-0.3,0-0.5
	c0-0.1,0-0.3,0-0.7c0-0.4,0-0.6,0-0.8c0-0.2,0-0.4,0-0.5l0-0.9l0-0.5c0-0.2-0.1-0.4-0.3-0.5c-0.7-0.2-1.2-0.3-1.4-0.3
	c-0.2,0-0.4-0.1-0.6-0.1V248.7z M142.1,261.6c0.3-0.1,0.6-0.1,1-0.2c0.7-0.1,1.1-0.2,1.3-0.4c0.1-0.1,0.2-0.4,0.2-0.9l0-0.6
	c0-0.2,0-0.5,0-0.9l0-5.2c0-0.7-0.1-1.2-0.3-1.4c-0.3-0.3-0.9-0.5-1.7-0.7v-0.6c0.8-0.2,1.5-0.5,1.9-0.9c0.7-0.5,1.2-1.2,1.6-2.1
	l0.6,0c0,0.5,0,0.9,0,1.1v1.1l0,0.3c0.1-0.1,0.3-0.2,0.5-0.4c0.7-0.5,1.4-0.9,2.1-1.2c0.7-0.3,1.4-0.6,1.9-0.7
	c0.3-0.1,0.7-0.1,1.2-0.1c0.9,0,1.7,0.3,2.4,0.8c0.7,0.5,1.1,1.1,1.3,1.8c0.2,0.7,0.3,2,0.3,4v2.6c0,0.1,0,0.3,0,0.7
	c0,0.4,0,0.8,0,1.3c0,0.8,0,1.3,0.1,1.5c0.1,0.2,0.2,0.3,0.4,0.4c1.1,0.1,1.7,0.3,1.9,0.5v0.1c0,0.1,0,0.2-0.1,0.4h-0.3l-2.3,0
	l-2.2,0c-0.8,0-1.6,0-2.3,0l-0.1-0.4c0-0.1,0-0.2,0.1-0.3c0.3-0.1,0.7-0.2,1.3-0.3c0.3,0,0.6,0,0.7-0.1c0.1,0,0.3-0.1,0.5-0.3
	c0.1-0.3,0.2-0.5,0.2-0.7c0-0.1,0-0.2,0-0.5c0-0.5-0.1-1.8-0.1-3.9v-0.9l0-1.4c0-1.5-0.3-2.5-0.9-3c-0.6-0.6-1.4-0.8-2.4-0.8
	c-0.8,0-1.5,0.2-2.2,0.5c-0.7,0.3-1.4,0.8-2.1,1.5c0,0.6,0,1,0,1.4l0.1,3.8c0,2,0,3.2,0.1,3.6c0,0.2,0.1,0.3,0.1,0.4
	c0.1,0.1,0.3,0.2,0.5,0.2c0.3,0.1,0.6,0.1,1,0.2c0.4,0.1,0.6,0.2,0.7,0.2c0.2,0,0.4,0.2,0.5,0.3l0,0.3h-1.8l-3.7,0
	c-0.9,0-1.4,0-1.6,0H142l0-0.2C142,261.8,142,261.7,142.1,261.6"/>
<path class="st1" d="M675.9,252.5h0.8c0.6,0,2.3-0.1,5.2-0.3c0.4,0,0.7-0.1,0.8-0.1c0.2-0.2,0.3-0.4,0.3-0.6c0-0.4-0.1-0.8-0.3-1.2
	c-0.2-0.4-0.6-0.8-1.1-1c-0.5-0.3-1-0.4-1.6-0.4c-1.3,0-2.4,0.5-3.2,1.5C676.2,251.1,675.9,251.8,675.9,252.5 M685.4,253.1l-6.8,0.1
	h-1.3c-0.5,0-1.1,0-1.6,0.1c-0.1,0.3-0.2,0.6-0.2,0.7l0,0.2v0.2l0,0.9c0,0.7,0.2,1.6,0.7,2.6c0.4,1,1.1,1.8,1.9,2.3
	c0.8,0.5,1.8,0.8,3.1,0.8c0.6,0,1.2-0.1,1.5-0.2c0.4-0.1,0.9-0.4,1.6-0.9l1.2-1l0.1,0.7c0,0.1,0,0.2,0,0.3c-0.5,0.7-1.2,1.2-1.9,1.7
	c-0.8,0.5-1.6,0.9-2.4,1.1c-0.4,0.1-1,0.1-1.9,0.1c-0.8,0-1.6-0.2-2.4-0.5c-1.2-0.5-2.1-1.3-2.7-2.4c-0.7-1.1-1-2.5-1-4.1
	c0-0.5,0.1-1.1,0.3-1.9c0.2-0.8,0.5-1.6,1-2.5c0.3-0.6,0.7-1.1,1.2-1.5c0.7-0.6,1.3-0.9,1.8-1.1c0.7-0.3,1.6-0.5,2.6-0.5
	c1.1,0,1.9,0.2,2.6,0.6c0.9,0.5,1.6,1.2,2,2c0.4,0.8,0.7,1.6,0.7,2.2V253.1z M660.3,260.3c0-0.8,0.1-2.4,0.1-4.7
	c0-2-0.1-3.3-0.3-3.8c-0.2-0.5-0.7-1-1.4-1.5c-0.8-0.5-1.6-0.7-2.5-0.7c-1.3,0-2.4,0.5-3.3,1.5c-0.9,1-1.4,2.5-1.4,4.5
	c0,1.7,0.5,3.1,1.5,4.2c1,1,2.2,1.6,3.7,1.6c0.8,0,1.6-0.1,2.3-0.3C659.6,260.7,660,260.5,660.3,260.3 M660.2,249.7l0-0.5l0-2l0-3.8
	c0-1.1-0.1-1.7-0.3-2c-0.2-0.3-0.9-0.6-2-0.9c-0.1,0-0.2-0.1-0.4-0.1v-0.2c0-0.1,0-0.2,0-0.4c1.5-0.2,2.9-0.4,4-0.8l0.9,0
	c0,0.8,0.1,1.7,0.1,2.6l-0.1,6.6l0.1,7.4l-0.1,4c0,0.8,0.1,1.3,0.2,1.4c0.2,0.2,0.7,0.4,1.5,0.4c0.2,0,0.4,0,0.7,0v0.3
	c0,0.1,0,0.2,0,0.3c-0.4,0.1-0.7,0.1-1.1,0.2l-2.5,0.5c-0.4,0.1-0.7,0.1-0.9,0.1v-1.6c-0.2,0.1-0.5,0.2-0.9,0.3
	c-1.8,0.8-3.4,1.1-4.9,1.1c-0.9,0-1.8-0.3-2.7-0.9c-0.9-0.6-1.7-1.4-2.2-2.5c-0.5-1.1-0.7-2.1-0.7-3.2c0-1,0.2-1.9,0.5-2.8
	c0.3-0.9,0.8-1.6,1.3-2.2c0.3-0.4,0.8-0.8,1.4-1.2c0.6-0.4,1.1-0.6,1.6-0.7c1-0.3,1.7-0.4,2-0.4c1.5,0,2.8,0.2,3.8,0.7
	C659.8,249.6,660.1,249.7,660.2,249.7 M630.9,245.3l2.1-3.1c0.6-0.9,1.2-1.6,1.8-2c0.3-0.2,0.5-0.3,0.8-0.3c0.3,0,0.6,0.1,0.7,0.3
	c0.2,0.2,0.3,0.4,0.3,0.6c0,0.2-0.1,0.4-0.2,0.7c-0.2,0.2-0.5,0.6-1.1,1l-4,2.8l-0.2,0L630.9,245.3z M624.6,248.7h1.3l0.6,0l0.4,0
	c1.2,0,1.9,0,2.2,0l0,0.3c0,1.6,0,3.2-0.1,4.7c0,0.9,0,1.4,0,1.5c0,2,0.1,3.3,0.2,3.8c0.1,0.5,0.4,0.9,0.9,1.2
	c0.5,0.3,1.1,0.5,1.7,0.5c0.8,0,1.6-0.2,2.4-0.5c0.8-0.4,1.4-0.8,1.9-1.3c0.1-0.4,0.1-0.9,0.1-1.4c0-1.7,0-2.9,0.1-3.4
	c0-0.4,0-0.7,0-0.9c0-1.8-0.1-2.9-0.3-3.1c-0.2-0.2-0.9-0.4-2.1-0.6c-0.4,0-0.7-0.1-0.9-0.1c-0.1-0.2-0.1-0.3-0.1-0.4l0.1-0.2
	c0.3,0,0.6,0,0.9,0l2.7,0c1,0,1.5,0,1.5,0c0.1,0,0.2,0,0.4,0l0,1.2c-0.1,1.7-0.1,3.9-0.1,6.5l0,1.4l0.1,2.3c0.1,0.2,0.2,0.3,0.3,0.3
	c0.1,0,0.4,0.1,0.8,0.1h0.2c0.1,0,0.6,0,1.2,0.1c0,0.2,0,0.3,0,0.3v0.2c-1.5,0.3-2.8,0.7-3.7,1c-0.4,0.1-0.7,0.2-0.9,0.3
	c-0.1-0.4-0.1-0.6-0.1-0.8v-1.4c0-0.1,0-0.2,0-0.5c-0.1,0.1-0.3,0.2-0.5,0.4c-0.9,0.7-1.9,1.3-2.8,1.8c-0.7,0.3-1.3,0.5-2,0.5
	c-1.2,0-2.2-0.5-2.9-1.3c-0.8-0.9-1.1-2.4-1.1-4.6c0-0.1,0-0.3,0-0.6c0-0.5,0.1-0.9,0.1-1.1c0-0.1,0-0.3,0-0.8c0-0.2,0-0.3,0-0.5
	c0-0.1,0-0.3,0-0.7c0-0.4,0-0.6,0-0.8c0-0.2,0-0.4,0-0.5l0-0.9l0-0.5c0-0.2-0.1-0.4-0.3-0.5c-0.7-0.2-1.2-0.3-1.4-0.3
	c-0.2,0-0.4-0.1-0.6-0.1V248.7z M612,259.3c0.1-1.5,0.1-2.5,0.1-3.1c0-0.3,0-0.7-0.1-1.3c-0.8,0.3-1.6,0.7-2.4,1.3
	c-0.8,0.6-1.5,1.2-2,1.9c-0.4,0.5-0.5,1-0.5,1.5c0,0.4,0.2,0.8,0.5,1.1c0.3,0.3,0.7,0.4,1.1,0.4c0.4,0,0.8-0.1,1.3-0.4
	C610.6,260.5,611.3,260,612,259.3 M617,259.8c0.1,0.1,0.1,0.2,0.1,0.3c0,0.2-0.1,0.5-0.4,0.9c-0.4,0.6-0.7,1-1.2,1.2
	c-0.3,0.2-0.6,0.2-1.1,0.2c-0.8,0-1.4-0.2-1.8-0.8c-0.3-0.3-0.4-0.8-0.5-1.6l-1.9,1.3c-0.7,0.4-1.2,0.6-1.5,0.7
	c-0.6,0.1-1.3,0.2-2,0.2c-0.6,0-1-0.2-1.4-0.5c-0.3-0.3-0.5-0.8-0.5-1.3c0-0.8,0.5-1.7,1.4-2.8c1-1.1,2.3-2,3.9-2.7
	c1.2-0.5,1.9-0.8,2.1-0.9c0-0.4,0-0.8,0-1.2c0-1.5-0.2-2.4-0.6-2.9c-0.4-0.5-1-0.8-1.7-0.8c-0.8,0-1.5,0.3-2.2,0.9
	c-0.4,0.4-0.7,1.1-0.9,2.2c-0.1,0.3-0.2,0.6-0.4,0.9c-0.5,0.3-0.9,0.5-1.2,0.5c-0.3,0-0.5-0.1-0.7-0.2c-0.1-0.1-0.2-0.2-0.2-0.3
	c0-0.3,0.3-1,0.9-2c0.6-1,1.4-1.8,2.4-2.3c1-0.5,1.8-0.8,2.5-0.8c1,0,1.7,0.1,2.2,0.3c0.5,0.2,0.9,0.5,1.3,0.9
	c0.4,0.5,0.6,0.9,0.7,1.5c0.1,0.3,0.1,1.1,0.1,2.7l-0.1,2.7l0,2c0,0.3,0,0.5,0,0.7c0,0.3,0,0.6,0,0.7c0,0.4,0.1,0.7,0.3,0.9
	c0.2,0.2,0.5,0.3,0.8,0.3c0.4,0,0.8-0.2,1.1-0.6l0.2-0.3C616.7,259.9,616.9,259.9,617,259.8 M586.3,257.8c0.4,1.1,0.7,1.8,1,2.1
	c0.4,0.6,1,1.2,1.5,1.5c0.6,0.4,1.3,0.5,2,0.5c0.7,0,1.3-0.3,1.9-0.8c0.5-0.4,0.7-0.9,0.7-1.5c0-0.7-0.3-1.4-0.8-2.1
	c-0.5-0.6-1.5-1.2-3-1.8c-1.5-0.6-2.5-1.2-3-1.8c-0.5-0.6-0.8-1.4-0.8-2.2c0-0.8,0.2-1.5,0.6-2c0.4-0.6,1-1,1.8-1.4
	c0.7-0.3,1.4-0.4,2-0.4c0.8,0,1.5,0.1,2.2,0.2c0.6,0.1,1.2,0.3,1.7,0.6c0.1,0.6,0.2,1.5,0.2,2.6l0,0.6c-0.2,0-0.3,0-0.4,0h-0.2
	c-0.3-0.9-0.9-1.7-1.6-2.3c-0.7-0.6-1.4-0.8-2.1-0.8c-0.7,0-1.2,0.2-1.7,0.6c-0.4,0.4-0.6,1-0.6,1.6c0,0.5,0.2,1,0.5,1.4
	c0.3,0.4,1.2,0.8,2.4,1.4c1.3,0.5,2.2,1,2.8,1.4c0.6,0.4,1,1,1.3,1.6c0.3,0.6,0.4,1.2,0.4,1.8c0,0.8-0.3,1.5-0.8,2.2
	c-0.5,0.7-1.2,1.2-1.9,1.5c-0.8,0.3-1.5,0.4-2.1,0.4c-1.4,0-2.8-0.3-4-0.8c-0.1-0.1-0.2-0.2-0.2-0.5c0-0.1,0-0.3,0-0.5
	c-0.2-1.5-0.3-2.5-0.3-2.7c0-0.1,0-0.2,0.1-0.3C585.9,257.8,586,257.8,586.3,257.8 M495.8,262c0.9,0,1.7-0.2,2.5-0.7
	c0.8-0.5,1.4-1.2,1.9-2.2c0.5-1,0.7-2.2,0.7-3.6c0-0.9-0.2-1.9-0.6-3.1c-0.4-1.2-0.9-2.1-1.7-2.6c-0.8-0.6-1.7-0.9-2.7-0.9
	c-0.8,0-1.5,0.2-2.3,0.5c-0.8,0.3-1.4,1-2,2c-0.5,1-0.8,2.4-0.8,4.3c0,2.1,0.5,3.7,1.4,4.7C493.3,261.4,494.4,262,495.8,262
	 M488.3,255.3c0-0.8,0.2-1.6,0.5-2.5c0.3-0.9,0.8-1.7,1.5-2.4c0.7-0.7,1.4-1.2,2.1-1.6c1-0.5,2.3-0.7,3.8-0.7c2.1,0,3.9,0.7,5.3,2.2
	c1.4,1.5,2.1,3.2,2.1,5.3c0,1.8-0.8,3.5-2.2,4.9c-1.5,1.4-3.4,2.2-5.7,2.2c-1.4,0-2.7-0.4-4-1.1c-0.9-0.6-1.7-1.4-2.4-2.5
	C488.6,257.9,488.3,256.7,488.3,255.3 M477.6,241h0.5c0,0.1,0,0.2,0,0.3c0,1-0.3,1.8-0.8,2.3c-0.5,0.6-1.2,0.9-2,0.9
	c-0.4,0-0.8-0.1-1.3-0.3c-0.3-0.1-0.8-0.4-1.4-0.8c-0.6-0.4-1.1-0.7-1.3-0.8c-0.4-0.1-0.7-0.2-1-0.2c-0.4,0-0.7,0.1-1,0.4
	c-0.2,0.3-0.4,0.8-0.6,1.6h-0.5c0-0.1,0-0.1,0-0.2c0-0.8,0.2-1.5,0.7-2.2c0.5-0.7,1.2-1.1,2.1-1.1c0.4,0,0.8,0.1,1.1,0.2
	c0.4,0.1,0.9,0.4,1.5,0.9c1,0.7,1.8,1,2.3,1c0.3,0,0.7-0.1,0.9-0.4C477.3,242.3,477.5,241.8,477.6,241 M475,259.3
	c0.1-1.5,0.1-2.5,0.1-3.1c0-0.3,0-0.7-0.1-1.3c-0.8,0.3-1.6,0.7-2.4,1.3c-0.8,0.6-1.5,1.2-2,1.9c-0.4,0.5-0.5,1-0.5,1.5
	c0,0.4,0.1,0.8,0.4,1.1c0.3,0.3,0.7,0.4,1.1,0.4c0.4,0,0.8-0.1,1.3-0.4C473.6,260.5,474.3,260,475,259.3 M480,259.8
	c0.1,0.1,0.1,0.2,0.1,0.3c0,0.2-0.1,0.5-0.4,0.9c-0.3,0.6-0.7,1-1.2,1.2c-0.3,0.2-0.6,0.2-1.1,0.2c-0.8,0-1.4-0.2-1.9-0.8
	c-0.2-0.3-0.4-0.8-0.5-1.6l-1.9,1.3c-0.7,0.4-1.2,0.6-1.5,0.7c-0.6,0.1-1.3,0.2-2.1,0.2c-0.6,0-1-0.2-1.4-0.5
	c-0.3-0.3-0.5-0.8-0.5-1.3c0-0.8,0.5-1.7,1.4-2.8c1-1.1,2.3-2,3.9-2.7c1.2-0.5,1.9-0.8,2.1-0.9c0-0.4,0-0.8,0-1.2
	c0-1.5-0.2-2.4-0.6-2.9c-0.4-0.5-1-0.8-1.7-0.8c-0.8,0-1.5,0.3-2.2,0.9c-0.4,0.4-0.7,1.1-1,2.2c-0.1,0.3-0.2,0.6-0.4,0.9
	c-0.5,0.3-0.9,0.5-1.2,0.5c-0.2,0-0.5-0.1-0.7-0.2c-0.1-0.1-0.2-0.2-0.2-0.3c0-0.3,0.3-1,0.9-2c0.6-1,1.4-1.8,2.4-2.3
	c1-0.5,1.8-0.8,2.5-0.8c1,0,1.7,0.1,2.2,0.3c0.5,0.2,0.9,0.5,1.3,0.9c0.4,0.5,0.6,0.9,0.7,1.5c0,0.3,0.1,1.1,0.1,2.7l-0.1,2.7l0,2
	c0,0.3,0,0.5,0,0.7c0,0.3,0,0.6,0,0.7c0,0.4,0.1,0.7,0.3,0.9c0.2,0.2,0.5,0.3,0.8,0.3c0.4,0,0.8-0.2,1.1-0.6l0.2-0.3
	C479.7,259.9,479.9,259.9,480,259.8 M452.1,265.2c0.5,0.2,0.9,0.5,1.2,0.8c0.3,0.3,0.4,0.7,0.4,1.1c0,0.5-0.1,0.9-0.4,1.2
	c-0.3,0.3-0.5,0.4-0.8,0.4c-0.4,0-0.7-0.2-1.1-0.7c-0.4-0.5-0.7-0.7-0.9-0.7c-0.2,0-0.3,0.1-0.4,0.2c-0.2,0.2-0.2,0.4-0.2,0.6
	c0,0.3,0.2,0.6,0.6,1c0.4,0.3,0.9,0.5,1.5,0.5c0.8,0,1.5-0.3,2.1-0.9c0.6-0.6,0.9-1.3,0.9-2.2c0-0.9-0.4-1.7-1.3-2.4l1.3-2.1h-0.6
	c-0.7,1.1-1.2,1.9-1.7,2.4C452.4,264.7,452.2,265,452.1,265.2 M458.6,259l0,1.1c-0.9,1-1.8,1.6-2.6,2c-0.9,0.4-1.9,0.6-3.1,0.6
	c-1.3,0-2.4-0.3-3.4-1c-1-0.7-1.8-1.6-2.4-2.8c-0.6-1.2-0.8-2.4-0.8-3.6c0-1.3,0.3-2.5,1-3.7c0.7-1.2,1.5-2,2.6-2.6
	c1.1-0.6,2.5-0.8,4.1-0.8c1.6,0,2.8,0.3,3.6,0.8c0.5,0.3,0.7,0.7,0.7,1.2c0,0.4-0.1,0.7-0.4,0.9c-0.2,0.2-0.5,0.4-0.9,0.4
	c-0.6,0-1.2-0.4-1.9-1.1c-0.4-0.4-0.8-0.7-1.1-0.9c-0.3-0.2-0.7-0.2-1.1-0.2c-1,0-1.9,0.4-2.5,1.2c-0.9,1.2-1.4,2.7-1.4,4.5
	c0,1.9,0.5,3.3,1.4,4.4c1,1.1,2.1,1.6,3.4,1.6c0.9,0,1.7-0.1,2.4-0.4C456.9,260.4,457.7,259.8,458.6,259 M433,259.3
	c0.1-1.5,0.1-2.5,0.1-3.1c0-0.3,0-0.7,0-1.3c-0.8,0.3-1.6,0.7-2.4,1.3c-0.8,0.6-1.5,1.2-2,1.9c-0.4,0.5-0.5,1-0.5,1.5
	c0,0.4,0.1,0.8,0.4,1.1c0.3,0.3,0.7,0.4,1.1,0.4c0.4,0,0.8-0.1,1.3-0.4C431.6,260.5,432.3,260,433,259.3 M438,259.8
	c0.1,0.1,0.1,0.2,0.1,0.3c0,0.2-0.1,0.5-0.4,0.9c-0.3,0.6-0.7,1-1.2,1.2c-0.3,0.2-0.6,0.2-1.1,0.2c-0.8,0-1.4-0.2-1.8-0.8
	c-0.2-0.3-0.4-0.8-0.5-1.6l-1.9,1.3c-0.7,0.4-1.2,0.6-1.5,0.7c-0.6,0.1-1.2,0.2-2,0.2c-0.6,0-1-0.2-1.4-0.5
	c-0.3-0.3-0.5-0.8-0.5-1.3c0-0.8,0.5-1.7,1.4-2.8c1-1.1,2.3-2,3.9-2.7c1.2-0.5,1.9-0.8,2.1-0.9c0-0.4,0-0.8,0-1.2
	c0-1.5-0.2-2.4-0.6-2.9c-0.4-0.5-1-0.8-1.7-0.8c-0.8,0-1.5,0.3-2.2,0.9c-0.4,0.4-0.7,1.1-1,2.2c-0.1,0.3-0.2,0.6-0.4,0.9
	c-0.5,0.3-0.9,0.5-1.2,0.5c-0.2,0-0.5-0.1-0.7-0.2c-0.1-0.1-0.2-0.2-0.2-0.3c0-0.3,0.3-1,0.9-2c0.6-1,1.4-1.8,2.4-2.3
	c1-0.5,1.8-0.8,2.5-0.8c1,0,1.7,0.1,2.2,0.3c0.5,0.2,0.9,0.5,1.3,0.9c0.4,0.5,0.6,0.9,0.7,1.5c0,0.3,0.1,1.1,0.1,2.7l-0.1,2.7l0,2
	c0,0.3,0,0.5,0,0.7c0,0.3,0,0.6,0,0.7c0,0.4,0.1,0.7,0.3,0.9c0.2,0.2,0.5,0.3,0.8,0.3c0.4,0,0.8-0.2,1.1-0.6l0.2-0.3
	C437.7,259.9,437.8,259.9,438,259.8 M416.6,259l0,1.1c-0.9,1-1.8,1.6-2.6,2c-0.9,0.4-1.9,0.6-3.1,0.6c-1.3,0-2.4-0.3-3.4-1
	c-1-0.7-1.8-1.6-2.4-2.8c-0.6-1.2-0.8-2.4-0.8-3.6c0-1.3,0.3-2.5,1-3.7c0.7-1.2,1.6-2,2.6-2.6c1.1-0.6,2.5-0.8,4.1-0.8
	c1.6,0,2.8,0.3,3.6,0.8c0.5,0.3,0.7,0.7,0.7,1.2c0,0.4-0.1,0.7-0.4,0.9c-0.2,0.2-0.5,0.4-0.9,0.4c-0.6,0-1.2-0.4-1.9-1.1
	c-0.4-0.4-0.8-0.7-1.2-0.9c-0.3-0.2-0.7-0.2-1.1-0.2c-1,0-1.9,0.4-2.5,1.2c-0.9,1.2-1.4,2.7-1.4,4.5c0,1.9,0.5,3.3,1.4,4.4
	c0.9,1.1,2.1,1.6,3.4,1.6c0.9,0,1.7-0.1,2.4-0.4C414.8,260.4,415.6,259.8,416.6,259 M379.7,248.7h1.3l0.6,0l0.4,0c1.2,0,1.9,0,2.2,0
	l0,0.3c0,1.6,0,3.2-0.1,4.7c0,0.9,0,1.4,0,1.5c0,2,0.1,3.3,0.2,3.8c0.1,0.5,0.4,0.9,0.9,1.2c0.5,0.3,1.1,0.5,1.7,0.5
	c0.8,0,1.6-0.2,2.4-0.5c0.7-0.4,1.4-0.8,1.9-1.3c0.1-0.4,0.1-0.9,0.1-1.4c0-1.7,0-2.9,0.1-3.4c0-0.4,0-0.7,0-0.9
	c0-1.8-0.1-2.9-0.3-3.1c-0.2-0.2-0.9-0.4-2.1-0.6c-0.4,0-0.7-0.1-0.9-0.1c-0.1-0.2-0.1-0.3-0.1-0.4l0-0.2c0.3,0,0.6,0,0.9,0l2.7,0
	c1,0,1.5,0,1.5,0c0.1,0,0.2,0,0.4,0l0,1.2c-0.1,1.7-0.1,3.9-0.1,6.5l0,1.4l0.1,2.3c0.1,0.2,0.2,0.3,0.3,0.3c0.1,0,0.4,0.1,0.8,0.1
	h0.2c0.1,0,0.6,0,1.3,0.1c0,0.2,0,0.3,0,0.3v0.2c-1.5,0.3-2.8,0.7-3.7,1c-0.4,0.1-0.7,0.2-0.9,0.3c-0.1-0.4-0.1-0.6-0.1-0.8v-1.4
	c0-0.1,0-0.2,0-0.5c-0.2,0.1-0.3,0.2-0.5,0.4c-0.9,0.7-1.9,1.3-2.8,1.8c-0.7,0.3-1.3,0.5-2,0.5c-1.2,0-2.2-0.5-2.9-1.3
	c-0.8-0.9-1.1-2.4-1.1-4.6c0-0.1,0-0.3,0-0.6c0.1-0.5,0.1-0.9,0.1-1.1c0-0.1,0-0.3,0-0.8c0-0.2,0-0.3,0-0.5c0-0.1,0-0.3,0-0.7
	c0-0.4,0-0.6,0-0.8c0-0.2,0-0.4,0-0.5l0-0.9l0-0.5c0-0.2-0.1-0.4-0.3-0.5c-0.7-0.2-1.2-0.3-1.4-0.3c-0.2,0-0.4-0.1-0.6-0.1V248.7z
	 M367.5,260.3c0-0.8,0.1-2.4,0.1-4.7c0-2-0.1-3.3-0.3-3.8c-0.2-0.5-0.7-1-1.4-1.5c-0.7-0.5-1.6-0.7-2.5-0.7c-1.3,0-2.4,0.5-3.3,1.5
	c-0.9,1-1.4,2.5-1.4,4.5c0,1.7,0.5,3.1,1.5,4.2c1,1,2.2,1.6,3.7,1.6c0.8,0,1.6-0.1,2.3-0.3C366.8,260.7,367.3,260.5,367.5,260.3
	 M367.5,249.7l0-0.5l0-2l0-3.8c0-1.1-0.1-1.7-0.4-2c-0.2-0.3-0.9-0.6-2-0.9c-0.1,0-0.2-0.1-0.4-0.1v-0.2c0-0.1,0-0.2,0-0.4
	c1.5-0.2,2.9-0.4,4-0.8l0.9,0c0,0.8,0.1,1.7,0.1,2.6l-0.1,6.6l0.1,7.4l-0.1,4c0,0.8,0.1,1.3,0.2,1.4c0.2,0.2,0.7,0.4,1.5,0.4
	c0.2,0,0.4,0,0.7,0v0.3c0,0.1,0,0.2,0,0.3c-0.4,0.1-0.7,0.1-1.1,0.2l-2.5,0.5c-0.4,0.1-0.7,0.1-0.9,0.1v-1.6
	c-0.2,0.1-0.5,0.2-0.9,0.3c-1.8,0.8-3.4,1.1-4.9,1.1c-0.9,0-1.8-0.3-2.7-0.9c-0.9-0.6-1.7-1.4-2.2-2.5c-0.5-1.1-0.7-2.1-0.7-3.2
	c0-1,0.2-1.9,0.5-2.8c0.3-0.9,0.8-1.6,1.3-2.2c0.4-0.4,0.8-0.8,1.5-1.2c0.6-0.4,1.1-0.6,1.6-0.7c1-0.3,1.7-0.4,2-0.4
	c1.5,0,2.8,0.2,3.8,0.7C367.1,249.6,367.3,249.7,367.5,249.7 M337.8,252.5h0.8c0.6,0,2.3-0.1,5.2-0.3c0.5,0,0.7-0.1,0.8-0.1
	c0.2-0.2,0.3-0.4,0.3-0.6c0-0.4-0.1-0.8-0.3-1.2c-0.2-0.4-0.6-0.8-1.1-1c-0.5-0.3-1-0.4-1.6-0.4c-1.3,0-2.4,0.5-3.2,1.5
	C338.1,251.1,337.8,251.8,337.8,252.5 M347.3,253.1l-6.8,0.1h-1.3c-0.5,0-1.1,0-1.6,0.1c-0.1,0.3-0.2,0.6-0.2,0.7l0,0.2v0.2l0,0.9
	c0,0.7,0.2,1.6,0.7,2.6c0.4,1,1.1,1.8,1.9,2.3c0.8,0.5,1.8,0.8,3,0.8c0.6,0,1.2-0.1,1.6-0.2c0.4-0.1,0.9-0.4,1.6-0.9l1.2-1l0.1,0.7
	c0,0.1,0,0.2,0,0.3c-0.5,0.7-1.2,1.2-1.9,1.7c-0.8,0.5-1.6,0.9-2.4,1.1c-0.4,0.1-1,0.1-1.9,0.1c-0.8,0-1.6-0.2-2.4-0.5
	c-1.2-0.5-2.1-1.3-2.7-2.4c-0.7-1.1-1-2.5-1-4.1c0-0.5,0.1-1.1,0.3-1.9c0.2-0.8,0.5-1.6,1-2.5c0.3-0.6,0.7-1.1,1.2-1.5
	c0.7-0.6,1.3-0.9,1.8-1.1c0.7-0.3,1.6-0.5,2.6-0.5c1.1,0,1.9,0.2,2.6,0.6c0.9,0.5,1.6,1.2,2,2c0.4,0.8,0.7,1.6,0.7,2.2V253.1z"/>
<path class="st2" d="M675.9,252.5h0.8c0.6,0,2.3-0.1,5.2-0.3c0.4,0,0.7-0.1,0.8-0.1c0.2-0.2,0.3-0.4,0.3-0.6c0-0.4-0.1-0.8-0.3-1.2
	c-0.2-0.4-0.6-0.8-1.1-1c-0.5-0.3-1-0.4-1.6-0.4c-1.3,0-2.4,0.5-3.2,1.5C676.2,251.1,675.9,251.8,675.9,252.5z M685.4,253.1
	l-6.8,0.1h-1.3c-0.5,0-1.1,0-1.6,0.1c-0.1,0.3-0.2,0.6-0.2,0.7l0,0.2v0.2l0,0.9c0,0.7,0.2,1.6,0.7,2.6c0.4,1,1.1,1.8,1.9,2.3
	c0.8,0.5,1.8,0.8,3.1,0.8c0.6,0,1.2-0.1,1.5-0.2c0.4-0.1,0.9-0.4,1.6-0.9l1.2-1l0.1,0.7c0,0.1,0,0.2,0,0.3c-0.5,0.7-1.2,1.2-1.9,1.7
	c-0.8,0.5-1.6,0.9-2.4,1.1c-0.4,0.1-1,0.1-1.9,0.1c-0.8,0-1.6-0.2-2.4-0.5c-1.2-0.5-2.1-1.3-2.7-2.4c-0.7-1.1-1-2.5-1-4.1
	c0-0.5,0.1-1.1,0.3-1.9c0.2-0.8,0.5-1.6,1-2.5c0.3-0.6,0.7-1.1,1.2-1.5c0.7-0.6,1.3-0.9,1.8-1.1c0.7-0.3,1.6-0.5,2.6-0.5
	c1.1,0,1.9,0.2,2.6,0.6c0.9,0.5,1.6,1.2,2,2c0.4,0.8,0.7,1.6,0.7,2.2V253.1z M660.3,260.3c0-0.8,0.1-2.4,0.1-4.7
	c0-2-0.1-3.3-0.3-3.8c-0.2-0.5-0.7-1-1.4-1.5c-0.8-0.5-1.6-0.7-2.5-0.7c-1.3,0-2.4,0.5-3.3,1.5c-0.9,1-1.4,2.5-1.4,4.5
	c0,1.7,0.5,3.1,1.5,4.2c1,1,2.2,1.6,3.7,1.6c0.8,0,1.6-0.1,2.3-0.3C659.6,260.7,660,260.5,660.3,260.3z M660.2,249.7l0-0.5l0-2
	l0-3.8c0-1.1-0.1-1.7-0.3-2c-0.2-0.3-0.9-0.6-2-0.9c-0.1,0-0.2-0.1-0.4-0.1v-0.2c0-0.1,0-0.2,0-0.4c1.5-0.2,2.9-0.4,4-0.8l0.9,0
	c0,0.8,0.1,1.7,0.1,2.6l-0.1,6.6l0.1,7.4l-0.1,4c0,0.8,0.1,1.3,0.2,1.4c0.2,0.2,0.7,0.4,1.5,0.4c0.2,0,0.4,0,0.7,0v0.3
	c0,0.1,0,0.2,0,0.3c-0.4,0.1-0.7,0.1-1.1,0.2l-2.5,0.5c-0.4,0.1-0.7,0.1-0.9,0.1v-1.6c-0.2,0.1-0.5,0.2-0.9,0.3
	c-1.8,0.8-3.4,1.1-4.9,1.1c-0.9,0-1.8-0.3-2.7-0.9c-0.9-0.6-1.7-1.4-2.2-2.5c-0.5-1.1-0.7-2.1-0.7-3.2c0-1,0.2-1.9,0.5-2.8
	c0.3-0.9,0.8-1.6,1.3-2.2c0.3-0.4,0.8-0.8,1.4-1.2c0.6-0.4,1.1-0.6,1.6-0.7c1-0.3,1.7-0.4,2-0.4c1.5,0,2.8,0.2,3.8,0.7
	C659.8,249.6,660.1,249.7,660.2,249.7z M630.9,245.3l2.1-3.1c0.6-0.9,1.2-1.6,1.8-2c0.3-0.2,0.5-0.3,0.8-0.3c0.3,0,0.6,0.1,0.7,0.3
	c0.2,0.2,0.3,0.4,0.3,0.6c0,0.2-0.1,0.4-0.2,0.7c-0.2,0.2-0.5,0.6-1.1,1l-4,2.8l-0.2,0L630.9,245.3z M624.6,248.7h1.3l0.6,0l0.4,0
	c1.2,0,1.9,0,2.2,0l0,0.3c0,1.6,0,3.2-0.1,4.7c0,0.9,0,1.4,0,1.5c0,2,0.1,3.3,0.2,3.8c0.1,0.5,0.4,0.9,0.9,1.2
	c0.5,0.3,1.1,0.5,1.7,0.5c0.8,0,1.6-0.2,2.4-0.5c0.8-0.4,1.4-0.8,1.9-1.3c0.1-0.4,0.1-0.9,0.1-1.4c0-1.7,0-2.9,0.1-3.4
	c0-0.4,0-0.7,0-0.9c0-1.8-0.1-2.9-0.3-3.1c-0.2-0.2-0.9-0.4-2.1-0.6c-0.4,0-0.7-0.1-0.9-0.1c-0.1-0.2-0.1-0.3-0.1-0.4l0.1-0.2
	c0.3,0,0.6,0,0.9,0l2.7,0c1,0,1.5,0,1.5,0c0.1,0,0.2,0,0.4,0l0,1.2c-0.1,1.7-0.1,3.9-0.1,6.5l0,1.4l0.1,2.3c0.1,0.2,0.2,0.3,0.3,0.3
	c0.1,0,0.4,0.1,0.8,0.1h0.2c0.1,0,0.6,0,1.2,0.1c0,0.2,0,0.3,0,0.3v0.2c-1.5,0.3-2.8,0.7-3.7,1c-0.4,0.1-0.7,0.2-0.9,0.3
	c-0.1-0.4-0.1-0.6-0.1-0.8v-1.4c0-0.1,0-0.2,0-0.5c-0.1,0.1-0.3,0.2-0.5,0.4c-0.9,0.7-1.9,1.3-2.8,1.8c-0.7,0.3-1.3,0.5-2,0.5
	c-1.2,0-2.2-0.5-2.9-1.3c-0.8-0.9-1.1-2.4-1.1-4.6c0-0.1,0-0.3,0-0.6c0-0.5,0.1-0.9,0.1-1.1c0-0.1,0-0.3,0-0.8c0-0.2,0-0.3,0-0.5
	c0-0.1,0-0.3,0-0.7c0-0.4,0-0.6,0-0.8c0-0.2,0-0.4,0-0.5l0-0.9l0-0.5c0-0.2-0.1-0.4-0.3-0.5c-0.7-0.2-1.2-0.3-1.4-0.3
	c-0.2,0-0.4-0.1-0.6-0.1V248.7z M612,259.3c0.1-1.5,0.1-2.5,0.1-3.1c0-0.3,0-0.7-0.1-1.3c-0.8,0.3-1.6,0.7-2.4,1.3
	c-0.8,0.6-1.5,1.2-2,1.9c-0.4,0.5-0.5,1-0.5,1.5c0,0.4,0.2,0.8,0.5,1.1c0.3,0.3,0.7,0.4,1.1,0.4c0.4,0,0.8-0.1,1.3-0.4
	C610.6,260.5,611.3,260,612,259.3z M617,259.8c0.1,0.1,0.1,0.2,0.1,0.3c0,0.2-0.1,0.5-0.4,0.9c-0.4,0.6-0.7,1-1.2,1.2
	c-0.3,0.2-0.6,0.2-1.1,0.2c-0.8,0-1.4-0.2-1.8-0.8c-0.3-0.3-0.4-0.8-0.5-1.6l-1.9,1.3c-0.7,0.4-1.2,0.6-1.5,0.7
	c-0.6,0.1-1.3,0.2-2,0.2c-0.6,0-1-0.2-1.4-0.5c-0.3-0.3-0.5-0.8-0.5-1.3c0-0.8,0.5-1.7,1.4-2.8c1-1.1,2.3-2,3.9-2.7
	c1.2-0.5,1.9-0.8,2.1-0.9c0-0.4,0-0.8,0-1.2c0-1.5-0.2-2.4-0.6-2.9c-0.4-0.5-1-0.8-1.7-0.8c-0.8,0-1.5,0.3-2.2,0.9
	c-0.4,0.4-0.7,1.1-0.9,2.2c-0.1,0.3-0.2,0.6-0.4,0.9c-0.5,0.3-0.9,0.5-1.2,0.5c-0.3,0-0.5-0.1-0.7-0.2c-0.1-0.1-0.2-0.2-0.2-0.3
	c0-0.3,0.3-1,0.9-2c0.6-1,1.4-1.8,2.4-2.3c1-0.5,1.8-0.8,2.5-0.8c1,0,1.7,0.1,2.2,0.3c0.5,0.2,0.9,0.5,1.3,0.9
	c0.4,0.5,0.6,0.9,0.7,1.5c0.1,0.3,0.1,1.1,0.1,2.7l-0.1,2.7l0,2c0,0.3,0,0.5,0,0.7c0,0.3,0,0.6,0,0.7c0,0.4,0.1,0.7,0.3,0.9
	c0.2,0.2,0.5,0.3,0.8,0.3c0.4,0,0.8-0.2,1.1-0.6l0.2-0.3C616.7,259.9,616.9,259.9,617,259.8z M586.3,257.8c0.4,1.1,0.7,1.8,1,2.1
	c0.4,0.6,1,1.2,1.5,1.5c0.6,0.4,1.3,0.5,2,0.5c0.7,0,1.3-0.3,1.9-0.8c0.5-0.4,0.7-0.9,0.7-1.5c0-0.7-0.3-1.4-0.8-2.1
	c-0.5-0.6-1.5-1.2-3-1.8c-1.5-0.6-2.5-1.2-3-1.8c-0.5-0.6-0.8-1.4-0.8-2.2c0-0.8,0.2-1.5,0.6-2c0.4-0.6,1-1,1.8-1.4
	c0.7-0.3,1.4-0.4,2-0.4c0.8,0,1.5,0.1,2.2,0.2c0.6,0.1,1.2,0.3,1.7,0.6c0.1,0.6,0.2,1.5,0.2,2.6l0,0.6c-0.2,0-0.3,0-0.4,0h-0.2
	c-0.3-0.9-0.9-1.7-1.6-2.3c-0.7-0.6-1.4-0.8-2.1-0.8c-0.7,0-1.2,0.2-1.7,0.6c-0.4,0.4-0.6,1-0.6,1.6c0,0.5,0.2,1,0.5,1.4
	c0.3,0.4,1.2,0.8,2.4,1.4c1.3,0.5,2.2,1,2.8,1.4c0.6,0.4,1,1,1.3,1.6c0.3,0.6,0.4,1.2,0.4,1.8c0,0.8-0.3,1.5-0.8,2.2
	c-0.5,0.7-1.2,1.2-1.9,1.5c-0.8,0.3-1.5,0.4-2.1,0.4c-1.4,0-2.8-0.3-4-0.8c-0.1-0.1-0.2-0.2-0.2-0.5c0-0.1,0-0.3,0-0.5
	c-0.2-1.5-0.3-2.5-0.3-2.7c0-0.1,0-0.2,0.1-0.3C585.9,257.8,586,257.8,586.3,257.8z M495.8,262c0.9,0,1.7-0.2,2.5-0.7
	c0.8-0.5,1.4-1.2,1.9-2.2c0.5-1,0.7-2.2,0.7-3.6c0-0.9-0.2-1.9-0.6-3.1c-0.4-1.2-0.9-2.1-1.7-2.6c-0.8-0.6-1.7-0.9-2.7-0.9
	c-0.8,0-1.5,0.2-2.3,0.5c-0.8,0.3-1.4,1-2,2c-0.5,1-0.8,2.4-0.8,4.3c0,2.1,0.5,3.7,1.4,4.7C493.3,261.4,494.4,262,495.8,262z
	 M488.3,255.3c0-0.8,0.2-1.6,0.5-2.5c0.3-0.9,0.8-1.7,1.5-2.4c0.7-0.7,1.4-1.2,2.1-1.6c1-0.5,2.3-0.7,3.8-0.7c2.1,0,3.9,0.7,5.3,2.2
	c1.4,1.5,2.1,3.2,2.1,5.3c0,1.8-0.8,3.5-2.2,4.9c-1.5,1.4-3.4,2.2-5.7,2.2c-1.4,0-2.7-0.4-4-1.1c-0.9-0.6-1.7-1.4-2.4-2.5
	C488.6,257.9,488.3,256.7,488.3,255.3z M477.6,241h0.5c0,0.1,0,0.2,0,0.3c0,1-0.3,1.8-0.8,2.3c-0.5,0.6-1.2,0.9-2,0.9
	c-0.4,0-0.8-0.1-1.3-0.3c-0.3-0.1-0.8-0.4-1.4-0.8c-0.6-0.4-1.1-0.7-1.3-0.8c-0.4-0.1-0.7-0.2-1-0.2c-0.4,0-0.7,0.1-1,0.4
	c-0.2,0.3-0.4,0.8-0.6,1.6h-0.5c0-0.1,0-0.1,0-0.2c0-0.8,0.2-1.5,0.7-2.2c0.5-0.7,1.2-1.1,2.1-1.1c0.4,0,0.8,0.1,1.1,0.2
	c0.4,0.1,0.9,0.4,1.5,0.9c1,0.7,1.8,1,2.3,1c0.3,0,0.7-0.1,0.9-0.4C477.3,242.3,477.5,241.8,477.6,241z M475,259.3
	c0.1-1.5,0.1-2.5,0.1-3.1c0-0.3,0-0.7-0.1-1.3c-0.8,0.3-1.6,0.7-2.4,1.3c-0.8,0.6-1.5,1.2-2,1.9c-0.4,0.5-0.5,1-0.5,1.5
	c0,0.4,0.1,0.8,0.4,1.1c0.3,0.3,0.7,0.4,1.1,0.4c0.4,0,0.8-0.1,1.3-0.4C473.6,260.5,474.3,260,475,259.3z M480,259.8
	c0.1,0.1,0.1,0.2,0.1,0.3c0,0.2-0.1,0.5-0.4,0.9c-0.3,0.6-0.7,1-1.2,1.2c-0.3,0.2-0.6,0.2-1.1,0.2c-0.8,0-1.4-0.2-1.9-0.8
	c-0.2-0.3-0.4-0.8-0.5-1.6l-1.9,1.3c-0.7,0.4-1.2,0.6-1.5,0.7c-0.6,0.1-1.3,0.2-2.1,0.2c-0.6,0-1-0.2-1.4-0.5
	c-0.3-0.3-0.5-0.8-0.5-1.3c0-0.8,0.5-1.7,1.4-2.8c1-1.1,2.3-2,3.9-2.7c1.2-0.5,1.9-0.8,2.1-0.9c0-0.4,0-0.8,0-1.2
	c0-1.5-0.2-2.4-0.6-2.9c-0.4-0.5-1-0.8-1.7-0.8c-0.8,0-1.5,0.3-2.2,0.9c-0.4,0.4-0.7,1.1-1,2.2c-0.1,0.3-0.2,0.6-0.4,0.9
	c-0.5,0.3-0.9,0.5-1.2,0.5c-0.2,0-0.5-0.1-0.7-0.2c-0.1-0.1-0.2-0.2-0.2-0.3c0-0.3,0.3-1,0.9-2c0.6-1,1.4-1.8,2.4-2.3
	c1-0.5,1.8-0.8,2.5-0.8c1,0,1.7,0.1,2.2,0.3c0.5,0.2,0.9,0.5,1.3,0.9c0.4,0.5,0.6,0.9,0.7,1.5c0,0.3,0.1,1.1,0.1,2.7l-0.1,2.7l0,2
	c0,0.3,0,0.5,0,0.7c0,0.3,0,0.6,0,0.7c0,0.4,0.1,0.7,0.3,0.9c0.2,0.2,0.5,0.3,0.8,0.3c0.4,0,0.8-0.2,1.1-0.6l0.2-0.3
	C479.7,259.9,479.9,259.9,480,259.8z M452.1,265.2c0.5,0.2,0.9,0.5,1.2,0.8c0.3,0.3,0.4,0.7,0.4,1.1c0,0.5-0.1,0.9-0.4,1.2
	c-0.3,0.3-0.5,0.4-0.8,0.4c-0.4,0-0.7-0.2-1.1-0.7c-0.4-0.5-0.7-0.7-0.9-0.7c-0.2,0-0.3,0.1-0.4,0.2c-0.2,0.2-0.2,0.4-0.2,0.6
	c0,0.3,0.2,0.6,0.6,1c0.4,0.3,0.9,0.5,1.5,0.5c0.8,0,1.5-0.3,2.1-0.9c0.6-0.6,0.9-1.3,0.9-2.2c0-0.9-0.4-1.7-1.3-2.4l1.3-2.1h-0.6
	c-0.7,1.1-1.2,1.9-1.7,2.4C452.4,264.7,452.2,265,452.1,265.2z M458.6,259l0,1.1c-0.9,1-1.8,1.6-2.6,2c-0.9,0.4-1.9,0.6-3.1,0.6
	c-1.3,0-2.4-0.3-3.4-1c-1-0.7-1.8-1.6-2.4-2.8c-0.6-1.2-0.8-2.4-0.8-3.6c0-1.3,0.3-2.5,1-3.7c0.7-1.2,1.5-2,2.6-2.6
	c1.1-0.6,2.5-0.8,4.1-0.8c1.6,0,2.8,0.3,3.6,0.8c0.5,0.3,0.7,0.7,0.7,1.2c0,0.4-0.1,0.7-0.4,0.9c-0.2,0.2-0.5,0.4-0.9,0.4
	c-0.6,0-1.2-0.4-1.9-1.1c-0.4-0.4-0.8-0.7-1.1-0.9c-0.3-0.2-0.7-0.2-1.1-0.2c-1,0-1.9,0.4-2.5,1.2c-0.9,1.2-1.4,2.7-1.4,4.5
	c0,1.9,0.5,3.3,1.4,4.4c1,1.1,2.1,1.6,3.4,1.6c0.9,0,1.7-0.1,2.4-0.4C456.9,260.4,457.7,259.8,458.6,259z M433,259.3
	c0.1-1.5,0.1-2.5,0.1-3.1c0-0.3,0-0.7,0-1.3c-0.8,0.3-1.6,0.7-2.4,1.3c-0.8,0.6-1.5,1.2-2,1.9c-0.4,0.5-0.5,1-0.5,1.5
	c0,0.4,0.1,0.8,0.4,1.1c0.3,0.3,0.7,0.4,1.1,0.4c0.4,0,0.8-0.1,1.3-0.4C431.6,260.5,432.3,260,433,259.3z M438,259.8
	c0.1,0.1,0.1,0.2,0.1,0.3c0,0.2-0.1,0.5-0.4,0.9c-0.3,0.6-0.7,1-1.2,1.2c-0.3,0.2-0.6,0.2-1.1,0.2c-0.8,0-1.4-0.2-1.8-0.8
	c-0.2-0.3-0.4-0.8-0.5-1.6l-1.9,1.3c-0.7,0.4-1.2,0.6-1.5,0.7c-0.6,0.1-1.2,0.2-2,0.2c-0.6,0-1-0.2-1.4-0.5
	c-0.3-0.3-0.5-0.8-0.5-1.3c0-0.8,0.5-1.7,1.4-2.8c1-1.1,2.3-2,3.9-2.7c1.2-0.5,1.9-0.8,2.1-0.9c0-0.4,0-0.8,0-1.2
	c0-1.5-0.2-2.4-0.6-2.9c-0.4-0.5-1-0.8-1.7-0.8c-0.8,0-1.5,0.3-2.2,0.9c-0.4,0.4-0.7,1.1-1,2.2c-0.1,0.3-0.2,0.6-0.4,0.9
	c-0.5,0.3-0.9,0.5-1.2,0.5c-0.2,0-0.5-0.1-0.7-0.2c-0.1-0.1-0.2-0.2-0.2-0.3c0-0.3,0.3-1,0.9-2c0.6-1,1.4-1.8,2.4-2.3
	c1-0.5,1.8-0.8,2.5-0.8c1,0,1.7,0.1,2.2,0.3c0.5,0.2,0.9,0.5,1.3,0.9c0.4,0.5,0.6,0.9,0.7,1.5c0,0.3,0.1,1.1,0.1,2.7l-0.1,2.7l0,2
	c0,0.3,0,0.5,0,0.7c0,0.3,0,0.6,0,0.7c0,0.4,0.1,0.7,0.3,0.9c0.2,0.2,0.5,0.3,0.8,0.3c0.4,0,0.8-0.2,1.1-0.6l0.2-0.3
	C437.7,259.9,437.8,259.9,438,259.8z M416.6,259l0,1.1c-0.9,1-1.8,1.6-2.6,2c-0.9,0.4-1.9,0.6-3.1,0.6c-1.3,0-2.4-0.3-3.4-1
	c-1-0.7-1.8-1.6-2.4-2.8c-0.6-1.2-0.8-2.4-0.8-3.6c0-1.3,0.3-2.5,1-3.7c0.7-1.2,1.6-2,2.6-2.6c1.1-0.6,2.5-0.8,4.1-0.8
	c1.6,0,2.8,0.3,3.6,0.8c0.5,0.3,0.7,0.7,0.7,1.2c0,0.4-0.1,0.7-0.4,0.9c-0.2,0.2-0.5,0.4-0.9,0.4c-0.6,0-1.2-0.4-1.9-1.1
	c-0.4-0.4-0.8-0.7-1.2-0.9c-0.3-0.2-0.7-0.2-1.1-0.2c-1,0-1.9,0.4-2.5,1.2c-0.9,1.2-1.4,2.7-1.4,4.5c0,1.9,0.5,3.3,1.4,4.4
	c0.9,1.1,2.1,1.6,3.4,1.6c0.9,0,1.7-0.1,2.4-0.4C414.8,260.4,415.6,259.8,416.6,259z M379.7,248.7h1.3l0.6,0l0.4,0
	c1.2,0,1.9,0,2.2,0l0,0.3c0,1.6,0,3.2-0.1,4.7c0,0.9,0,1.4,0,1.5c0,2,0.1,3.3,0.2,3.8c0.1,0.5,0.4,0.9,0.9,1.2
	c0.5,0.3,1.1,0.5,1.7,0.5c0.8,0,1.6-0.2,2.4-0.5c0.7-0.4,1.4-0.8,1.9-1.3c0.1-0.4,0.1-0.9,0.1-1.4c0-1.7,0-2.9,0.1-3.4
	c0-0.4,0-0.7,0-0.9c0-1.8-0.1-2.9-0.3-3.1c-0.2-0.2-0.9-0.4-2.1-0.6c-0.4,0-0.7-0.1-0.9-0.1c-0.1-0.2-0.1-0.3-0.1-0.4l0-0.2
	c0.3,0,0.6,0,0.9,0l2.7,0c1,0,1.5,0,1.5,0c0.1,0,0.2,0,0.4,0l0,1.2c-0.1,1.7-0.1,3.9-0.1,6.5l0,1.4l0.1,2.3c0.1,0.2,0.2,0.3,0.3,0.3
	c0.1,0,0.4,0.1,0.8,0.1h0.2c0.1,0,0.6,0,1.3,0.1c0,0.2,0,0.3,0,0.3v0.2c-1.5,0.3-2.8,0.7-3.7,1c-0.4,0.1-0.7,0.2-0.9,0.3
	c-0.1-0.4-0.1-0.6-0.1-0.8v-1.4c0-0.1,0-0.2,0-0.5c-0.2,0.1-0.3,0.2-0.5,0.4c-0.9,0.7-1.9,1.3-2.8,1.8c-0.7,0.3-1.3,0.5-2,0.5
	c-1.2,0-2.2-0.5-2.9-1.3c-0.8-0.9-1.1-2.4-1.1-4.6c0-0.1,0-0.3,0-0.6c0.1-0.5,0.1-0.9,0.1-1.1c0-0.1,0-0.3,0-0.8c0-0.2,0-0.3,0-0.5
	c0-0.1,0-0.3,0-0.7c0-0.4,0-0.6,0-0.8c0-0.2,0-0.4,0-0.5l0-0.9l0-0.5c0-0.2-0.1-0.4-0.3-0.5c-0.7-0.2-1.2-0.3-1.4-0.3
	c-0.2,0-0.4-0.1-0.6-0.1V248.7z M367.5,260.3c0-0.8,0.1-2.4,0.1-4.7c0-2-0.1-3.3-0.3-3.8c-0.2-0.5-0.7-1-1.4-1.5
	c-0.7-0.5-1.6-0.7-2.5-0.7c-1.3,0-2.4,0.5-3.3,1.5c-0.9,1-1.4,2.5-1.4,4.5c0,1.7,0.5,3.1,1.5,4.2c1,1,2.2,1.6,3.7,1.6
	c0.8,0,1.6-0.1,2.3-0.3C366.8,260.7,367.3,260.5,367.5,260.3z M367.5,249.7l0-0.5l0-2l0-3.8c0-1.1-0.1-1.7-0.4-2
	c-0.2-0.3-0.9-0.6-2-0.9c-0.1,0-0.2-0.1-0.4-0.1v-0.2c0-0.1,0-0.2,0-0.4c1.5-0.2,2.9-0.4,4-0.8l0.9,0c0,0.8,0.1,1.7,0.1,2.6
	l-0.1,6.6l0.1,7.4l-0.1,4c0,0.8,0.1,1.3,0.2,1.4c0.2,0.2,0.7,0.4,1.5,0.4c0.2,0,0.4,0,0.7,0v0.3c0,0.1,0,0.2,0,0.3
	c-0.4,0.1-0.7,0.1-1.1,0.2l-2.5,0.5c-0.4,0.1-0.7,0.1-0.9,0.1v-1.6c-0.2,0.1-0.5,0.2-0.9,0.3c-1.8,0.8-3.4,1.1-4.9,1.1
	c-0.9,0-1.8-0.3-2.7-0.9c-0.9-0.6-1.7-1.4-2.2-2.5c-0.5-1.1-0.7-2.1-0.7-3.2c0-1,0.2-1.9,0.5-2.8c0.3-0.9,0.8-1.6,1.3-2.2
	c0.4-0.4,0.8-0.8,1.5-1.2c0.6-0.4,1.1-0.6,1.6-0.7c1-0.3,1.7-0.4,2-0.4c1.5,0,2.8,0.2,3.8,0.7C367.1,249.6,367.3,249.7,367.5,249.7z
	 M337.8,252.5h0.8c0.6,0,2.3-0.1,5.2-0.3c0.5,0,0.7-0.1,0.8-0.1c0.2-0.2,0.3-0.4,0.3-0.6c0-0.4-0.1-0.8-0.3-1.2
	c-0.2-0.4-0.6-0.8-1.1-1c-0.5-0.3-1-0.4-1.6-0.4c-1.3,0-2.4,0.5-3.2,1.5C338.1,251.1,337.8,251.8,337.8,252.5z M347.3,253.1
	l-6.8,0.1h-1.3c-0.5,0-1.1,0-1.6,0.1c-0.1,0.3-0.2,0.6-0.2,0.7l0,0.2v0.2l0,0.9c0,0.7,0.2,1.6,0.7,2.6c0.4,1,1.1,1.8,1.9,2.3
	c0.8,0.5,1.8,0.8,3,0.8c0.6,0,1.2-0.1,1.6-0.2c0.4-0.1,0.9-0.4,1.6-0.9l1.2-1l0.1,0.7c0,0.1,0,0.2,0,0.3c-0.5,0.7-1.2,1.2-1.9,1.7
	c-0.8,0.5-1.6,0.9-2.4,1.1c-0.4,0.1-1,0.1-1.9,0.1c-0.8,0-1.6-0.2-2.4-0.5c-1.2-0.5-2.1-1.3-2.7-2.4c-0.7-1.1-1-2.5-1-4.1
	c0-0.5,0.1-1.1,0.3-1.9c0.2-0.8,0.5-1.6,1-2.5c0.3-0.6,0.7-1.1,1.2-1.5c0.7-0.6,1.3-0.9,1.8-1.1c0.7-0.3,1.6-0.5,2.6-0.5
	c1.1,0,1.9,0.2,2.6,0.6c0.9,0.5,1.6,1.2,2,2c0.4,0.8,0.7,1.6,0.7,2.2V253.1z"/>
<path class="st1" d="M845.6,259.4c0.1-1.5,0.1-2.5,0.1-3.1c0-0.3,0-0.7-0.1-1.2c-0.8,0.3-1.6,0.7-2.4,1.2c-0.8,0.6-1.5,1.2-2,1.9
	c-0.4,0.5-0.6,1-0.6,1.5c0,0.4,0.2,0.8,0.5,1.1c0.3,0.3,0.7,0.4,1.1,0.4c0.4,0,0.8-0.1,1.3-0.4C844.2,260.6,844.8,260.1,845.6,259.4
	 M850.6,259.9c0.1,0.1,0.1,0.2,0.1,0.3c0,0.2-0.1,0.5-0.4,0.9c-0.4,0.6-0.8,1-1.2,1.3c-0.3,0.2-0.6,0.2-1.1,0.2
	c-0.8,0-1.4-0.2-1.8-0.8c-0.3-0.3-0.4-0.8-0.5-1.6l-1.9,1.3c-0.7,0.4-1.2,0.6-1.5,0.7c-0.6,0.1-1.3,0.2-2,0.2c-0.6,0-1-0.2-1.4-0.5
	c-0.3-0.3-0.5-0.8-0.5-1.3c0-0.8,0.5-1.7,1.4-2.8c1-1.1,2.3-2,3.9-2.7c1.2-0.5,1.9-0.8,2.1-0.9c0-0.4,0-0.8,0-1.2
	c0-1.4-0.2-2.4-0.6-3c-0.4-0.5-1-0.8-1.7-0.8c-0.8,0-1.5,0.3-2.2,0.9c-0.4,0.4-0.7,1.1-1,2.2c-0.1,0.3-0.2,0.6-0.4,0.9
	c-0.5,0.3-0.9,0.5-1.2,0.5c-0.2,0-0.5-0.1-0.7-0.2c-0.1-0.1-0.2-0.2-0.2-0.3c0-0.3,0.3-1,1-2c0.6-1,1.4-1.8,2.4-2.3
	c1-0.5,1.8-0.8,2.5-0.8c1,0,1.7,0.1,2.2,0.3c0.5,0.2,0.9,0.5,1.3,0.9c0.4,0.5,0.6,0.9,0.7,1.5c0,0.3,0.1,1.1,0.1,2.7l-0.1,2.7l0,2
	c0,0.3,0,0.5,0,0.7c0,0.3,0,0.6,0,0.7c0,0.4,0.1,0.7,0.3,0.9c0.2,0.2,0.5,0.3,0.8,0.3c0.4,0,0.8-0.2,1.1-0.6l0.2-0.3
	C850.3,260,850.4,259.9,850.6,259.9 M814.1,248.6c1.3,0,2.4,0.1,3.3,0.1c0.7,0,1.2,0,1.5,0c0.2,0,0.4,0,0.4,0l1.9,0
	c0.3,0,0.5,0.1,0.6,0.1c0.1,0,0.1,0.1,0.2,0.2c0,0.1,0,0.2-0.1,0.4c-0.2,0.1-0.4,0.1-0.6,0.1c-0.9,0.1-1.6,0.2-2.1,0.4
	c-0.1,0.1-0.1,0.1-0.1,0.2c0,0.1,0.1,0.3,0.2,0.5c0,0.1,0.1,0.2,0.1,0.4l1.7,4.1c0.8,1.9,1.5,3.5,2.1,4.8c0.4-0.8,0.9-1.7,1.2-2.6
	c0.4-0.9,0.9-2.3,1.7-4.3c0.2-0.6,0.4-1.2,0.6-2.1c0-0.1,0.1-0.3,0.1-0.4c0-0.1-0.1-0.3-0.2-0.4c-0.2-0.2-0.4-0.3-0.8-0.4
	c-0.1,0-0.6-0.1-1.6-0.2c-0.1-0.1-0.2-0.1-0.2-0.2V249c0-0.1,0-0.1,0-0.2c0.3,0,0.5,0,0.6,0l2,0c0.1,0,0.5,0,1-0.1
	c1.8,0,2.9,0,3.3,0.1c0.1,0,0.1,0.1,0.2,0.2c0,0.1,0,0.2-0.1,0.3l-0.5,0.1c-0.1,0-0.2,0-0.3,0c-1,0.1-1.6,0.2-1.8,0.4
	c-0.2,0.1-0.4,0.7-0.8,1.8c-0.2,0.5-0.4,1.2-0.8,2l-0.9,2.2c-0.1,0.3-0.3,0.6-0.4,1l-2.6,6.1h-0.5c-0.1-0.3-0.2-0.6-0.4-0.9
	l-1.3-2.8l-3.1-7.2c-0.6-1.4-1-2.2-1.1-2.3c-0.1-0.1-0.9-0.4-2.2-0.7c-0.1-0.2-0.1-0.3-0.1-0.4L814.1,248.6z M801.1,250l0-0.5
	c0.7-0.2,1.1-0.3,1.2-0.4c0.4-0.2,0.8-0.5,1.3-0.8c0.4-0.4,0.8-0.8,1.1-1.3c0.1,0,0.2,0,0.3,0l0.2,0c0,0.5,0.1,0.9,0.1,1.2
	c0,0.1,0,0.3,0,0.8v0.9l0,4.9l-0.1,5.2c0,0.4,0.1,0.7,0.2,0.9c0.2,0.2,0.6,0.3,1.3,0.6c0.5,0.1,0.8,0.2,1,0.3c0,0.1,0.1,0.2,0.1,0.2
	c0,0.1,0,0.2-0.1,0.3c-0.4,0-1,0-1.7-0.1c-0.9-0.1-1.6-0.1-1.9-0.1c-0.1,0-1.1,0-2.7,0.1c-0.3,0-0.7,0-1,0.1c-0.1,0-0.2,0-0.3,0
	c-0.1-0.1-0.1-0.2-0.1-0.2c0-0.2,0.1-0.3,0.3-0.4c0,0,0.6-0.1,1.8-0.4c0.4-0.1,0.6-0.2,0.7-0.4c0.2-0.2,0.3-0.6,0.3-1.1
	c0-0.9,0-3.3,0-7.2c0-0.8,0-1.3-0.1-1.5c-0.1-0.1-0.2-0.3-0.4-0.5C802.4,250.4,801.9,250.2,801.1,250 M802.5,241.1
	c0-0.4,0.1-0.7,0.4-1c0.3-0.3,0.6-0.4,1.1-0.4c0.4,0,0.8,0.2,1.1,0.5c0.3,0.3,0.5,0.6,0.5,1c0,0.3-0.1,0.7-0.5,1
	c-0.3,0.3-0.7,0.5-1.1,0.5c-0.4,0-0.8-0.2-1.1-0.4C802.7,241.9,802.5,241.6,802.5,241.1 M788.2,245.2l0.5,0l0.1,1.6l0,2.1
	c0.2,0,0.3,0,0.4,0c0.3,0,0.9,0,1.7-0.1c0.5,0,1-0.1,1.5-0.1c0.2,0,0.6,0,1,0c0,0.2,0,0.4,0,0.6c0,0.1,0,0.4-0.1,0.7H793l-2.6,0.1
	l-1.3,0l-0.3,0c-0.1,0.3-0.1,0.6-0.1,1l0.1,2.6l0,4.5c0,1.2,0.2,2,0.5,2.4c0.3,0.4,0.7,0.6,1.3,0.6c0.3,0,0.9-0.1,1.7-0.3
	c0.2-0.1,0.6-0.2,1-0.6h0.2c0.1,0,0.2,0,0.3,0.1c0.1,0.1,0.1,0.2,0.1,0.2l0,0.1c-0.5,0.5-1.1,0.9-1.7,1.2c-0.6,0.2-1.5,0.4-2.5,0.4
	c-0.7,0-1.4-0.2-1.9-0.5c-0.5-0.4-0.8-0.7-0.9-1.2c-0.1-0.5-0.2-1.5-0.2-3.1l0.1-3.9l0-1.8v-0.7c0-0.3,0-0.6,0-1l-0.3,0l-1.4,0
	l-0.1,0c-0.1,0-0.2,0-0.3-0.1c-0.1-0.1-0.1-0.1-0.1-0.2c0-0.1,0-0.3,0.1-0.3c0.1-0.1,0.3-0.2,0.8-0.4c0.3-0.1,0.7-0.4,1-0.7
	c0.4-0.3,0.7-0.7,1-1.2c0.1-0.2,0.3-0.7,0.6-1.3C787.9,245.8,788.1,245.4,788.2,245.2 M766.1,252.5h0.8c0.6,0,2.3-0.1,5.2-0.3
	c0.5,0,0.7-0.1,0.8-0.1c0.2-0.2,0.3-0.4,0.3-0.6c0-0.4-0.1-0.8-0.3-1.2c-0.2-0.4-0.6-0.8-1-1c-0.5-0.2-1-0.4-1.6-0.4
	c-1.3,0-2.4,0.5-3.2,1.5C766.4,251.1,766.1,251.8,766.1,252.5 M775.6,253.1l-6.8,0.1h-1.3c-0.5,0-1.1,0-1.6,0.1
	c-0.1,0.4-0.1,0.6-0.1,0.7l0,0.2v0.2l0,0.9c0,0.7,0.2,1.6,0.7,2.6c0.4,1,1.1,1.8,1.9,2.3c0.8,0.5,1.8,0.8,3,0.8
	c0.7,0,1.2-0.1,1.6-0.2c0.4-0.1,0.9-0.4,1.6-0.9l1.2-1l0.1,0.7c0,0.1,0,0.2,0,0.3c-0.5,0.7-1.2,1.2-1.9,1.7
	c-0.8,0.5-1.6,0.9-2.4,1.1c-0.4,0.1-1,0.1-1.9,0.1c-0.8,0-1.6-0.2-2.4-0.5c-1.1-0.5-2.1-1.3-2.7-2.4c-0.7-1.1-1-2.5-1-4.1
	c0-0.5,0.1-1.2,0.3-1.9c0.2-0.8,0.5-1.6,1-2.5c0.3-0.6,0.7-1.1,1.2-1.5c0.7-0.6,1.3-0.9,1.8-1.1c0.7-0.3,1.6-0.5,2.6-0.5
	c1.1,0,1.9,0.2,2.6,0.6c0.9,0.5,1.6,1.2,2,2c0.4,0.8,0.7,1.6,0.7,2.2V253.1z M748.3,240.9v-0.4c0.3-0.1,0.7-0.2,1.1-0.3
	c0.6-0.2,1.4-0.5,2.5-0.8h0.8c0,0.6,0,0.9,0,1c0,9.4,0,15-0.1,16.8c0,1.1-0.1,1.6-0.1,1.7c0,1.3,0.1,2,0.2,2.1
	c0.1,0.2,0.6,0.4,1.2,0.4c0.7,0.1,1.1,0.2,1.2,0.2c0.1,0.1,0.1,0.1,0.1,0.2c0,0.1,0,0.2-0.1,0.3c-0.1,0-0.1,0.1-0.3,0.1
	c-0.1,0-0.7,0-1.8-0.1l-2.2-0.1l-2.9,0.1c-0.2,0-0.3,0-0.4-0.1c-0.1-0.1-0.1-0.1-0.1-0.2c0-0.1,0-0.2,0.1-0.3c0.1,0,0.5-0.1,1.2-0.3
	c0.8-0.1,1.2-0.2,1.3-0.3c0.1-0.1,0.2-0.3,0.2-0.6c0-0.4,0.1-1.6,0.1-3.5l0-4l0.1-4.1l0-4.1l0.1-2c0-0.4-0.1-0.7-0.2-0.9
	c-0.1-0.2-0.4-0.4-0.8-0.5C748.9,241.2,748.5,241,748.3,240.9 M731.7,262c0.9,0,1.7-0.2,2.5-0.7c0.8-0.5,1.4-1.2,1.9-2.3
	c0.5-1,0.7-2.2,0.7-3.6c0-0.9-0.2-1.9-0.6-3.1c-0.4-1.2-0.9-2.1-1.7-2.6c-0.8-0.6-1.7-0.9-2.7-0.9c-0.7,0-1.5,0.2-2.3,0.5
	c-0.8,0.3-1.4,1-2,2c-0.5,1-0.8,2.4-0.8,4.3c0,2.1,0.5,3.7,1.4,4.7C729.1,261.5,730.3,262,731.7,262 M724.1,255.3
	c0-0.8,0.2-1.6,0.5-2.5c0.3-0.9,0.8-1.7,1.5-2.4c0.7-0.7,1.4-1.2,2.1-1.6c1-0.5,2.3-0.7,3.8-0.7c2.1,0,3.9,0.7,5.3,2.2
	c1.4,1.5,2.1,3.2,2.1,5.3c0,1.8-0.7,3.5-2.2,4.9c-1.5,1.4-3.4,2.2-5.7,2.2c-1.4,0-2.7-0.4-4-1.1c-0.9-0.6-1.7-1.4-2.4-2.5
	C724.5,258,724.1,256.7,724.1,255.3 M715.3,259.1l0,1.1c-0.9,1-1.8,1.6-2.6,2c-0.9,0.4-1.9,0.6-3.1,0.6c-1.3,0-2.4-0.3-3.5-1
	c-1-0.7-1.8-1.6-2.4-2.8c-0.5-1.2-0.8-2.4-0.8-3.6c0-1.3,0.3-2.5,1-3.7c0.7-1.2,1.5-2,2.6-2.6c1.1-0.5,2.5-0.8,4.1-0.8
	c1.6,0,2.8,0.3,3.6,0.8c0.5,0.3,0.7,0.7,0.7,1.2c0,0.4-0.1,0.7-0.4,0.9c-0.2,0.2-0.6,0.4-0.9,0.4c-0.6,0-1.2-0.4-1.9-1.1
	c-0.4-0.4-0.8-0.7-1.1-0.9c-0.3-0.2-0.7-0.2-1.1-0.2c-1,0-1.9,0.4-2.5,1.2c-0.9,1.2-1.4,2.7-1.4,4.5c0,1.8,0.5,3.3,1.4,4.4
	c0.9,1.1,2.1,1.6,3.3,1.6c0.9,0,1.7-0.1,2.4-0.4C713.6,260.4,714.4,259.8,715.3,259.1"/>
<path class="st2" d="M845.6,259.4c0.1-1.5,0.1-2.5,0.1-3.1c0-0.3,0-0.7-0.1-1.2c-0.8,0.3-1.6,0.7-2.4,1.2c-0.8,0.6-1.5,1.2-2,1.9
	c-0.4,0.5-0.6,1-0.6,1.5c0,0.4,0.2,0.8,0.5,1.1c0.3,0.3,0.7,0.4,1.1,0.4c0.4,0,0.8-0.1,1.3-0.4C844.2,260.6,844.8,260.1,845.6,259.4
	z M850.6,259.9c0.1,0.1,0.1,0.2,0.1,0.3c0,0.2-0.1,0.5-0.4,0.9c-0.4,0.6-0.8,1-1.2,1.3c-0.3,0.2-0.6,0.2-1.1,0.2
	c-0.8,0-1.4-0.2-1.8-0.8c-0.3-0.3-0.4-0.8-0.5-1.6l-1.9,1.3c-0.7,0.4-1.2,0.6-1.5,0.7c-0.6,0.1-1.3,0.2-2,0.2c-0.6,0-1-0.2-1.4-0.5
	c-0.3-0.3-0.5-0.8-0.5-1.3c0-0.8,0.5-1.7,1.4-2.8c1-1.1,2.3-2,3.9-2.7c1.2-0.5,1.9-0.8,2.1-0.9c0-0.4,0-0.8,0-1.2
	c0-1.4-0.2-2.4-0.6-3c-0.4-0.5-1-0.8-1.7-0.8c-0.8,0-1.5,0.3-2.2,0.9c-0.4,0.4-0.7,1.1-1,2.2c-0.1,0.3-0.2,0.6-0.4,0.9
	c-0.5,0.3-0.9,0.5-1.2,0.5c-0.2,0-0.5-0.1-0.7-0.2c-0.1-0.1-0.2-0.2-0.2-0.3c0-0.3,0.3-1,1-2c0.6-1,1.4-1.8,2.4-2.3
	c1-0.5,1.8-0.8,2.5-0.8c1,0,1.7,0.1,2.2,0.3c0.5,0.2,0.9,0.5,1.3,0.9c0.4,0.5,0.6,0.9,0.7,1.5c0,0.3,0.1,1.1,0.1,2.7l-0.1,2.7l0,2
	c0,0.3,0,0.5,0,0.7c0,0.3,0,0.6,0,0.7c0,0.4,0.1,0.7,0.3,0.9c0.2,0.2,0.5,0.3,0.8,0.3c0.4,0,0.8-0.2,1.1-0.6l0.2-0.3
	C850.3,260,850.4,259.9,850.6,259.9z M814.1,248.6c1.3,0,2.4,0.1,3.3,0.1c0.7,0,1.2,0,1.5,0c0.2,0,0.4,0,0.4,0l1.9,0
	c0.3,0,0.5,0.1,0.6,0.1c0.1,0,0.1,0.1,0.2,0.2c0,0.1,0,0.2-0.1,0.4c-0.2,0.1-0.4,0.1-0.6,0.1c-0.9,0.1-1.6,0.2-2.1,0.4
	c-0.1,0.1-0.1,0.1-0.1,0.2c0,0.1,0.1,0.3,0.2,0.5c0,0.1,0.1,0.2,0.1,0.4l1.7,4.1c0.8,1.9,1.5,3.5,2.1,4.8c0.4-0.8,0.9-1.7,1.2-2.6
	c0.4-0.9,0.9-2.3,1.7-4.3c0.2-0.6,0.4-1.2,0.6-2.1c0-0.1,0.1-0.3,0.1-0.4c0-0.1-0.1-0.3-0.2-0.4c-0.2-0.2-0.4-0.3-0.8-0.4
	c-0.1,0-0.6-0.1-1.6-0.2c-0.1-0.1-0.2-0.1-0.2-0.2V249c0-0.1,0-0.1,0-0.2c0.3,0,0.5,0,0.6,0l2,0c0.1,0,0.5,0,1-0.1
	c1.8,0,2.9,0,3.3,0.1c0.1,0,0.1,0.1,0.2,0.2c0,0.1,0,0.2-0.1,0.3l-0.5,0.1c-0.1,0-0.2,0-0.3,0c-1,0.1-1.6,0.2-1.8,0.4
	c-0.2,0.1-0.4,0.7-0.8,1.8c-0.2,0.5-0.4,1.2-0.8,2l-0.9,2.2c-0.1,0.3-0.3,0.6-0.4,1l-2.6,6.1h-0.5c-0.1-0.3-0.2-0.6-0.4-0.9
	l-1.3-2.8l-3.1-7.2c-0.6-1.4-1-2.2-1.1-2.3c-0.1-0.1-0.9-0.4-2.2-0.7c-0.1-0.2-0.1-0.3-0.1-0.4L814.1,248.6z M801.1,250l0-0.5
	c0.7-0.2,1.1-0.3,1.2-0.4c0.4-0.2,0.8-0.5,1.3-0.8c0.4-0.4,0.8-0.8,1.1-1.3c0.1,0,0.2,0,0.3,0l0.2,0c0,0.5,0.1,0.9,0.1,1.2
	c0,0.1,0,0.3,0,0.8v0.9l0,4.9l-0.1,5.2c0,0.4,0.1,0.7,0.2,0.9c0.2,0.2,0.6,0.3,1.3,0.6c0.5,0.1,0.8,0.2,1,0.3c0,0.1,0.1,0.2,0.1,0.2
	c0,0.1,0,0.2-0.1,0.3c-0.4,0-1,0-1.7-0.1c-0.9-0.1-1.6-0.1-1.9-0.1c-0.1,0-1.1,0-2.7,0.1c-0.3,0-0.7,0-1,0.1c-0.1,0-0.2,0-0.3,0
	c-0.1-0.1-0.1-0.2-0.1-0.2c0-0.2,0.1-0.3,0.3-0.4c0,0,0.6-0.1,1.8-0.4c0.4-0.1,0.6-0.2,0.7-0.4c0.2-0.2,0.3-0.6,0.3-1.1
	c0-0.9,0-3.3,0-7.2c0-0.8,0-1.3-0.1-1.5c-0.1-0.1-0.2-0.3-0.4-0.5C802.4,250.4,801.9,250.2,801.1,250z M802.5,241.1
	c0-0.4,0.1-0.7,0.4-1c0.3-0.3,0.6-0.4,1.1-0.4c0.4,0,0.8,0.2,1.1,0.5c0.3,0.3,0.5,0.6,0.5,1c0,0.3-0.1,0.7-0.5,1
	c-0.3,0.3-0.7,0.5-1.1,0.5c-0.4,0-0.8-0.2-1.1-0.4C802.7,241.9,802.5,241.6,802.5,241.1z M788.2,245.2l0.5,0l0.1,1.6l0,2.1
	c0.2,0,0.3,0,0.4,0c0.3,0,0.9,0,1.7-0.1c0.5,0,1-0.1,1.5-0.1c0.2,0,0.6,0,1,0c0,0.2,0,0.4,0,0.6c0,0.1,0,0.4-0.1,0.7H793l-2.6,0.1
	l-1.3,0l-0.3,0c-0.1,0.3-0.1,0.6-0.1,1l0.1,2.6l0,4.5c0,1.2,0.2,2,0.5,2.4c0.3,0.4,0.7,0.6,1.3,0.6c0.3,0,0.9-0.1,1.7-0.3
	c0.2-0.1,0.6-0.2,1-0.6h0.2c0.1,0,0.2,0,0.3,0.1c0.1,0.1,0.1,0.2,0.1,0.2l0,0.1c-0.5,0.5-1.1,0.9-1.7,1.2c-0.6,0.2-1.5,0.4-2.5,0.4
	c-0.7,0-1.4-0.2-1.9-0.5c-0.5-0.4-0.8-0.7-0.9-1.2c-0.1-0.5-0.2-1.5-0.2-3.1l0.1-3.9l0-1.8v-0.7c0-0.3,0-0.6,0-1l-0.3,0l-1.4,0
	l-0.1,0c-0.1,0-0.2,0-0.3-0.1c-0.1-0.1-0.1-0.1-0.1-0.2c0-0.1,0-0.3,0.1-0.3c0.1-0.1,0.3-0.2,0.8-0.4c0.3-0.1,0.7-0.4,1-0.7
	c0.4-0.3,0.7-0.7,1-1.2c0.1-0.2,0.3-0.7,0.6-1.3C787.9,245.8,788.1,245.4,788.2,245.2z M766.1,252.5h0.8c0.6,0,2.3-0.1,5.2-0.3
	c0.5,0,0.7-0.1,0.8-0.1c0.2-0.2,0.3-0.4,0.3-0.6c0-0.4-0.1-0.8-0.3-1.2c-0.2-0.4-0.6-0.8-1-1c-0.5-0.2-1-0.4-1.6-0.4
	c-1.3,0-2.4,0.5-3.2,1.5C766.4,251.1,766.1,251.8,766.1,252.5z M775.6,253.1l-6.8,0.1h-1.3c-0.5,0-1.1,0-1.6,0.1
	c-0.1,0.4-0.1,0.6-0.1,0.7l0,0.2v0.2l0,0.9c0,0.7,0.2,1.6,0.7,2.6c0.4,1,1.1,1.8,1.9,2.3c0.8,0.5,1.8,0.8,3,0.8
	c0.7,0,1.2-0.1,1.6-0.2c0.4-0.1,0.9-0.4,1.6-0.9l1.2-1l0.1,0.7c0,0.1,0,0.2,0,0.3c-0.5,0.7-1.2,1.2-1.9,1.7
	c-0.8,0.5-1.6,0.9-2.4,1.1c-0.4,0.1-1,0.1-1.9,0.1c-0.8,0-1.6-0.2-2.4-0.5c-1.1-0.5-2.1-1.3-2.7-2.4c-0.7-1.1-1-2.5-1-4.1
	c0-0.5,0.1-1.2,0.3-1.9c0.2-0.8,0.5-1.6,1-2.5c0.3-0.6,0.7-1.1,1.2-1.5c0.7-0.6,1.3-0.9,1.8-1.1c0.7-0.3,1.6-0.5,2.6-0.5
	c1.1,0,1.9,0.2,2.6,0.6c0.9,0.5,1.6,1.2,2,2c0.4,0.8,0.7,1.6,0.7,2.2V253.1z M748.3,240.9v-0.4c0.3-0.1,0.7-0.2,1.1-0.3
	c0.6-0.2,1.4-0.5,2.5-0.8h0.8c0,0.6,0,0.9,0,1c0,9.4,0,15-0.1,16.8c0,1.1-0.1,1.6-0.1,1.7c0,1.3,0.1,2,0.2,2.1
	c0.1,0.2,0.6,0.4,1.2,0.4c0.7,0.1,1.1,0.2,1.2,0.2c0.1,0.1,0.1,0.1,0.1,0.2c0,0.1,0,0.2-0.1,0.3c-0.1,0-0.1,0.1-0.3,0.1
	c-0.1,0-0.7,0-1.8-0.1l-2.2-0.1l-2.9,0.1c-0.2,0-0.3,0-0.4-0.1c-0.1-0.1-0.1-0.1-0.1-0.2c0-0.1,0-0.2,0.1-0.3c0.1,0,0.5-0.1,1.2-0.3
	c0.8-0.1,1.2-0.2,1.3-0.3c0.1-0.1,0.2-0.3,0.2-0.6c0-0.4,0.1-1.6,0.1-3.5l0-4l0.1-4.1l0-4.1l0.1-2c0-0.4-0.1-0.7-0.2-0.9
	c-0.1-0.2-0.4-0.4-0.8-0.5C748.9,241.2,748.5,241,748.3,240.9z M731.7,262c0.9,0,1.7-0.2,2.5-0.7c0.8-0.5,1.4-1.2,1.9-2.3
	c0.5-1,0.7-2.2,0.7-3.6c0-0.9-0.2-1.9-0.6-3.1c-0.4-1.2-0.9-2.1-1.7-2.6c-0.8-0.6-1.7-0.9-2.7-0.9c-0.7,0-1.5,0.2-2.3,0.5
	c-0.8,0.3-1.4,1-2,2c-0.5,1-0.8,2.4-0.8,4.3c0,2.1,0.5,3.7,1.4,4.7C729.1,261.5,730.3,262,731.7,262z M724.1,255.3
	c0-0.8,0.2-1.6,0.5-2.5c0.3-0.9,0.8-1.7,1.5-2.4c0.7-0.7,1.4-1.2,2.1-1.6c1-0.5,2.3-0.7,3.8-0.7c2.1,0,3.9,0.7,5.3,2.2
	c1.4,1.5,2.1,3.2,2.1,5.3c0,1.8-0.7,3.5-2.2,4.9c-1.5,1.4-3.4,2.2-5.7,2.2c-1.4,0-2.7-0.4-4-1.1c-0.9-0.6-1.7-1.4-2.4-2.5
	C724.5,258,724.1,256.7,724.1,255.3z M715.3,259.1l0,1.1c-0.9,1-1.8,1.6-2.6,2c-0.9,0.4-1.9,0.6-3.1,0.6c-1.3,0-2.4-0.3-3.5-1
	c-1-0.7-1.8-1.6-2.4-2.8c-0.5-1.2-0.8-2.4-0.8-3.6c0-1.3,0.3-2.5,1-3.7c0.7-1.2,1.5-2,2.6-2.6c1.1-0.5,2.5-0.8,4.1-0.8
	c1.6,0,2.8,0.3,3.6,0.8c0.5,0.3,0.7,0.7,0.7,1.2c0,0.4-0.1,0.7-0.4,0.9c-0.2,0.2-0.6,0.4-0.9,0.4c-0.6,0-1.2-0.4-1.9-1.1
	c-0.4-0.4-0.8-0.7-1.1-0.9c-0.3-0.2-0.7-0.2-1.1-0.2c-1,0-1.9,0.4-2.5,1.2c-0.9,1.2-1.4,2.7-1.4,4.5c0,1.8,0.5,3.3,1.4,4.4
	c0.9,1.1,2.1,1.6,3.3,1.6c0.9,0,1.7-0.1,2.4-0.4C713.6,260.4,714.4,259.8,715.3,259.1z"/>
<path class="st0" d="M542.4,299.4c0.5,0.2,1.1,0.3,1.7,0.3c0.7,0,1.5-0.1,2.2-0.3c0.7-0.2,1.3-0.6,1.9-1c0.5-0.4,1-0.9,1.3-1.4
	c0.3-0.5,0.6-1,0.7-1.4c0.2-0.6,0.3-1.4,0.3-2.4c0-1-0.2-1.9-0.6-2.9c-0.3-0.7-0.8-1.3-1.5-1.9c-0.7-0.6-1.5-1.1-2.5-1.4
	c-0.9-0.3-2-0.4-3.1-0.4c-0.8,0-1.3,0.1-1.7,0.3c-0.1,0-0.1,0.1-0.1,0.1c0,0.2-0.1,0.4-0.1,0.5c0,0.1,0,0.2,0,0.3c0,0.9,0,1.5,0,2
	l0,2.5c0,3.6,0.1,5.7,0.2,6.1C541.4,298.7,541.8,299.1,542.4,299.4 M536.9,299.8c0.3-0.1,0.6-0.2,0.9-0.2c0.5-0.1,0.9-0.2,1.1-0.4
	c0.2-0.4,0.3-1.4,0.3-3.1v-1.7l0-1l0-0.8l0-1.4l0-3.5c0-0.4-0.1-0.7-0.2-0.8c-0.2-0.2-0.6-0.3-1.3-0.5c-0.3-0.1-0.5-0.1-0.5-0.2
	c-0.1,0-0.1-0.1-0.1-0.3c0.2,0,0.3-0.1,0.4-0.1h0.8h0.4c0.3,0,0.6,0,0.9,0.1c0.7,0,1.4,0.1,2.1,0.1c0.2,0,0.5,0,0.9,0
	c1-0.1,1.7-0.1,2.2-0.1c0.9,0,1.7,0.1,2.5,0.3c0.8,0.2,1.6,0.5,2.4,1c0.5,0.3,1,0.8,1.6,1.4c0.5,0.6,1,1.3,1.2,2.1
	c0.3,0.8,0.4,1.6,0.4,2.6c0,0.9-0.1,1.7-0.5,2.5c-0.3,0.8-0.7,1.6-1.3,2.2c-0.6,0.6-1.1,1.1-1.7,1.4c-0.6,0.3-1.4,0.6-2.6,0.8
	c-0.5,0.1-1.3,0.1-2.6,0.1c-0.8,0-1.5,0-2-0.1c-0.2,0-0.4-0.1-0.7-0.1c0,0-0.1,0-0.1,0l-4.4,0.1l0-0.1c0,0,0-0.1,0-0.1L536.9,299.8z
	 M507,299.8c0.1-0.1,0.1-0.1,0.2-0.1c0.1,0,0.3-0.1,0.6-0.1c0.7,0,1.1-0.1,1.3-0.2c0.1-0.1,0.2-0.4,0.2-0.6l0-0.8l0-2.8l0-1.3l0-2.7
	l-0.1-3.1c0-0.8-0.1-1.2-0.1-1.3c-0.1-0.1-0.5-0.2-1.2-0.2c-0.3,0-0.5,0-0.7-0.1c-0.1-0.1-0.1-0.1-0.1-0.2c0-0.1,0-0.1,0-0.2
	c0.1-0.1,0.1-0.1,0.2-0.1c0.1,0,0.2,0,0.4,0c0.4,0,0.9,0.1,1.3,0.1l0.8,0l1.9,0c1,0,1.7,0,2.3,0c0.5,0,0.9,0,1.1,0
	c0.2,0,0.6,0,1.2,0h1.6l0.2,0l0.9,0l0.1,0.1c0,0,0.1,0.1,0.1,0.2c0,0.1,0,0.3,0,0.5c0,0.2-0.1,0.3-0.1,0.4c0,0.8,0,1.4,0.1,1.9
	c0,0,0,0.1-0.1,0.1c-0.1,0-0.2,0-0.2,0c-0.1-0.1-0.2-0.4-0.3-0.7c-0.1-0.4-0.3-0.8-0.6-1.2c-0.2-0.3-0.3-0.5-0.4-0.5
	c-0.1-0.1-0.3-0.1-0.6-0.1c-0.1,0-0.4,0-1,0c-0.2,0-0.3,0-0.5,0l-3.1,0.1H512c-0.4,0-0.6,0.1-0.7,0.2c-0.1,0.2-0.2,0.7-0.2,1.5
	c0,0.1,0,1,0.1,2.6v1.5c0.1,0,0.2,0,0.3,0h0.2h0.5c0.4,0,0.6,0,0.8,0c0.1,0,0.2,0,0.2,0c0.8,0,1.8,0,3,0c0.4-0.1,0.6-0.1,0.7-0.2
	c0.1-0.1,0.2-0.5,0.2-1c0.1-0.6,0.2-0.9,0.4-0.9c0.1,0,0.2,0,0.3,0c0,0.1,0,0.1,0,0.2c0,0,0,0.1,0,0.2c0,0.3-0.1,1.1-0.1,2.5
	c0,0.4,0,0.8,0.1,1.3c0,0.5,0.1,0.7,0.1,0.8c0,0.1,0,0.2,0,0.3c-0.1,0-0.1,0-0.1,0h-0.1c-0.1-0.2-0.2-0.5-0.3-1
	c-0.2-0.7-0.4-1.2-0.6-1.4c-0.2-0.2-0.6-0.3-1-0.3H515c-0.3,0-0.7,0-1.2,0h-0.7c-1,0-1.7,0-2,0.1l0,0.4l0,2l0,1.3l0,1.2
	c0,0.7,0.1,1.2,0.1,1.3c0.1,0.2,0.4,0.2,0.8,0.2l0.7,0c0.1,0,0.3,0,0.7,0c0.4,0,0.9,0,1.5,0c1.4,0,2.3-0.1,2.8-0.2
	c0.5-0.1,0.9-0.3,1.2-0.6c0.3-0.3,0.7-1,1.1-2c0.1-0.3,0.3-0.5,0.4-0.5c0.1,0,0.1,0,0.2,0.1c-0.2,0.7-0.3,1.2-0.4,1.4
	c-0.1,0.5-0.1,1-0.2,1.6c0,0.2-0.1,0.4-0.2,0.6h-0.2l-3.1,0l-1.4,0l-3.3,0h-1.3c-0.2,0-0.3,0-0.5,0c-1.3,0.1-2.3,0.1-2.9,0.1
	c-0.1,0-0.2,0-0.2-0.1c0,0-0.1-0.1-0.1-0.2L507,299.8z M485.2,299.4c0.6,0.2,1.1,0.3,1.7,0.3c0.7,0,1.5-0.1,2.2-0.3
	c0.7-0.2,1.3-0.6,1.9-1c0.5-0.4,1-0.9,1.3-1.4c0.4-0.5,0.6-1,0.7-1.4c0.2-0.6,0.3-1.4,0.3-2.4c0-1-0.2-1.9-0.6-2.9
	c-0.3-0.7-0.8-1.3-1.5-1.9c-0.7-0.6-1.5-1.1-2.5-1.4c-0.9-0.3-2-0.4-3.1-0.4c-0.8,0-1.3,0.1-1.7,0.3c0,0-0.1,0.1-0.1,0.1
	c0,0.2-0.1,0.4-0.1,0.5c0,0.1,0,0.2,0,0.3c0,0.9,0,1.5,0,2l0,2.5c0,3.6,0.1,5.7,0.2,6.1C484.2,298.7,484.6,299.1,485.2,299.4
	 M479.7,299.8c0.3-0.1,0.6-0.2,0.9-0.2c0.5-0.1,0.9-0.2,1.2-0.4c0.2-0.4,0.3-1.4,0.3-3.1v-1.7l0-1l0-0.8l0-1.4l0-3.5
	c0-0.4-0.1-0.7-0.2-0.8c-0.2-0.2-0.6-0.3-1.3-0.5c-0.3-0.1-0.5-0.1-0.6-0.2c-0.1,0-0.1-0.1-0.1-0.3c0.2,0,0.3-0.1,0.3-0.1h0.8h0.4
	c0.3,0,0.6,0,0.9,0.1c0.7,0,1.4,0.1,2.1,0.1c0.2,0,0.5,0,0.9,0c1-0.1,1.7-0.1,2.2-0.1c0.9,0,1.7,0.1,2.5,0.3c0.8,0.2,1.6,0.5,2.4,1
	c0.5,0.3,1,0.8,1.6,1.4c0.5,0.6,1,1.3,1.2,2.1c0.3,0.8,0.4,1.6,0.4,2.6c0,0.9-0.2,1.7-0.5,2.5c-0.3,0.8-0.7,1.6-1.3,2.2
	c-0.5,0.6-1.1,1.1-1.7,1.4c-0.6,0.3-1.4,0.6-2.6,0.8c-0.5,0.1-1.3,0.1-2.6,0.1c-0.8,0-1.5,0-2-0.1c-0.2,0-0.4-0.1-0.7-0.1
	c0,0-0.1,0-0.1,0l-4.5,0.1l0-0.1c0,0,0-0.1,0-0.1L479.7,299.8z M459.5,293.1c0.8,0,1.7,0.1,2.7,0.1c0.6,0,1.1,0,1.5-0.1
	c-0.1-0.3-0.2-0.5-0.2-0.8c-0.5-1.3-0.7-2-0.8-2.1l-1-2.5l-0.1-0.2c0,0.1-0.2,0.5-0.5,1.1c-0.5,1.1-0.8,2-1,2.7
	c-0.1,0.3-0.2,0.6-0.3,0.8c-0.1,0.3-0.2,0.5-0.2,0.6C459.5,292.8,459.5,292.9,459.5,293.1L459.5,293.1z M454.3,299.6
	c0.1,0,0.2-0.1,0.3-0.1h0.2c0,0,0.1,0,0.3,0c0.6-0.1,0.9-0.1,1-0.2c0.3-0.1,0.5-0.4,0.7-0.7c0.4-0.8,0.8-1.8,1.3-3.2
	c0.2-0.6,0.4-1,0.4-1.2c0.2-0.4,0.4-0.9,0.5-1.4l1-2.9c0.2-0.4,0.5-1.5,1.2-3.1c0.2-0.4,0.3-1,0.6-1.6l0.3,0l0.4,0
	c0.3,0.6,0.6,1.3,0.8,2c0.1,0.4,0.3,0.9,0.7,1.7l1.7,4.5l0.9,2.4c0.5,1.4,0.8,2.2,0.9,2.6c0.1,0.3,0.3,0.5,0.4,0.6
	c0,0,0.2,0.1,0.4,0.1c0.3,0.1,0.4,0.1,0.5,0.1c0.3,0.1,0.6,0.2,0.7,0.2c0,0.1,0.1,0.2,0.1,0.2c0,0,0,0.1,0,0.2c-0.2,0-0.4,0-0.5,0
	c-0.4,0-1,0-2,0l-1.1,0l-1.3,0c-0.1,0-0.2,0-0.3,0c-0.1,0-0.2,0-0.2,0h-0.2c-0.1,0-0.2,0-0.2-0.1c0-0.1,0-0.2,0-0.3
	c0.1,0,0.2-0.1,0.2-0.1l1.2-0.1c0.3,0,0.5-0.1,0.7-0.1c0-0.1,0.1-0.2,0.1-0.3c0-0.1-0.1-0.5-0.3-1c-0.1-0.4-0.2-0.7-0.4-1.1
	c-0.1-0.3-0.5-1.4-1.2-3.2c-0.3-0.1-0.6-0.1-0.8-0.1l-2.3,0h-0.7c-0.2,0-0.5,0-0.8,0.1c-0.1,0.2-0.2,0.4-0.2,0.5l-1,3
	c-0.4,1.1-0.6,1.8-0.6,1.9c0,0.1,0,0.2,0.1,0.3c0.1,0,0.3,0.1,0.6,0.1l1.5,0.1c0.1,0.1,0.1,0.1,0.1,0.2c0,0,0,0.1,0,0.2
	c-0.3,0-0.6,0-0.8,0c-0.6,0-1.3,0-2-0.1c-0.4,0-0.6,0-0.8,0c-0.2,0-0.4,0-0.8,0c-0.2,0-0.4,0-0.5,0c-0.2,0-0.4,0-0.7,0v-0.1
	C454.3,299.8,454.3,299.7,454.3,299.6 M434.3,299.4c0.6,0.2,1.1,0.3,1.7,0.3c0.7,0,1.5-0.1,2.2-0.3c0.7-0.2,1.3-0.6,1.9-1
	c0.5-0.4,1-0.9,1.3-1.4c0.4-0.5,0.6-1,0.7-1.4c0.2-0.6,0.3-1.4,0.3-2.4c0-1-0.2-1.9-0.6-2.9c-0.3-0.7-0.8-1.3-1.5-1.9
	c-0.7-0.6-1.5-1.1-2.5-1.4c-0.9-0.3-2-0.4-3.1-0.4c-0.8,0-1.3,0.1-1.7,0.3c0,0-0.1,0.1-0.1,0.1c0,0.2-0.1,0.4-0.1,0.5
	c0,0.1,0,0.2,0,0.3c0,0.9,0,1.5,0,2l0,2.5c0,3.6,0.1,5.7,0.2,6.1C433.3,298.7,433.7,299.1,434.3,299.4 M428.7,299.8
	c0.3-0.1,0.6-0.2,0.9-0.2c0.5-0.1,0.9-0.2,1.2-0.4c0.2-0.4,0.3-1.4,0.3-3.1v-1.7l0-1l0-0.8l0-1.4l0-3.5c0-0.4-0.1-0.7-0.2-0.8
	c-0.2-0.2-0.6-0.3-1.3-0.5c-0.3-0.1-0.5-0.1-0.5-0.2c-0.1,0-0.1-0.1-0.1-0.3c0.2,0,0.3-0.1,0.4-0.1h0.8h0.4c0.3,0,0.6,0,0.9,0.1
	c0.7,0,1.4,0.1,2.1,0.1c0.2,0,0.5,0,0.9,0c1-0.1,1.7-0.1,2.2-0.1c0.9,0,1.7,0.1,2.5,0.3c0.8,0.2,1.6,0.5,2.4,1
	c0.5,0.3,1,0.8,1.6,1.4c0.5,0.6,1,1.3,1.2,2.1c0.3,0.8,0.4,1.6,0.4,2.6c0,0.9-0.2,1.7-0.5,2.5c-0.3,0.8-0.8,1.6-1.3,2.2
	c-0.6,0.6-1.1,1.1-1.7,1.4c-0.6,0.3-1.4,0.6-2.6,0.8c-0.5,0.1-1.4,0.1-2.6,0.1c-0.8,0-1.5,0-2-0.1c-0.2,0-0.4-0.1-0.6-0.1
	c0,0-0.1,0-0.1,0l-4.5,0.1l0-0.1c0,0,0-0.1,0-0.1L428.7,299.8z M405.9,300.1c0-0.1,0-0.2,0.1-0.3c0.6-0.2,1.1-0.3,1.7-0.3
	c0.4,0,0.6-0.1,0.7-0.2c0.1-0.1,0.1-0.4,0.1-1l0.1-2.9l0-2l0-2.6v-0.7c0-1.5,0-2.5,0-2.9c0-0.1,0-0.2-0.1-0.3
	c-0.2-0.1-0.4-0.2-0.5-0.2c-0.1,0-0.7-0.1-1.7-0.3c0-0.1,0-0.1,0-0.2c0,0,0-0.1,0-0.2c0.2,0,0.4,0,0.7,0l1.7,0.1l1,0l0.3,0
	c0,0,0.1,0,0.3,0c0.4,0,0.7,0,0.7,0l0.9-0.1c0.6,0,1,0,1.3,0c0,0.1,0,0.3-0.1,0.4c-0.1,0-0.5,0-1.1,0.1c-0.7,0-1.1,0.1-1.2,0.1
	c-0.2,0.1-0.3,0.4-0.3,0.9c0,0.1,0,0.4,0,0.7v0.7l0,2v0.7l0,3.6l0,3.1l0,0.7c0,0.2,0,0.4,0.1,0.4c0.2,0,0.7,0,1.6,0h0.7l1.9-0.1
	c0.5,0,0.8,0,1.1-0.1c0.2-0.1,0.6-0.3,1.1-0.7c0.3-0.3,0.5-0.5,0.7-0.8c0,0,0.1-0.2,0.2-0.3c0.1-0.2,0.3-0.6,0.6-1.1h0.4
	c0,0.3-0.1,0.5-0.1,0.7c-0.2,1-0.3,1.9-0.4,2.6c0,0.1,0,0.3,0,0.4L414,300c-3.5,0-5.6,0-6.2,0.1c-0.2,0-0.4,0-0.7,0H405.9z
	 M386.5,286c0,0.1,0.1,0.2,0.1,0.3c0,0,0,0.1,0,0.2c-0.2,0.1-0.4,0.1-0.5,0.1c-0.1,0-0.1,0-0.3,0c-0.1,0-0.2,0-0.3,0
	c-0.3,0-0.6,0.1-0.8,0.2c-0.1,0.1-0.2,0.2-0.2,0.3l-0.1,1.2l0,5.4c0,2,0.1,3.2,0.2,3.7c0.1,0.5,0.3,0.9,0.6,1.2
	c0.3,0.3,0.7,0.6,1.3,0.8c0.6,0.2,1.2,0.3,1.7,0.3c1.2,0,2.2-0.2,2.8-0.5c0.7-0.4,1.1-0.9,1.4-1.5c0.3-0.6,0.4-1.6,0.4-2.9
	c0,0,0-0.3,0-0.9v-0.3c0-0.1,0-0.3,0-0.7c0-0.3,0-0.5,0-0.6l-0.2-3.1c-0.1-1-0.1-1.7-0.2-1.9c-0.1-0.2-0.2-0.3-0.3-0.4
	c-0.3-0.2-0.8-0.4-1.6-0.5c0-0.1-0.1-0.2-0.1-0.3c0.3,0,0.6,0,0.8,0c0.3,0,0.6,0,0.9,0c0.5,0,0.7,0,0.7,0l1.8,0l0.3,0l0,0.4
	c-0.9,0.1-1.4,0.2-1.6,0.4c-0.2,0.1-0.3,0.4-0.3,0.9c0,0.2,0,0.7,0,1.5l0.1,2.3l0,0.9l0,1.1c0,1.4,0,2.4-0.1,2.9
	c-0.1,0.7-0.3,1.3-0.5,1.7c-0.2,0.4-0.5,0.8-0.9,1.1c-0.4,0.3-1,0.6-1.6,0.8c-0.7,0.2-1.4,0.3-2,0.3c-1,0-1.8-0.1-2.2-0.2
	c-0.8-0.3-1.5-0.6-2-1c-0.5-0.4-0.8-0.8-1-1.2c-0.2-0.5-0.4-1.3-0.4-2.3v-0.8l0-3.1l0-2.5v-1.7c0-0.4-0.1-0.7-0.2-0.9
	c-0.1-0.1-0.2-0.2-0.3-0.2h-0.6c-0.5,0-0.8,0-0.9-0.1c0-0.1,0-0.1,0-0.2c0-0.1,0-0.1,0.1-0.2c0.1-0.1,0.2-0.1,0.3-0.1h0.3h0.7h1.7
	L386.5,286z M369,286.6c0.1,0.6,0.1,1.1,0.1,1.7v0.5c-0.1,0-0.2,0-0.3,0c0,0-0.1,0-0.2,0c-0.3-0.8-0.8-1.5-1.5-2
	c-0.7-0.5-1.5-0.7-2.6-0.7c-0.5,0-1,0-1.4,0.2c-0.7,0.2-1.2,0.5-1.7,0.9c-0.5,0.4-0.9,0.9-1.3,1.4c-0.4,0.5-0.6,1.2-0.8,2
	c-0.2,0.8-0.3,1.6-0.3,2.4c0,1.6,0.2,2.8,0.7,3.9c0.5,1,1.1,1.7,1.9,2.2c0.8,0.4,1.6,0.7,2.5,0.7l0.5,0c0.6-0.1,1-0.2,1.2-0.2
	c0.5-0.2,1-0.3,1.3-0.5c0.3-0.2,0.7-0.5,1-0.9c0.3-0.4,0.6-0.8,0.8-1.3l0.1,0c0,0,0.1,0,0.2,0.1c0,0.2,0,0.3,0,0.3
	c-0.3,1.2-0.5,2.1-0.7,2.5c-0.1,0-0.3,0.1-0.4,0.1c-0.9,0.3-2,0.4-3.4,0.4c-1.2,0-2-0.1-2.6-0.2c-0.6-0.1-1.2-0.4-1.9-0.7
	c-0.7-0.3-1.3-0.8-1.8-1.3c-0.5-0.5-0.9-1.2-1.2-2.1c-0.3-0.8-0.5-1.8-0.5-2.7c0-0.9,0.1-1.8,0.4-2.5c0.2-0.7,0.6-1.4,1.1-2.1
	c0.5-0.7,1.1-1.3,1.8-1.8c0.7-0.5,1.5-0.8,2.3-1c0.6-0.1,1.5-0.2,2.6-0.2c0.8,0,1.6,0.1,2.3,0.3C368.3,286.2,368.8,286.4,369,286.6
	 M337.1,293.1c0.8,0,1.7,0.1,2.7,0.1c0.6,0,1.1,0,1.5-0.1c-0.1-0.3-0.1-0.5-0.2-0.8c-0.5-1.3-0.7-2-0.8-2.1l-1-2.5l-0.1-0.2
	c0,0.1-0.2,0.5-0.5,1.1c-0.5,1.1-0.8,2-1,2.7c-0.1,0.3-0.2,0.6-0.3,0.8c-0.1,0.3-0.2,0.5-0.2,0.6C337.1,292.8,337,292.9,337.1,293.1
	L337.1,293.1z M331.9,299.6c0.1,0,0.2-0.1,0.3-0.1h0.3c0.1,0,0.1,0,0.3,0c0.6-0.1,0.9-0.1,1-0.2c0.3-0.1,0.5-0.4,0.7-0.7
	c0.4-0.8,0.8-1.8,1.3-3.2c0.2-0.6,0.4-1,0.4-1.2c0.2-0.4,0.3-0.9,0.5-1.4l1-2.9c0.2-0.4,0.5-1.5,1.2-3.1c0.1-0.4,0.3-1,0.5-1.6
	l0.3,0l0.4,0c0.3,0.6,0.6,1.3,0.8,2c0.1,0.4,0.4,0.9,0.7,1.7l1.7,4.5l0.9,2.4c0.5,1.4,0.8,2.2,0.9,2.6c0.1,0.3,0.3,0.5,0.4,0.6
	c0,0,0.2,0.1,0.4,0.1c0.2,0.1,0.4,0.1,0.5,0.1c0.3,0.1,0.6,0.2,0.7,0.2c0,0.1,0,0.2,0,0.2c0,0,0,0.1,0,0.2c-0.2,0-0.4,0-0.5,0
	c-0.4,0-1,0-2,0l-1.1,0l-1.3,0c-0.1,0-0.2,0-0.3,0c-0.1,0-0.2,0-0.2,0h-0.2c-0.1,0-0.2,0-0.2-0.1c0-0.1,0-0.2,0.1-0.3
	c0.1,0,0.2-0.1,0.2-0.1l1.1-0.1c0.3,0,0.5-0.1,0.7-0.1c0-0.1,0.1-0.2,0.1-0.3c0-0.1-0.1-0.5-0.3-1c-0.1-0.4-0.2-0.7-0.3-1.1
	c-0.1-0.3-0.5-1.4-1.2-3.2c-0.3-0.1-0.6-0.1-0.8-0.1l-2.3,0h-0.7c-0.2,0-0.5,0-0.8,0.1c-0.1,0.2-0.1,0.4-0.2,0.5l-1,3
	c-0.4,1.1-0.6,1.8-0.6,1.9c0,0.1,0,0.2,0.1,0.3c0.2,0,0.4,0.1,0.6,0.1l1.5,0.1c0.1,0.1,0.1,0.1,0.1,0.2c0,0,0,0.1,0,0.2
	c-0.3,0-0.6,0-0.8,0c-0.6,0-1.3,0-2-0.1c-0.3,0-0.6,0-0.8,0c-0.1,0-0.4,0-0.8,0c-0.2,0-0.4,0-0.5,0c-0.2,0-0.4,0-0.7,0v-0.1
	C331.8,299.8,331.8,299.7,331.9,299.6 M311.6,300.2l0-0.3c0.2-0.1,0.4-0.1,0.8-0.2c0.4-0.1,0.6-0.1,0.8-0.2c0.1-0.1,0.3-0.2,0.4-0.3
	c0.1-0.3,0.1-0.9,0.1-1.7l-0.2-8.5l0-1.4c0-0.3,0-0.5-0.2-0.6c-0.1-0.1-0.4-0.2-0.8-0.3c-0.4-0.1-0.7-0.2-0.8-0.2
	c-0.1-0.1-0.1-0.1-0.1-0.2c0,0,0-0.1,0-0.1c0.1-0.1,0.2-0.1,0.3-0.1s0.3,0,0.7,0h0.3c0.1,0,0.4,0,0.9,0h1.5l3.1-0.1l3.3-0.1h0.3
	l0.5,0c0.1,0,0.3,0,0.4,0.1c0,0.1,0.1,0.2,0.1,0.3v0.4l0.1,2c0,0.1,0,0.2,0,0.3c-0.1,0.1-0.2,0.1-0.3,0.1c-0.1,0-0.1,0-0.2-0.1
	c-0.1-0.1-0.1-0.2-0.1-0.5c0-0.3-0.1-0.7-0.3-1.2c-0.1-0.2-0.2-0.4-0.5-0.5c-0.4-0.2-1.2-0.2-2.2-0.2c-0.5,0-0.9,0-1.4,0
	c-0.4,0-0.7,0-0.8,0l-0.9,0c-0.3,0-0.6,0-0.9,0.1c-0.2,0.1-0.2,0.2-0.2,0.5v0.2c0,0.4,0,0.8,0,1.2l0,3c0,0.3,0,0.6,0.1,0.8l0.3,0
	l0.6,0h2.1c0.8,0,1.4-0.1,1.8-0.2c0.2-0.1,0.4-0.2,0.5-0.4c0-0.1,0.1-0.4,0.3-0.9l0.1-0.9c0.1,0,0.1-0.1,0.2-0.1c0,0,0.1,0,0.2,0
	c0,0.2,0.1,0.4,0.1,0.8l0.1,4c-0.1,0.1-0.2,0.1-0.3,0.1l-0.1,0c-0.1-0.7-0.3-1.3-0.5-1.7c-0.1-0.2-0.2-0.2-0.3-0.3
	c-0.2,0-1-0.1-2.6-0.1c-0.5,0-0.8,0-1,0c-0.4,0-0.7,0-0.8,0h-0.1c-0.2,0-0.4,0-0.5,0.1c0,0.1,0,0.2,0,0.2v0.7c0,0.1,0,0.5,0,1.1
	l0,3.6c0,0.1,0,0.2,0.1,0.4c0.2,0.1,0.4,0.2,0.8,0.2c0.4,0,0.8,0.1,1.1,0.3c0.2,0.1,0.3,0.2,0.3,0.3c0,0,0,0.1,0,0.1
	c0,0-0.1,0.1-0.2,0.1c-0.6-0.1-1.4-0.2-2.5-0.2c-0.6,0-1.2,0.1-1.8,0.2c-0.4,0-0.9,0.1-1.5,0.1L311.6,300.2z"/>
<path class="st0" d="M819.8,286c0,0.1,0.1,0.2,0.1,0.3c0,0,0,0.1,0,0.2c-0.2,0.1-0.3,0.1-0.5,0.1c-0.1,0-0.1,0-0.3,0
	c-0.1,0-0.2,0-0.3,0c-0.3,0-0.6,0.1-0.8,0.2c-0.1,0.1-0.2,0.2-0.2,0.3l-0.1,1.2l0,5.4c0,2,0.1,3.2,0.2,3.7c0.1,0.5,0.3,0.9,0.6,1.2
	c0.3,0.3,0.7,0.6,1.3,0.8c0.6,0.2,1.2,0.3,1.7,0.3c1.2,0,2.2-0.2,2.8-0.5c0.7-0.4,1.1-0.9,1.4-1.5c0.3-0.6,0.4-1.6,0.4-2.9
	c0,0,0-0.3,0-0.9v-0.3c0-0.1,0-0.3,0-0.7c0-0.3,0-0.5,0-0.6l-0.2-3.1c-0.1-1-0.1-1.7-0.2-1.9c-0.1-0.2-0.2-0.3-0.3-0.4
	c-0.3-0.2-0.8-0.4-1.6-0.5c0-0.1-0.1-0.2-0.1-0.3c0.3,0,0.6,0,0.9,0c0.3,0,0.6,0,0.9,0c0.5,0,0.8,0,0.8,0l1.7,0l0.3,0l0,0.4
	c-0.9,0.1-1.4,0.2-1.6,0.4c-0.2,0.1-0.3,0.4-0.3,0.9c0,0.2,0,0.7,0.1,1.5l0.1,2.3l0,0.9l0,1.1c0,1.4,0,2.4-0.1,2.9
	c-0.1,0.7-0.3,1.3-0.5,1.7c-0.2,0.4-0.5,0.8-0.9,1.1c-0.4,0.3-1,0.6-1.6,0.8c-0.7,0.2-1.4,0.3-2,0.3c-1,0-1.8-0.1-2.2-0.2
	c-0.8-0.3-1.5-0.6-2-1c-0.5-0.4-0.8-0.8-1-1.2c-0.3-0.5-0.4-1.3-0.4-2.4v-0.8l0-3.1l0-2.5v-1.7c0-0.4-0.1-0.7-0.2-0.9
	c-0.1-0.1-0.2-0.2-0.3-0.2h-0.6c-0.5,0-0.8,0-0.9-0.1c0-0.1,0-0.1,0-0.2c0-0.1,0-0.1,0.1-0.2c0.1-0.1,0.2-0.1,0.3-0.1h0.3h0.7h1.7
	L819.8,286z M791.9,295.2h0.1l0.9,0l1.5,0l1.1,0l0.6,0c0.5,0,0.9,0,1.1,0.1l0,0.9c-0.5,0-0.8,0.1-1.1,0.1c-0.3,0-0.5,0-0.8,0
	c-0.3,0-0.6,0-0.6,0l-0.5,0h-0.5c-0.9,0-1.5,0-1.9-0.1l0-0.3C791.9,295.6,791.9,295.4,791.9,295.2 M765.6,293.1
	c0.8,0,1.7,0.1,2.7,0.1c0.6,0,1.1,0,1.5-0.1c-0.1-0.3-0.2-0.5-0.2-0.8c-0.5-1.3-0.7-2-0.8-2.1l-1-2.5l-0.1-0.2
	c0,0.1-0.2,0.5-0.5,1.1c-0.5,1.1-0.8,2-1,2.7c-0.1,0.3-0.2,0.6-0.3,0.8c-0.1,0.3-0.2,0.5-0.2,0.6
	C765.6,292.8,765.6,292.9,765.6,293.1L765.6,293.1z M760.3,299.6c0.1,0,0.2-0.1,0.3-0.1h0.2c0,0,0.1,0,0.3,0c0.6-0.1,0.9-0.1,1-0.2
	c0.2-0.1,0.5-0.4,0.7-0.7c0.4-0.8,0.8-1.8,1.3-3.2c0.2-0.6,0.4-1,0.4-1.2c0.2-0.4,0.4-0.9,0.5-1.4l1-2.9c0.2-0.5,0.6-1.5,1.2-3.1
	c0.2-0.4,0.3-1,0.6-1.6l0.3,0l0.4,0c0.3,0.6,0.6,1.3,0.8,2c0.1,0.4,0.4,0.9,0.7,1.7l1.7,4.5l0.9,2.4c0.5,1.4,0.8,2.2,0.9,2.6
	c0.2,0.3,0.3,0.5,0.4,0.6c0,0,0.2,0.1,0.4,0.1c0.2,0,0.4,0.1,0.5,0.1c0.3,0.1,0.6,0.2,0.7,0.2c0,0.1,0.1,0.2,0.1,0.2
	c0,0,0,0.1,0,0.2c-0.2,0-0.4,0-0.5,0c-0.4,0-1,0-2,0l-1.1,0l-1.3,0c-0.1,0-0.2,0-0.3,0c-0.1,0-0.2,0-0.2,0h-0.2c-0.1,0-0.2,0-0.2,0
	c0-0.1,0-0.2,0.1-0.3c0.1-0.1,0.2-0.1,0.2-0.1l1.1-0.1c0.3,0,0.5-0.1,0.7-0.1c0-0.1,0.1-0.2,0.1-0.3c0-0.1-0.1-0.5-0.3-1
	c-0.1-0.4-0.2-0.7-0.3-1.1c-0.1-0.3-0.5-1.4-1.2-3.2c-0.3-0.1-0.6-0.1-0.8-0.1l-2.3,0h-0.7c-0.2,0-0.5,0-0.8,0.1
	c-0.1,0.2-0.2,0.4-0.2,0.5l-1,3c-0.4,1.1-0.6,1.8-0.6,1.9c0,0.1,0,0.2,0.1,0.3c0.2,0,0.4,0.1,0.6,0.1l1.5,0.1
	c0.1,0.1,0.1,0.1,0.1,0.2c0,0,0,0.1,0,0.2c-0.3,0-0.6,0-0.8,0c-0.6,0-1.3,0-2-0.1c-0.3,0-0.6,0-0.8,0c-0.2,0-0.4,0-0.8,0
	c-0.2,0-0.4,0-0.5,0c-0.2,0-0.4,0-0.7,0v0C760.3,299.8,760.3,299.7,760.3,299.6 M733.7,286.6l0-0.5c1.1,0,2,0,2.5-0.1
	c0.2,0,0.4,0,0.4,0c0.1,0,0.2,0,0.3,0c0.3,0.2,0.6,0.5,0.9,0.9c0.1,0.1,0.1,0.2,0.2,0.2l2.3,2.6l0.3,0.4c0.5,0.5,0.9,1,1.3,1.4
	c0.4,0.4,1.1,1.2,2.2,2.4l2.6,2.9c0.2,0.3,0.6,0.6,1,1.1l0-0.2c0-1-0.1-1.5-0.1-1.6l0-0.7l0-1v-0.5c0-0.3,0-1.2-0.1-2.8
	c0-0.2,0-0.6-0.1-1.2c-0.1-0.6-0.1-1.1-0.1-1.5c0-0.8-0.1-1.3-0.1-1.4c-0.1-0.1-0.4-0.2-0.9-0.3c-0.1,0-0.3,0-0.6-0.1
	c-0.3,0-0.5,0-0.6-0.1c-0.1,0-0.1-0.1-0.2-0.2c0-0.1,0-0.2,0.1-0.3c0.2-0.1,0.4-0.1,0.6-0.1c0.2,0,0.4,0,0.8,0.1
	c0.3,0.1,0.6,0.1,0.8,0.1c0.3,0,0.9,0,1.6-0.1c0.4,0,0.7,0,0.8,0h0.2l0,0.3c-0.1,0-0.3,0.1-0.5,0.1c-0.2,0-0.4,0-0.6,0.1
	c-0.3,0.1-0.4,0.1-0.5,0.2c-0.2,0.2-0.3,0.4-0.3,0.6l0.1,3.4l0.1,1.6l0,0.5l0.1,2.2c0,1.5,0.1,2.8,0.1,3.9c0,0.2,0,0.8-0.1,1.6
	l-0.5,0c-0.2-0.3-1.1-1.2-2.6-2.7c-0.3-0.3-0.6-0.6-0.7-0.8l-0.9-1.1c-0.4-0.4-0.6-0.6-0.7-0.8c-0.1-0.1-0.2-0.2-0.2-0.2
	c-0.8-0.9-1.8-2-3.1-3.4c-0.3-0.4-0.8-0.9-1.5-1.7c-0.4-0.5-0.7-0.8-0.8-0.9c-0.1-0.1-0.2-0.2-0.5-0.4l0,0.4c0,1.4,0,3.4,0.1,5.9
	l0.1,3.6c0,0.3,0,0.6,0.1,0.9l0.4,0.1c0.7,0.1,1.4,0.2,2,0.3c0.1,0,0.1,0.1,0.1,0.1l0,0.4c-0.1,0-0.2,0-0.3,0c-0.1,0-0.2,0-0.3,0
	c-0.7-0.1-1.6-0.1-2.6-0.1c-0.7,0-1.4,0-1.9,0.1l-0.2,0c-0.1,0-0.1,0-0.3,0l0-0.3l0.3-0.1l0.5-0.1c0.5-0.1,0.8-0.2,1-0.2
	c0.1,0,0.2-0.1,0.3-0.2c0.1-0.5,0.1-1.2,0.1-2.2c0-0.5,0-1.3,0-2.5v-1.5l0-3.1c0-1.4-0.1-2.2-0.1-2.5c0-0.1-0.1-0.2-0.3-0.3
	c-0.3-0.2-0.6-0.3-1.1-0.4C734.1,286.7,733.8,286.7,733.7,286.6 M716.1,299.6c0.2,0,0.3-0.1,0.5-0.1c1.1-0.1,1.8-0.2,1.9-0.4
	c0.2-0.2,0.2-1.1,0.2-2.8v-1.1V294l-0.1-1.3l0-0.8l0-0.9v-1l0-0.4l0-0.6c0-0.1,0-0.3,0-0.4c0-0.5,0-1-0.1-1.5c0-0.1-0.1-0.2-0.1-0.3
	c-0.3-0.1-0.7-0.2-1.3-0.3c-0.6,0-0.9-0.1-1-0.2c-0.1,0-0.1-0.2-0.1-0.3h0.9l2.9,0.1c0.8,0,1.7,0,3-0.1c0,0.1,0,0.2,0,0.3
	c-0.2,0-0.4,0.1-0.7,0.1c-0.7,0.1-1.1,0.2-1.3,0.2c-0.1,0-0.2,0.1-0.2,0.2c-0.1,0.1-0.1,0.4-0.1,0.7l-0.1,1.4l0,4.9v1.9
	c0,0.6,0,1,0,1.2c0,0.8,0,1.3,0.1,1.6c0,0.2,0.1,0.4,0.2,0.5c0.1,0.1,0.3,0.2,0.5,0.2c0.3,0.1,0.6,0.1,0.8,0.1
	c0.4,0,0.7,0.1,0.8,0.2c0,0.1,0,0.2,0,0.2v0.1c-0.7,0-1.2,0-1.5,0c-0.2,0-0.5,0-1,0l-1.5,0l-2.6,0h-0.2L716.1,299.6z M704.6,286.6
	c0.1,0.6,0.1,1.1,0.1,1.7c0,0.1,0,0.3,0,0.5c-0.1,0-0.2,0-0.2,0c0,0-0.1,0-0.2,0c-0.3-0.9-0.8-1.5-1.5-2c-0.7-0.5-1.5-0.7-2.6-0.7
	c-0.5,0-1,0-1.4,0.2c-0.6,0.2-1.2,0.5-1.7,0.9c-0.5,0.4-0.9,0.9-1.2,1.4c-0.3,0.5-0.6,1.2-0.8,2c-0.2,0.8-0.3,1.6-0.3,2.4
	c0,1.6,0.2,2.8,0.7,3.9c0.5,1,1.1,1.7,1.9,2.2c0.8,0.4,1.7,0.7,2.5,0.7l0.5,0c0.6-0.1,1-0.2,1.2-0.2c0.5-0.2,1-0.3,1.3-0.5
	c0.3-0.2,0.7-0.5,1-0.9c0.3-0.4,0.6-0.8,0.8-1.3l0.1,0c0,0,0.1,0,0.2,0.1c0,0.2,0,0.3,0,0.3c-0.3,1.2-0.5,2.1-0.7,2.5
	c-0.1,0-0.3,0.1-0.4,0.1c-0.9,0.3-2,0.4-3.4,0.4c-1.1,0-2-0.1-2.6-0.2c-0.6-0.2-1.2-0.4-1.9-0.8c-0.7-0.3-1.3-0.7-1.8-1.3
	c-0.5-0.5-0.9-1.2-1.2-2.1c-0.3-0.8-0.5-1.8-0.5-2.7c0-0.9,0.1-1.8,0.4-2.5c0.2-0.7,0.6-1.4,1.2-2.1c0.5-0.7,1.1-1.3,1.8-1.8
	c0.7-0.5,1.5-0.8,2.3-1c0.6-0.1,1.5-0.2,2.6-0.2c0.8,0,1.6,0.1,2.3,0.3C703.8,286.2,704.3,286.4,704.6,286.6 M674.3,299.6
	c0.2,0,0.3-0.1,0.5-0.1c1.1-0.1,1.8-0.2,1.9-0.4c0.2-0.2,0.2-1.1,0.2-2.8l0-1.1V294l0-1.3l0-0.8l0-0.9v-1l0-0.4l0-0.6
	c0-0.1,0-0.3,0-0.4c0-0.5,0-1-0.1-1.5c0-0.1-0.1-0.2-0.1-0.3c-0.3-0.1-0.7-0.2-1.3-0.3c-0.6,0-0.9-0.1-1-0.2c-0.1,0-0.1-0.2-0.1-0.3
	h0.9l2.9,0.1c0.7,0,1.7,0,3-0.1c0,0.1,0,0.2,0,0.3c-0.1,0-0.4,0.1-0.7,0.1c-0.7,0.1-1.1,0.2-1.3,0.2c-0.1,0-0.2,0.1-0.2,0.2
	c-0.1,0.1-0.1,0.4-0.1,0.7l-0.1,1.4l0,4.9v1.9c0,0.6,0,1,0,1.2c0,0.8,0,1.3,0.1,1.6c0,0.2,0.1,0.4,0.2,0.5c0.1,0.1,0.3,0.2,0.5,0.2
	c0.3,0.1,0.6,0.1,0.8,0.1c0.4,0,0.7,0.1,0.8,0.2c0,0.1,0,0.2,0,0.2v0.1c-0.7,0-1.2,0-1.5,0c-0.2,0-0.5,0-1,0l-1.5,0l-2.6,0h-0.2
	L674.3,299.6z M652.6,299.4c0.6,0.2,1.1,0.3,1.7,0.3c0.7,0,1.5-0.1,2.2-0.3c0.7-0.2,1.3-0.6,1.9-1c0.5-0.4,1-0.9,1.3-1.4
	c0.4-0.5,0.6-1,0.7-1.4c0.2-0.6,0.3-1.4,0.3-2.4c0-1-0.2-1.9-0.6-2.9c-0.3-0.7-0.8-1.3-1.5-1.9c-0.7-0.6-1.5-1.1-2.5-1.4
	c-0.9-0.3-2-0.4-3.1-0.4c-0.8,0-1.3,0.1-1.7,0.3c-0.1,0-0.1,0.1-0.1,0.1c0,0.2-0.1,0.4-0.1,0.5c0,0.1,0,0.2,0,0.3c0,0.9,0,1.5,0,2.1
	l0,2.5c0,3.6,0.1,5.7,0.2,6.1C651.6,298.7,652,299.1,652.6,299.4 M647,299.8c0.3-0.1,0.6-0.2,0.9-0.2c0.5-0.1,0.9-0.2,1.1-0.4
	c0.2-0.4,0.3-1.4,0.3-3.1v-1.7l0-1l0-0.8l0-1.4l0-3.5c0-0.4-0.1-0.7-0.2-0.8c-0.2-0.2-0.6-0.3-1.3-0.5c-0.3-0.1-0.5-0.1-0.6-0.2
	c-0.1,0-0.1-0.1-0.1-0.3c0.2,0,0.3-0.1,0.4-0.1h0.8h0.4c0.3,0,0.5,0,0.9,0.1c0.7,0,1.4,0.1,2.1,0.1c0.2,0,0.5,0,0.9,0
	c1-0.1,1.7-0.1,2.2-0.1c0.9,0,1.7,0.1,2.5,0.3c0.8,0.2,1.6,0.5,2.4,1c0.5,0.3,1.1,0.8,1.6,1.4c0.5,0.6,1,1.3,1.2,2.1
	c0.3,0.8,0.4,1.6,0.4,2.6c0,0.9-0.2,1.7-0.5,2.5c-0.3,0.8-0.7,1.6-1.3,2.2c-0.6,0.6-1.1,1.1-1.7,1.4c-0.6,0.3-1.4,0.6-2.6,0.8
	c-0.5,0.1-1.3,0.1-2.6,0.1c-0.8,0-1.5,0-2-0.1c-0.2,0-0.4,0-0.6,0c0,0-0.1,0-0.1,0l-4.5,0.1l0-0.1c0,0,0-0.1,0-0.1L647,299.8z
	 M622.8,299.8c0.1-0.1,0.1-0.1,0.2-0.1c0.1,0,0.3-0.1,0.6-0.1c0.7,0,1.1-0.1,1.3-0.2c0.1-0.1,0.1-0.4,0.1-0.6l0-0.8l0-2.8l0-1.3
	l0-2.7l-0.1-3.1c0-0.8,0-1.2-0.1-1.3c-0.1-0.1-0.5-0.2-1.2-0.2c-0.3,0-0.5,0-0.7-0.1c-0.1-0.1-0.2-0.1-0.2-0.2c0-0.1,0-0.1,0.1-0.2
	c0.1-0.1,0.1-0.1,0.2-0.1c0.1,0,0.2,0,0.4,0c0.4,0,0.9,0.1,1.3,0.1l0.8,0l1.9,0c1,0,1.7,0,2.2,0c0.5,0,0.9,0,1.1,0
	c0.2,0,0.6,0,1.2,0h1.6l0.2,0l0.9,0l0.1,0.1c0,0,0.1,0.1,0.1,0.2c0,0.1,0,0.3,0,0.5c0,0.2-0.1,0.3-0.1,0.4c0,0.8,0,1.4,0.1,1.9
	c0,0,0,0.1-0.1,0.1c-0.1,0-0.2,0-0.2,0c-0.1-0.1-0.2-0.4-0.3-0.7c-0.1-0.4-0.3-0.7-0.6-1.2c-0.2-0.3-0.3-0.5-0.4-0.5
	c-0.1-0.1-0.3-0.1-0.6-0.1c-0.1,0-0.4,0-1,0c-0.2,0-0.3,0-0.5,0l-3.1,0.1h-0.3c-0.4,0-0.6,0.1-0.7,0.1c-0.1,0.2-0.2,0.7-0.2,1.5
	c0,0.1,0,1,0.1,2.6v1.5c0.1,0,0.2,0,0.3,0h0.2h0.6c0.4,0,0.6,0,0.8,0c0.1,0,0.2,0,0.2,0c0.8,0,1.8,0,3,0c0.4-0.1,0.6-0.1,0.7-0.2
	c0.1-0.1,0.2-0.5,0.2-1c0.1-0.5,0.2-0.9,0.4-0.9c0.1,0,0.2,0,0.3,0c0,0.1,0,0.1,0,0.2c0,0,0,0.1,0,0.2c0,0.3-0.1,1.1-0.1,2.5
	c0,0.4,0,0.8,0.1,1.3c0,0.5,0.1,0.7,0.1,0.8c0,0.1,0,0.2,0,0.3c-0.1,0-0.1,0-0.1,0h-0.1c-0.1-0.2-0.2-0.5-0.3-1
	c-0.2-0.7-0.4-1.2-0.6-1.4c-0.2-0.2-0.5-0.3-1-0.3h-0.6c-0.3,0-0.7,0-1.2,0h-0.7c-1,0-1.7,0-2,0.1l0,0.4l0,2l0,1.3l0,1.2
	c0,0.7,0.1,1.2,0.1,1.3c0.1,0.2,0.4,0.2,0.8,0.2l0.7,0c0.1,0,0.3,0,0.7,0c0.4,0,0.9,0,1.5,0c1.4,0,2.3-0.1,2.8-0.2
	c0.5-0.1,0.9-0.3,1.2-0.6c0.3-0.3,0.7-1,1.1-2c0.1-0.3,0.3-0.5,0.4-0.5c0.1,0,0.1,0,0.2,0.1c-0.2,0.7-0.3,1.2-0.4,1.4
	c-0.1,0.5-0.1,1-0.1,1.6c0,0.2-0.1,0.4-0.2,0.6h-0.2l-3.1,0l-1.4,0l-3.3,0h-1.3c-0.2,0-0.3,0-0.5,0c-1.3,0.1-2.3,0.1-2.9,0.1
	c-0.1,0-0.2,0-0.2-0.1c0,0-0.1-0.1-0.1-0.2L622.8,299.8z M593.9,299.8c0.2-0.1,0.6-0.3,1.2-0.3c0.5,0,0.7-0.1,0.8-0.1
	c0.1,0,0.1-0.1,0.1-0.2c0.1-0.3,0.2-1,0.2-2.2c0.1-1.5,0.2-3.6,0.3-6.2c0.1-2,0.2-3.2,0.2-3.7v-0.3c-0.5-0.1-1.4-0.2-2.5-0.3
	c-0.1-0.1-0.1-0.2-0.1-0.2c0,0,0-0.1,0.1-0.2c0.1,0,0.2-0.1,0.3-0.1c0.1,0,0.2,0,0.4,0c0.4,0.1,0.9,0.1,1.5,0.1c0.2,0,0.5,0,1,0
	c0.4,0,0.6,0,0.6,0c0.1,0,0.3,0,0.4,0.1c0.1,0.1,0.1,0.1,0.2,0.2l0.5,1l3.1,6.8l1.3,2.9c1-2,1.8-3.8,2.4-5.3c0-0.1,0.1-0.2,0.1-0.3
	c0.1-0.1,0.1-0.2,0.2-0.4c0.1-0.1,0.3-0.7,0.7-1.8c0.2-0.4,0.3-0.8,0.4-1c0.4-1.2,0.7-1.8,0.7-2c0.1,0,0.3-0.1,0.4-0.1
	c0.1,0,0.3,0,0.5,0c0.4,0,1.1,0,2,0c0.6,0,1,0,1.4,0c0,0.1,0,0.1,0,0.2c0,0,0,0.1,0,0.2c-0.2,0.1-0.5,0.2-0.8,0.2
	c-0.6,0-1.1,0.1-1.2,0.1c-0.2,0.1-0.3,0.2-0.3,0.3c-0.1,0.1-0.1,0.4-0.1,1l0,0.5l0,0.5c0,1.1,0,2.9,0.1,5.5l0,2.1l0,1.4
	c0,0.6,0,0.9,0.1,1c0.1,0.1,0.2,0.2,0.4,0.3c0.4,0.1,1,0.3,1.9,0.4c0,0,0.1,0.1,0.1,0.1c0,0.1,0,0.1,0,0.2h-0.5c-0.4,0-0.9,0-1.4,0
	c-0.5,0-0.8,0-0.8,0c-1.5,0-2.5,0-3,0c-0.3,0-0.5,0-0.6,0c-0.1,0-0.1,0-0.2,0v-0.1c0-0.1,0-0.1,0-0.2c0.2-0.1,0.6-0.2,1-0.2
	c0.5-0.1,0.8-0.2,1-0.4c0.1-0.3,0.1-0.8,0.1-1.7l0-2.2c0-0.2,0-0.7,0-1.3c0-0.7,0-1.7,0-3.2c0-1.2,0-2.1-0.1-2.7
	c-0.1,0.3-0.4,0.8-0.7,1.7l-0.2,0.4l0,0.1l-1.6,3.8l-0.6,1.5l-0.8,1.8c-0.3,0.8-0.6,1.5-0.8,2.2c-0.1,0.3-0.2,0.5-0.2,0.7l-0.2,0
	c-0.8-2.4-1.8-4.9-3-7.4c-1.1-2.5-1.9-4.2-2.4-5c-0.1,0.3-0.1,1.2-0.2,2.8c-0.1,1.8-0.1,3.8-0.1,6.1c0,0.7,0.1,1.5,0.2,2.3
	c0,0.2,0.1,0.4,0.3,0.5c0.2,0.1,0.7,0.2,1.4,0.2c0.3,0,0.6,0,0.8,0.1c0,0.1,0.1,0.2,0.1,0.2c0,0,0,0.1,0,0.2l-3.4-0.1
	c-0.2,0-0.6,0-1.2,0.1c-0.3,0-0.7,0-1.3,0L593.9,299.8z M564.2,299.8c0.1-0.1,0.1-0.1,0.2-0.1c0.1,0,0.3-0.1,0.6-0.1
	c0.7,0,1.1-0.1,1.3-0.2c0.1-0.1,0.2-0.4,0.2-0.6l0-0.8l0-2.8l0-1.3l0-2.7l-0.1-3.1c0-0.8-0.1-1.2-0.1-1.3c-0.1-0.1-0.5-0.2-1.2-0.2
	c-0.3,0-0.5,0-0.7-0.1c-0.1-0.1-0.1-0.1-0.1-0.2c0-0.1,0-0.1,0.1-0.2c0.1-0.1,0.1-0.1,0.1-0.1c0.2,0,0.3,0,0.4,0
	c0.4,0,0.9,0.1,1.3,0.1l0.8,0l1.9,0c1,0,1.7,0,2.3,0c0.5,0,0.9,0,1.1,0c0.2,0,0.6,0,1.2,0h1.5l0.2,0l0.9,0l0.1,0.1
	c0,0,0.1,0.1,0.1,0.2c0,0.1,0,0.3-0.1,0.5c0,0.2,0,0.3,0,0.4c0,0.8,0,1.4,0.1,1.9c0,0,0,0.1-0.1,0.1c-0.1,0-0.1,0-0.2,0
	c-0.1-0.1-0.2-0.4-0.3-0.7c-0.1-0.4-0.3-0.7-0.6-1.2c-0.2-0.3-0.3-0.5-0.4-0.5c-0.1-0.1-0.3-0.1-0.6-0.1c-0.1,0-0.4,0-1,0
	c-0.2,0-0.3,0-0.5,0l-3.1,0.1h-0.3c-0.4,0-0.6,0.1-0.7,0.1c-0.1,0.2-0.2,0.7-0.2,1.5c0,0.1,0,1,0.1,2.6v1.5c0.1,0,0.2,0,0.3,0h0.2
	h0.6c0.4,0,0.6,0,0.8,0c0.1,0,0.2,0,0.2,0c0.8,0,1.8,0,3,0c0.4-0.1,0.6-0.1,0.7-0.2c0.1-0.1,0.2-0.5,0.2-1c0.1-0.5,0.2-0.9,0.4-0.9
	c0.1,0,0.2,0,0.3,0c0,0.1,0,0.1,0,0.2c0,0,0,0.1,0,0.2c0,0.3-0.1,1.1-0.1,2.5c0,0.4,0,0.8,0.1,1.3c0,0.5,0.1,0.7,0.1,0.8
	c0,0.1,0,0.2,0,0.3c-0.1,0-0.1,0-0.1,0h-0.1c-0.1-0.2-0.2-0.5-0.3-1c-0.2-0.7-0.4-1.2-0.6-1.4c-0.2-0.2-0.5-0.3-1-0.3h-0.6
	c-0.3,0-0.7,0-1.2,0h-0.7c-1,0-1.7,0-2,0.1l0,0.4l0,2l0,1.3l0,1.2c0,0.7,0.1,1.2,0.1,1.3c0.1,0.2,0.4,0.2,0.8,0.2l0.7,0
	c0.1,0,0.3,0,0.7,0c0.4,0,0.9,0,1.5,0c1.4,0,2.3-0.1,2.8-0.2c0.5-0.1,0.8-0.3,1.2-0.6c0.3-0.3,0.7-1,1.1-2c0.1-0.3,0.3-0.5,0.4-0.5
	c0.1,0,0.1,0,0.2,0.1c-0.2,0.7-0.3,1.2-0.4,1.4c-0.1,0.5-0.1,1-0.1,1.6c0,0.2-0.1,0.4-0.2,0.6h-0.2l-3.1,0l-1.4,0l-3.3,0h-1.3
	c-0.2,0-0.3,0-0.5,0c-1.3,0.1-2.3,0.1-2.9,0.1c-0.1,0-0.2,0-0.2-0.1c0,0-0.1-0.1-0.1-0.2L564.2,299.8z"/>
<path class="st0" d="M904.6,286.7l0.1,1.7c0,0.5,0.1,0.8,0.1,1l-0.3,0.1c-0.5-1.1-1.1-1.9-1.8-2.5c-0.7-0.5-1.6-0.8-2.7-0.8
	c-1.3,0-2.3,0.2-3,0.5c-1,0.4-1.9,1.2-2.7,2.3c-0.7,1.1-1.1,2.4-1.1,4c0,0.9,0.1,1.7,0.4,2.4c0.3,0.7,0.6,1.4,1.1,2
	c0.5,0.6,1.1,1.1,1.7,1.6c0.4,0.3,1,0.5,1.6,0.7c0.3,0.1,0.8,0.1,1.5,0.1c0.4,0,0.9-0.1,1.4-0.2c0.5-0.1,0.9-0.3,1.2-0.5
	c0.3-0.2,0.5-0.5,0.6-0.7c0.1-0.3,0.1-0.8,0.1-1.5c0-1.3-0.1-2-0.2-2.2c-0.2-0.2-0.7-0.3-1.6-0.4l-0.4,0h-0.3c0,0-0.1,0-0.2,0
	l-0.2-0.3c0,0,0-0.1,0.1-0.1c0.4-0.1,1.2-0.1,2.5-0.1c0.3,0,0.8,0,1.4,0l1.1,0h1c0.2,0,0.4,0,0.7,0c0,0,0.1,0,0.1,0c0,0,0,0.1,0,0.1
	c0,0.1,0,0.2-0.1,0.3c-0.3,0.1-0.6,0.1-0.7,0.1l-0.7,0c-0.2,0-0.4,0.1-0.6,0.2c-0.1,0.1-0.1,0.4-0.1,0.8l0,1.4c0,1,0,1.6-0.1,1.9
	c0,0.2-0.1,0.3-0.3,0.4c-0.1,0.1-0.4,0.3-0.9,0.5c-0.6,0.3-1.2,0.4-1.7,0.5c-1,0.2-1.9,0.3-2.8,0.3c-1.5,0-2.6-0.2-3.6-0.6
	c-0.9-0.4-1.7-0.9-2.4-1.5c-0.7-0.7-1.1-1.3-1.4-2c-0.4-1-0.6-2-0.6-3c0-1.3,0.3-2.5,1-3.7c0.7-1.2,1.8-2.2,3.3-3
	c1.1-0.5,2.5-0.8,4.3-0.8c1.3,0,2.3,0.1,3.1,0.3C903.5,286.2,904.2,286.5,904.6,286.7 M861.7,299.8c0.2-0.1,0.6-0.3,1.2-0.3
	c0.4,0,0.7-0.1,0.8-0.1c0.1,0,0.1-0.1,0.1-0.2c0.1-0.3,0.2-1,0.2-2.2c0.1-1.5,0.2-3.6,0.3-6.2c0.1-2,0.2-3.2,0.2-3.7v-0.3
	c-0.5-0.1-1.4-0.2-2.5-0.3c-0.1-0.1-0.1-0.2-0.1-0.2c0,0,0-0.1,0.1-0.2c0.1,0,0.2-0.1,0.3-0.1c0.1,0,0.2,0,0.4,0
	c0.4,0.1,0.8,0.1,1.5,0.1c0.2,0,0.5,0,1,0c0.4,0,0.5,0,0.6,0c0.1,0,0.2,0,0.4,0.1c0.1,0.1,0.1,0.1,0.2,0.2l0.4,1l3.1,6.8l1.3,2.9
	c1-2,1.8-3.8,2.4-5.3c0-0.1,0.1-0.2,0.1-0.3c0.1-0.1,0.1-0.2,0.2-0.4c0.1-0.1,0.3-0.7,0.7-1.8c0.2-0.4,0.3-0.8,0.4-1
	c0.4-1.2,0.7-1.8,0.7-2c0.1,0,0.3-0.1,0.4-0.1c0.1,0,0.3,0,0.4,0c0.4,0,1.1,0,2,0c0.6,0,1,0,1.4,0c0,0.1,0,0.1,0,0.2
	c0,0,0,0.1,0,0.2c-0.2,0.1-0.5,0.2-0.8,0.2c-0.6,0-1.1,0.1-1.2,0.1c-0.2,0.1-0.3,0.2-0.3,0.3c0,0.1-0.1,0.4-0.1,1l0,0.5l0,0.5
	c0,1.1,0,2.9,0.1,5.5l0,2.1l0,1.4c0,0.6,0,0.9,0.1,1c0,0.1,0.2,0.2,0.4,0.3c0.4,0.1,1,0.3,1.9,0.4c0.1,0,0.1,0.1,0.1,0.1
	c0,0.1,0,0.1,0,0.2h-0.5c-0.4,0-0.9,0-1.4,0c-0.5,0-0.8,0-0.8,0c-1.5,0-2.5,0-3,0c-0.3,0-0.5,0-0.6,0c-0.1,0-0.1,0-0.2,0v-0.1
	c0-0.1,0-0.2,0-0.2c0.2-0.1,0.6-0.2,1-0.2c0.4-0.1,0.8-0.3,1-0.4c0.1-0.3,0.1-0.8,0.1-1.7l0-2.2c0-0.2,0-0.7,0-1.3
	c0-0.7,0-1.7,0-3.2c0-1.2,0-2.1-0.1-2.7c-0.1,0.3-0.4,0.8-0.7,1.7l-0.2,0.4l0,0.1l-1.6,3.8l-0.6,1.5l-0.7,1.8
	c-0.3,0.8-0.6,1.5-0.9,2.2c-0.1,0.3-0.2,0.5-0.2,0.7l-0.3,0c-0.8-2.4-1.8-4.9-2.9-7.4c-1.1-2.5-1.9-4.2-2.4-5
	c-0.1,0.3-0.1,1.2-0.2,2.7c-0.1,1.8-0.1,3.8-0.1,6.1c0,0.7,0.1,1.5,0.2,2.3c0,0.2,0.1,0.4,0.3,0.5c0.2,0.1,0.6,0.2,1.4,0.2
	c0.3,0,0.6,0,0.8,0.1c0.1,0.1,0.1,0.2,0.1,0.2c0,0,0,0.1,0,0.2l-3.4-0.1c-0.2,0-0.6,0-1.2,0.1c-0.3,0-0.7,0-1.3,0L861.7,299.8z
	 M839.8,300.2l0-0.3c0.2-0.1,0.4-0.1,0.8-0.2c0.4-0.1,0.6-0.1,0.8-0.2c0.1-0.1,0.2-0.2,0.3-0.3c0.1-0.3,0.1-0.9,0.1-1.7l-0.2-8.5
	l0-1.4c0-0.3,0-0.5-0.2-0.6c-0.1-0.1-0.4-0.2-0.8-0.3c-0.4-0.1-0.7-0.2-0.8-0.2c-0.1-0.1-0.1-0.1-0.1-0.2c0,0,0-0.1,0-0.1
	c0.1-0.1,0.2-0.1,0.3-0.1s0.3,0,0.7,0h0.3c0.1,0,0.4,0,0.9,0h1.5l3.1-0.1l3.3-0.1h0.3l0.5,0c0.1,0,0.3,0,0.4,0.1
	c0,0.1,0.1,0.2,0.1,0.3l0,0.4l0.1,2c0,0.1,0,0.2,0,0.3c-0.1,0.1-0.2,0.1-0.3,0.1c-0.1,0-0.1,0-0.2-0.1c-0.1-0.1-0.1-0.2-0.1-0.5
	c0-0.3-0.1-0.7-0.3-1.2c-0.1-0.2-0.2-0.4-0.5-0.5c-0.4-0.2-1.2-0.2-2.2-0.2c-0.5,0-0.9,0-1.4,0c-0.4,0-0.7,0-0.8,0l-0.8,0
	c-0.4,0-0.6,0-0.9,0.1c-0.1,0.1-0.2,0.2-0.2,0.5v0.2c0,0.4,0,0.8,0,1.2l0,3c0,0.3,0,0.6,0.1,0.8l0.3,0l0.6,0h2.1
	c0.8,0,1.4-0.1,1.7-0.2c0.2-0.1,0.4-0.2,0.5-0.4c0-0.1,0.1-0.4,0.3-0.9l0.1-0.9c0.1,0,0.2-0.1,0.2-0.1c0,0,0.1,0,0.2,0
	c0,0.2,0,0.4,0.1,0.8l0.1,4c-0.1,0.1-0.2,0.1-0.3,0.1l-0.1,0c-0.1-0.7-0.3-1.3-0.5-1.7c-0.1-0.2-0.2-0.2-0.3-0.3
	c-0.2,0-1.1-0.1-2.6-0.1c-0.5,0-0.8,0-1,0c-0.4,0-0.7,0-0.8,0h-0.1c-0.2,0-0.4,0-0.5,0.1c0,0.1,0,0.2,0,0.2v0.7c0,0.1,0,0.5,0,1.1
	l0,3.6c0,0.1,0,0.2,0.1,0.4c0.2,0.1,0.4,0.2,0.8,0.2c0.4,0,0.8,0.1,1.1,0.3c0.2,0.1,0.3,0.2,0.3,0.3c0,0,0,0.1-0.1,0.1
	c0,0-0.1,0.1-0.2,0.1c-0.6-0.1-1.4-0.2-2.5-0.2c-0.6,0-1.1,0.1-1.8,0.2c-0.4,0-0.9,0.1-1.5,0.1L839.8,300.2z"/>
<path class="st0" d="M846.5,131.2v38.5c0,7.1,0.1,12.8,0.1,16.9c0,0.8,0.1,1.9,0.1,3.4c0.1,1.5,0.1,2.7,0.1,3.5
	c0,1.2-0.6,1.8-1.9,1.8c-0.5,0-0.8-0.2-1.1-0.6c-1.1-1.4-2.8-3.4-5-6.1c-2.8-3.2-6.9-8-12.4-14.2l-32.3-36.7
	c-3.5-4.3-8.9-10.5-16.1-18.8h-0.3c-0.5,1.9-0.7,5-0.7,9V192c0,0.9-1.5,1.4-4.6,1.4c-0.9,0-1.4-0.5-1.4-1.4l0.3-73.7
	c0-3.7-0.5-6.4-1.7-8.2c-1.2-2.2-3.5-3.7-6.8-4.4c-1.1-0.2-2.8-0.5-5-0.8c-0.8-0.3-1.2-0.8-1.2-1.7c0-1,0.5-1.5,1.4-1.5h17.8
	c2.5,0,3.9,0.2,4.3,0.5c1.6,2.1,3.7,4.7,6.3,8.1c3.7,4.9,9.4,12.1,17.1,21.6c8,9.1,20.1,22.5,36.4,40.3h0.1c0.5-1,0.7-2.9,0.7-5.8
	V103c0-0.9,0.5-1.4,1.4-1.4c1.7,0,4.2,0,7.6,0.1c3.4,0.1,6,0.1,7.7,0.1c1,0,1.5,0.5,1.5,1.5c0,0.8-1.5,1.6-4.6,2.2
	c-3.3,0.7-5.3,1.5-5.8,2.5C847.2,110.6,846.5,118.3,846.5,131.2 M627.9,144c0,12.7,3,23.4,9,32.1c6.8,10.1,16.2,15.2,28.4,15.2
	c10.6,0,18.8-4.1,24.8-12.4c5.2-7.3,7.8-16.5,7.8-27.5c0-13-2.8-23.8-8.3-32.4c-6.6-10.2-16-15.3-28.4-15.3c-4.5,0-8.9,0.9-12.9,2.6
	C634.7,112.2,627.9,124.8,627.9,144 M614,148.4c0-14.1,4.7-25.8,14.2-35.1c9.4-9.3,21.2-14,35.3-14c14.2,0,25.8,4.4,34.8,13.2
	c9,8.8,13.5,20.3,13.5,34.5c0,13.7-4.6,25.2-13.8,34.5c-9.2,9.3-20.7,14-34.4,14c-14,0-25.7-4.3-35-12.9
	C618.8,173.7,614,162.3,614,148.4 M538.1,195.6c-13.9,0-25.5-3.1-34.6-9.3c-13.2-8.9-19.7-21.6-19.7-38.2c0-15,5.5-27,16.5-36
	c10.4-8.4,23.2-12.7,38.5-12.7c6.5,0,14.7,1.1,24.6,3.3c0.7,0.2,1.5,0.4,2.3,0.5c0.8,0.2,1.4,0.6,1.7,1.3c0,0.6,0.1,1.6,0.1,2.8
	c0.2,2.2,0.4,4.6,0.6,7.1c0.6,6.4,1,9.2,1,8.5c0,1.1-0.7,1.7-1.9,1.7c-0.9,0-1.5-0.4-1.8-1.1c-0.5-1.5-1.2-3.7-2.4-6.7
	c-4.5-8.7-13.2-13.1-26-13.1c-12.4,0-22.2,4-29.2,11.9c-6.8,7.6-10.2,17.7-10.2,30.3c0,13.1,3.6,23.8,10.7,32.1
	c7.6,8.8,17.8,13.2,30.6,13.2c11.2,0,19.7-4.4,25.6-13.2c0.8-1.4,1.9-3.4,3.3-6.1c0.3-0.6,0.8-1,1.7-1c1.3,0,1.9,0.6,1.9,1.8
	c0,0.2-0.3,1.4-0.8,3.6c-0.8,3.3-1.6,6-2.4,8.1c-1.4,4-2.7,6.2-3.9,6.7C556.6,194.1,547.8,195.6,538.1,195.6 M381.5,172.6
	c0-1.9,0.7-2.8,2-2.8c0.6,0,1.1,0.3,1.4,1c0.5,1.4,1.3,3.5,2.4,6.3c4.6,9.5,11.8,14.2,21.4,14.2c5,0,9.2-1.4,12.4-4.3
	c3.3-2.9,4.9-6.8,4.9-11.7c0-7.9-3.8-14.4-11.4-19.5c-4.3-2.8-8.5-5.5-12.7-8.2c-4.9-3.4-8.6-6.8-11-10.2c-3.1-4.3-4.6-9-4.6-14.2
	c0-7.6,2.9-13.6,8.8-17.9c5.2-4,11.7-6,19.6-6c3.3,0,7.7,0.6,12.9,1.8c0.9,0.2,1.9,0.4,3,0.6c1.1,0.2,1.8,0.6,2.1,1.2
	c0.4,0.6,0.8,2.8,1.4,6.5c0.6,3.8,0.8,6.2,0.8,7.3c0,2.2-0.7,3.3-2.1,3.3c-0.7,0-1.5-0.8-2.2-2.5c-0.5-1.1-1-2.3-1.5-3.6
	c-0.5-1.2-1.1-2.3-1.6-3.3c-3.1-4.7-8.1-7.1-15-7.1c-11,0-16.5,5.1-16.5,15.4c0,5.8,3.5,11.2,10.4,16.1c6.5,4.4,13,8.7,19.5,13.1
	c7,6,10.4,13.2,10.4,21.5c0,8.2-3,14.6-8.9,19.3c-5.4,4.3-12.3,6.4-20.7,6.4c-3.3,0-7-0.4-11-1.3c-4.8-0.9-8.3-2.1-10.3-3.6
	c-0.9-0.7-1.9-3.6-2.8-8.5C381.9,177.9,381.5,174.7,381.5,172.6 M284.3,193.4c-0.9,0-1.4-0.5-1.4-1.4l0.2-76.5
	c0-3.2-0.4-5.4-1.3-6.7c-0.9-1.7-2.8-2.8-5.7-3.5c-1-0.2-2-0.4-3.1-0.6c-1-0.2-1.5-0.8-1.5-1.6c0-1.3,0.5-1.9,1.5-1.9
	c1.6,0,4,0.1,7.2,0.2c3.3,0.1,5.7,0.2,7.4,0.2h32c1.4,0,3.6-0.1,6.5-0.2c2.9-0.1,5.1-0.2,6.6-0.2c0.7,0,1.1,0.4,1.5,1.2
	c0.3,0.8,0.7,3.4,1.1,7.9c0.4,4.4,0.6,7.3,0.6,8.6c0,1.1-0.6,1.7-1.8,1.7c-0.9,0-1.6-0.5-1.9-1.5c-0.3-1-0.6-2-0.9-2.9
	c-1.8-5.1-4.9-8.2-9.3-9.3c-2.1-0.5-6.1-0.8-12-0.8h-12.4c-1.6,0-2.5,0.4-2.9,1.1c-0.3,0.4-0.4,1.5-0.4,3.3v28.9
	c0,1.9,0.2,3.1,0.7,3.4c0.5,0.3,1.8,0.5,3.9,0.5h26.3c0.9,0,1.4,0.7,1.4,2c0,1.9-0.6,2.9-1.7,2.9h-26c-2,0-3.2,0.1-3.6,0.4
	c-0.6,0.4-1,1.5-1,3.3v20.4c0,7.2,0.9,11.7,2.6,13.6c1.7,1.8,14.3,2.7,37.8,2.7c3.1,0,4.2,0,3.3-0.1c1.5,0.2,2.2,0.7,2.2,1.7
	c0,0.6-0.2,1.2-0.7,2.1c-0.5,0.8-1,1.3-1.5,1.3H284.3z M219,131.2v38.5c0,7.1,0,12.8,0.1,16.9c0,0.8,0.1,1.9,0.1,3.4
	c0.1,1.5,0.1,2.7,0.1,3.5c0,1.2-0.7,1.8-1.9,1.8c-0.5,0-0.8-0.2-1.1-0.6c-1.1-1.4-2.8-3.4-5-6.1c-2.8-3.2-6.9-8-12.4-14.2
	l-32.3-36.7c-3.5-4.3-8.9-10.5-16.1-18.8h-0.3c-0.5,1.9-0.7,5-0.7,9V192c0,0.9-1.5,1.4-4.6,1.4c-0.9,0-1.4-0.5-1.4-1.4l0.3-73.7
	c0-3.7-0.6-6.4-1.7-8.2c-1.2-2.2-3.5-3.7-6.8-4.4c-1.1-0.2-2.8-0.5-5-0.8c-0.8-0.3-1.3-0.8-1.3-1.7c0-1,0.5-1.5,1.4-1.5h17.8
	c2.5,0,3.9,0.2,4.3,0.5c1.6,2.1,3.7,4.7,6.3,8.1c3.7,4.9,9.4,12.1,17.1,21.6c8,9.1,20.1,22.5,36.4,40.3h0.1c0.5-1,0.7-2.9,0.7-5.8
	V103c0-0.9,0.5-1.4,1.4-1.4c1.7,0,4.2,0,7.6,0.1c3.4,0.1,6,0.1,7.7,0.1c1,0,1.5,0.5,1.5,1.5c0,0.8-1.5,1.6-4.6,2.2
	c-3.3,0.7-5.3,1.5-5.8,2.5C219.7,110.6,219,118.3,219,131.2"/>
<path class="st3" d="M483.7,102.5c-1.2,2.2-6.4,13.9-6.9,15.8c-1.8,14.3,0.1,29.8,3.6,43.6c3.4,9,6.9,15,13.7,22
	c6.5,5.7,13.4,10.5,21.6,13.2c7.9,1.7,15.7,2.4,23.8,2.3c12.6-1.9,25-6.3,35.6-13.6c0.6-0.7,1.7-2.4,2.7-2.5c0-0.2,0.1-0.5,0.1-0.7
	c5.5-9.3,5.5-9.3,11.4-18.2c3.1-7.3,4.5-14.6,5.2-22.5c0.6-13.9-1-29.7-8.5-41.7c-3.2-3.4-6.3-6.7-9.5-10c-2-1.2-3.9-2.5-5.8-3.7
	c-18.6-9.2-37.3-10.4-57.5-6c-8.9,3.7-16.1,7.8-23.6,13.9c-3.2,3.7-2.8,3.8-3.8,4.5L483.7,102.5z M587.4,110.7
	c1.6,8.6,1.6,8.6,3.5,22.6c0,10.1-1.2,19.9-5.2,29.2c-4.1,6.3-8.1,12.7-12.1,19.1c-6.9,6.6-17.7,9.8-26.6,12.6
	c-2.7,0.5-5.3,1.1-8,1.6c-9.5-0.1-19-0.6-27.8-4.2c-12.6-6.8-22.3-15.3-27.2-29c-2.6-12.6-4.4-25.3-4.5-38.1
	c0.4-2.6,0.8-5.1,1.2-7.6c2.6-7.7,6.3-13.9,11.7-19.9c4-3.2,4-3.2,8.2-6.2c12.9-7.9,28.5-11.4,43.6-9.5
	C561.1,85.8,581.2,92.4,587.4,110.7"/>
<path class="st4" d="M483.7,102.5c-1.2,2.2-6.4,13.9-6.9,15.8c-1.8,14.3,0.1,29.8,3.6,43.6c3.4,9,6.9,15,13.7,22
	c6.5,5.7,13.4,10.5,21.6,13.2c7.9,1.7,15.7,2.4,23.8,2.3c12.6-1.9,25-6.3,35.6-13.6c0.6-0.7,1.7-2.4,2.7-2.5c0-0.2,0.1-0.5,0.1-0.7
	c5.5-9.3,5.5-9.3,11.4-18.2c3.1-7.3,4.5-14.6,5.2-22.5c0.6-13.9-1-29.7-8.5-41.7c-3.2-3.4-6.3-6.7-9.5-10c-2-1.2-3.9-2.5-5.8-3.7
	c-18.6-9.2-37.3-10.4-57.5-6c-8.9,3.7-16.1,7.8-23.6,13.9c-3.2,3.7-2.8,3.8-3.8,4.5L483.7,102.5z M587.4,110.7
	c1.6,8.6,1.6,8.6,3.5,22.6c0,10.1-1.2,19.9-5.2,29.2c-4.1,6.3-8.1,12.7-12.1,19.1c-6.9,6.6-17.7,9.8-26.6,12.6
	c-2.7,0.5-5.3,1.1-8,1.6c-9.5-0.1-19-0.6-27.8-4.2c-12.6-6.8-22.3-15.3-27.2-29c-2.6-12.6-4.4-25.3-4.5-38.1
	c0.4-2.6,0.8-5.1,1.2-7.6c2.6-7.7,6.3-13.9,11.7-19.9c4-3.2,4-3.2,8.2-6.2c12.9-7.9,28.5-11.4,43.6-9.5
	C561.1,85.8,581.2,92.4,587.4,110.7z"/>
<path class="st1" d="M656.5,107.9c2.1-1.7,6.1-4.5,9.9-6.1c0.2-0.4,0.8-0.6,8.8-3.5c5.8-0.7,7-0.7,8.2-1.3c4.7-0.2,8.5,0,13.2-0.2
	c3.4,0.9,15.2,1.6,22.2,8.4c10,7.4,24.4,31.7,18.8,45.5c-2.2,1.2-1.7-1.1-2.2-2.4c2.7-7.7-3.1-20.1-7.6-28.2
	c-9.3-12.1-16.5-17.6-27-18.1c-5.8-1-11.7-1.4-17.4-1c-10.9,0-22.5,10.4-29.2,16.9c-5.8,7.4-10.5,13.6-13.7,20.1
	c-5.2,10.9-7.6,21.5-13.8,32.2c-2.2,5.4-9.5,13-12.8,17.1c-3.7,3.5-8,6.9-11.8,10.4c-10,6.3-20.6,11-31.2,16
	c-10.7,1.9-21.2,3.6-31.9,1.5c-22.9-6.7-40.3-15.9-53.3-34.7l-13.8-26.3c-2.5-8.3-4.9-16.4-6.2-25c0.1-4.3,0.2-8.6,0.4-12.9
	c1.6-4.8,3.3-9.5,4.9-14.3c5.7-12.6,12.7-22.2,25-30.1c2.4-1.1,5.6-3.3,12.5-7.1c12-5.6,22.5-7.4,36-9c-0.2,1,9.6,3.5,6.4,4.3
	c-4.2,0.2-8.3,0.5-12.5,0.7c-25.1,3.7-45.8,13.7-59,34c-4.3,9.3-7.4,17.1-9.2,26.9c0.2,3.8,0.4,7.6,0.6,11.5
	c2.6,14,8.2,26.8,14.7,39.6c2.4,3.4,4.8,6.9,7.2,10.4c6,6.3,11.3,9.8,18.4,15.4c11.3,6.8,22,10.9,35.5,12.9
	c6.5-0.4,13.1-0.7,19.5-1.8c10.7-3.7,20.9-9.1,30.3-14.7c4.4-4,11.4-9.2,14.3-14.1c1.3-2.2,0.8-0.5,2.3-2.5
	c0.4-0.5,12.2-13.9,12.1-16.4c1.1-1.7,4.7-9.7,4.5-12.1C636.4,129.4,652.5,112.5,656.5,107.9"/>
<path class="st5" d="M656.5,107.9c2.1-1.7,6.1-4.5,9.9-6.1c0.2-0.4,0.8-0.6,8.8-3.5c5.8-0.7,7-0.7,8.2-1.3c4.7-0.2,8.5,0,13.2-0.2
	c3.4,0.9,15.2,1.6,22.2,8.4c10,7.4,24.4,31.7,18.8,45.5c-2.2,1.2-1.7-1.1-2.2-2.4c2.7-7.7-3.1-20.1-7.6-28.2
	c-9.3-12.1-16.5-17.6-27-18.1c-5.8-1-11.7-1.4-17.4-1c-10.9,0-22.5,10.4-29.2,16.9c-5.8,7.4-10.5,13.6-13.7,20.1
	c-5.2,10.9-7.6,21.5-13.8,32.2c-2.2,5.4-9.5,13-12.8,17.1c-3.7,3.5-8,6.9-11.8,10.4c-10,6.3-20.6,11-31.2,16
	c-10.7,1.9-21.2,3.6-31.9,1.5c-22.9-6.7-40.3-15.9-53.3-34.7l-13.8-26.3c-2.5-8.3-4.9-16.4-6.2-25c0.1-4.3,0.2-8.6,0.4-12.9
	c1.6-4.8,3.3-9.5,4.9-14.3c5.7-12.6,12.7-22.2,25-30.1c2.4-1.1,5.6-3.3,12.5-7.1c12-5.6,22.5-7.4,36-9c-0.2,1,9.6,3.5,6.4,4.3
	c-4.2,0.2-8.3,0.5-12.5,0.7c-25.1,3.7-45.8,13.7-59,34c-4.3,9.3-7.4,17.1-9.2,26.9c0.2,3.8,0.4,7.6,0.6,11.5
	c2.6,14,8.2,26.8,14.7,39.6c2.4,3.4,4.8,6.9,7.2,10.4c6,6.3,11.3,9.8,18.4,15.4c11.3,6.8,22,10.9,35.5,12.9
	c6.5-0.4,13.1-0.7,19.5-1.8c10.7-3.7,20.9-9.1,30.3-14.7c4.4-4,11.4-9.2,14.3-14.1c1.3-2.2,0.8-0.5,2.3-2.5
	c0.4-0.5,12.2-13.9,12.1-16.4c1.1-1.7,4.7-9.7,4.5-12.1C636.4,129.4,652.5,112.5,656.5,107.9z"/>
</svg>
