<?xml version="1.0" encoding="utf-8"?>
<!-- Generator: Adobe Illustrator 25.0.1, SVG Export Plug-In . SVG Version: 6.00 Build 0)  -->
<svg version="1.1" id="Layer_1" xmlns="http://www.w3.org/2000/svg" xmlns:xlink="http://www.w3.org/1999/xlink" x="0px" y="0px"
	 viewBox="0 0 365 125" style="enable-background:new 0 0 365 125;" xml:space="preserve">
<style type="text/css">
	.st0{fill:#FFFFFF;}
</style>
<g>
	<path class="st0" d="M197.9,100.7c0.1-0.1,0.2-0.1,0.3-0.1c0.2,0,0.4-0.1,0.5-0.1c0.1-0.1,0.2-0.2,0.2-0.3c0-0.2,0.1-0.9,0.1-2
		c0-1.1,0-1.8-0.1-2.1c-0.1-0.1-0.3-0.1-0.4-0.2c-0.1,0-0.2,0-0.4-0.1v-0.3c0.3-0.1,0.6-0.2,0.7-0.3c0.2-0.1,0.5-0.4,0.8-0.8h0
		c0,0,0.1,0,0.2,0c0,0,0.1,0,0.1,0l0,0.9c0,0.2,0,0.4,0,0.6c0.6-0.5,1.1-0.9,1.5-1.1c0.3-0.1,0.6-0.2,1-0.2c0.5,0,0.8,0.1,1.1,0.3
		c0.3,0.2,0.5,0.5,0.8,0.9c0.5-0.5,0.9-0.8,1.3-1c0.4-0.2,0.8-0.3,1.1-0.3c0.6,0,1.1,0.2,1.4,0.6c0.4,0.4,0.6,0.9,0.6,1.7v0.6l0,0.7
		l0,1.8c0,0.2,0,0.4,0.1,0.5c0,0,0.2,0.1,0.5,0.1c0.2,0,0.3,0.1,0.3,0.1c0,0,0,0.1,0,0.1c0,0.1,0,0.1,0,0.2h-0.1l-0.8,0
		c-0.1,0-0.2,0-0.4,0c-0.2,0-0.6,0-1,0h-0.4c-0.1,0-0.2,0-0.3,0c0-0.1,0-0.1,0-0.1c0,0,0-0.1,0.1-0.2c0.1-0.1,0.3-0.1,0.6-0.2
		c0.2,0,0.4-0.1,0.5-0.2c0.1-0.1,0.1-0.5,0.1-1.2c0-1.5,0-2.4-0.1-2.7c-0.1-0.4-0.2-0.7-0.5-0.9c-0.3-0.2-0.6-0.3-1-0.3
		c-0.3,0-0.6,0.1-0.9,0.2c-0.3,0.2-0.6,0.4-0.9,0.7l0,0.2v1.2l0,0.9c0,0.9,0,1.5,0,1.6c0,0.1,0.1,0.2,0.1,0.3
		c0.1,0.1,0.3,0.1,0.6,0.2c0.1,0,0.3,0,0.3,0.1c0.1,0.1,0.1,0.1,0.1,0.2c0,0.1,0,0.1-0.1,0.1h-0.1l-0.4,0h-2.3l-0.6,0
		c0-0.1,0-0.1,0-0.2l0-0.1c0.1-0.1,0.3-0.1,0.6-0.2c0.2,0,0.3-0.1,0.5-0.1c0,0,0.1-0.1,0.1-0.1c0-0.1,0-0.3,0.1-0.6l0-0.9l0-1l0-0.6
		c0-0.6-0.1-1.1-0.4-1.4c-0.3-0.3-0.6-0.4-1-0.4c-0.4,0-0.7,0.1-1.1,0.3c-0.4,0.2-0.7,0.4-0.9,0.7c0,0.2,0,0.3,0,0.4l0,2.6
		c0,0.6,0,0.9,0.1,1c0.1,0.1,0.2,0.1,0.4,0.2c0.3,0.1,0.5,0.1,0.6,0.2c0,0,0.1,0.1,0.1,0.1c0,0,0,0.1,0,0.1c-0.6,0-1-0.1-1.2-0.1
		c-0.2,0-0.4,0-0.6,0l-0.4,0h-0.2l-0.9,0c0,0,0-0.1,0-0.1C197.9,100.8,197.9,100.8,197.9,100.7 M189.7,96.5h0.4c0.3,0,1.1,0,2.4-0.1
		c0.2,0,0.3,0,0.4-0.1c0.1-0.1,0.1-0.2,0.1-0.3c0-0.2,0-0.3-0.2-0.6c-0.1-0.2-0.3-0.4-0.5-0.5c-0.2-0.1-0.5-0.2-0.8-0.2
		c-0.6,0-1.1,0.2-1.4,0.7C189.9,95.9,189.7,96.2,189.7,96.5 M194.1,96.8l-3.1,0h-0.6c-0.2,0-0.5,0-0.7,0c-0.1,0.2-0.1,0.3-0.1,0.3
		v0.1v0.1v0.4c0,0.3,0.1,0.7,0.3,1.2c0.2,0.5,0.5,0.8,0.9,1.1c0.4,0.2,0.8,0.4,1.4,0.4c0.3,0,0.5,0,0.7-0.1c0.2-0.1,0.4-0.2,0.7-0.4
		l0.6-0.5l0,0.3c0,0,0,0.1,0,0.1c-0.2,0.3-0.5,0.6-0.9,0.8c-0.4,0.2-0.7,0.4-1.1,0.5c-0.2,0-0.5,0.1-0.9,0.1c-0.4,0-0.7-0.1-1.1-0.2
		c-0.5-0.2-1-0.6-1.3-1.1c-0.3-0.5-0.5-1.1-0.5-1.8c0-0.2,0-0.5,0.1-0.9c0.1-0.4,0.2-0.7,0.5-1.1c0.2-0.3,0.3-0.5,0.5-0.7
		c0.3-0.3,0.6-0.4,0.8-0.5c0.3-0.1,0.7-0.2,1.2-0.2c0.5,0,0.9,0.1,1.2,0.3c0.4,0.2,0.7,0.5,0.9,0.9c0.2,0.4,0.3,0.7,0.3,1V96.8z
		 M90.7,96.5h0.4c0.3,0,1.1,0,2.4-0.1c0.2,0,0.3,0,0.4-0.1c0.1-0.1,0.1-0.2,0.1-0.3c0-0.2,0-0.3-0.2-0.6c-0.1-0.2-0.3-0.4-0.5-0.5
		c-0.2-0.1-0.5-0.2-0.7-0.2c-0.6,0-1.1,0.2-1.5,0.7C90.9,95.9,90.7,96.2,90.7,96.5 M95.1,96.8l-3.1,0h-0.6c-0.2,0-0.5,0-0.7,0
		c0,0.2-0.1,0.3-0.1,0.3l0,0.1v0.1l0,0.4c0,0.3,0.1,0.7,0.3,1.2c0.2,0.5,0.5,0.8,0.9,1.1c0.4,0.2,0.8,0.4,1.4,0.4
		c0.3,0,0.5,0,0.7-0.1c0.2-0.1,0.4-0.2,0.7-0.4l0.6-0.5l0,0.3c0,0,0,0.1,0,0.1c-0.2,0.3-0.5,0.6-0.9,0.8c-0.4,0.2-0.7,0.4-1.1,0.5
		c-0.2,0-0.5,0.1-0.9,0.1c-0.4,0-0.7-0.1-1.1-0.2c-0.5-0.2-1-0.6-1.3-1.1c-0.3-0.5-0.5-1.1-0.5-1.8c0-0.2,0-0.5,0.1-0.9
		c0.1-0.4,0.2-0.7,0.5-1.1c0.2-0.3,0.3-0.5,0.6-0.7c0.3-0.3,0.6-0.4,0.8-0.5c0.3-0.1,0.7-0.2,1.2-0.2c0.5,0,0.9,0.1,1.2,0.3
		c0.4,0.2,0.7,0.5,0.9,0.9c0.2,0.4,0.3,0.7,0.3,1V96.8z M83.6,100.1c0-0.4,0-1.1,0-2.2c0-0.9,0-1.5-0.1-1.7
		c-0.1-0.2-0.3-0.5-0.6-0.7c-0.3-0.2-0.7-0.3-1.1-0.3c-0.6,0-1.1,0.2-1.5,0.7c-0.4,0.5-0.6,1.1-0.6,2.1c0,0.8,0.2,1.4,0.7,1.9
		c0.5,0.5,1,0.7,1.7,0.7c0.4,0,0.7-0.1,1.1-0.2C83.2,100.3,83.5,100.2,83.6,100.1 M83.6,95.3l0-0.2l0-0.9l0-1.7
		c0-0.5-0.1-0.8-0.2-0.9c-0.1-0.1-0.4-0.3-0.9-0.4c0,0-0.1,0-0.2-0.1V91c0-0.1,0-0.1,0-0.2c0.7-0.1,1.3-0.2,1.8-0.4l0.4,0
		c0,0.4,0,0.8,0,1.2l0,3l0.1,3.4l0,1.8c0,0.4,0,0.6,0.1,0.6c0.1,0.1,0.3,0.2,0.7,0.2c0.1,0,0.2,0,0.3,0v0.1c0,0,0,0.1,0,0.1
		c-0.2,0-0.3,0.1-0.5,0.1l-1.1,0.2c-0.2,0-0.3,0-0.4,0v-0.7c-0.1,0-0.2,0.1-0.4,0.2c-0.8,0.3-1.6,0.5-2.2,0.5
		c-0.4,0-0.8-0.1-1.3-0.4c-0.4-0.3-0.8-0.6-1-1.1c-0.2-0.5-0.3-1-0.3-1.5c0-0.4,0.1-0.9,0.2-1.3c0.2-0.4,0.3-0.7,0.6-1
		c0.2-0.2,0.4-0.4,0.7-0.5c0.3-0.2,0.5-0.3,0.7-0.3c0.5-0.1,0.8-0.2,0.9-0.2c0.7,0,1.3,0.1,1.7,0.3C83.4,95.2,83.5,95.2,83.6,95.3
		 M66.7,100.9c0.4,0,0.8-0.1,1.1-0.3c0.4-0.2,0.7-0.5,0.9-1c0.2-0.5,0.3-1,0.3-1.6c0-0.4-0.1-0.9-0.3-1.4c-0.2-0.5-0.4-0.9-0.8-1.2
		c-0.4-0.3-0.8-0.4-1.2-0.4c-0.3,0-0.7,0.1-1.1,0.2c-0.4,0.2-0.7,0.5-0.9,0.9c-0.2,0.5-0.4,1.1-0.4,2c0,0.9,0.2,1.7,0.6,2.2
		C65.5,100.6,66,100.9,66.7,100.9 M63.2,97.8c0-0.4,0.1-0.7,0.2-1.1c0.2-0.4,0.4-0.8,0.7-1.1c0.3-0.3,0.6-0.6,1-0.7
		c0.5-0.2,1.1-0.3,1.7-0.3c1,0,1.8,0.3,2.4,1c0.7,0.7,1,1.5,1,2.4c0,0.8-0.3,1.6-1,2.2c-0.7,0.7-1.5,1-2.6,1c-0.6,0-1.3-0.2-1.8-0.5
		c-0.4-0.3-0.8-0.6-1.1-1.1C63.4,99,63.2,98.4,63.2,97.8 M54.8,96.5h0.4c0.3,0,1.1,0,2.4-0.1c0.2,0,0.3,0,0.4-0.1
		c0.1-0.1,0.1-0.2,0.1-0.3c0-0.2-0.1-0.3-0.2-0.6c-0.1-0.2-0.3-0.4-0.5-0.5c-0.2-0.1-0.5-0.2-0.8-0.2c-0.6,0-1.1,0.2-1.5,0.7
		C54.9,95.9,54.8,96.2,54.8,96.5 M59.1,96.8l-3.1,0h-0.6c-0.2,0-0.5,0-0.7,0c0,0.2-0.1,0.3-0.1,0.3l0,0.1v0.1l0,0.4
		c0,0.3,0.1,0.7,0.3,1.2c0.2,0.5,0.5,0.8,0.9,1.1c0.4,0.2,0.8,0.4,1.4,0.4c0.3,0,0.5,0,0.7-0.1c0.2-0.1,0.4-0.2,0.7-0.4l0.6-0.5
		l0,0.3c0,0,0,0.1,0,0.1c-0.2,0.3-0.5,0.6-0.9,0.8c-0.4,0.2-0.7,0.4-1.1,0.5c-0.2,0-0.5,0.1-0.9,0.1c-0.4,0-0.7-0.1-1.1-0.2
		c-0.5-0.2-1-0.6-1.3-1.1c-0.3-0.5-0.5-1.1-0.5-1.8c0-0.2,0-0.5,0.1-0.9c0.1-0.4,0.2-0.7,0.5-1.1c0.1-0.3,0.3-0.5,0.6-0.7
		c0.3-0.3,0.6-0.4,0.8-0.5c0.3-0.1,0.7-0.2,1.2-0.2c0.5,0,0.9,0.1,1.2,0.3c0.4,0.2,0.7,0.5,0.9,0.9c0.2,0.4,0.3,0.7,0.3,1V96.8z
		 M46.6,91.3v-0.2c0.1-0.1,0.3-0.1,0.5-0.2c0.3-0.1,0.6-0.2,1.2-0.4h0.4c0,0.2,0,0.4,0,0.4c0,4.3,0,6.8,0,7.6c0,0.5,0,0.7,0,0.8
		c0,0.6,0,0.9,0.1,1c0.1,0.1,0.3,0.2,0.6,0.2c0.3,0,0.5,0.1,0.6,0.1c0,0,0.1,0.1,0.1,0.1c0,0.1,0,0.1,0,0.1c0,0-0.1,0-0.1,0
		c0,0-0.3,0-0.8,0l-1,0l-1.3,0.1c-0.1,0-0.1,0-0.2,0c0,0,0-0.1,0-0.1c0-0.1,0-0.1,0.1-0.1c0,0,0.2-0.1,0.6-0.1
		c0.3-0.1,0.5-0.1,0.6-0.1c0.1,0,0.1-0.1,0.1-0.3c0-0.2,0-0.7,0-1.6l0-1.8l0-1.9l0-1.9l0-0.9c0-0.2,0-0.3-0.1-0.4
		c-0.1-0.1-0.2-0.2-0.4-0.2C46.9,91.4,46.7,91.3,46.6,91.3 M42.8,99.5l0,0.5c-0.4,0.4-0.8,0.7-1.2,0.9c-0.4,0.2-0.9,0.3-1.4,0.3
		c-0.6,0-1.1-0.2-1.6-0.5c-0.5-0.3-0.8-0.7-1.1-1.3c-0.3-0.6-0.4-1.1-0.4-1.6c0-0.6,0.2-1.1,0.5-1.7c0.3-0.5,0.7-0.9,1.2-1.2
		c0.5-0.3,1.1-0.4,1.9-0.4c0.7,0,1.3,0.1,1.7,0.4c0.2,0.1,0.3,0.3,0.3,0.6c0,0.2-0.1,0.3-0.2,0.4c-0.1,0.1-0.2,0.2-0.4,0.2
		c-0.3,0-0.5-0.2-0.9-0.5c-0.2-0.2-0.4-0.3-0.5-0.4c-0.2-0.1-0.3-0.1-0.5-0.1c-0.5,0-0.9,0.2-1.2,0.6c-0.4,0.5-0.6,1.2-0.6,2
		c0,0.8,0.2,1.5,0.7,2c0.4,0.5,1,0.7,1.5,0.7c0.4,0,0.8-0.1,1.1-0.2C42,100.1,42.4,99.9,42.8,99.5 M28.8,93.3l1-1.4
		c0.3-0.4,0.6-0.7,0.8-0.9c0.1-0.1,0.2-0.1,0.4-0.1c0.1,0,0.2,0,0.3,0.1c0.1,0.1,0.1,0.2,0.1,0.3c0,0.1,0,0.2-0.1,0.3
		c-0.1,0.1-0.3,0.3-0.5,0.4L29,93.3H28.8L28.8,93.3z M25.9,94.8h0.6l0.3,0l0.2,0c0.5,0,0.9,0,1,0l0,0.1c0,0.7,0,1.4,0,2.1
		c0,0.4,0,0.6,0,0.7c0,0.9,0,1.5,0.1,1.7c0.1,0.2,0.2,0.4,0.4,0.5c0.2,0.1,0.5,0.2,0.8,0.2c0.4,0,0.7-0.1,1.1-0.2
		c0.3-0.2,0.6-0.4,0.9-0.6c0-0.2,0-0.4,0-0.7c0-0.8,0-1.3,0-1.6c0-0.2,0-0.3,0-0.4c0-0.8,0-1.3-0.1-1.4c-0.1-0.1-0.4-0.2-1-0.2
		c-0.2,0-0.3,0-0.4-0.1c0-0.1-0.1-0.1-0.1-0.2l0-0.1c0.1,0,0.3,0,0.4,0l1.2,0c0.4,0,0.7,0,0.7,0c0.1,0,0.1,0,0.2,0l0,0.6
		c0,0.8-0.1,1.8-0.1,2.9l0,0.6l0,1.1c0,0.1,0.1,0.1,0.1,0.2c0.1,0,0.2,0,0.4,0h0.1c0.1,0,0.3,0,0.6,0.1c0,0.1,0,0.1,0,0.1v0.1
		c-0.7,0.1-1.3,0.3-1.7,0.5c-0.2,0.1-0.3,0.1-0.4,0.1c0-0.2,0-0.3,0-0.3v-0.6c0,0,0-0.1,0-0.2c-0.1,0.1-0.1,0.1-0.2,0.2
		c-0.4,0.3-0.8,0.6-1.3,0.8c-0.3,0.1-0.6,0.2-0.9,0.2c-0.5,0-1-0.2-1.3-0.6c-0.3-0.4-0.5-1.1-0.5-2.1c0-0.1,0-0.1,0-0.3
		c0-0.2,0-0.4,0-0.5c0,0,0-0.2,0-0.3c0-0.1,0-0.2,0-0.2c0-0.1,0-0.2,0-0.3c0-0.2,0-0.3,0-0.4c0-0.1,0-0.2,0-0.2l0-0.4l0-0.2
		c0-0.1,0-0.2-0.1-0.2c-0.3-0.1-0.5-0.1-0.6-0.1c-0.1,0-0.2,0-0.3-0.1V94.8z M14.8,100.7c0.1,0,0.3-0.1,0.5-0.1
		c0.3,0,0.5-0.1,0.6-0.2c0.1-0.1,0.1-0.2,0.1-0.4l0-0.3c0-0.1,0-0.2,0-0.4l0-2.4c0-0.3,0-0.5-0.1-0.6c-0.1-0.1-0.4-0.2-0.8-0.3v-0.3
		c0.4-0.1,0.7-0.2,0.9-0.4c0.3-0.2,0.5-0.6,0.8-1l0.3,0c0,0.2,0,0.4,0,0.5v0.5l0,0.1c0.1,0,0.1-0.1,0.2-0.2c0.3-0.2,0.6-0.4,1-0.6
		c0.3-0.1,0.6-0.3,0.9-0.3c0.2,0,0.3-0.1,0.5-0.1c0.4,0,0.8,0.1,1.1,0.3c0.3,0.2,0.5,0.5,0.6,0.8c0.1,0.3,0.1,0.9,0.1,1.8v1.2
		c0,0,0,0.1,0,0.3c0,0.2,0,0.4,0,0.6c0,0.4,0,0.6,0,0.7c0,0.1,0.1,0.1,0.2,0.2c0.5,0.1,0.8,0.1,0.9,0.2v0.1c0,0.1,0,0.1,0,0.2h-0.1
		l-1,0l-1,0c-0.4,0-0.7,0-1,0l-0.1-0.2c0,0,0-0.1,0.1-0.1c0.1-0.1,0.3-0.1,0.6-0.1c0.2,0,0.3,0,0.3,0c0.1,0,0.1-0.1,0.2-0.1
		c0.1-0.1,0.1-0.2,0.1-0.3c0,0,0-0.1,0-0.2c0-0.2,0-0.8,0-1.8v-0.4l0-0.6c0-0.7-0.1-1.1-0.4-1.4c-0.3-0.3-0.6-0.4-1.1-0.4
		c-0.3,0-0.7,0.1-1,0.2c-0.3,0.2-0.7,0.4-1,0.7c0,0.3,0,0.5,0,0.6l0,1.7c0,0.9,0,1.5,0,1.7c0,0.1,0,0.1,0.1,0.2c0,0,0.1,0.1,0.2,0.1
		c0.1,0,0.3,0.1,0.4,0.1c0.2,0,0.3,0.1,0.3,0.1c0.1,0,0.2,0.1,0.2,0.1l0,0.2h-0.8l-1.7,0c-0.4,0-0.6,0-0.7,0h-0.2l0-0.1
		C14.7,100.8,14.7,100.8,14.8,100.7"/>
	<path class="st0" d="M259.2,96.5h0.4c0.3,0,1.1,0,2.4-0.1c0.2,0,0.3,0,0.4-0.1c0.1-0.1,0.1-0.2,0.1-0.3c0-0.2-0.1-0.3-0.2-0.6
		c-0.1-0.2-0.3-0.4-0.5-0.5c-0.2-0.1-0.5-0.2-0.7-0.2c-0.6,0-1.1,0.2-1.5,0.7C259.3,95.9,259.2,96.2,259.2,96.5 M263.5,96.8l-3.1,0
		h-0.6c-0.2,0-0.5,0-0.7,0c0,0.2-0.1,0.3-0.1,0.3l0,0.1v0.1l0,0.4c0,0.3,0.1,0.7,0.3,1.2c0.2,0.5,0.5,0.8,0.9,1.1
		c0.4,0.2,0.8,0.4,1.4,0.4c0.3,0,0.5-0.1,0.7-0.1c0.2-0.1,0.4-0.2,0.8-0.4l0.6-0.5l0,0.3c0,0,0,0.1,0,0.1c-0.2,0.3-0.5,0.6-0.9,0.8
		c-0.4,0.2-0.7,0.4-1.1,0.5c-0.2,0-0.5,0.1-0.9,0.1c-0.4,0-0.7-0.1-1.1-0.2c-0.5-0.2-0.9-0.6-1.3-1.1c-0.3-0.5-0.5-1.1-0.5-1.9
		c0-0.2,0-0.5,0.1-0.9c0.1-0.4,0.2-0.7,0.5-1.1c0.2-0.3,0.3-0.5,0.6-0.7c0.3-0.3,0.6-0.4,0.8-0.5c0.3-0.1,0.7-0.2,1.2-0.2
		c0.5,0,0.9,0.1,1.2,0.3c0.4,0.2,0.7,0.5,0.9,0.9c0.2,0.4,0.3,0.7,0.3,1V96.8z M252,100.1c0-0.4,0-1.1,0-2.2c0-0.9,0-1.5-0.1-1.8
		c-0.1-0.2-0.3-0.5-0.6-0.7c-0.3-0.2-0.7-0.3-1.2-0.3c-0.6,0-1.1,0.2-1.5,0.7c-0.4,0.5-0.6,1.1-0.6,2.1c0,0.8,0.2,1.4,0.7,1.9
		c0.4,0.5,1,0.7,1.7,0.7c0.4,0,0.7-0.1,1.1-0.2C251.7,100.3,251.9,100.2,252,100.1 M252,95.3l0-0.2l0-0.9l0-1.7
		c0-0.5-0.1-0.8-0.2-0.9c-0.1-0.1-0.4-0.3-0.9-0.4c0,0-0.1,0-0.2-0.1v-0.1c0-0.1,0-0.1,0-0.2c0.7-0.1,1.3-0.2,1.8-0.4l0.4,0
		c0,0.4,0,0.8,0,1.2l0,3l0.1,3.4l0,1.8c0,0.4,0,0.6,0.1,0.6c0.1,0.1,0.3,0.2,0.7,0.2c0.1,0,0.2,0,0.3,0v0.1c0,0,0,0.1,0,0.1
		c-0.2,0-0.3,0.1-0.5,0.1l-1.1,0.2c-0.2,0-0.3,0.1-0.4,0.1v-0.8c-0.1,0-0.2,0.1-0.4,0.2c-0.8,0.3-1.6,0.5-2.2,0.5
		c-0.4,0-0.8-0.1-1.3-0.4c-0.4-0.3-0.8-0.6-1-1.1c-0.2-0.5-0.3-1-0.3-1.5c0-0.4,0.1-0.9,0.2-1.3c0.1-0.4,0.3-0.7,0.6-1
		c0.2-0.2,0.4-0.4,0.7-0.5c0.3-0.2,0.5-0.3,0.7-0.3c0.5-0.1,0.8-0.2,0.9-0.2c0.7,0,1.3,0.1,1.7,0.3C251.8,95.2,251.9,95.2,252,95.3
		 M238.6,93.2l1-1.4c0.3-0.4,0.6-0.7,0.8-0.9c0.1-0.1,0.2-0.1,0.4-0.1c0.1,0,0.3,0,0.3,0.1c0.1,0.1,0.1,0.2,0.1,0.3
		c0,0.1,0,0.2-0.1,0.3c-0.1,0.1-0.3,0.3-0.5,0.4l-1.8,1.3H238.6L238.6,93.2z M235.7,94.8h0.6l0.3,0l0.2,0c0.5,0,0.9,0,1,0l0,0.1
		c0,0.7,0,1.5,0,2.1c0,0.4,0,0.6,0,0.7c0,0.9,0,1.5,0.1,1.7c0.1,0.2,0.2,0.4,0.4,0.5c0.2,0.1,0.5,0.2,0.8,0.2c0.4,0,0.7-0.1,1.1-0.2
		c0.3-0.2,0.6-0.4,0.9-0.6c0-0.2,0-0.4,0-0.7c0-0.8,0-1.3,0-1.6c0-0.2,0-0.3,0-0.4c0-0.8,0-1.3-0.1-1.4c-0.1-0.1-0.4-0.2-1-0.3
		c-0.2,0-0.3,0-0.4,0c0-0.1-0.1-0.1-0.1-0.2l0-0.1c0.1,0,0.3,0,0.4,0l1.2,0c0.4,0,0.7,0,0.7,0c0.1,0,0.1,0,0.2,0l0,0.6
		c0,0.8-0.1,1.8-0.1,3l0,0.6l0,1.1c0,0.1,0.1,0.1,0.1,0.2c0.1,0,0.2,0,0.4,0h0.1c0.1,0,0.3,0,0.6,0c0,0.1,0,0.1,0,0.1v0.1
		c-0.7,0.1-1.3,0.3-1.7,0.5c-0.2,0.1-0.3,0.1-0.4,0.1c0-0.2,0-0.3,0-0.3v-0.6c0,0,0-0.1,0-0.2c-0.1,0-0.1,0.1-0.2,0.2
		c-0.4,0.3-0.8,0.6-1.3,0.8c-0.3,0.1-0.6,0.2-0.9,0.2c-0.5,0-1-0.2-1.3-0.6c-0.3-0.4-0.5-1.1-0.5-2.1c0,0,0-0.1,0-0.3
		c0-0.2,0-0.4,0-0.5c0,0,0-0.2,0-0.3c0-0.1,0-0.1,0-0.2c0,0,0-0.2,0-0.3c0-0.2,0-0.3,0-0.3c0-0.1,0-0.2,0-0.2l0-0.4l0-0.2
		c0-0.1,0-0.2-0.1-0.2c-0.3-0.1-0.5-0.1-0.6-0.2c-0.1,0-0.2,0-0.3-0.1V94.8z M229.9,99.7c0-0.7,0.1-1.1,0.1-1.4c0-0.1,0-0.3,0-0.6
		c-0.4,0.1-0.7,0.3-1.1,0.6c-0.4,0.3-0.7,0.6-0.9,0.9c-0.2,0.2-0.2,0.5-0.2,0.7c0,0.2,0.1,0.4,0.2,0.5c0.1,0.1,0.3,0.2,0.5,0.2
		c0.2,0,0.4,0,0.6-0.2C229.3,100.2,229.6,100,229.9,99.7 M232.2,99.9c0,0.1,0,0.1,0,0.1c0,0.1-0.1,0.2-0.2,0.4
		c-0.2,0.3-0.3,0.5-0.5,0.6c-0.1,0.1-0.3,0.1-0.5,0.1c-0.4,0-0.7-0.1-0.8-0.3c-0.1-0.1-0.2-0.4-0.2-0.7l-0.9,0.6
		c-0.3,0.2-0.5,0.3-0.7,0.3c-0.3,0.1-0.6,0.1-0.9,0.1c-0.3,0-0.5-0.1-0.6-0.2c-0.2-0.2-0.2-0.4-0.2-0.6c0-0.4,0.2-0.8,0.7-1.3
		c0.4-0.5,1-0.9,1.8-1.2c0.5-0.2,0.9-0.4,1-0.4c0-0.2,0-0.4,0-0.6c0-0.7-0.1-1.1-0.3-1.3c-0.2-0.2-0.4-0.4-0.8-0.4
		c-0.4,0-0.7,0.1-1,0.4c-0.2,0.2-0.3,0.5-0.4,1c0,0.1-0.1,0.3-0.2,0.4c-0.2,0.1-0.4,0.2-0.5,0.2c-0.1,0-0.2,0-0.3-0.1
		c-0.1,0-0.1-0.1-0.1-0.1c0-0.1,0.1-0.4,0.4-0.9c0.3-0.5,0.7-0.8,1.1-1.1c0.4-0.2,0.8-0.4,1.2-0.4c0.4,0,0.8,0,1,0.1
		c0.2,0.1,0.4,0.2,0.6,0.4c0.2,0.2,0.3,0.4,0.3,0.7c0,0.1,0,0.5,0,1.2l0,1.2l0,0.9c0,0.1,0,0.2,0,0.3c0,0.2,0,0.3,0,0.3
		c0,0.2,0.1,0.3,0.2,0.4c0.1,0.1,0.2,0.2,0.4,0.2c0.2,0,0.4-0.1,0.5-0.3l0.1-0.1C232.1,99.9,232.1,99.9,232.2,99.9 M218.1,99
		c0.2,0.5,0.3,0.8,0.4,1c0.2,0.3,0.4,0.5,0.7,0.7c0.3,0.2,0.6,0.2,0.9,0.2c0.3,0,0.6-0.1,0.9-0.4c0.2-0.2,0.3-0.4,0.3-0.7
		c0-0.3-0.1-0.7-0.4-0.9c-0.2-0.3-0.7-0.6-1.4-0.8c-0.7-0.3-1.1-0.5-1.4-0.8c-0.2-0.3-0.4-0.6-0.4-1c0-0.4,0.1-0.7,0.3-0.9
		c0.2-0.3,0.5-0.5,0.8-0.6c0.3-0.1,0.6-0.2,0.9-0.2c0.4,0,0.7,0,1,0.1c0.3,0.1,0.5,0.1,0.8,0.3c0,0.3,0.1,0.7,0.1,1.2l0,0.3
		c-0.1,0-0.1,0-0.2,0h-0.1c-0.2-0.4-0.4-0.8-0.7-1c-0.3-0.3-0.6-0.4-1-0.4c-0.3,0-0.6,0.1-0.8,0.3c-0.2,0.2-0.3,0.4-0.3,0.8
		c0,0.2,0.1,0.4,0.2,0.6c0.2,0.2,0.5,0.4,1.1,0.6c0.6,0.2,1,0.5,1.3,0.6c0.3,0.2,0.5,0.4,0.6,0.7c0.1,0.3,0.2,0.6,0.2,0.8
		c0,0.4-0.1,0.7-0.4,1c-0.2,0.3-0.5,0.5-0.9,0.7c-0.4,0.1-0.7,0.2-1,0.2c-0.7,0-1.3-0.1-1.8-0.4c-0.1,0-0.1-0.1-0.1-0.2
		c0,0,0-0.1,0-0.2c-0.1-0.7-0.1-1.1-0.1-1.3c0-0.1,0-0.1,0-0.1C218,99,218,99,218.1,99 M176.7,100.9c0.4,0,0.8-0.1,1.1-0.3
		c0.4-0.2,0.7-0.6,0.9-1c0.2-0.5,0.3-1,0.3-1.6c0-0.4-0.1-0.9-0.3-1.4c-0.2-0.5-0.4-0.9-0.8-1.2c-0.3-0.3-0.8-0.4-1.2-0.4
		c-0.3,0-0.7,0.1-1.1,0.2c-0.4,0.2-0.7,0.5-0.9,0.9c-0.2,0.5-0.4,1.1-0.4,2c0,0.9,0.2,1.7,0.6,2.2
		C175.6,100.6,176.1,100.9,176.7,100.9 M173.3,97.8c0-0.4,0.1-0.7,0.2-1.1c0.2-0.4,0.4-0.8,0.7-1.1c0.3-0.3,0.6-0.6,1-0.7
		c0.5-0.2,1-0.3,1.7-0.3c1,0,1.8,0.3,2.4,1c0.7,0.7,1,1.5,1,2.4c0,0.8-0.3,1.6-1,2.2c-0.7,0.7-1.6,1-2.6,1c-0.7,0-1.3-0.2-1.8-0.5
		c-0.4-0.3-0.8-0.6-1.1-1.1C173.4,99,173.3,98.5,173.3,97.8 M168.4,91.3h0.2c0,0.1,0,0.1,0,0.1c0,0.4-0.1,0.8-0.4,1.1
		c-0.2,0.3-0.6,0.4-0.9,0.4c-0.2,0-0.4,0-0.6-0.1c-0.1,0-0.3-0.2-0.6-0.4c-0.3-0.2-0.5-0.3-0.6-0.4c-0.2-0.1-0.3-0.1-0.4-0.1
		c-0.2,0-0.3,0.1-0.4,0.2c-0.1,0.1-0.2,0.4-0.3,0.7h-0.2c0,0,0-0.1,0-0.1c0-0.3,0.1-0.7,0.3-1c0.2-0.3,0.5-0.5,1-0.5
		c0.2,0,0.4,0,0.5,0.1c0.2,0.1,0.4,0.2,0.7,0.4c0.5,0.3,0.8,0.5,1,0.5c0.2,0,0.3-0.1,0.4-0.2C168.3,91.9,168.3,91.6,168.4,91.3
		 M167.2,99.7c0-0.7,0.1-1.1,0.1-1.4c0-0.1,0-0.3,0-0.6c-0.3,0.1-0.7,0.3-1.1,0.6c-0.4,0.3-0.7,0.6-0.9,0.9
		c-0.2,0.2-0.2,0.5-0.2,0.7c0,0.2,0.1,0.4,0.2,0.5c0.1,0.1,0.3,0.2,0.5,0.2c0.2,0,0.4,0,0.6-0.2C166.6,100.2,166.9,100,167.2,99.7
		 M169.5,99.9c0,0.1,0,0.1,0,0.1c0,0.1-0.1,0.2-0.2,0.4c-0.2,0.3-0.3,0.5-0.5,0.6c-0.1,0.1-0.3,0.1-0.5,0.1c-0.4,0-0.7-0.1-0.8-0.3
		c-0.1-0.1-0.2-0.4-0.2-0.7l-0.9,0.6c-0.3,0.2-0.5,0.3-0.7,0.3c-0.3,0.1-0.6,0.1-0.9,0.1c-0.3,0-0.5-0.1-0.6-0.2
		c-0.1-0.2-0.2-0.4-0.2-0.6c0-0.4,0.2-0.8,0.7-1.3c0.4-0.5,1-0.9,1.8-1.2c0.5-0.2,0.9-0.4,1-0.4c0-0.2,0-0.4,0-0.6
		c0-0.7-0.1-1.1-0.3-1.3c-0.2-0.2-0.4-0.4-0.8-0.4c-0.4,0-0.7,0.1-1,0.4c-0.2,0.2-0.3,0.5-0.4,1c0,0.1-0.1,0.3-0.2,0.4
		c-0.2,0.1-0.4,0.2-0.5,0.2c-0.1,0-0.2,0-0.3-0.1c-0.1,0-0.1-0.1-0.1-0.1c0-0.1,0.1-0.4,0.4-0.9c0.3-0.5,0.7-0.8,1.1-1.1
		c0.4-0.2,0.8-0.4,1.2-0.4c0.5,0,0.8,0,1,0.1c0.2,0.1,0.4,0.2,0.6,0.4c0.2,0.2,0.3,0.4,0.3,0.7c0,0.1,0,0.5,0,1.2l0,1.2l0,0.9
		c0,0.1,0,0.2,0,0.3c0,0.2,0,0.3,0,0.3c0,0.2,0,0.3,0.1,0.4c0.1,0.1,0.2,0.2,0.4,0.2c0.2,0,0.4-0.1,0.5-0.3l0.1-0.1
		C169.4,99.9,169.4,99.9,169.5,99.9 M156.7,102.3c0.2,0.1,0.4,0.2,0.5,0.4c0.1,0.2,0.2,0.3,0.2,0.5c0,0.2-0.1,0.4-0.2,0.5
		c-0.1,0.1-0.2,0.2-0.4,0.2c-0.2,0-0.3-0.1-0.5-0.3c-0.2-0.2-0.3-0.3-0.4-0.3c-0.1,0-0.1,0-0.2,0.1c-0.1,0.1-0.1,0.2-0.1,0.3
		c0,0.1,0.1,0.3,0.3,0.4c0.2,0.2,0.4,0.2,0.7,0.2c0.4,0,0.7-0.1,1-0.4c0.3-0.3,0.4-0.6,0.4-1c0-0.4-0.2-0.8-0.6-1.1l0.6-1h-0.3
		c-0.3,0.5-0.6,0.9-0.8,1.1C156.9,102.1,156.8,102.3,156.7,102.3 M159.7,99.5l0,0.5c-0.4,0.4-0.8,0.7-1.2,0.9
		c-0.4,0.2-0.9,0.3-1.4,0.3c-0.6,0-1.1-0.2-1.6-0.5c-0.5-0.3-0.8-0.7-1.1-1.3c-0.3-0.6-0.4-1.1-0.4-1.6c0-0.6,0.2-1.1,0.5-1.7
		c0.3-0.5,0.7-0.9,1.2-1.2c0.5-0.3,1.1-0.4,1.9-0.4c0.7,0,1.3,0.1,1.7,0.4c0.2,0.2,0.3,0.3,0.3,0.6c0,0.2-0.1,0.3-0.2,0.4
		c-0.1,0.1-0.2,0.2-0.4,0.2c-0.3,0-0.5-0.2-0.9-0.5c-0.2-0.2-0.4-0.3-0.5-0.4c-0.2-0.1-0.3-0.1-0.5-0.1c-0.5,0-0.8,0.2-1.2,0.6
		c-0.4,0.5-0.6,1.2-0.6,2.1c0,0.9,0.2,1.5,0.7,2c0.4,0.5,0.9,0.8,1.5,0.8c0.4,0,0.8-0.1,1.1-0.2C158.9,100.1,159.3,99.9,159.7,99.5
		 M148,99.7c0-0.7,0.1-1.1,0.1-1.4c0-0.1,0-0.3,0-0.6c-0.4,0.1-0.7,0.3-1.1,0.6c-0.4,0.3-0.7,0.6-0.9,0.9c-0.2,0.2-0.3,0.5-0.3,0.7
		c0,0.2,0.1,0.4,0.2,0.5c0.1,0.1,0.3,0.2,0.5,0.2c0.2,0,0.4,0,0.6-0.2C147.3,100.2,147.6,100,148,99.7 M150.3,99.9
		c0,0.1,0,0.1,0,0.1c0,0.1-0.1,0.2-0.2,0.4c-0.2,0.3-0.3,0.5-0.5,0.6c-0.1,0.1-0.3,0.1-0.5,0.1c-0.4,0-0.7-0.1-0.8-0.3
		c-0.1-0.1-0.2-0.4-0.2-0.7l-0.9,0.6c-0.3,0.2-0.5,0.3-0.7,0.3c-0.3,0.1-0.6,0.1-0.9,0.1c-0.3,0-0.5-0.1-0.6-0.2
		c-0.2-0.2-0.2-0.4-0.2-0.6c0-0.4,0.2-0.8,0.7-1.3c0.4-0.5,1-0.9,1.8-1.2c0.5-0.2,0.9-0.4,1-0.4c0-0.2,0-0.4,0-0.6
		c0-0.7-0.1-1.1-0.3-1.3c-0.2-0.2-0.4-0.4-0.8-0.4c-0.4,0-0.7,0.1-1,0.4c-0.2,0.2-0.3,0.5-0.4,1c0,0.1-0.1,0.3-0.2,0.4
		c-0.2,0.1-0.4,0.2-0.5,0.2c-0.1,0-0.2,0-0.3-0.1c-0.1,0-0.1-0.1-0.1-0.1c0-0.1,0.1-0.4,0.4-0.9c0.3-0.5,0.7-0.8,1.1-1.1
		c0.4-0.2,0.8-0.4,1.2-0.4c0.4,0,0.8,0,1,0.1c0.2,0.1,0.4,0.2,0.6,0.4c0.2,0.2,0.3,0.4,0.3,0.7c0,0.1,0,0.5,0,1.2l0,1.2l0,0.9
		c0,0.1,0,0.2,0,0.3c0,0.2,0,0.3,0,0.3c0,0.2,0.1,0.3,0.2,0.4c0.1,0.1,0.2,0.2,0.4,0.2c0.2,0,0.4-0.1,0.5-0.3l0.1-0.1
		C150.1,99.9,150.2,99.9,150.3,99.9 M140.4,99.5l0,0.5c-0.4,0.4-0.8,0.7-1.2,0.9c-0.4,0.2-0.9,0.3-1.4,0.3c-0.6,0-1.1-0.2-1.6-0.5
		c-0.5-0.3-0.8-0.7-1.1-1.3c-0.3-0.6-0.4-1.1-0.4-1.6c0-0.6,0.2-1.1,0.5-1.7c0.3-0.5,0.7-0.9,1.2-1.2c0.5-0.3,1.1-0.4,1.9-0.4
		c0.7,0,1.3,0.1,1.7,0.4c0.2,0.2,0.3,0.3,0.3,0.6c0,0.2-0.1,0.3-0.2,0.4c-0.1,0.1-0.3,0.2-0.4,0.2c-0.3,0-0.5-0.2-0.9-0.5
		c-0.2-0.2-0.4-0.3-0.5-0.4c-0.2-0.1-0.3-0.1-0.5-0.1c-0.5,0-0.8,0.2-1.2,0.6c-0.4,0.5-0.6,1.2-0.6,2.1c0,0.9,0.2,1.5,0.7,2
		c0.4,0.5,1,0.8,1.5,0.8c0.4,0,0.8-0.1,1.1-0.2C139.6,100.1,140,99.9,140.4,99.5 M123.6,94.8h0.6l0.3,0l0.2,0c0.5,0,0.9,0,1,0l0,0.1
		c0,0.7,0,1.5,0,2.1c0,0.4,0,0.6,0,0.7c0,0.9,0,1.5,0.1,1.7c0.1,0.2,0.2,0.4,0.4,0.5c0.2,0.1,0.5,0.2,0.8,0.2c0.4,0,0.7-0.1,1.1-0.2
		c0.3-0.2,0.6-0.4,0.9-0.6c0-0.2,0-0.4,0-0.7c0-0.8,0-1.3,0-1.6c0-0.2,0-0.3,0-0.4c0-0.8,0-1.3-0.1-1.4c-0.1-0.1-0.4-0.2-1-0.3
		c-0.2,0-0.3,0-0.4,0c0-0.1-0.1-0.1-0.1-0.2l0-0.1c0.1,0,0.3,0,0.4,0l1.2,0c0.4,0,0.7,0,0.7,0c0.1,0,0.1,0,0.2,0l0,0.6
		c0,0.8-0.1,1.8-0.1,3l0,0.6l0,1.1c0,0.1,0.1,0.1,0.1,0.2c0.1,0,0.2,0,0.4,0h0.1c0.1,0,0.3,0,0.6,0c0,0.1,0,0.1,0,0.1v0.1
		c-0.7,0.1-1.3,0.3-1.7,0.5c-0.2,0.1-0.3,0.1-0.4,0.1c0-0.2,0-0.3,0-0.3v-0.6c0,0,0-0.1,0-0.2c-0.1,0-0.1,0.1-0.2,0.2
		c-0.4,0.3-0.8,0.6-1.3,0.8c-0.3,0.1-0.6,0.2-0.9,0.2c-0.5,0-1-0.2-1.3-0.6c-0.4-0.4-0.5-1.1-0.5-2.1c0,0,0-0.1,0-0.3
		c0-0.2,0-0.4,0-0.5c0,0,0-0.2,0-0.3c0-0.1,0-0.1,0-0.2c0,0,0-0.2,0-0.3c0-0.2,0-0.3,0-0.3c0-0.1,0-0.2,0-0.2l0-0.4l0-0.2
		c0-0.1,0-0.2-0.1-0.2c-0.3-0.1-0.5-0.1-0.6-0.2c-0.1,0-0.2,0-0.3-0.1V94.8z M118,100.1c0-0.4,0-1.1,0-2.2c0-0.9,0-1.5-0.1-1.8
		c-0.1-0.2-0.3-0.5-0.6-0.7c-0.3-0.2-0.7-0.3-1.1-0.3c-0.6,0-1.1,0.2-1.5,0.7c-0.4,0.5-0.6,1.1-0.6,2.1c0,0.8,0.2,1.4,0.7,1.9
		c0.4,0.5,1,0.7,1.7,0.7c0.4,0,0.7-0.1,1.1-0.2C117.7,100.3,117.9,100.2,118,100.1 M118,95.3l0-0.2l0-0.9l0-1.7
		c0-0.5-0.1-0.8-0.2-0.9c-0.1-0.1-0.4-0.3-0.9-0.4c0,0-0.1,0-0.2-0.1v-0.1c0-0.1,0-0.1,0-0.2c0.7-0.1,1.3-0.2,1.8-0.4l0.4,0
		c0,0.4,0,0.8,0,1.2l0,3L119,98l0,1.8c0,0.4,0,0.6,0.1,0.6c0.1,0.1,0.3,0.2,0.7,0.2c0.1,0,0.2,0,0.3,0v0.1c0,0,0,0.1,0,0.1
		c-0.2,0-0.3,0.1-0.5,0.1l-1.1,0.2c-0.2,0-0.3,0.1-0.4,0.1v-0.8c-0.1,0-0.2,0.1-0.4,0.2c-0.8,0.3-1.6,0.5-2.2,0.5
		c-0.4,0-0.8-0.1-1.3-0.4c-0.4-0.3-0.8-0.6-1-1.1c-0.2-0.5-0.3-1-0.3-1.5c0-0.4,0.1-0.9,0.2-1.3c0.2-0.4,0.3-0.7,0.6-1
		c0.2-0.2,0.4-0.4,0.7-0.5c0.3-0.2,0.5-0.3,0.7-0.3c0.5-0.1,0.8-0.2,0.9-0.2c0.7,0,1.3,0.1,1.7,0.3C117.8,95.2,117.9,95.2,118,95.3
		 M104.4,96.5h0.4c0.3,0,1.1,0,2.4-0.1c0.2,0,0.3,0,0.4-0.1c0.1-0.1,0.1-0.2,0.1-0.3c0-0.2-0.1-0.3-0.2-0.6
		c-0.1-0.2-0.3-0.4-0.5-0.5c-0.2-0.1-0.5-0.2-0.8-0.2c-0.6,0-1.1,0.2-1.5,0.7C104.5,95.9,104.4,96.2,104.4,96.5 M108.7,96.8l-3.1,0
		H105c-0.2,0-0.5,0-0.7,0c0,0.2-0.1,0.3-0.1,0.3l0,0.1v0.1l0,0.4c0,0.3,0.1,0.7,0.3,1.2c0.2,0.5,0.5,0.8,0.9,1.1
		c0.4,0.2,0.8,0.4,1.4,0.4c0.3,0,0.5-0.1,0.7-0.1c0.2-0.1,0.4-0.2,0.7-0.4l0.6-0.5l0,0.3c0,0,0,0.1,0,0.1c-0.2,0.3-0.5,0.6-0.9,0.8
		c-0.4,0.2-0.7,0.4-1.1,0.5c-0.2,0-0.5,0.1-0.9,0.1c-0.4,0-0.7-0.1-1.1-0.2c-0.5-0.2-0.9-0.6-1.3-1.1c-0.3-0.5-0.5-1.1-0.5-1.9
		c0-0.2,0-0.5,0.1-0.9c0.1-0.4,0.2-0.7,0.5-1.1c0.2-0.3,0.3-0.5,0.6-0.7c0.3-0.3,0.6-0.4,0.8-0.5c0.3-0.1,0.7-0.2,1.2-0.2
		c0.5,0,0.9,0.1,1.2,0.3c0.4,0.2,0.7,0.5,0.9,0.9c0.2,0.4,0.3,0.7,0.3,1V96.8z"/>
	<path class="st0" d="M259.2,96.5h0.4c0.3,0,1.1,0,2.4-0.1c0.2,0,0.3,0,0.4-0.1c0.1-0.1,0.1-0.2,0.1-0.3c0-0.2-0.1-0.3-0.2-0.6
		c-0.1-0.2-0.3-0.4-0.5-0.5c-0.2-0.1-0.5-0.2-0.7-0.2c-0.6,0-1.1,0.2-1.5,0.7C259.3,95.9,259.2,96.2,259.2,96.5z M263.5,96.8l-3.1,0
		h-0.6c-0.2,0-0.5,0-0.7,0c0,0.2-0.1,0.3-0.1,0.3l0,0.1v0.1l0,0.4c0,0.3,0.1,0.7,0.3,1.2c0.2,0.5,0.5,0.8,0.9,1.1
		c0.4,0.2,0.8,0.4,1.4,0.4c0.3,0,0.5-0.1,0.7-0.1c0.2-0.1,0.4-0.2,0.8-0.4l0.6-0.5l0,0.3c0,0,0,0.1,0,0.1c-0.2,0.3-0.5,0.6-0.9,0.8
		c-0.4,0.2-0.7,0.4-1.1,0.5c-0.2,0-0.5,0.1-0.9,0.1c-0.4,0-0.7-0.1-1.1-0.2c-0.5-0.2-0.9-0.6-1.3-1.1c-0.3-0.5-0.5-1.1-0.5-1.9
		c0-0.2,0-0.5,0.1-0.9c0.1-0.4,0.2-0.7,0.5-1.1c0.2-0.3,0.3-0.5,0.6-0.7c0.3-0.3,0.6-0.4,0.8-0.5c0.3-0.1,0.7-0.2,1.2-0.2
		c0.5,0,0.9,0.1,1.2,0.3c0.4,0.2,0.7,0.5,0.9,0.9c0.2,0.4,0.3,0.7,0.3,1V96.8z M252,100.1c0-0.4,0-1.1,0-2.2c0-0.9,0-1.5-0.1-1.8
		c-0.1-0.2-0.3-0.5-0.6-0.7c-0.3-0.2-0.7-0.3-1.2-0.3c-0.6,0-1.1,0.2-1.5,0.7c-0.4,0.5-0.6,1.1-0.6,2.1c0,0.8,0.2,1.4,0.7,1.9
		c0.4,0.5,1,0.7,1.7,0.7c0.4,0,0.7-0.1,1.1-0.2C251.7,100.3,251.9,100.2,252,100.1z M252,95.3l0-0.2l0-0.9l0-1.7
		c0-0.5-0.1-0.8-0.2-0.9c-0.1-0.1-0.4-0.3-0.9-0.4c0,0-0.1,0-0.2-0.1v-0.1c0-0.1,0-0.1,0-0.2c0.7-0.1,1.3-0.2,1.8-0.4l0.4,0
		c0,0.4,0,0.8,0,1.2l0,3l0.1,3.4l0,1.8c0,0.4,0,0.6,0.1,0.6c0.1,0.1,0.3,0.2,0.7,0.2c0.1,0,0.2,0,0.3,0v0.1c0,0,0,0.1,0,0.1
		c-0.2,0-0.3,0.1-0.5,0.1l-1.1,0.2c-0.2,0-0.3,0.1-0.4,0.1v-0.8c-0.1,0-0.2,0.1-0.4,0.2c-0.8,0.3-1.6,0.5-2.2,0.5
		c-0.4,0-0.8-0.1-1.3-0.4c-0.4-0.3-0.8-0.6-1-1.1c-0.2-0.5-0.3-1-0.3-1.5c0-0.4,0.1-0.9,0.2-1.3c0.1-0.4,0.3-0.7,0.6-1
		c0.2-0.2,0.4-0.4,0.7-0.5c0.3-0.2,0.5-0.3,0.7-0.3c0.5-0.1,0.8-0.2,0.9-0.2c0.7,0,1.3,0.1,1.7,0.3C251.8,95.2,251.9,95.2,252,95.3z
		 M238.6,93.2l1-1.4c0.3-0.4,0.6-0.7,0.8-0.9c0.1-0.1,0.2-0.1,0.4-0.1c0.1,0,0.3,0,0.3,0.1c0.1,0.1,0.1,0.2,0.1,0.3
		c0,0.1,0,0.2-0.1,0.3c-0.1,0.1-0.3,0.3-0.5,0.4l-1.8,1.3H238.6L238.6,93.2z M235.7,94.8h0.6l0.3,0l0.2,0c0.5,0,0.9,0,1,0l0,0.1
		c0,0.7,0,1.5,0,2.1c0,0.4,0,0.6,0,0.7c0,0.9,0,1.5,0.1,1.7c0.1,0.2,0.2,0.4,0.4,0.5c0.2,0.1,0.5,0.2,0.8,0.2c0.4,0,0.7-0.1,1.1-0.2
		c0.3-0.2,0.6-0.4,0.9-0.6c0-0.2,0-0.4,0-0.7c0-0.8,0-1.3,0-1.6c0-0.2,0-0.3,0-0.4c0-0.8,0-1.3-0.1-1.4c-0.1-0.1-0.4-0.2-1-0.3
		c-0.2,0-0.3,0-0.4,0c0-0.1-0.1-0.1-0.1-0.2l0-0.1c0.1,0,0.3,0,0.4,0l1.2,0c0.4,0,0.7,0,0.7,0c0.1,0,0.1,0,0.2,0l0,0.6
		c0,0.8-0.1,1.8-0.1,3l0,0.6l0,1.1c0,0.1,0.1,0.1,0.1,0.2c0.1,0,0.2,0,0.4,0h0.1c0.1,0,0.3,0,0.6,0c0,0.1,0,0.1,0,0.1v0.1
		c-0.7,0.1-1.3,0.3-1.7,0.5c-0.2,0.1-0.3,0.1-0.4,0.1c0-0.2,0-0.3,0-0.3v-0.6c0,0,0-0.1,0-0.2c-0.1,0-0.1,0.1-0.2,0.2
		c-0.4,0.3-0.8,0.6-1.3,0.8c-0.3,0.1-0.6,0.2-0.9,0.2c-0.5,0-1-0.2-1.3-0.6c-0.3-0.4-0.5-1.1-0.5-2.1c0,0,0-0.1,0-0.3
		c0-0.2,0-0.4,0-0.5c0,0,0-0.2,0-0.3c0-0.1,0-0.1,0-0.2c0,0,0-0.2,0-0.3c0-0.2,0-0.3,0-0.3c0-0.1,0-0.2,0-0.2l0-0.4l0-0.2
		c0-0.1,0-0.2-0.1-0.2c-0.3-0.1-0.5-0.1-0.6-0.2c-0.1,0-0.2,0-0.3-0.1V94.8z M229.9,99.7c0-0.7,0.1-1.1,0.1-1.4c0-0.1,0-0.3,0-0.6
		c-0.4,0.1-0.7,0.3-1.1,0.6c-0.4,0.3-0.7,0.6-0.9,0.9c-0.2,0.2-0.2,0.5-0.2,0.7c0,0.2,0.1,0.4,0.2,0.5c0.1,0.1,0.3,0.2,0.5,0.2
		c0.2,0,0.4,0,0.6-0.2C229.3,100.2,229.6,100,229.9,99.7z M232.2,99.9c0,0.1,0,0.1,0,0.1c0,0.1-0.1,0.2-0.2,0.4
		c-0.2,0.3-0.3,0.5-0.5,0.6c-0.1,0.1-0.3,0.1-0.5,0.1c-0.4,0-0.7-0.1-0.8-0.3c-0.1-0.1-0.2-0.4-0.2-0.7l-0.9,0.6
		c-0.3,0.2-0.5,0.3-0.7,0.3c-0.3,0.1-0.6,0.1-0.9,0.1c-0.3,0-0.5-0.1-0.6-0.2c-0.2-0.2-0.2-0.4-0.2-0.6c0-0.4,0.2-0.8,0.7-1.3
		c0.4-0.5,1-0.9,1.8-1.2c0.5-0.2,0.9-0.4,1-0.4c0-0.2,0-0.4,0-0.6c0-0.7-0.1-1.1-0.3-1.3c-0.2-0.2-0.4-0.4-0.8-0.4
		c-0.4,0-0.7,0.1-1,0.4c-0.2,0.2-0.3,0.5-0.4,1c0,0.1-0.1,0.3-0.2,0.4c-0.2,0.1-0.4,0.2-0.5,0.2c-0.1,0-0.2,0-0.3-0.1
		c-0.1,0-0.1-0.1-0.1-0.1c0-0.1,0.1-0.4,0.4-0.9c0.3-0.5,0.7-0.8,1.1-1.1c0.4-0.2,0.8-0.4,1.2-0.4c0.4,0,0.8,0,1,0.1
		c0.2,0.1,0.4,0.2,0.6,0.4c0.2,0.2,0.3,0.4,0.3,0.7c0,0.1,0,0.5,0,1.2l0,1.2l0,0.9c0,0.1,0,0.2,0,0.3c0,0.2,0,0.3,0,0.3
		c0,0.2,0.1,0.3,0.2,0.4c0.1,0.1,0.2,0.2,0.4,0.2c0.2,0,0.4-0.1,0.5-0.3l0.1-0.1C232.1,99.9,232.1,99.9,232.2,99.9z M218.1,99
		c0.2,0.5,0.3,0.8,0.4,1c0.2,0.3,0.4,0.5,0.7,0.7c0.3,0.2,0.6,0.2,0.9,0.2c0.3,0,0.6-0.1,0.9-0.4c0.2-0.2,0.3-0.4,0.3-0.7
		c0-0.3-0.1-0.7-0.4-0.9c-0.2-0.3-0.7-0.6-1.4-0.8c-0.7-0.3-1.1-0.5-1.4-0.8c-0.2-0.3-0.4-0.6-0.4-1c0-0.4,0.1-0.7,0.3-0.9
		c0.2-0.3,0.5-0.5,0.8-0.6c0.3-0.1,0.6-0.2,0.9-0.2c0.4,0,0.7,0,1,0.1c0.3,0.1,0.5,0.1,0.8,0.3c0,0.3,0.1,0.7,0.1,1.2l0,0.3
		c-0.1,0-0.1,0-0.2,0h-0.1c-0.2-0.4-0.4-0.8-0.7-1c-0.3-0.3-0.6-0.4-1-0.4c-0.3,0-0.6,0.1-0.8,0.3c-0.2,0.2-0.3,0.4-0.3,0.8
		c0,0.2,0.1,0.4,0.2,0.6c0.2,0.2,0.5,0.4,1.1,0.6c0.6,0.2,1,0.5,1.3,0.6c0.3,0.2,0.5,0.4,0.6,0.7c0.1,0.3,0.2,0.6,0.2,0.8
		c0,0.4-0.1,0.7-0.4,1c-0.2,0.3-0.5,0.5-0.9,0.7c-0.4,0.1-0.7,0.2-1,0.2c-0.7,0-1.3-0.1-1.8-0.4c-0.1,0-0.1-0.1-0.1-0.2
		c0,0,0-0.1,0-0.2c-0.1-0.7-0.1-1.1-0.1-1.3c0-0.1,0-0.1,0-0.1C218,99,218,99,218.1,99z M176.7,100.9c0.4,0,0.8-0.1,1.1-0.3
		c0.4-0.2,0.7-0.6,0.9-1c0.2-0.5,0.3-1,0.3-1.6c0-0.4-0.1-0.9-0.3-1.4c-0.2-0.5-0.4-0.9-0.8-1.2c-0.3-0.3-0.8-0.4-1.2-0.4
		c-0.3,0-0.7,0.1-1.1,0.2c-0.4,0.2-0.7,0.5-0.9,0.9c-0.2,0.5-0.4,1.1-0.4,2c0,0.9,0.2,1.7,0.6,2.2
		C175.6,100.6,176.1,100.9,176.7,100.9z M173.3,97.8c0-0.4,0.1-0.7,0.2-1.1c0.2-0.4,0.4-0.8,0.7-1.1c0.3-0.3,0.6-0.6,1-0.7
		c0.5-0.2,1-0.3,1.7-0.3c1,0,1.8,0.3,2.4,1c0.7,0.7,1,1.5,1,2.4c0,0.8-0.3,1.6-1,2.2c-0.7,0.7-1.6,1-2.6,1c-0.7,0-1.3-0.2-1.8-0.5
		c-0.4-0.3-0.8-0.6-1.1-1.1C173.4,99,173.3,98.5,173.3,97.8z M168.4,91.3h0.2c0,0.1,0,0.1,0,0.1c0,0.4-0.1,0.8-0.4,1.1
		c-0.2,0.3-0.6,0.4-0.9,0.4c-0.2,0-0.4,0-0.6-0.1c-0.1,0-0.3-0.2-0.6-0.4c-0.3-0.2-0.5-0.3-0.6-0.4c-0.2-0.1-0.3-0.1-0.4-0.1
		c-0.2,0-0.3,0.1-0.4,0.2c-0.1,0.1-0.2,0.4-0.3,0.7h-0.2c0,0,0-0.1,0-0.1c0-0.3,0.1-0.7,0.3-1c0.2-0.3,0.5-0.5,1-0.5
		c0.2,0,0.4,0,0.5,0.1c0.2,0.1,0.4,0.2,0.7,0.4c0.5,0.3,0.8,0.5,1,0.5c0.2,0,0.3-0.1,0.4-0.2C168.3,91.9,168.3,91.6,168.4,91.3z
		 M167.2,99.7c0-0.7,0.1-1.1,0.1-1.4c0-0.1,0-0.3,0-0.6c-0.3,0.1-0.7,0.3-1.1,0.6c-0.4,0.3-0.7,0.6-0.9,0.9
		c-0.2,0.2-0.2,0.5-0.2,0.7c0,0.2,0.1,0.4,0.2,0.5c0.1,0.1,0.3,0.2,0.5,0.2c0.2,0,0.4,0,0.6-0.2C166.6,100.2,166.9,100,167.2,99.7z
		 M169.5,99.9c0,0.1,0,0.1,0,0.1c0,0.1-0.1,0.2-0.2,0.4c-0.2,0.3-0.3,0.5-0.5,0.6c-0.1,0.1-0.3,0.1-0.5,0.1c-0.4,0-0.7-0.1-0.8-0.3
		c-0.1-0.1-0.2-0.4-0.2-0.7l-0.9,0.6c-0.3,0.2-0.5,0.3-0.7,0.3c-0.3,0.1-0.6,0.1-0.9,0.1c-0.3,0-0.5-0.1-0.6-0.2
		c-0.1-0.2-0.2-0.4-0.2-0.6c0-0.4,0.2-0.8,0.7-1.3c0.4-0.5,1-0.9,1.8-1.2c0.5-0.2,0.9-0.4,1-0.4c0-0.2,0-0.4,0-0.6
		c0-0.7-0.1-1.1-0.3-1.3c-0.2-0.2-0.4-0.4-0.8-0.4c-0.4,0-0.7,0.1-1,0.4c-0.2,0.2-0.3,0.5-0.4,1c0,0.1-0.1,0.3-0.2,0.4
		c-0.2,0.1-0.4,0.2-0.5,0.2c-0.1,0-0.2,0-0.3-0.1c-0.1,0-0.1-0.1-0.1-0.1c0-0.1,0.1-0.4,0.4-0.9c0.3-0.5,0.7-0.8,1.1-1.1
		c0.4-0.2,0.8-0.4,1.2-0.4c0.5,0,0.8,0,1,0.1c0.2,0.1,0.4,0.2,0.6,0.4c0.2,0.2,0.3,0.4,0.3,0.7c0,0.1,0,0.5,0,1.2l0,1.2l0,0.9
		c0,0.1,0,0.2,0,0.3c0,0.2,0,0.3,0,0.3c0,0.2,0,0.3,0.1,0.4c0.1,0.1,0.2,0.2,0.4,0.2c0.2,0,0.4-0.1,0.5-0.3l0.1-0.1
		C169.4,99.9,169.4,99.9,169.5,99.9z M156.7,102.3c0.2,0.1,0.4,0.2,0.5,0.4c0.1,0.2,0.2,0.3,0.2,0.5c0,0.2-0.1,0.4-0.2,0.5
		c-0.1,0.1-0.2,0.2-0.4,0.2c-0.2,0-0.3-0.1-0.5-0.3c-0.2-0.2-0.3-0.3-0.4-0.3c-0.1,0-0.1,0-0.2,0.1c-0.1,0.1-0.1,0.2-0.1,0.3
		c0,0.1,0.1,0.3,0.3,0.4c0.2,0.2,0.4,0.2,0.7,0.2c0.4,0,0.7-0.1,1-0.4c0.3-0.3,0.4-0.6,0.4-1c0-0.4-0.2-0.8-0.6-1.1l0.6-1h-0.3
		c-0.3,0.5-0.6,0.9-0.8,1.1C156.9,102.1,156.8,102.3,156.7,102.3z M159.7,99.5l0,0.5c-0.4,0.4-0.8,0.7-1.2,0.9
		c-0.4,0.2-0.9,0.3-1.4,0.3c-0.6,0-1.1-0.2-1.6-0.5c-0.5-0.3-0.8-0.7-1.1-1.3c-0.3-0.6-0.4-1.1-0.4-1.6c0-0.6,0.2-1.1,0.5-1.7
		c0.3-0.5,0.7-0.9,1.2-1.2c0.5-0.3,1.1-0.4,1.9-0.4c0.7,0,1.3,0.1,1.7,0.4c0.2,0.2,0.3,0.3,0.3,0.6c0,0.2-0.1,0.3-0.2,0.4
		c-0.1,0.1-0.2,0.2-0.4,0.2c-0.3,0-0.5-0.2-0.9-0.5c-0.2-0.2-0.4-0.3-0.5-0.4c-0.2-0.1-0.3-0.1-0.5-0.1c-0.5,0-0.8,0.2-1.2,0.6
		c-0.4,0.5-0.6,1.2-0.6,2.1c0,0.9,0.2,1.5,0.7,2c0.4,0.5,0.9,0.8,1.5,0.8c0.4,0,0.8-0.1,1.1-0.2C158.9,100.1,159.3,99.9,159.7,99.5z
		 M148,99.7c0-0.7,0.1-1.1,0.1-1.4c0-0.1,0-0.3,0-0.6c-0.4,0.1-0.7,0.3-1.1,0.6c-0.4,0.3-0.7,0.6-0.9,0.9c-0.2,0.2-0.3,0.5-0.3,0.7
		c0,0.2,0.1,0.4,0.2,0.5c0.1,0.1,0.3,0.2,0.5,0.2c0.2,0,0.4,0,0.6-0.2C147.3,100.2,147.6,100,148,99.7z M150.3,99.9
		c0,0.1,0,0.1,0,0.1c0,0.1-0.1,0.2-0.2,0.4c-0.2,0.3-0.3,0.5-0.5,0.6c-0.1,0.1-0.3,0.1-0.5,0.1c-0.4,0-0.7-0.1-0.8-0.3
		c-0.1-0.1-0.2-0.4-0.2-0.7l-0.9,0.6c-0.3,0.2-0.5,0.3-0.7,0.3c-0.3,0.1-0.6,0.1-0.9,0.1c-0.3,0-0.5-0.1-0.6-0.2
		c-0.2-0.2-0.2-0.4-0.2-0.6c0-0.4,0.2-0.8,0.7-1.3c0.4-0.5,1-0.9,1.8-1.2c0.5-0.2,0.9-0.4,1-0.4c0-0.2,0-0.4,0-0.6
		c0-0.7-0.1-1.1-0.3-1.3c-0.2-0.2-0.4-0.4-0.8-0.4c-0.4,0-0.7,0.1-1,0.4c-0.2,0.2-0.3,0.5-0.4,1c0,0.1-0.1,0.3-0.2,0.4
		c-0.2,0.1-0.4,0.2-0.5,0.2c-0.1,0-0.2,0-0.3-0.1c-0.1,0-0.1-0.1-0.1-0.1c0-0.1,0.1-0.4,0.4-0.9c0.3-0.5,0.7-0.8,1.1-1.1
		c0.4-0.2,0.8-0.4,1.2-0.4c0.4,0,0.8,0,1,0.1c0.2,0.1,0.4,0.2,0.6,0.4c0.2,0.2,0.3,0.4,0.3,0.7c0,0.1,0,0.5,0,1.2l0,1.2l0,0.9
		c0,0.1,0,0.2,0,0.3c0,0.2,0,0.3,0,0.3c0,0.2,0.1,0.3,0.2,0.4c0.1,0.1,0.2,0.2,0.4,0.2c0.2,0,0.4-0.1,0.5-0.3l0.1-0.1
		C150.1,99.9,150.2,99.9,150.3,99.9z M140.4,99.5l0,0.5c-0.4,0.4-0.8,0.7-1.2,0.9c-0.4,0.2-0.9,0.3-1.4,0.3c-0.6,0-1.1-0.2-1.6-0.5
		c-0.5-0.3-0.8-0.7-1.1-1.3c-0.3-0.6-0.4-1.1-0.4-1.6c0-0.6,0.2-1.1,0.5-1.7c0.3-0.5,0.7-0.9,1.2-1.2c0.5-0.3,1.1-0.4,1.9-0.4
		c0.7,0,1.3,0.1,1.7,0.4c0.2,0.2,0.3,0.3,0.3,0.6c0,0.2-0.1,0.3-0.2,0.4c-0.1,0.1-0.3,0.2-0.4,0.2c-0.3,0-0.5-0.2-0.9-0.5
		c-0.2-0.2-0.4-0.3-0.5-0.4c-0.2-0.1-0.3-0.1-0.5-0.1c-0.5,0-0.8,0.2-1.2,0.6c-0.4,0.5-0.6,1.2-0.6,2.1c0,0.9,0.2,1.5,0.7,2
		c0.4,0.5,1,0.8,1.5,0.8c0.4,0,0.8-0.1,1.1-0.2C139.6,100.1,140,99.9,140.4,99.5z M123.6,94.8h0.6l0.3,0l0.2,0c0.5,0,0.9,0,1,0
		l0,0.1c0,0.7,0,1.5,0,2.1c0,0.4,0,0.6,0,0.7c0,0.9,0,1.5,0.1,1.7c0.1,0.2,0.2,0.4,0.4,0.5c0.2,0.1,0.5,0.2,0.8,0.2
		c0.4,0,0.7-0.1,1.1-0.2c0.3-0.2,0.6-0.4,0.9-0.6c0-0.2,0-0.4,0-0.7c0-0.8,0-1.3,0-1.6c0-0.2,0-0.3,0-0.4c0-0.8,0-1.3-0.1-1.4
		c-0.1-0.1-0.4-0.2-1-0.3c-0.2,0-0.3,0-0.4,0c0-0.1-0.1-0.1-0.1-0.2l0-0.1c0.1,0,0.3,0,0.4,0l1.2,0c0.4,0,0.7,0,0.7,0
		c0.1,0,0.1,0,0.2,0l0,0.6c0,0.8-0.1,1.8-0.1,3l0,0.6l0,1.1c0,0.1,0.1,0.1,0.1,0.2c0.1,0,0.2,0,0.4,0h0.1c0.1,0,0.3,0,0.6,0
		c0,0.1,0,0.1,0,0.1v0.1c-0.7,0.1-1.3,0.3-1.7,0.5c-0.2,0.1-0.3,0.1-0.4,0.1c0-0.2,0-0.3,0-0.3v-0.6c0,0,0-0.1,0-0.2
		c-0.1,0-0.1,0.1-0.2,0.2c-0.4,0.3-0.8,0.6-1.3,0.8c-0.3,0.1-0.6,0.2-0.9,0.2c-0.5,0-1-0.2-1.3-0.6c-0.4-0.4-0.5-1.1-0.5-2.1
		c0,0,0-0.1,0-0.3c0-0.2,0-0.4,0-0.5c0,0,0-0.2,0-0.3c0-0.1,0-0.1,0-0.2c0,0,0-0.2,0-0.3c0-0.2,0-0.3,0-0.3c0-0.1,0-0.2,0-0.2l0-0.4
		l0-0.2c0-0.1,0-0.2-0.1-0.2c-0.3-0.1-0.5-0.1-0.6-0.2c-0.1,0-0.2,0-0.3-0.1V94.8z M118,100.1c0-0.4,0-1.1,0-2.2
		c0-0.9,0-1.5-0.1-1.8c-0.1-0.2-0.3-0.5-0.6-0.7c-0.3-0.2-0.7-0.3-1.1-0.3c-0.6,0-1.1,0.2-1.5,0.7c-0.4,0.5-0.6,1.1-0.6,2.1
		c0,0.8,0.2,1.4,0.7,1.9c0.4,0.5,1,0.7,1.7,0.7c0.4,0,0.7-0.1,1.1-0.2C117.7,100.3,117.9,100.2,118,100.1z M118,95.3l0-0.2l0-0.9
		l0-1.7c0-0.5-0.1-0.8-0.2-0.9c-0.1-0.1-0.4-0.3-0.9-0.4c0,0-0.1,0-0.2-0.1v-0.1c0-0.1,0-0.1,0-0.2c0.7-0.1,1.3-0.2,1.8-0.4l0.4,0
		c0,0.4,0,0.8,0,1.2l0,3L119,98l0,1.8c0,0.4,0,0.6,0.1,0.6c0.1,0.1,0.3,0.2,0.7,0.2c0.1,0,0.2,0,0.3,0v0.1c0,0,0,0.1,0,0.1
		c-0.2,0-0.3,0.1-0.5,0.1l-1.1,0.2c-0.2,0-0.3,0.1-0.4,0.1v-0.8c-0.1,0-0.2,0.1-0.4,0.2c-0.8,0.3-1.6,0.5-2.2,0.5
		c-0.4,0-0.8-0.1-1.3-0.4c-0.4-0.3-0.8-0.6-1-1.1c-0.2-0.5-0.3-1-0.3-1.5c0-0.4,0.1-0.9,0.2-1.3c0.2-0.4,0.3-0.7,0.6-1
		c0.2-0.2,0.4-0.4,0.7-0.5c0.3-0.2,0.5-0.3,0.7-0.3c0.5-0.1,0.8-0.2,0.9-0.2c0.7,0,1.3,0.1,1.7,0.3C117.8,95.2,117.9,95.2,118,95.3z
		 M104.4,96.5h0.4c0.3,0,1.1,0,2.4-0.1c0.2,0,0.3,0,0.4-0.1c0.1-0.1,0.1-0.2,0.1-0.3c0-0.2-0.1-0.3-0.2-0.6
		c-0.1-0.2-0.3-0.4-0.5-0.5c-0.2-0.1-0.5-0.2-0.8-0.2c-0.6,0-1.1,0.2-1.5,0.7C104.5,95.9,104.4,96.2,104.4,96.5z M108.7,96.8l-3.1,0
		H105c-0.2,0-0.5,0-0.7,0c0,0.2-0.1,0.3-0.1,0.3l0,0.1v0.1l0,0.4c0,0.3,0.1,0.7,0.3,1.2c0.2,0.5,0.5,0.8,0.9,1.1
		c0.4,0.2,0.8,0.4,1.4,0.4c0.3,0,0.5-0.1,0.7-0.1c0.2-0.1,0.4-0.2,0.7-0.4l0.6-0.5l0,0.3c0,0,0,0.1,0,0.1c-0.2,0.3-0.5,0.6-0.9,0.8
		c-0.4,0.2-0.7,0.4-1.1,0.5c-0.2,0-0.5,0.1-0.9,0.1c-0.4,0-0.7-0.1-1.1-0.2c-0.5-0.2-0.9-0.6-1.3-1.1c-0.3-0.5-0.5-1.1-0.5-1.9
		c0-0.2,0-0.5,0.1-0.9c0.1-0.4,0.2-0.7,0.5-1.1c0.2-0.3,0.3-0.5,0.6-0.7c0.3-0.3,0.6-0.4,0.8-0.5c0.3-0.1,0.7-0.2,1.2-0.2
		c0.5,0,0.9,0.1,1.2,0.3c0.4,0.2,0.7,0.5,0.9,0.9c0.2,0.4,0.3,0.7,0.3,1V96.8z"/>
	<path class="st0" d="M336.9,99.7c0-0.7,0.1-1.1,0.1-1.4c0-0.1,0-0.3,0-0.6c-0.3,0.1-0.7,0.3-1.1,0.6c-0.4,0.3-0.7,0.6-0.9,0.9
		c-0.2,0.2-0.3,0.5-0.3,0.7c0,0.2,0.1,0.4,0.2,0.5c0.1,0.1,0.3,0.2,0.5,0.2c0.2,0,0.4-0.1,0.6-0.2C336.2,100.2,336.5,100,336.9,99.7
		 M339.2,99.9c0,0.1,0,0.1,0,0.1c0,0.1-0.1,0.2-0.2,0.4c-0.2,0.3-0.3,0.5-0.5,0.6c-0.1,0.1-0.3,0.1-0.5,0.1c-0.4,0-0.7-0.1-0.8-0.3
		c-0.1-0.1-0.2-0.4-0.2-0.7l-0.9,0.6c-0.3,0.2-0.5,0.3-0.7,0.3c-0.3,0.1-0.6,0.1-0.9,0.1c-0.3,0-0.5-0.1-0.6-0.2
		c-0.2-0.2-0.2-0.4-0.2-0.6c0-0.4,0.2-0.8,0.7-1.3c0.4-0.5,1-0.9,1.8-1.2c0.5-0.2,0.8-0.4,1-0.4c0-0.2,0-0.4,0-0.6
		c0-0.7-0.1-1.1-0.3-1.4c-0.2-0.2-0.5-0.4-0.8-0.4c-0.4,0-0.7,0.1-1,0.4c-0.2,0.2-0.3,0.5-0.4,1c0,0.1-0.1,0.3-0.2,0.4
		c-0.2,0.2-0.4,0.2-0.5,0.2c-0.1,0-0.2,0-0.3-0.1c-0.1,0-0.1-0.1-0.1-0.1c0-0.1,0.1-0.4,0.4-0.9c0.3-0.5,0.7-0.8,1.1-1.1
		c0.4-0.2,0.8-0.4,1.2-0.4c0.4,0,0.8,0,1,0.1c0.2,0.1,0.4,0.2,0.6,0.4c0.2,0.2,0.3,0.4,0.3,0.7c0,0.1,0,0.5,0,1.2l0,1.3l0,0.9
		c0,0.1,0,0.2,0,0.3c0,0.2,0,0.3,0,0.3c0,0.2,0.1,0.3,0.1,0.4c0.1,0.1,0.2,0.2,0.4,0.2c0.2,0,0.4-0.1,0.5-0.3l0.1-0.1
		C339,100,339.1,99.9,339.2,99.9 M322.5,94.7c0.6,0,1.1,0,1.5,0.1c0.3,0,0.5,0,0.7,0c0.1,0,0.2,0,0.2,0l0.9,0c0.1,0,0.2,0,0.3,0
		c0,0,0.1,0,0.1,0.1c0,0,0,0.1,0,0.2c-0.1,0-0.2,0-0.3,0c-0.4,0-0.7,0.1-1,0.2c0,0-0.1,0-0.1,0.1c0,0.1,0,0.1,0.1,0.3
		c0,0,0,0.1,0.1,0.2l0.8,1.9c0.4,0.9,0.7,1.6,1,2.2c0.2-0.4,0.4-0.8,0.6-1.2c0.2-0.4,0.4-1.1,0.8-2c0.1-0.3,0.2-0.6,0.3-0.9
		c0-0.1,0-0.1,0-0.2c0-0.1,0-0.1-0.1-0.2c-0.1-0.1-0.2-0.1-0.4-0.2c0,0-0.3,0-0.7-0.1c0,0-0.1-0.1-0.1-0.1v-0.1c0,0,0-0.1,0-0.1
		c0.1,0,0.2,0,0.3,0l0.9,0c0.1,0,0.2,0,0.4,0c0.8,0,1.3,0,1.5,0c0,0,0.1,0,0.1,0.1c0,0,0,0.1,0,0.2l-0.2,0.1c-0.1,0-0.1,0-0.1,0
		c-0.4,0-0.7,0.1-0.8,0.2c-0.1,0.1-0.2,0.3-0.4,0.8c-0.1,0.2-0.2,0.5-0.3,0.9l-0.4,1c-0.1,0.1-0.1,0.3-0.2,0.5l-1.2,2.8h-0.2
		c0-0.1-0.1-0.3-0.2-0.4l-0.6-1.3l-1.4-3.3c-0.3-0.6-0.5-1-0.5-1c-0.1-0.1-0.4-0.2-1-0.3C322.5,94.9,322.5,94.8,322.5,94.7
		L322.5,94.7z M316.5,95.4l0-0.2c0.3-0.1,0.5-0.2,0.5-0.2c0.2-0.1,0.4-0.2,0.6-0.4c0.2-0.2,0.4-0.4,0.5-0.6c0.1,0,0.1,0,0.1,0l0.1,0
		c0,0.2,0,0.4,0,0.5c0,0,0,0.1,0,0.4v0.4l0,2.3l0,2.4c0,0.2,0,0.3,0.1,0.4c0.1,0.1,0.3,0.2,0.6,0.3c0.2,0.1,0.4,0.1,0.5,0.1
		c0,0,0,0.1,0,0.1c0,0,0,0.1,0,0.1c-0.2,0-0.5,0-0.8,0c-0.4,0-0.7-0.1-0.9-0.1c-0.1,0-0.5,0-1.3,0c-0.2,0-0.3,0-0.4,0
		c0,0-0.1,0-0.1,0c0,0,0-0.1,0-0.1c0-0.1,0-0.1,0.1-0.2c0,0,0.3-0.1,0.8-0.2c0.2,0,0.3-0.1,0.3-0.2c0.1-0.1,0.1-0.3,0.1-0.5
		c0-0.4,0-1.5,0-3.3c0-0.4,0-0.6,0-0.7c0-0.1-0.1-0.1-0.2-0.2C317.1,95.6,316.9,95.5,316.5,95.4 M317.2,91.3c0-0.2,0.1-0.3,0.2-0.5
		c0.1-0.1,0.3-0.2,0.5-0.2c0.2,0,0.4,0.1,0.5,0.2c0.1,0.1,0.2,0.3,0.2,0.5c0,0.2-0.1,0.3-0.2,0.5c-0.1,0.1-0.3,0.2-0.5,0.2
		c-0.2,0-0.4-0.1-0.5-0.2C317.2,91.7,317.2,91.5,317.2,91.3 M310.6,93.2l0.2,0l0,0.7l0,1c0.1,0,0.2,0,0.2,0c0.1,0,0.4,0,0.8,0
		c0.2,0,0.5,0,0.7,0c0.1,0,0.3,0,0.5,0c0,0.1,0,0.2,0,0.3c0,0.1,0,0.2,0,0.3h-0.1l-1.2,0l-0.6,0l-0.1,0c0,0.1-0.1,0.3-0.1,0.5l0,1.2
		l0,2.1c0,0.5,0.1,0.9,0.2,1.1c0.1,0.2,0.3,0.3,0.6,0.3c0.1,0,0.4,0,0.8-0.1c0.1,0,0.3-0.1,0.5-0.3h0.1c0.1,0,0.1,0,0.1,0
		c0,0,0,0.1,0,0.1l0,0.1c-0.2,0.2-0.5,0.4-0.8,0.5c-0.3,0.1-0.7,0.2-1.2,0.2c-0.3,0-0.6-0.1-0.8-0.2c-0.2-0.2-0.4-0.3-0.4-0.6
		c-0.1-0.2-0.1-0.7-0.1-1.4l0-1.8l0-0.8V96c0-0.1,0-0.3,0-0.4l-0.1,0l-0.6,0l-0.1,0c-0.1,0-0.1,0-0.1,0c0,0,0-0.1,0-0.1
		c0-0.1,0-0.1,0.1-0.2c0,0,0.2-0.1,0.4-0.2c0.1-0.1,0.3-0.2,0.5-0.3c0.2-0.2,0.3-0.3,0.5-0.5c0.1-0.1,0.1-0.3,0.3-0.6
		C310.5,93.5,310.5,93.3,310.6,93.2 M300.5,96.5h0.4c0.3,0,1.1,0,2.4-0.1c0.2,0,0.3,0,0.4-0.1c0.1-0.1,0.1-0.2,0.1-0.3
		c0-0.2-0.1-0.4-0.2-0.6c-0.1-0.2-0.3-0.4-0.5-0.5c-0.2-0.1-0.5-0.2-0.8-0.2c-0.6,0-1.1,0.2-1.5,0.7
		C300.6,95.9,300.5,96.2,300.5,96.5 M304.8,96.8l-3.1,0h-0.6c-0.2,0-0.5,0-0.7,0c0,0.2-0.1,0.3-0.1,0.3l0,0.1v0.1l0,0.4
		c0,0.3,0.1,0.7,0.3,1.2c0.2,0.5,0.5,0.8,0.9,1.1c0.4,0.2,0.8,0.4,1.4,0.4c0.3,0,0.5,0,0.7-0.1c0.2-0.1,0.4-0.2,0.7-0.4l0.6-0.5
		l0,0.3c0,0,0,0.1,0,0.1c-0.2,0.3-0.5,0.6-0.9,0.8c-0.4,0.2-0.7,0.4-1.1,0.5c-0.2,0-0.5,0.1-0.9,0.1c-0.4,0-0.7-0.1-1.1-0.2
		c-0.5-0.2-0.9-0.6-1.3-1.1c-0.3-0.5-0.5-1.1-0.5-1.9c0-0.2,0-0.5,0.1-0.9c0.1-0.4,0.2-0.7,0.5-1.2c0.2-0.3,0.3-0.5,0.6-0.7
		c0.3-0.3,0.6-0.4,0.8-0.5c0.3-0.1,0.7-0.2,1.2-0.2c0.5,0,0.9,0.1,1.2,0.3c0.4,0.2,0.7,0.5,0.9,0.9c0.2,0.4,0.3,0.7,0.3,1V96.8z
		 M292.3,91.2v-0.2c0.1,0,0.3-0.1,0.5-0.2c0.3-0.1,0.6-0.2,1.2-0.4h0.4c0,0.3,0,0.4,0,0.4c0,4.3,0,6.9,0,7.7c0,0.5,0,0.7,0,0.8
		c0,0.6,0,0.9,0.1,1c0.1,0.1,0.3,0.2,0.6,0.2c0.3,0,0.5,0.1,0.6,0.1c0,0,0.1,0.1,0.1,0.1c0,0.1,0,0.1,0,0.1c0,0-0.1,0-0.1,0
		c0,0-0.3,0-0.8,0l-1,0l-1.3,0.1c-0.1,0-0.1,0-0.2-0.1c0,0,0-0.1,0-0.1c0-0.1,0-0.1,0-0.1c0,0,0.2-0.1,0.6-0.1
		c0.3-0.1,0.5-0.1,0.6-0.1c0,0,0.1-0.1,0.1-0.3c0-0.2,0-0.7,0-1.6l0-1.8l0-1.9l0-1.9l0-0.9c0-0.2,0-0.3-0.1-0.4
		c-0.1-0.1-0.2-0.2-0.4-0.2C292.6,91.4,292.4,91.3,292.3,91.2 M284.7,100.9c0.4,0,0.8-0.1,1.1-0.3c0.4-0.2,0.7-0.6,0.9-1
		c0.2-0.5,0.3-1,0.3-1.6c0-0.4-0.1-0.9-0.3-1.4c-0.2-0.5-0.4-0.9-0.8-1.2c-0.4-0.3-0.8-0.4-1.2-0.4c-0.3,0-0.7,0.1-1.1,0.3
		c-0.4,0.2-0.7,0.5-0.9,0.9c-0.2,0.5-0.4,1.1-0.4,2c0,0.9,0.2,1.7,0.6,2.2C283.5,100.6,284.1,100.9,284.7,100.9 M281.3,97.8
		c0-0.4,0.1-0.7,0.2-1.1c0.1-0.4,0.4-0.8,0.7-1.1c0.3-0.3,0.6-0.6,1-0.7c0.5-0.2,1.1-0.3,1.7-0.3c1,0,1.8,0.3,2.4,1
		c0.7,0.7,1,1.5,1,2.4c0,0.8-0.3,1.6-1,2.2c-0.7,0.7-1.6,1-2.6,1c-0.6,0-1.3-0.2-1.8-0.5c-0.4-0.3-0.8-0.6-1.1-1.1
		C281.4,99,281.3,98.5,281.3,97.8 M277.2,99.5l0,0.5c-0.4,0.4-0.8,0.7-1.2,0.9c-0.4,0.2-0.9,0.3-1.4,0.3c-0.6,0-1.1-0.2-1.6-0.5
		c-0.5-0.3-0.8-0.7-1.1-1.3c-0.3-0.6-0.4-1.1-0.4-1.7c0-0.6,0.2-1.2,0.5-1.7c0.3-0.5,0.7-0.9,1.2-1.2c0.5-0.2,1.1-0.4,1.9-0.4
		c0.7,0,1.3,0.1,1.7,0.4c0.2,0.2,0.3,0.3,0.3,0.6c0,0.2-0.1,0.3-0.2,0.4c-0.1,0.1-0.3,0.2-0.4,0.2c-0.3,0-0.5-0.2-0.9-0.5
		c-0.2-0.2-0.4-0.3-0.5-0.4c-0.2-0.1-0.3-0.1-0.5-0.1c-0.5,0-0.9,0.2-1.2,0.6c-0.4,0.5-0.6,1.2-0.6,2.1c0,0.8,0.2,1.5,0.7,2
		c0.4,0.5,0.9,0.8,1.5,0.8c0.4,0,0.8-0.1,1.1-0.2C276.4,100.2,276.8,99.9,277.2,99.5"/>
	<path class="st0" d="M336.9,99.7c0-0.7,0.1-1.1,0.1-1.4c0-0.1,0-0.3,0-0.6c-0.3,0.1-0.7,0.3-1.1,0.6c-0.4,0.3-0.7,0.6-0.9,0.9
		c-0.2,0.2-0.3,0.5-0.3,0.7c0,0.2,0.1,0.4,0.2,0.5c0.1,0.1,0.3,0.2,0.5,0.2c0.2,0,0.4-0.1,0.6-0.2C336.2,100.2,336.5,100,336.9,99.7
		z M339.2,99.9c0,0.1,0,0.1,0,0.1c0,0.1-0.1,0.2-0.2,0.4c-0.2,0.3-0.3,0.5-0.5,0.6c-0.1,0.1-0.3,0.1-0.5,0.1c-0.4,0-0.7-0.1-0.8-0.3
		c-0.1-0.1-0.2-0.4-0.2-0.7l-0.9,0.6c-0.3,0.2-0.5,0.3-0.7,0.3c-0.3,0.1-0.6,0.1-0.9,0.1c-0.3,0-0.5-0.1-0.6-0.2
		c-0.2-0.2-0.2-0.4-0.2-0.6c0-0.4,0.2-0.8,0.7-1.3c0.4-0.5,1-0.9,1.8-1.2c0.5-0.2,0.8-0.4,1-0.4c0-0.2,0-0.4,0-0.6
		c0-0.7-0.1-1.1-0.3-1.4c-0.2-0.2-0.5-0.4-0.8-0.4c-0.4,0-0.7,0.1-1,0.4c-0.2,0.2-0.3,0.5-0.4,1c0,0.1-0.1,0.3-0.2,0.4
		c-0.2,0.2-0.4,0.2-0.5,0.2c-0.1,0-0.2,0-0.3-0.1c-0.1,0-0.1-0.1-0.1-0.1c0-0.1,0.1-0.4,0.4-0.9c0.3-0.5,0.7-0.8,1.1-1.1
		c0.4-0.2,0.8-0.4,1.2-0.4c0.4,0,0.8,0,1,0.1c0.2,0.1,0.4,0.2,0.6,0.4c0.2,0.2,0.3,0.4,0.3,0.7c0,0.1,0,0.5,0,1.2l0,1.3l0,0.9
		c0,0.1,0,0.2,0,0.3c0,0.2,0,0.3,0,0.3c0,0.2,0.1,0.3,0.1,0.4c0.1,0.1,0.2,0.2,0.4,0.2c0.2,0,0.4-0.1,0.5-0.3l0.1-0.1
		C339,100,339.1,99.9,339.2,99.9z M322.5,94.7c0.6,0,1.1,0,1.5,0.1c0.3,0,0.5,0,0.7,0c0.1,0,0.2,0,0.2,0l0.9,0c0.1,0,0.2,0,0.3,0
		c0,0,0.1,0,0.1,0.1c0,0,0,0.1,0,0.2c-0.1,0-0.2,0-0.3,0c-0.4,0-0.7,0.1-1,0.2c0,0-0.1,0-0.1,0.1c0,0.1,0,0.1,0.1,0.3
		c0,0,0,0.1,0.1,0.2l0.8,1.9c0.4,0.9,0.7,1.6,1,2.2c0.2-0.4,0.4-0.8,0.6-1.2c0.2-0.4,0.4-1.1,0.8-2c0.1-0.3,0.2-0.6,0.3-0.9
		c0-0.1,0-0.1,0-0.2c0-0.1,0-0.1-0.1-0.2c-0.1-0.1-0.2-0.1-0.4-0.2c0,0-0.3,0-0.7-0.1c0,0-0.1-0.1-0.1-0.1v-0.1c0,0,0-0.1,0-0.1
		c0.1,0,0.2,0,0.3,0l0.9,0c0.1,0,0.2,0,0.4,0c0.8,0,1.3,0,1.5,0c0,0,0.1,0,0.1,0.1c0,0,0,0.1,0,0.2l-0.2,0.1c-0.1,0-0.1,0-0.1,0
		c-0.4,0-0.7,0.1-0.8,0.2c-0.1,0.1-0.2,0.3-0.4,0.8c-0.1,0.2-0.2,0.5-0.3,0.9l-0.4,1c-0.1,0.1-0.1,0.3-0.2,0.5l-1.2,2.8h-0.2
		c0-0.1-0.1-0.3-0.2-0.4l-0.6-1.3l-1.4-3.3c-0.3-0.6-0.5-1-0.5-1c-0.1-0.1-0.4-0.2-1-0.3C322.5,94.9,322.5,94.8,322.5,94.7
		L322.5,94.7z M316.5,95.4l0-0.2c0.3-0.1,0.5-0.2,0.5-0.2c0.2-0.1,0.4-0.2,0.6-0.4c0.2-0.2,0.4-0.4,0.5-0.6c0.1,0,0.1,0,0.1,0l0.1,0
		c0,0.2,0,0.4,0,0.5c0,0,0,0.1,0,0.4v0.4l0,2.3l0,2.4c0,0.2,0,0.3,0.1,0.4c0.1,0.1,0.3,0.2,0.6,0.3c0.2,0.1,0.4,0.1,0.5,0.1
		c0,0,0,0.1,0,0.1c0,0,0,0.1,0,0.1c-0.2,0-0.5,0-0.8,0c-0.4,0-0.7-0.1-0.9-0.1c-0.1,0-0.5,0-1.3,0c-0.2,0-0.3,0-0.4,0
		c0,0-0.1,0-0.1,0c0,0,0-0.1,0-0.1c0-0.1,0-0.1,0.1-0.2c0,0,0.3-0.1,0.8-0.2c0.2,0,0.3-0.1,0.3-0.2c0.1-0.1,0.1-0.3,0.1-0.5
		c0-0.4,0-1.5,0-3.3c0-0.4,0-0.6,0-0.7c0-0.1-0.1-0.1-0.2-0.2C317.1,95.6,316.9,95.5,316.5,95.4z M317.2,91.3c0-0.2,0.1-0.3,0.2-0.5
		c0.1-0.1,0.3-0.2,0.5-0.2c0.2,0,0.4,0.1,0.5,0.2c0.1,0.1,0.2,0.3,0.2,0.5c0,0.2-0.1,0.3-0.2,0.5c-0.1,0.1-0.3,0.2-0.5,0.2
		c-0.2,0-0.4-0.1-0.5-0.2C317.2,91.7,317.2,91.5,317.2,91.3z M310.6,93.2l0.2,0l0,0.7l0,1c0.1,0,0.2,0,0.2,0c0.1,0,0.4,0,0.8,0
		c0.2,0,0.5,0,0.7,0c0.1,0,0.3,0,0.5,0c0,0.1,0,0.2,0,0.3c0,0.1,0,0.2,0,0.3h-0.1l-1.2,0l-0.6,0l-0.1,0c0,0.1-0.1,0.3-0.1,0.5l0,1.2
		l0,2.1c0,0.5,0.1,0.9,0.2,1.1c0.1,0.2,0.3,0.3,0.6,0.3c0.1,0,0.4,0,0.8-0.1c0.1,0,0.3-0.1,0.5-0.3h0.1c0.1,0,0.1,0,0.1,0
		c0,0,0,0.1,0,0.1l0,0.1c-0.2,0.2-0.5,0.4-0.8,0.5c-0.3,0.1-0.7,0.2-1.2,0.2c-0.3,0-0.6-0.1-0.8-0.2c-0.2-0.2-0.4-0.3-0.4-0.6
		c-0.1-0.2-0.1-0.7-0.1-1.4l0-1.8l0-0.8V96c0-0.1,0-0.3,0-0.4l-0.1,0l-0.6,0l-0.1,0c-0.1,0-0.1,0-0.1,0c0,0,0-0.1,0-0.1
		c0-0.1,0-0.1,0.1-0.2c0,0,0.2-0.1,0.4-0.2c0.1-0.1,0.3-0.2,0.5-0.3c0.2-0.2,0.3-0.3,0.5-0.5c0.1-0.1,0.1-0.3,0.3-0.6
		C310.5,93.5,310.5,93.3,310.6,93.2z M300.5,96.5h0.4c0.3,0,1.1,0,2.4-0.1c0.2,0,0.3,0,0.4-0.1c0.1-0.1,0.1-0.2,0.1-0.3
		c0-0.2-0.1-0.4-0.2-0.6c-0.1-0.2-0.3-0.4-0.5-0.5c-0.2-0.1-0.5-0.2-0.8-0.2c-0.6,0-1.1,0.2-1.5,0.7
		C300.6,95.9,300.5,96.2,300.5,96.5z M304.8,96.8l-3.1,0h-0.6c-0.2,0-0.5,0-0.7,0c0,0.2-0.1,0.3-0.1,0.3l0,0.1v0.1l0,0.4
		c0,0.3,0.1,0.7,0.3,1.2c0.2,0.5,0.5,0.8,0.9,1.1c0.4,0.2,0.8,0.4,1.4,0.4c0.3,0,0.5,0,0.7-0.1c0.2-0.1,0.4-0.2,0.7-0.4l0.6-0.5
		l0,0.3c0,0,0,0.1,0,0.1c-0.2,0.3-0.5,0.6-0.9,0.8c-0.4,0.2-0.7,0.4-1.1,0.5c-0.2,0-0.5,0.1-0.9,0.1c-0.4,0-0.7-0.1-1.1-0.2
		c-0.5-0.2-0.9-0.6-1.3-1.1c-0.3-0.5-0.5-1.1-0.5-1.9c0-0.2,0-0.5,0.1-0.9c0.1-0.4,0.2-0.7,0.5-1.2c0.2-0.3,0.3-0.5,0.6-0.7
		c0.3-0.3,0.6-0.4,0.8-0.5c0.3-0.1,0.7-0.2,1.2-0.2c0.5,0,0.9,0.1,1.2,0.3c0.4,0.2,0.7,0.5,0.9,0.9c0.2,0.4,0.3,0.7,0.3,1V96.8z
		 M292.3,91.2v-0.2c0.1,0,0.3-0.1,0.5-0.2c0.3-0.1,0.6-0.2,1.2-0.4h0.4c0,0.3,0,0.4,0,0.4c0,4.3,0,6.9,0,7.7c0,0.5,0,0.7,0,0.8
		c0,0.6,0,0.9,0.1,1c0.1,0.1,0.3,0.2,0.6,0.2c0.3,0,0.5,0.1,0.6,0.1c0,0,0.1,0.1,0.1,0.1c0,0.1,0,0.1,0,0.1c0,0-0.1,0-0.1,0
		c0,0-0.3,0-0.8,0l-1,0l-1.3,0.1c-0.1,0-0.1,0-0.2-0.1c0,0,0-0.1,0-0.1c0-0.1,0-0.1,0-0.1c0,0,0.2-0.1,0.6-0.1
		c0.3-0.1,0.5-0.1,0.6-0.1c0,0,0.1-0.1,0.1-0.3c0-0.2,0-0.7,0-1.6l0-1.8l0-1.9l0-1.9l0-0.9c0-0.2,0-0.3-0.1-0.4
		c-0.1-0.1-0.2-0.2-0.4-0.2C292.6,91.4,292.4,91.3,292.3,91.2z M284.7,100.9c0.4,0,0.8-0.1,1.1-0.3c0.4-0.2,0.7-0.6,0.9-1
		c0.2-0.5,0.3-1,0.3-1.6c0-0.4-0.1-0.9-0.3-1.4c-0.2-0.5-0.4-0.9-0.8-1.2c-0.4-0.3-0.8-0.4-1.2-0.4c-0.3,0-0.7,0.1-1.1,0.3
		c-0.4,0.2-0.7,0.5-0.9,0.9c-0.2,0.5-0.4,1.1-0.4,2c0,0.9,0.2,1.7,0.6,2.2C283.5,100.6,284.1,100.9,284.7,100.9z M281.3,97.8
		c0-0.4,0.1-0.7,0.2-1.1c0.1-0.4,0.4-0.8,0.7-1.1c0.3-0.3,0.6-0.6,1-0.7c0.5-0.2,1.1-0.3,1.7-0.3c1,0,1.8,0.3,2.4,1
		c0.7,0.7,1,1.5,1,2.4c0,0.8-0.3,1.6-1,2.2c-0.7,0.7-1.6,1-2.6,1c-0.6,0-1.3-0.2-1.8-0.5c-0.4-0.3-0.8-0.6-1.1-1.1
		C281.4,99,281.3,98.5,281.3,97.8z M277.2,99.5l0,0.5c-0.4,0.4-0.8,0.7-1.2,0.9c-0.4,0.2-0.9,0.3-1.4,0.3c-0.6,0-1.1-0.2-1.6-0.5
		c-0.5-0.3-0.8-0.7-1.1-1.3c-0.3-0.6-0.4-1.1-0.4-1.7c0-0.6,0.2-1.2,0.5-1.7c0.3-0.5,0.7-0.9,1.2-1.2c0.5-0.2,1.1-0.4,1.9-0.4
		c0.7,0,1.3,0.1,1.7,0.4c0.2,0.2,0.3,0.3,0.3,0.6c0,0.2-0.1,0.3-0.2,0.4c-0.1,0.1-0.3,0.2-0.4,0.2c-0.3,0-0.5-0.2-0.9-0.5
		c-0.2-0.2-0.4-0.3-0.5-0.4c-0.2-0.1-0.3-0.1-0.5-0.1c-0.5,0-0.9,0.2-1.2,0.6c-0.4,0.5-0.6,1.2-0.6,2.1c0,0.8,0.2,1.5,0.7,2
		c0.4,0.5,0.9,0.8,1.5,0.8c0.4,0,0.8-0.1,1.1-0.2C276.4,100.2,276.8,99.9,277.2,99.5z"/>
	<path class="st0" d="M198.1,118c0.2,0.1,0.5,0.1,0.8,0.1c0.3,0,0.7-0.1,1-0.2c0.3-0.1,0.6-0.3,0.9-0.4c0.2-0.2,0.5-0.4,0.6-0.7
		c0.2-0.2,0.3-0.5,0.3-0.6c0.1-0.3,0.1-0.7,0.1-1.1c0-0.4-0.1-0.9-0.3-1.3c-0.1-0.3-0.4-0.6-0.7-0.9c-0.3-0.3-0.7-0.5-1.1-0.6
		c-0.4-0.1-0.9-0.2-1.4-0.2c-0.3,0-0.6,0-0.8,0.1c0,0,0,0-0.1,0.1c0,0.1,0,0.2,0,0.2c0,0,0,0.1,0,0.2c0,0.4,0,0.7,0,0.9l0,1.1
		c0,1.7,0,2.6,0.1,2.8C197.6,117.7,197.8,117.9,198.1,118 M195.5,118.2c0.1-0.1,0.3-0.1,0.4-0.1c0.2,0,0.4-0.1,0.5-0.2
		c0.1-0.2,0.1-0.7,0.1-1.4v-0.8l0-0.5l0-0.4l0-0.6l0-1.6c0-0.2,0-0.3-0.1-0.4c-0.1-0.1-0.3-0.2-0.6-0.2c-0.1,0-0.2-0.1-0.2-0.1
		c0,0,0-0.1-0.1-0.1c0.1,0,0.1,0,0.2,0h0.4h0.2c0.1,0,0.3,0,0.4,0c0.3,0,0.6,0,0.9,0c0.1,0,0.2,0,0.4,0c0.5,0,0.8,0,1,0
		c0.4,0,0.8,0,1.1,0.1c0.4,0.1,0.7,0.2,1.1,0.4c0.2,0.1,0.5,0.4,0.7,0.7c0.3,0.3,0.4,0.6,0.6,1c0.1,0.4,0.2,0.7,0.2,1.2
		c0,0.4-0.1,0.8-0.2,1.2c-0.1,0.4-0.3,0.7-0.6,1c-0.3,0.3-0.5,0.5-0.8,0.6c-0.3,0.1-0.7,0.3-1.2,0.4c-0.2,0-0.6,0.1-1.2,0.1
		c-0.4,0-0.7,0-0.9,0c-0.1,0-0.2,0-0.3,0c0,0,0,0-0.1,0l-2,0l0,0C195.5,118.3,195.5,118.3,195.5,118.2L195.5,118.2z M181.9,118.2
		C181.9,118.2,181.9,118.2,181.9,118.2c0.1-0.1,0.2-0.1,0.4-0.1c0.3,0,0.5,0,0.6-0.1c0-0.1,0.1-0.2,0.1-0.3l0-0.3l0-1.3l0-0.6l0-1.3
		l0-1.4c0-0.3,0-0.5-0.1-0.6c-0.1-0.1-0.2-0.1-0.5-0.1c-0.1,0-0.2,0-0.3,0c0,0-0.1-0.1-0.1-0.1c0,0,0-0.1,0-0.1c0,0,0.1,0,0.1,0
		c0,0,0.1,0,0.2,0c0.2,0,0.4,0,0.6,0l0.4,0l0.9,0c0.4,0,0.8,0,1,0c0.2,0,0.4,0,0.5,0c0.1,0,0.3,0,0.6,0h0.7l0.1,0l0.4,0l0.1,0
		c0,0,0,0.1,0,0.1c0,0.1,0,0.1,0,0.2c0,0.1,0,0.2,0,0.2c0,0.3,0,0.6,0,0.9c0,0,0,0,0,0c0,0-0.1,0-0.1,0c0-0.1-0.1-0.2-0.1-0.3
		c-0.1-0.2-0.2-0.3-0.3-0.6c-0.1-0.1-0.1-0.2-0.2-0.2c0,0-0.1,0-0.3,0c0,0-0.2,0-0.5,0c-0.1,0-0.1,0-0.2,0l-1.4,0h-0.1
		c-0.2,0-0.3,0-0.3,0.1c-0.1,0.1-0.1,0.3-0.1,0.7c0,0,0,0.4,0,1.2v0.7c0,0,0.1,0,0.1,0h0.1h0.3c0.2,0,0.3,0,0.3,0c0,0,0.1,0,0.1,0
		c0.4,0,0.8,0,1.4,0c0.2,0,0.3-0.1,0.3-0.1c0-0.1,0.1-0.2,0.1-0.5c0-0.3,0.1-0.4,0.2-0.4c0,0,0.1,0,0.1,0c0,0,0,0.1,0,0.1
		c0,0,0,0.1,0,0.1c0,0.1,0,0.5,0,1.2c0,0.2,0,0.4,0,0.6s0,0.3,0,0.3c0,0,0,0.1,0,0.1c0,0-0.1,0-0.1,0h-0.1c-0.1-0.1-0.1-0.2-0.2-0.4
		c-0.1-0.3-0.2-0.5-0.3-0.6c-0.1-0.1-0.3-0.1-0.5-0.1h-0.3c-0.1,0-0.3,0-0.5,0h-0.3c-0.5,0-0.8,0-0.9,0l0,0.2l0,0.9l0,0.6l0,0.6
		c0,0.3,0,0.5,0.1,0.6c0.1,0.1,0.2,0.1,0.4,0.1l0.3,0c0,0,0.1,0,0.3,0c0.2,0,0.4,0,0.7,0c0.6,0,1.1,0,1.3-0.1
		c0.2-0.1,0.4-0.2,0.5-0.3c0.1-0.1,0.3-0.4,0.5-0.9c0.1-0.1,0.1-0.2,0.2-0.2c0,0,0.1,0,0.1,0c-0.1,0.3-0.2,0.5-0.2,0.7
		c0,0.2-0.1,0.5-0.1,0.7c0,0.1,0,0.2-0.1,0.3h-0.1l-1.4,0l-0.6,0l-1.5,0h-0.6c-0.1,0-0.2,0-0.2,0c-0.6,0-1,0-1.3,0
		c-0.1,0-0.1,0-0.1,0C181.9,118.3,181.9,118.3,181.9,118.2L181.9,118.2z M171.9,118c0.3,0.1,0.5,0.1,0.8,0.1c0.3,0,0.7-0.1,1-0.2
		c0.3-0.1,0.6-0.3,0.9-0.4c0.2-0.2,0.5-0.4,0.6-0.7c0.2-0.2,0.3-0.5,0.3-0.6c0.1-0.3,0.1-0.7,0.1-1.1c0-0.4-0.1-0.9-0.3-1.3
		c-0.1-0.3-0.3-0.6-0.7-0.9c-0.3-0.3-0.7-0.5-1.1-0.6c-0.4-0.1-0.9-0.2-1.4-0.2c-0.3,0-0.6,0-0.8,0.1c0,0,0,0-0.1,0.1
		c0,0.1,0,0.2,0,0.2c0,0,0,0.1,0,0.2c0,0.4,0,0.7,0,0.9l0,1.1c0,1.7,0,2.6,0.1,2.8C171.4,117.7,171.6,117.9,171.9,118 M169.3,118.2
		c0.1-0.1,0.3-0.1,0.4-0.1c0.2,0,0.4-0.1,0.5-0.2c0.1-0.2,0.1-0.7,0.1-1.4v-0.8l0-0.5l0-0.4l0-0.6l0-1.6c0-0.2,0-0.3-0.1-0.4
		c-0.1-0.1-0.3-0.2-0.6-0.2c-0.1,0-0.2-0.1-0.3-0.1c0,0-0.1-0.1-0.1-0.1c0.1,0,0.1,0,0.2,0h0.4h0.2c0.1,0,0.3,0,0.4,0
		c0.3,0,0.6,0,0.9,0c0.1,0,0.2,0,0.4,0c0.5,0,0.8,0,1,0c0.4,0,0.8,0,1.1,0.1c0.4,0.1,0.7,0.2,1.1,0.4c0.2,0.1,0.5,0.4,0.7,0.7
		c0.2,0.3,0.4,0.6,0.6,1c0.1,0.4,0.2,0.7,0.2,1.2c0,0.4-0.1,0.8-0.2,1.2c-0.1,0.4-0.3,0.7-0.6,1c-0.2,0.3-0.5,0.5-0.8,0.6
		c-0.3,0.1-0.7,0.3-1.2,0.4c-0.2,0-0.6,0.1-1.2,0.1c-0.4,0-0.7,0-0.9,0c-0.1,0-0.2,0-0.3,0c0,0,0,0-0.1,0l-2,0l0,0
		C169.3,118.3,169.3,118.3,169.3,118.2L169.3,118.2z M160.1,115.1c0.4,0,0.8,0,1.2,0c0.3,0,0.5,0,0.7,0c0-0.1-0.1-0.2-0.1-0.4
		c-0.2-0.6-0.3-0.9-0.4-1l-0.5-1.2l-0.1-0.1c0,0-0.1,0.2-0.2,0.5c-0.2,0.5-0.4,0.9-0.5,1.2c0,0.1-0.1,0.3-0.1,0.4
		c0,0.1-0.1,0.2-0.1,0.3C160.1,115,160.1,115.1,160.1,115.1L160.1,115.1z M157.7,118.1c0,0,0.1,0,0.1,0h0.1c0,0,0.1,0,0.1,0
		c0.3,0,0.4,0,0.5-0.1c0.1-0.1,0.2-0.2,0.3-0.3c0.2-0.3,0.4-0.8,0.6-1.4c0.1-0.3,0.2-0.5,0.2-0.5c0.1-0.2,0.2-0.4,0.2-0.6l0.5-1.3
		c0.1-0.2,0.2-0.7,0.5-1.4c0.1-0.2,0.2-0.4,0.3-0.7l0.1,0l0.2,0c0.1,0.3,0.3,0.6,0.4,0.9c0.1,0.2,0.2,0.4,0.3,0.8l0.8,2.1l0.4,1.1
		c0.2,0.6,0.4,1,0.4,1.2c0.1,0.1,0.1,0.2,0.2,0.3c0,0,0.1,0,0.2,0.1c0.1,0,0.2,0,0.2,0.1c0.2,0,0.3,0.1,0.3,0.1c0,0,0,0.1,0,0.1
		c0,0,0,0,0,0.1c-0.1,0-0.2,0-0.2,0c-0.2,0-0.5,0-0.9,0l-0.5,0l-0.6,0c0,0-0.1,0-0.1,0c0,0-0.1,0-0.1,0h-0.1c0,0-0.1,0-0.1,0
		c0-0.1,0-0.1,0-0.1c0,0,0.1,0,0.1,0l0.5,0c0.1,0,0.2,0,0.3-0.1c0-0.1,0-0.1,0-0.1c0-0.1,0-0.2-0.1-0.5c-0.1-0.2-0.1-0.3-0.2-0.5
		c0-0.1-0.2-0.6-0.5-1.5c-0.1,0-0.3,0-0.4,0l-1.1,0h-0.3c-0.1,0-0.2,0-0.4,0c0,0.1-0.1,0.2-0.1,0.2l-0.4,1.4
		c-0.2,0.5-0.3,0.8-0.3,0.9c0,0,0,0.1,0,0.1c0.1,0,0.2,0,0.3,0.1l0.7,0.1c0,0,0.1,0.1,0.1,0.1c0,0,0,0,0,0.1c-0.2,0-0.3,0-0.3,0
		c-0.3,0-0.6,0-0.9,0c-0.2,0-0.3,0-0.4,0c-0.1,0-0.2,0-0.4,0c-0.1,0-0.2,0-0.2,0c-0.1,0-0.2,0-0.3,0v0
		C157.7,118.2,157.7,118.2,157.7,118.1 M148.6,118c0.3,0.1,0.5,0.1,0.8,0.1c0.3,0,0.7-0.1,1-0.2c0.3-0.1,0.6-0.3,0.9-0.4
		c0.2-0.2,0.5-0.4,0.6-0.7c0.2-0.2,0.3-0.5,0.3-0.6c0.1-0.3,0.1-0.7,0.1-1.1c0-0.4-0.1-0.9-0.3-1.3c-0.1-0.3-0.3-0.6-0.7-0.9
		c-0.3-0.3-0.7-0.5-1.1-0.6c-0.4-0.1-0.9-0.2-1.4-0.2c-0.3,0-0.6,0-0.8,0.1c0,0,0,0-0.1,0.1c0,0.1,0,0.2,0,0.2c0,0,0,0.1,0,0.2
		c0,0.4,0,0.7,0,0.9l0,1.1c0,1.7,0,2.6,0.1,2.8C148.1,117.7,148.3,117.9,148.6,118 M146,118.2c0.1-0.1,0.3-0.1,0.4-0.1
		c0.2,0,0.4-0.1,0.5-0.2c0.1-0.2,0.1-0.7,0.1-1.4v-0.8l0-0.5l0-0.4l0-0.6l0-1.6c0-0.2,0-0.3-0.1-0.4c-0.1-0.1-0.3-0.2-0.6-0.2
		c-0.1,0-0.2-0.1-0.2-0.1c0,0-0.1-0.1-0.1-0.1c0.1,0,0.1,0,0.2,0h0.4h0.2c0.1,0,0.3,0,0.4,0c0.3,0,0.6,0,1,0c0.1,0,0.2,0,0.4,0
		c0.5,0,0.8,0,1,0c0.4,0,0.8,0,1.1,0.1c0.4,0.1,0.7,0.2,1.1,0.4c0.2,0.1,0.5,0.4,0.7,0.7c0.2,0.3,0.4,0.6,0.6,1
		c0.1,0.4,0.2,0.7,0.2,1.2c0,0.4-0.1,0.8-0.2,1.2c-0.1,0.4-0.3,0.7-0.6,1c-0.3,0.3-0.5,0.5-0.8,0.6c-0.3,0.1-0.7,0.3-1.2,0.4
		c-0.2,0-0.6,0.1-1.2,0.1c-0.4,0-0.7,0-0.9,0c-0.1,0-0.2,0-0.3,0c0,0,0,0-0.1,0l-2,0l0,0C146,118.3,146,118.3,146,118.2L146,118.2z
		 M135.6,118.3c0,0,0-0.1,0-0.1c0.3-0.1,0.5-0.1,0.8-0.1c0.2,0,0.3-0.1,0.3-0.1c0,0,0.1-0.2,0.1-0.5l0-1.3l0-0.9l0-1.2v-0.3
		c0-0.7,0-1.1,0-1.3c0,0,0-0.1,0-0.1c-0.1,0-0.2-0.1-0.2-0.1c-0.1,0-0.3-0.1-0.8-0.1c0,0,0-0.1,0-0.1c0,0,0,0,0-0.1
		c0.1,0,0.2,0,0.3,0l0.8,0l0.4,0l0.1,0c0,0,0.1,0,0.1,0c0.2,0,0.3,0,0.3,0l0.4,0c0.3,0,0.5,0,0.6,0c0,0.1,0,0.1,0,0.2
		c0,0-0.2,0-0.5,0c-0.3,0-0.5,0-0.5,0.1c-0.1,0-0.1,0.2-0.1,0.4c0,0.1,0,0.2,0,0.3v0.3l0,0.9v0.3l0,1.7l0,1.4l0,0.3
		c0,0.1,0,0.2,0.1,0.2c0.1,0,0.3,0,0.7,0h0.3l0.9,0c0.2,0,0.4,0,0.5-0.1c0.1,0,0.3-0.1,0.5-0.3c0.1-0.1,0.2-0.2,0.3-0.4
		c0,0,0-0.1,0.1-0.1c0.1-0.1,0.1-0.3,0.3-0.5h0.2c0,0.1,0,0.2-0.1,0.3c-0.1,0.5-0.2,0.9-0.2,1.2c0,0.1,0,0.1,0,0.2l-1.9-0.1
		c-1.6,0-2.6,0-2.9,0c-0.1,0-0.2,0-0.3,0H135.6z M126.7,111.9c0,0.1,0,0.1,0,0.1c0,0,0,0.1,0,0.1c-0.1,0-0.2,0-0.2,0
		c0,0-0.1,0-0.1,0c-0.1,0-0.1,0-0.1,0c-0.2,0-0.3,0-0.4,0.1c-0.1,0-0.1,0.1-0.1,0.1l0,0.6l0,2.5c0,0.9,0,1.5,0.1,1.7
		c0.1,0.2,0.2,0.4,0.3,0.6c0.1,0.1,0.3,0.3,0.6,0.4c0.3,0.1,0.5,0.1,0.8,0.1c0.6,0,1-0.1,1.3-0.2c0.3-0.2,0.5-0.4,0.7-0.7
		c0.1-0.3,0.2-0.7,0.2-1.3c0,0,0-0.1,0-0.4v-0.1c0-0.1,0-0.2,0-0.3c0-0.2,0-0.2,0-0.3l-0.1-1.4c0-0.5,0-0.8-0.1-0.9
		c0-0.1-0.1-0.2-0.1-0.2c-0.1-0.1-0.4-0.2-0.7-0.2c0-0.1,0-0.1,0-0.1c0.1,0,0.3,0,0.4,0c0.1,0,0.3,0,0.4,0c0.2,0,0.3,0,0.3,0l0.8,0
		l0.2,0l0,0.2c-0.4,0.1-0.7,0.1-0.7,0.2c-0.1,0.1-0.1,0.2-0.1,0.4c0,0.1,0,0.3,0,0.7l0,1l0,0.4l0,0.5c0,0.7,0,1.1-0.1,1.3
		c-0.1,0.3-0.1,0.6-0.2,0.8c-0.1,0.2-0.2,0.4-0.4,0.5c-0.2,0.2-0.4,0.3-0.7,0.4c-0.3,0.1-0.6,0.1-0.9,0.1c-0.5,0-0.8,0-1-0.1
		c-0.4-0.1-0.7-0.3-0.9-0.5c-0.2-0.2-0.4-0.4-0.5-0.6c-0.1-0.2-0.2-0.6-0.2-1.1v-0.4l0-1.4l0-1.1v-0.8c0-0.2,0-0.3-0.1-0.4
		c0-0.1-0.1-0.1-0.2-0.1h-0.3c-0.2,0-0.4,0-0.4-0.1c0,0,0-0.1,0-0.1c0,0,0-0.1,0-0.1c0,0,0.1,0,0.1,0h0.1h0.3h0.8L126.7,111.9z
		 M118.7,112.2c0,0.3,0.1,0.5,0.1,0.8v0.2c0,0-0.1,0-0.1,0c0,0,0,0-0.1,0c-0.1-0.4-0.4-0.7-0.7-0.9c-0.3-0.2-0.7-0.3-1.2-0.3
		c-0.2,0-0.5,0-0.6,0.1c-0.3,0.1-0.6,0.2-0.8,0.4c-0.2,0.2-0.4,0.4-0.6,0.7c-0.2,0.2-0.3,0.6-0.4,0.9c-0.1,0.4-0.1,0.7-0.1,1.1
		c0,0.7,0.1,1.3,0.3,1.8c0.2,0.5,0.5,0.8,0.9,1c0.4,0.2,0.8,0.3,1.1,0.3l0.2,0c0.3,0,0.5-0.1,0.6-0.1c0.2-0.1,0.4-0.2,0.6-0.2
		c0.2-0.1,0.3-0.2,0.5-0.4c0.2-0.2,0.3-0.4,0.4-0.6l0.1,0c0,0,0,0,0.1,0c0,0.1,0,0.1,0,0.2c-0.1,0.6-0.2,1-0.3,1.2
		c-0.1,0-0.1,0-0.2,0.1c-0.4,0.1-0.9,0.2-1.6,0.2c-0.5,0-0.9,0-1.2-0.1c-0.3-0.1-0.5-0.2-0.9-0.3c-0.3-0.2-0.6-0.3-0.8-0.6
		c-0.2-0.2-0.4-0.6-0.6-0.9c-0.1-0.4-0.2-0.8-0.2-1.2c0-0.4,0.1-0.8,0.2-1.1c0.1-0.3,0.3-0.6,0.5-1c0.2-0.3,0.5-0.6,0.8-0.8
		c0.3-0.2,0.7-0.4,1.1-0.5c0.3-0.1,0.7-0.1,1.2-0.1c0.4,0,0.7,0.1,1,0.1C118.4,112,118.6,112.1,118.7,112.2 M104,115.1
		c0.4,0,0.8,0,1.2,0c0.3,0,0.5,0,0.7,0c0-0.1-0.1-0.2-0.1-0.4c-0.2-0.6-0.3-0.9-0.4-1l-0.5-1.2l-0.1-0.1c0,0-0.1,0.2-0.2,0.5
		c-0.2,0.5-0.4,0.9-0.5,1.2c0,0.1-0.1,0.3-0.1,0.4c-0.1,0.1-0.1,0.2-0.1,0.3C104.1,115,104,115.1,104,115.1L104,115.1z M101.7,118.1
		c0,0,0.1,0,0.1,0h0.1c0,0,0.1,0,0.1,0c0.3,0,0.4,0,0.5-0.1c0.1-0.1,0.2-0.2,0.3-0.3c0.2-0.3,0.4-0.8,0.6-1.4
		c0.1-0.3,0.2-0.5,0.2-0.5c0.1-0.2,0.2-0.4,0.2-0.6l0.5-1.3c0.1-0.2,0.3-0.7,0.5-1.4c0.1-0.2,0.2-0.4,0.2-0.7l0.1,0l0.2,0
		c0.1,0.3,0.3,0.6,0.4,0.9c0.1,0.2,0.2,0.4,0.3,0.8l0.8,2.1l0.4,1.1c0.2,0.6,0.4,1,0.4,1.2c0.1,0.1,0.1,0.2,0.2,0.3
		c0,0,0.1,0,0.2,0.1c0.1,0,0.2,0,0.2,0.1c0.2,0,0.3,0.1,0.3,0.1c0,0,0,0.1,0,0.1c0,0,0,0,0,0.1c-0.1,0-0.2,0-0.2,0
		c-0.2,0-0.5,0-0.9,0l-0.5,0l-0.6,0c0,0-0.1,0-0.1,0c0,0-0.1,0-0.1,0H106c0,0-0.1,0-0.1,0c0-0.1,0-0.1,0-0.1c0,0,0.1,0,0.1,0l0.5,0
		c0.1,0,0.2,0,0.3-0.1c0-0.1,0-0.1,0-0.1c0-0.1,0-0.2-0.1-0.5c-0.1-0.2-0.1-0.3-0.2-0.5c0-0.1-0.2-0.6-0.5-1.5c-0.1,0-0.3,0-0.4,0
		l-1.1,0h-0.3c-0.1,0-0.2,0-0.4,0c0,0.1-0.1,0.2-0.1,0.2l-0.4,1.4c-0.2,0.5-0.3,0.8-0.3,0.9c0,0,0,0.1,0,0.1c0.1,0,0.2,0,0.3,0.1
		l0.7,0.1c0,0,0.1,0.1,0.1,0.1c0,0,0,0,0,0.1c-0.1,0-0.3,0-0.3,0c-0.3,0-0.6,0-0.9,0c-0.2,0-0.3,0-0.3,0c-0.1,0-0.2,0-0.4,0
		c-0.1,0-0.2,0-0.2,0c-0.1,0-0.2,0-0.3,0v0C101.6,118.2,101.6,118.2,101.7,118.1 M92.4,118.4l0-0.1c0.1,0,0.2-0.1,0.4-0.1
		c0.2,0,0.3-0.1,0.4-0.1c0.1,0,0.1-0.1,0.2-0.1c0-0.1,0-0.4,0-0.8l-0.1-3.9l0-0.6c0-0.1,0-0.2-0.1-0.3c0-0.1-0.2-0.1-0.4-0.1
		c-0.2,0-0.3-0.1-0.4-0.1c0,0-0.1-0.1-0.1-0.1c0,0,0,0,0-0.1c0,0,0.1,0,0.1,0c0,0,0.2,0,0.3,0H93c0.1,0,0.2,0,0.4,0h0.7l1.4,0
		l1.5-0.1h0.1l0.2,0c0.1,0,0.1,0,0.2,0c0,0.1,0,0.1,0,0.1v0.2l0,0.9c0,0,0,0.1,0,0.1c-0.1,0-0.1,0-0.1,0c0,0-0.1,0-0.1,0
		c0,0,0-0.1,0-0.2c0-0.1-0.1-0.3-0.2-0.6c0-0.1-0.1-0.2-0.2-0.2c-0.2-0.1-0.5-0.1-1-0.1c-0.2,0-0.4,0-0.6,0c-0.2,0-0.3,0-0.4,0
		l-0.4,0c-0.2,0-0.3,0-0.4,0.1c-0.1,0-0.1,0.1-0.1,0.2v0.1c0,0.2,0,0.4,0,0.6l0,1.4c0,0.1,0,0.3,0,0.4l0.1,0l0.3,0h1
		c0.4,0,0.7,0,0.8-0.1c0.1,0,0.2-0.1,0.2-0.2c0,0,0.1-0.2,0.1-0.4l0.1-0.4c0,0,0.1,0,0.1,0c0,0,0,0,0.1,0c0,0.1,0,0.2,0,0.4l0.1,1.8
		c-0.1,0-0.1,0-0.1,0l-0.1,0c-0.1-0.3-0.1-0.6-0.3-0.8c0-0.1-0.1-0.1-0.1-0.1c-0.1,0-0.5,0-1.2,0c-0.2,0-0.4,0-0.5,0
		c-0.2,0-0.3,0-0.4,0h-0.1c-0.1,0-0.2,0-0.2,0c0,0,0,0.1,0,0.1v0.3c0,0,0,0.2,0,0.5l0,1.7c0,0.1,0,0.1,0,0.2
		c0.1,0.1,0.2,0.1,0.4,0.1c0.2,0,0.4,0.1,0.5,0.1c0.1,0,0.1,0.1,0.1,0.1c0,0,0,0,0,0.1c0,0,0,0-0.1,0.1c-0.3-0.1-0.7-0.1-1.1-0.1
		c-0.3,0-0.5,0-0.8,0.1C93,118.4,92.7,118.4,92.4,118.4L92.4,118.4z"/>
	<path class="st0" d="M325.1,111.9c0,0.1,0,0.1,0,0.1c0,0,0,0,0,0.1c-0.1,0-0.2,0-0.2,0c0,0-0.1,0-0.1,0c-0.1,0-0.1,0-0.1,0
		c-0.2,0-0.3,0-0.4,0.1c-0.1,0-0.1,0.1-0.1,0.1l-0.1,0.6l0,2.5c0,0.9,0,1.5,0.1,1.7c0.1,0.2,0.2,0.4,0.3,0.6
		c0.1,0.1,0.3,0.3,0.6,0.4c0.3,0.1,0.5,0.1,0.8,0.1c0.6,0,1-0.1,1.3-0.2c0.3-0.2,0.5-0.4,0.7-0.7c0.1-0.3,0.2-0.7,0.2-1.3
		c0,0,0-0.1,0-0.4v-0.1c0-0.1,0-0.2,0-0.3c0-0.2,0-0.2,0-0.3l-0.1-1.4c0-0.5-0.1-0.8-0.1-0.9c0-0.1-0.1-0.2-0.1-0.2
		c-0.1-0.1-0.4-0.2-0.7-0.2c0-0.1,0-0.1,0-0.1c0.1,0,0.3,0,0.4,0c0.1,0,0.3,0,0.4,0c0.2,0,0.3,0,0.4,0l0.8,0l0.2,0l0,0.2
		c-0.4,0.1-0.7,0.1-0.7,0.2c-0.1,0.1-0.1,0.2-0.1,0.4c0,0.1,0,0.3,0,0.7l0,1l0,0.4l0,0.5c0,0.7,0,1.1-0.1,1.3
		c-0.1,0.3-0.1,0.6-0.2,0.8c-0.1,0.2-0.2,0.4-0.4,0.5c-0.2,0.2-0.4,0.3-0.7,0.4c-0.3,0.1-0.6,0.1-0.9,0.1c-0.5,0-0.8,0-1-0.1
		c-0.4-0.1-0.7-0.3-0.9-0.5c-0.2-0.2-0.4-0.4-0.5-0.6c-0.1-0.2-0.2-0.6-0.2-1.1v-0.3l0-1.4l0-1.1v-0.8c0-0.2,0-0.3-0.1-0.4
		c0-0.1-0.1-0.1-0.2-0.1h-0.3c-0.2,0-0.4,0-0.4-0.1c0,0,0-0.1,0-0.1c0,0,0-0.1,0-0.1c0,0,0.1,0,0.1,0h0.1h0.3h0.8L325.1,111.9z
		 M312.3,116.1L312.3,116.1l0.5,0l0.7,0l0.5,0l0.3,0c0.2,0,0.4,0,0.5,0l0,0.4c-0.2,0-0.4,0-0.5,0c-0.1,0-0.2,0-0.4,0
		c-0.2,0-0.3,0-0.3,0l-0.2,0h-0.2c-0.4,0-0.7,0-0.9-0.1l0-0.1C312.3,116.3,312.3,116.2,312.3,116.1 M300.2,115.1c0.4,0,0.8,0,1.2,0
		c0.3,0,0.5,0,0.7,0c0-0.1-0.1-0.2-0.1-0.4c-0.2-0.6-0.3-0.9-0.4-1l-0.5-1.2l0-0.1c0,0-0.1,0.2-0.2,0.5c-0.2,0.5-0.4,0.9-0.5,1.2
		c0,0.1-0.1,0.3-0.1,0.4c0,0.1-0.1,0.2-0.1,0.3C300.3,115,300.2,115.1,300.2,115.1L300.2,115.1z M297.8,118.1c0.1,0,0.1,0,0.1,0h0.1
		c0,0,0.1,0,0.1,0c0.3,0,0.4,0,0.5-0.1c0.1-0.1,0.2-0.2,0.3-0.3c0.2-0.3,0.4-0.8,0.6-1.4c0.1-0.3,0.2-0.5,0.2-0.5
		c0.1-0.2,0.2-0.4,0.2-0.6l0.5-1.3c0.1-0.2,0.3-0.7,0.5-1.4c0.1-0.2,0.2-0.4,0.3-0.7l0.1,0l0.2,0c0.1,0.3,0.3,0.6,0.4,0.9
		c0.1,0.2,0.2,0.4,0.3,0.8l0.8,2.1l0.4,1.1c0.2,0.6,0.3,1,0.4,1.2c0.1,0.1,0.1,0.2,0.2,0.3c0,0,0.1,0,0.2,0.1c0.1,0,0.2,0,0.2,0.1
		c0.2,0,0.3,0.1,0.3,0.1c0,0,0,0.1,0,0.1c0,0,0,0,0,0.1c-0.1,0-0.2,0-0.2,0c-0.2,0-0.5,0-0.9,0l-0.5,0l-0.6,0c0,0-0.1,0-0.1,0
		c0,0-0.1,0-0.1,0h-0.1c0,0-0.1,0-0.1,0c0-0.1,0-0.1,0-0.1c0,0,0.1,0,0.1,0l0.5,0c0.1,0,0.2,0,0.3-0.1c0-0.1,0-0.1,0-0.1
		c0-0.1,0-0.2-0.1-0.5c-0.1-0.2-0.1-0.3-0.2-0.5c0-0.1-0.2-0.6-0.5-1.5c-0.1,0-0.3,0-0.4,0l-1.1,0h-0.3c-0.1,0-0.2,0-0.4,0
		c0,0.1-0.1,0.2-0.1,0.2l-0.4,1.4c-0.2,0.5-0.3,0.8-0.3,0.9c0,0,0,0.1,0,0.1c0.1,0,0.2,0,0.3,0.1l0.7,0.1c0,0,0.1,0.1,0.1,0.1
		c0,0,0,0,0,0.1c-0.2,0-0.3,0-0.3,0c-0.3,0-0.6,0-0.9,0c-0.2,0-0.3,0-0.3,0c-0.1,0-0.2,0-0.4,0c-0.1,0-0.2,0-0.2,0
		c-0.1,0-0.2,0-0.3,0v0C297.8,118.2,297.8,118.2,297.8,118.1 M285.6,112.2l0-0.2c0.5,0,0.9,0,1.1,0c0.1,0,0.2,0,0.2,0
		c0,0,0.1,0,0.1,0c0.1,0.1,0.3,0.2,0.4,0.4c0,0,0.1,0.1,0.1,0.1l1.1,1.2l0.2,0.2c0.2,0.2,0.4,0.5,0.6,0.6c0.2,0.2,0.5,0.5,1,1.1
		l1.2,1.3c0.1,0.1,0.3,0.3,0.4,0.5l0-0.1c0-0.5,0-0.7,0-0.7l0-0.3l0-0.5v-0.2c0-0.1,0-0.6,0-1.3c0-0.1,0-0.3,0-0.5
		c0-0.3,0-0.5,0-0.7c0-0.4,0-0.6-0.1-0.6c0,0-0.2-0.1-0.4-0.1c-0.1,0-0.2,0-0.3,0c-0.1,0-0.2,0-0.3,0c0,0-0.1,0-0.1-0.1
		c0-0.1,0-0.1,0-0.2c0.1,0,0.2,0,0.3,0c0.1,0,0.2,0,0.3,0c0.1,0,0.3,0,0.4,0c0.2,0,0.4,0,0.7,0c0.2,0,0.3,0,0.4,0h0.1l0,0.2
		c-0.1,0-0.1,0-0.2,0c-0.1,0-0.2,0-0.3,0c-0.1,0-0.2,0.1-0.2,0.1c-0.1,0.1-0.1,0.2-0.1,0.3l0.1,1.6l0,0.7l0,0.2l0,1
		c0,0.7,0,1.3,0,1.8c0,0.1,0,0.4,0,0.7l-0.2,0c-0.1-0.1-0.5-0.6-1.2-1.3c-0.2-0.2-0.3-0.3-0.3-0.3l-0.4-0.5
		c-0.2-0.2-0.3-0.3-0.3-0.3c-0.1,0-0.1-0.1-0.1-0.1c-0.4-0.4-0.8-0.9-1.4-1.6c-0.2-0.2-0.4-0.4-0.7-0.8c-0.2-0.2-0.3-0.4-0.4-0.4
		c0-0.1-0.1-0.1-0.2-0.2l0,0.2c0,0.6,0,1.5,0.1,2.7l0,1.7c0,0.1,0,0.3,0,0.4l0.2,0c0.3,0,0.6,0.1,0.9,0.1c0,0,0,0,0.1,0l0,0.2
		c0,0-0.1,0-0.1,0c0,0-0.1,0-0.1,0c-0.3,0-0.7,0-1.2,0c-0.3,0-0.6,0-0.9,0l-0.1,0c0,0-0.1,0-0.1,0l0-0.2l0.1-0.1l0.2,0
		c0.2,0,0.4-0.1,0.5-0.1c0.1,0,0.1-0.1,0.2-0.1c0-0.2,0.1-0.6,0.1-1c0-0.2,0-0.6,0-1.1v-0.7l0-1.4c0-0.6,0-1-0.1-1.1
		c0-0.1-0.1-0.1-0.1-0.2c-0.1-0.1-0.3-0.1-0.5-0.2C285.8,112.2,285.7,112.2,285.6,112.2 M277.6,118.1c0.1,0,0.1,0,0.2-0.1
		c0.5,0,0.8-0.1,0.9-0.2c0.1-0.1,0.1-0.5,0.1-1.3v-0.5v-0.5l0-0.6l0-0.4l0-0.4v-0.5l0-0.2l0-0.3c0-0.1,0-0.1,0-0.2
		c0-0.2,0-0.4,0-0.7c0,0,0-0.1-0.1-0.1c-0.1-0.1-0.3-0.1-0.6-0.1c-0.3,0-0.4,0-0.5-0.1c0,0,0-0.1,0-0.2h0.4l1.3,0c0.3,0,0.8,0,1.4,0
		c0,0.1,0,0.1,0,0.2c-0.1,0-0.2,0-0.3,0.1c-0.3,0-0.5,0.1-0.6,0.1c0,0-0.1,0-0.1,0.1c0,0.1-0.1,0.2-0.1,0.3l0,0.6l0,2.2v0.9
		c0,0.3,0,0.5,0,0.6c0,0.4,0,0.6,0,0.7c0,0.1,0.1,0.2,0.1,0.2c0,0,0.1,0.1,0.2,0.1c0.2,0,0.3,0.1,0.4,0.1c0.2,0,0.3,0,0.4,0.1
		c0,0,0,0.1,0,0.1v0c-0.3,0-0.5,0-0.7,0c-0.1,0-0.2,0-0.4,0l-0.7,0l-1.2,0h-0.1L277.6,118.1z M272.3,112.2c0,0.3,0.1,0.5,0.1,0.8
		c0,0.1,0,0.1,0,0.2c0,0-0.1,0-0.1,0c0,0,0,0-0.1,0c-0.1-0.4-0.4-0.7-0.7-0.9c-0.3-0.2-0.7-0.3-1.2-0.3c-0.3,0-0.5,0-0.6,0.1
		c-0.3,0.1-0.6,0.2-0.8,0.4c-0.2,0.2-0.4,0.4-0.6,0.7c-0.2,0.2-0.3,0.6-0.4,0.9c-0.1,0.4-0.1,0.7-0.1,1.1c0,0.7,0.1,1.3,0.3,1.8
		c0.2,0.5,0.5,0.8,0.9,1c0.4,0.2,0.8,0.3,1.1,0.3l0.2,0c0.3,0,0.4-0.1,0.6-0.1c0.2-0.1,0.4-0.2,0.6-0.2c0.2-0.1,0.3-0.2,0.5-0.4
		c0.1-0.2,0.3-0.4,0.4-0.6l0.1,0c0,0,0,0,0.1,0c0,0.1,0,0.1,0,0.2c-0.1,0.6-0.2,1-0.3,1.2c-0.1,0-0.1,0-0.2,0.1
		c-0.4,0.1-0.9,0.2-1.6,0.2c-0.5,0-0.9,0-1.2-0.1c-0.3-0.1-0.5-0.2-0.9-0.3c-0.3-0.1-0.6-0.3-0.8-0.6c-0.2-0.2-0.4-0.6-0.6-0.9
		c-0.1-0.4-0.2-0.8-0.2-1.2c0-0.4,0.1-0.8,0.2-1.1c0.1-0.3,0.3-0.6,0.5-1c0.2-0.3,0.5-0.6,0.8-0.8c0.3-0.2,0.7-0.4,1.1-0.5
		c0.3-0.1,0.7-0.1,1.2-0.1c0.4,0,0.7,0.1,1,0.1C272,112,272.2,112.1,272.3,112.2 M258.5,118.1c0.1,0,0.1,0,0.2-0.1
		c0.5,0,0.8-0.1,0.9-0.2c0.1-0.1,0.1-0.5,0.1-1.3l0-0.5v-0.5l0-0.6l0-0.4l0-0.4v-0.5l0-0.2l0-0.3c0-0.1,0-0.1,0-0.2
		c0-0.2,0-0.4,0-0.7c0,0,0-0.1-0.1-0.1c-0.1-0.1-0.3-0.1-0.6-0.1c-0.3,0-0.4,0-0.5-0.1c0,0,0-0.1,0-0.2h0.4l1.3,0c0.3,0,0.8,0,1.4,0
		c0,0.1,0,0.1,0,0.2c-0.1,0-0.2,0-0.3,0.1c-0.3,0-0.5,0.1-0.6,0.1c0,0-0.1,0-0.1,0.1c0,0.1-0.1,0.2-0.1,0.3l0,0.6l0,2.2v0.9
		c0,0.3,0,0.5,0,0.6c0,0.4,0,0.6,0,0.7c0,0.1,0,0.2,0.1,0.2c0,0,0.1,0.1,0.2,0.1c0.2,0,0.3,0.1,0.4,0.1c0.2,0,0.3,0,0.4,0.1
		c0,0,0,0.1,0,0.1v0c-0.3,0-0.5,0-0.7,0c-0.1,0-0.2,0-0.4,0l-0.7,0l-1.2,0h-0.1L258.5,118.1z M248.5,118c0.3,0.1,0.5,0.1,0.8,0.1
		c0.3,0,0.7-0.1,1-0.2c0.3-0.1,0.6-0.3,0.9-0.4c0.2-0.2,0.4-0.4,0.6-0.7c0.2-0.2,0.3-0.5,0.3-0.6c0.1-0.3,0.1-0.7,0.1-1.1
		c0-0.4-0.1-0.9-0.3-1.3c-0.1-0.3-0.3-0.6-0.7-0.9c-0.3-0.3-0.7-0.5-1.1-0.6c-0.4-0.1-0.9-0.2-1.4-0.2c-0.3,0-0.6,0-0.8,0.1
		c0,0,0,0-0.1,0.1c0,0.1,0,0.2,0,0.2c0,0,0,0.1,0,0.1c0,0.4,0,0.7,0,0.9l0,1.1c0,1.7,0,2.6,0.1,2.8
		C248.1,117.7,248.2,117.9,248.5,118 M246,118.2c0.1-0.1,0.3-0.1,0.4-0.1c0.2,0,0.4-0.1,0.5-0.2c0.1-0.2,0.1-0.7,0.1-1.4v-0.8l0-0.5
		l0-0.4l0-0.6l0-1.6c0-0.2,0-0.3-0.1-0.4c-0.1-0.1-0.3-0.2-0.6-0.2c-0.1,0-0.2-0.1-0.3-0.1c0,0,0-0.1-0.1-0.1c0.1,0,0.1,0,0.2,0h0.4
		h0.2c0.1,0,0.3,0,0.4,0c0.3,0,0.6,0,0.9,0c0.1,0,0.2,0,0.4,0c0.5,0,0.8,0,1,0c0.4,0,0.8,0,1.1,0.1c0.4,0.1,0.7,0.2,1.1,0.4
		c0.2,0.1,0.5,0.4,0.7,0.6c0.2,0.3,0.4,0.6,0.6,1c0.1,0.4,0.2,0.7,0.2,1.2c0,0.4-0.1,0.8-0.2,1.2c-0.1,0.4-0.3,0.7-0.6,1
		c-0.3,0.3-0.5,0.5-0.8,0.6c-0.3,0.1-0.7,0.3-1.2,0.4c-0.2,0-0.6,0.1-1.2,0.1c-0.4,0-0.7,0-0.9,0c-0.1,0-0.2,0-0.3,0c0,0,0,0-0.1,0
		l-2,0l0,0C246,118.3,246,118.3,246,118.2L246,118.2z M234.9,118.2C234.9,118.2,234.9,118.2,234.9,118.2c0.1-0.1,0.2-0.1,0.4-0.1
		c0.3,0,0.5,0,0.6-0.1c0-0.1,0.1-0.2,0.1-0.3l0-0.3l0-1.3l0-0.6l0-1.3l0-1.4c0-0.3,0-0.5-0.1-0.6c-0.1-0.1-0.2-0.1-0.5-0.1
		c-0.1,0-0.2,0-0.3,0c0,0-0.1-0.1-0.1-0.1c0,0,0-0.1,0-0.1c0,0,0.1,0,0.1,0c0,0,0.1,0,0.2,0c0.2,0,0.4,0,0.6,0l0.4,0l0.9,0
		c0.4,0,0.8,0,1,0c0.2,0,0.4,0,0.5,0c0.1,0,0.3,0,0.6,0h0.7l0.1,0l0.4,0l0,0c0,0,0,0.1,0,0.1c0,0.1,0,0.1,0,0.2c0,0.1,0,0.2,0,0.2
		c0,0.3,0,0.6,0,0.9c0,0,0,0,0,0c0,0-0.1,0-0.1,0c0-0.1-0.1-0.2-0.1-0.3c-0.1-0.2-0.2-0.3-0.3-0.6c-0.1-0.1-0.1-0.2-0.2-0.2
		c0,0-0.1,0-0.3,0c0,0-0.2,0-0.5,0c-0.1,0-0.1,0-0.2,0l-1.4,0h-0.1c-0.2,0-0.3,0-0.3,0.1c-0.1,0.1-0.1,0.3-0.1,0.7c0,0,0,0.4,0,1.2
		v0.7c0,0,0.1,0,0.1,0h0.1h0.3c0.2,0,0.3,0,0.3,0c0,0,0.1,0,0.1,0c0.4,0,0.8,0,1.4,0c0.2,0,0.3-0.1,0.3-0.1c0.1-0.1,0.1-0.2,0.1-0.5
		c0-0.3,0.1-0.4,0.2-0.4c0,0,0.1,0,0.1,0c0,0,0,0.1,0,0.1c0,0,0,0.1,0,0.1c0,0.1,0,0.5,0,1.2c0,0.2,0,0.4,0,0.6c0,0.2,0,0.3,0,0.3
		c0,0,0,0.1,0,0.1c0,0,0,0,0,0h-0.1c0-0.1-0.1-0.2-0.2-0.4c-0.1-0.3-0.2-0.5-0.3-0.6c-0.1-0.1-0.2-0.1-0.5-0.1h-0.3
		c-0.1,0-0.3,0-0.6,0h-0.3c-0.5,0-0.8,0-0.9,0l0,0.2l0,0.9l0,0.6l0,0.6c0,0.3,0,0.5,0.1,0.6c0.1,0.1,0.2,0.1,0.4,0.1l0.3,0
		c0,0,0.1,0,0.3,0c0.2,0,0.4,0,0.7,0c0.6,0,1.1,0,1.3-0.1c0.2-0.1,0.4-0.2,0.5-0.3c0.1-0.1,0.3-0.4,0.5-0.9c0.1-0.1,0.1-0.2,0.2-0.2
		c0,0,0.1,0,0.1,0c-0.1,0.3-0.2,0.5-0.2,0.7c0,0.2-0.1,0.5-0.1,0.7c0,0.1,0,0.2-0.1,0.3h-0.1l-1.4,0l-0.6,0l-1.5,0h-0.6
		c-0.1,0-0.1,0-0.2,0c-0.6,0-1,0-1.3,0c0,0-0.1,0-0.1,0C234.9,118.3,234.9,118.3,234.9,118.2L234.9,118.2z M221.7,118.2
		c0.1-0.1,0.3-0.1,0.6-0.1c0.2,0,0.3,0,0.4-0.1c0,0,0,0,0.1-0.1c0-0.1,0.1-0.5,0.1-1c0-0.7,0.1-1.7,0.1-2.8c0.1-0.9,0.1-1.5,0.1-1.7
		v-0.1c-0.2,0-0.6-0.1-1.1-0.2c0-0.1-0.1-0.1-0.1-0.1c0,0,0-0.1,0-0.1c0.1,0,0.1,0,0.1,0c0,0,0.1,0,0.2,0c0.2,0,0.4,0,0.7,0
		c0.1,0,0.3,0,0.5,0c0.2,0,0.3,0,0.3,0c0,0,0.1,0,0.2,0c0,0,0.1,0.1,0.1,0.1l0.2,0.5l1.4,3.1l0.6,1.3c0.5-0.9,0.8-1.7,1.1-2.4
		c0-0.1,0-0.1,0.1-0.1c0-0.1,0.1-0.1,0.1-0.2c0-0.1,0.1-0.3,0.3-0.8c0.1-0.2,0.1-0.3,0.2-0.5c0.2-0.5,0.3-0.8,0.3-0.9
		c0.1,0,0.1,0,0.2,0c0.1,0,0.1,0,0.2,0c0.2,0,0.5,0,0.9,0c0.3,0,0.5,0,0.6,0c0,0,0,0.1,0,0.1c0,0,0,0.1,0,0.1
		c-0.1,0.1-0.2,0.1-0.4,0.1c-0.3,0-0.5,0-0.6,0.1c-0.1,0-0.1,0.1-0.2,0.1c0,0,0,0.2-0.1,0.5l0,0.2l0,0.2c0,0.5,0,1.3,0,2.5l0,1
		l0,0.6c0,0.3,0,0.4,0,0.4c0,0,0.1,0.1,0.2,0.1c0.2,0.1,0.5,0.1,0.9,0.2c0,0,0,0,0,0.1c0,0,0,0.1,0,0.1h-0.2c-0.2,0-0.4,0-0.6,0
		c-0.2,0-0.4,0-0.4,0c-0.7,0-1.1,0-1.4,0c-0.1,0-0.2,0-0.3,0c0,0,0,0-0.1,0v-0.1c0,0,0-0.1,0-0.1c0.1,0,0.3-0.1,0.4-0.1
		c0.2-0.1,0.4-0.1,0.5-0.2c0-0.1,0-0.4,0-0.8l0-1c0-0.1,0-0.3,0-0.6c0-0.3,0-0.8,0-1.5c0-0.5,0-0.9,0-1.2c-0.1,0.1-0.2,0.4-0.3,0.8
		l-0.1,0.2l0,0l-0.7,1.8l-0.3,0.7l-0.3,0.8c-0.2,0.4-0.3,0.7-0.4,1c-0.1,0.1-0.1,0.2-0.1,0.3l-0.1,0c-0.4-1.1-0.8-2.2-1.4-3.4
		c-0.5-1.2-0.9-1.9-1.1-2.3c0,0.1,0,0.6-0.1,1.3c0,0.8-0.1,1.8-0.1,2.8c0,0.3,0,0.7,0.1,1.1c0,0.1,0.1,0.2,0.1,0.3
		c0.1,0.1,0.3,0.1,0.6,0.1c0.1,0,0.3,0,0.4,0c0,0.1,0,0.1,0,0.1c0,0,0,0,0,0.1l-1.6-0.1c-0.1,0-0.3,0-0.5,0c-0.1,0-0.3,0-0.6,0
		L221.7,118.2z M208,118.2C208.1,118.2,208.1,118.2,208,118.2c0.1-0.1,0.2-0.1,0.4-0.1c0.3,0,0.5,0,0.6-0.1c0-0.1,0.1-0.2,0.1-0.3
		l0-0.3l0-1.3l0-0.6l0-1.3l0-1.4c0-0.3,0-0.5-0.1-0.6c-0.1-0.1-0.2-0.1-0.5-0.1c-0.1,0-0.2,0-0.3,0c0,0-0.1-0.1-0.1-0.1
		c0,0,0-0.1,0-0.1c0,0,0.1,0,0.1,0c0.1,0,0.1,0,0.2,0c0.2,0,0.4,0,0.6,0l0.4,0l0.9,0c0.4,0,0.8,0,1,0c0.2,0,0.4,0,0.5,0
		c0.1,0,0.3,0,0.6,0h0.7l0.1,0l0.4,0l0,0c0,0,0,0.1,0,0.1c0,0.1,0,0.1,0,0.2c0,0.1,0,0.2,0,0.2c0,0.3,0,0.6,0,0.9c0,0,0,0,0,0
		c0,0-0.1,0-0.1,0c0-0.1-0.1-0.2-0.1-0.3c-0.1-0.2-0.2-0.3-0.3-0.6c-0.1-0.1-0.1-0.2-0.2-0.2c-0.1,0-0.1,0-0.3,0c0,0-0.2,0-0.5,0
		c-0.1,0-0.1,0-0.2,0l-1.4,0h-0.1c-0.2,0-0.3,0-0.3,0.1c-0.1,0.1-0.1,0.3-0.1,0.7c0,0,0,0.4,0,1.2v0.7c0,0,0.1,0,0.1,0h0.1h0.3
		c0.2,0,0.3,0,0.3,0c0,0,0.1,0,0.1,0c0.4,0,0.8,0,1.4,0c0.2,0,0.3-0.1,0.3-0.1c0-0.1,0.1-0.2,0.1-0.5c0-0.3,0.1-0.4,0.2-0.4
		c0,0,0.1,0,0.1,0c0,0,0,0.1,0,0.1c0,0,0,0.1,0,0.1c0,0.1,0,0.5,0,1.2c0,0.2,0,0.4,0,0.6c0,0.2,0,0.3,0,0.3c0,0,0,0.1,0,0.1
		c0,0,0,0,0,0h-0.1c-0.1-0.1-0.1-0.2-0.2-0.4c-0.1-0.3-0.2-0.5-0.3-0.6c-0.1-0.1-0.3-0.1-0.5-0.1h-0.3c-0.1,0-0.3,0-0.5,0h-0.3
		c-0.5,0-0.8,0-0.9,0l0,0.2l0,0.9l0,0.6l0,0.6c0,0.3,0,0.5,0.1,0.6c0.1,0.1,0.2,0.1,0.4,0.1l0.3,0c0,0,0.1,0,0.3,0
		c0.2,0,0.4,0,0.7,0c0.6,0,1.1,0,1.3-0.1c0.2-0.1,0.4-0.2,0.5-0.3c0.1-0.1,0.3-0.4,0.5-0.9c0.1-0.1,0.1-0.2,0.2-0.2c0,0,0.1,0,0.1,0
		c-0.1,0.3-0.2,0.5-0.2,0.7c0,0.2-0.1,0.5-0.1,0.7c0,0.1,0,0.2-0.1,0.3h-0.1l-1.4,0l-0.6,0l-1.5,0h-0.6c-0.1,0-0.1,0-0.2,0
		c-0.6,0-1,0-1.3,0c-0.1,0-0.1,0-0.1,0C208.1,118.3,208,118.3,208,118.2L208,118.2z"/>
	<path class="st0" d="M363.9,112.2l0.1,0.8c0,0.2,0,0.4,0,0.5l-0.1,0c-0.2-0.5-0.5-0.9-0.8-1.1c-0.3-0.3-0.7-0.4-1.2-0.4
		c-0.6,0-1,0.1-1.4,0.2c-0.5,0.2-0.9,0.6-1.2,1.1c-0.3,0.5-0.5,1.1-0.5,1.8c0,0.4,0.1,0.8,0.2,1.1c0.1,0.3,0.3,0.6,0.5,0.9
		c0.2,0.3,0.5,0.5,0.8,0.7c0.2,0.1,0.4,0.2,0.7,0.3c0.2,0,0.4,0.1,0.7,0.1c0.2,0,0.4,0,0.7-0.1c0.2-0.1,0.4-0.1,0.6-0.2
		c0.1-0.1,0.2-0.2,0.3-0.3c0-0.1,0.1-0.3,0.1-0.7c0-0.6,0-0.9-0.1-1c-0.1-0.1-0.3-0.2-0.7-0.2l-0.2,0H362c0,0,0,0-0.1,0l-0.1-0.1
		c0,0,0,0,0-0.1c0.2,0,0.5,0,1.1,0c0.1,0,0.3,0,0.6,0l0.5,0h0.5c0.1,0,0.2,0,0.3,0c0,0,0,0,0,0c0,0,0,0,0,0c0,0,0,0.1,0,0.1
		c-0.1,0-0.3,0.1-0.3,0.1l-0.3,0c-0.1,0-0.2,0-0.3,0.1c0,0-0.1,0.2-0.1,0.4l0,0.7c0,0.4,0,0.7-0.1,0.9c0,0.1-0.1,0.1-0.1,0.2
		c-0.1,0.1-0.2,0.1-0.4,0.2c-0.3,0.1-0.6,0.2-0.8,0.2c-0.4,0.1-0.9,0.1-1.3,0.1c-0.7,0-1.2-0.1-1.6-0.3c-0.4-0.2-0.8-0.4-1.1-0.7
		c-0.3-0.3-0.5-0.6-0.7-0.9c-0.2-0.4-0.3-0.9-0.3-1.4c0-0.6,0.2-1.2,0.5-1.7c0.3-0.6,0.8-1,1.5-1.4c0.5-0.2,1.1-0.4,2-0.4
		c0.6,0,1,0.1,1.4,0.2C363.4,112,363.7,112.1,363.9,112.2 M344.3,118.2c0.1-0.1,0.3-0.1,0.6-0.1c0.2,0,0.3,0,0.4-0.1
		c0,0,0,0,0.1-0.1c0.1-0.1,0.1-0.5,0.1-1c0-0.7,0.1-1.7,0.1-2.8c0.1-0.9,0.1-1.5,0.1-1.7v-0.1c-0.2-0.1-0.6-0.1-1.1-0.2
		c0-0.1-0.1-0.1-0.1-0.1c0,0,0-0.1,0-0.1c0.1,0,0.1,0,0.1,0c0,0,0.1,0,0.2,0c0.2,0,0.4,0,0.7,0c0.1,0,0.3,0,0.5,0c0.2,0,0.3,0,0.3,0
		c0,0,0.1,0,0.2,0c0,0,0.1,0.1,0.1,0.1l0.2,0.5l1.4,3.1l0.6,1.3c0.5-0.9,0.8-1.7,1.1-2.4c0-0.1,0-0.1,0.1-0.1c0-0.1,0.1-0.1,0.1-0.2
		c0-0.1,0.1-0.3,0.3-0.8c0.1-0.2,0.1-0.3,0.2-0.5c0.2-0.5,0.3-0.8,0.3-0.9c0.1,0,0.1,0,0.2,0c0,0,0.1,0,0.2,0c0.2,0,0.5,0,0.9,0
		c0.3,0,0.5,0,0.6,0c0,0,0,0.1,0,0.1c0,0,0,0.1,0,0.1c-0.1,0.1-0.2,0.1-0.4,0.1c-0.3,0-0.5,0-0.6,0.1c-0.1,0-0.1,0.1-0.2,0.1
		c0,0,0,0.2-0.1,0.5l0,0.2l0,0.2c0,0.5,0,1.3,0,2.5l0,1l0,0.6c0,0.3,0,0.4,0,0.4c0,0,0.1,0.1,0.2,0.1c0.2,0.1,0.5,0.1,0.9,0.2
		c0,0,0,0,0,0.1c0,0,0,0.1,0,0.1h-0.2c-0.2,0-0.4,0-0.6,0c-0.2,0-0.4,0-0.4,0c-0.7,0-1.1,0-1.4,0c-0.1,0-0.2,0-0.3,0c0,0,0,0-0.1,0
		v-0.1c0,0,0-0.1,0-0.1c0.1,0,0.3-0.1,0.5-0.1c0.2-0.1,0.4-0.1,0.5-0.2c0-0.1,0-0.4,0-0.8l0-1c0-0.1,0-0.3,0-0.6c0-0.3,0-0.8,0-1.5
		c0-0.5,0-0.9,0-1.2c-0.1,0.1-0.2,0.4-0.3,0.8l-0.1,0.2l0,0l-0.7,1.8l-0.3,0.7l-0.3,0.8c-0.2,0.4-0.3,0.7-0.4,1
		c0,0.1-0.1,0.2-0.1,0.3l-0.1,0c-0.4-1.1-0.8-2.2-1.3-3.4c-0.5-1.2-0.9-1.9-1.1-2.3c0,0.1-0.1,0.6-0.1,1.3c0,0.8-0.1,1.8-0.1,2.8
		c0,0.3,0,0.7,0.1,1.1c0,0.1,0.1,0.2,0.1,0.3c0.1,0.1,0.3,0.1,0.6,0.1c0.1,0,0.3,0,0.4,0c0,0.1,0,0.1,0,0.1c0,0,0,0,0,0.1l-1.6-0.1
		c-0.1,0-0.3,0-0.5,0c-0.1,0-0.3,0-0.6,0L344.3,118.2z M334.2,118.4l0-0.1c0.1,0,0.2-0.1,0.4-0.1c0.2,0,0.3-0.1,0.4-0.1
		c0.1,0,0.1-0.1,0.2-0.1c0-0.1,0-0.4,0-0.8l-0.1-3.9l0-0.6c0-0.1,0-0.2-0.1-0.3c0-0.1-0.2-0.1-0.4-0.1c-0.2,0-0.3-0.1-0.4-0.1
		c0,0-0.1-0.1-0.1-0.1c0,0,0,0,0-0.1c0,0,0.1,0,0.1,0s0.2,0,0.3,0h0.1c0,0,0.2,0,0.4,0h0.7l1.4,0l1.5-0.1h0.1l0.2,0
		c0.1,0,0.1,0,0.2,0c0,0.1,0,0.1,0,0.1l0,0.2l0,0.9c0,0,0,0.1,0,0.1c-0.1,0-0.1,0-0.1,0c0,0-0.1,0-0.1,0c0,0,0-0.1-0.1-0.2
		c0-0.1-0.1-0.3-0.2-0.6c0-0.1-0.1-0.2-0.2-0.2c-0.2-0.1-0.5-0.1-1-0.1c-0.2,0-0.4,0-0.6,0c-0.2,0-0.3,0-0.4,0l-0.4,0
		c-0.2,0-0.3,0-0.4,0.1c-0.1,0-0.1,0.1-0.1,0.2v0.1c0,0.2,0,0.4,0,0.6l0,1.4c0,0.1,0,0.3,0,0.4l0.1,0l0.3,0h1c0.4,0,0.6,0,0.8-0.1
		c0.1,0,0.2-0.1,0.2-0.2c0,0,0.1-0.2,0.1-0.4l0.1-0.4c0,0,0.1,0,0.1,0c0,0,0,0,0.1,0c0,0.1,0,0.2,0,0.4l0.1,1.8c-0.1,0-0.1,0-0.1,0
		l-0.1,0c-0.1-0.3-0.1-0.6-0.2-0.8c0-0.1-0.1-0.1-0.1-0.1c-0.1,0-0.5,0-1.2,0c-0.2,0-0.4,0-0.5,0c-0.2,0-0.3,0-0.4,0h0
		c-0.1,0-0.2,0-0.2,0c0,0,0,0.1,0,0.1v0.3c0,0,0,0.2,0,0.5l0,1.7c0,0.1,0,0.1,0,0.2c0.1,0.1,0.2,0.1,0.4,0.1c0.2,0,0.4,0.1,0.5,0.1
		c0.1,0,0.1,0.1,0.1,0.1c0,0,0,0,0,0.1c0,0,0,0-0.1,0.1c-0.3-0.1-0.7-0.1-1.1-0.1c-0.3,0-0.5,0-0.8,0.1
		C334.8,118.4,334.6,118.4,334.2,118.4L334.2,118.4z"/>
	<path class="st0" d="M337.3,41v17.6c0,3.3,0,5.8,0.1,7.7c0,0.3,0,0.9,0.1,1.6c0,0.7,0.1,1.2,0.1,1.6c0,0.6-0.3,0.8-0.9,0.8
		c-0.2,0-0.4-0.1-0.5-0.3c-0.5-0.6-1.3-1.6-2.3-2.8c-1.3-1.5-3.2-3.7-5.7-6.5l-14.8-16.8c-1.6-1.9-4.1-4.8-7.4-8.6h-0.1
		c-0.2,0.9-0.3,2.3-0.3,4.1v29.2c0,0.4-0.7,0.6-2.1,0.6c-0.4,0-0.6-0.2-0.6-0.6l0.1-33.7c0-1.7-0.3-3-0.8-3.8c-0.6-1-1.6-1.7-3.1-2
		c-0.5-0.1-1.3-0.2-2.3-0.4c-0.4-0.1-0.6-0.4-0.6-0.8c0-0.5,0.2-0.7,0.6-0.7h8.1c1.1,0,1.8,0.1,2,0.2c0.7,0.9,1.7,2.2,2.9,3.7
		c1.7,2.3,4.3,5.5,7.8,9.9c3.7,4.2,9.2,10.3,16.7,18.5h0.1c0.2-0.5,0.3-1.3,0.3-2.7v-29c0-0.4,0.2-0.6,0.6-0.6c0.8,0,1.9,0,3.5,0.1
		c1.6,0,2.7,0.1,3.5,0.1c0.5,0,0.7,0.2,0.7,0.7c0,0.4-0.7,0.7-2.1,1c-1.5,0.3-2.4,0.7-2.7,1.1C337.6,31.6,337.3,35.1,337.3,41
		 M237.2,46.9c0,5.8,1.4,10.7,4.1,14.7c3.1,4.6,7.4,6.9,13,6.9c4.8,0,8.6-1.9,11.3-5.7c2.4-3.4,3.6-7.6,3.6-12.6
		c0-5.9-1.3-10.9-3.8-14.8c-3-4.7-7.3-7-13-7c-2.1,0-4.1,0.4-5.9,1.2C240.3,32.3,237.2,38.1,237.2,46.9 M230.8,48.9
		c0-6.5,2.2-11.8,6.5-16.1c4.3-4.3,9.7-6.4,16.2-6.4c6.5,0,11.8,2,15.9,6c4.1,4,6.2,9.3,6.2,15.8c0,6.3-2.1,11.6-6.3,15.8
		c-4.2,4.3-9.5,6.4-15.8,6.4c-6.4,0-11.8-2-16-5.9C233.1,60.5,230.8,55.3,230.8,48.9 M196.1,70.5c-6.4,0-11.7-1.4-15.9-4.3
		c-6-4.1-9-9.9-9-17.5c0-6.9,2.5-12.4,7.6-16.5c4.8-3.9,10.6-5.8,17.6-5.8c3,0,6.7,0.5,11.3,1.5c0.3,0.1,0.7,0.2,1.1,0.3
		c0.4,0.1,0.6,0.3,0.8,0.6c0,0.3,0,0.7,0.1,1.3c0.1,1,0.2,2.1,0.3,3.3c0.3,2.9,0.4,4.2,0.4,3.9c0,0.5-0.3,0.8-0.9,0.8
		c-0.4,0-0.7-0.2-0.8-0.5c-0.2-0.7-0.6-1.7-1.1-3.1c-2.1-4-6-6-11.9-6c-5.7,0-10.1,1.8-13.4,5.5c-3.1,3.5-4.6,8.1-4.6,13.9
		c0,6,1.6,10.9,4.9,14.7c3.5,4,8.2,6,14,6c5.1,0,9-2,11.7-6c0.3-0.6,0.9-1.6,1.5-2.8c0.1-0.3,0.4-0.4,0.8-0.4c0.6,0,0.9,0.3,0.9,0.8
		c0,0.1-0.1,0.6-0.4,1.7c-0.4,1.5-0.7,2.8-1.1,3.7c-0.6,1.8-1.2,2.8-1.8,3.1C204.6,69.8,200.5,70.5,196.1,70.5 M124.4,60
		c0-0.8,0.3-1.3,0.9-1.3c0.3,0,0.5,0.2,0.6,0.4c0.2,0.6,0.6,1.6,1.1,2.9c2.1,4.3,5.4,6.5,9.8,6.5c2.3,0,4.2-0.7,5.7-2
		c1.5-1.3,2.3-3.1,2.3-5.4c0-3.6-1.7-6.6-5.2-8.9c-2-1.3-3.9-2.5-5.8-3.8c-2.3-1.6-3.9-3.1-5-4.7c-1.4-2-2.1-4.1-2.1-6.5
		c0-3.5,1.3-6.2,4-8.2c2.4-1.8,5.4-2.7,9-2.7c1.5,0,3.5,0.3,5.9,0.8c0.4,0.1,0.9,0.2,1.4,0.3c0.5,0.1,0.8,0.3,1,0.5
		c0.2,0.3,0.4,1.3,0.6,3c0.3,1.7,0.4,2.8,0.4,3.3c0,1-0.3,1.5-1,1.5c-0.3,0-0.7-0.4-1-1.1c-0.2-0.5-0.4-1.1-0.7-1.6
		c-0.2-0.6-0.5-1.1-0.7-1.5c-1.4-2.2-3.7-3.2-6.9-3.2c-5.1,0-7.6,2.4-7.6,7.1c0,2.7,1.6,5.1,4.8,7.4c3,2,5.9,4,8.9,6
		c3.2,2.8,4.8,6,4.8,9.9c0,3.7-1.4,6.7-4.1,8.9c-2.5,2-5.6,2.9-9.5,2.9c-1.5,0-3.2-0.2-5-0.6c-2.2-0.4-3.8-1-4.7-1.7
		c-0.4-0.3-0.8-1.6-1.3-3.9C124.6,62.4,124.4,60.9,124.4,60 M79.9,69.5c-0.4,0-0.6-0.2-0.6-0.6l0.1-35c0-1.4-0.2-2.5-0.6-3.1
		c-0.4-0.8-1.3-1.3-2.6-1.6c-0.5-0.1-0.9-0.2-1.4-0.3c-0.5-0.1-0.7-0.4-0.7-0.7c0-0.6,0.2-0.9,0.7-0.9c0.7,0,1.8,0,3.3,0.1
		c1.5,0.1,2.6,0.1,3.4,0.1h14.6c0.6,0,1.6,0,3-0.1c1.3-0.1,2.3-0.1,3-0.1c0.3,0,0.5,0.2,0.7,0.5c0.1,0.4,0.3,1.6,0.5,3.6
		c0.2,2,0.3,3.3,0.3,3.9c0,0.5-0.3,0.8-0.8,0.8c-0.4,0-0.7-0.2-0.9-0.7c-0.1-0.5-0.3-0.9-0.4-1.3c-0.8-2.3-2.2-3.8-4.3-4.3
		c-1-0.2-2.8-0.4-5.5-0.4H86c-0.7,0-1.2,0.2-1.3,0.5c-0.1,0.2-0.2,0.7-0.2,1.5v13.2c0,0.9,0.1,1.4,0.3,1.6c0.2,0.1,0.8,0.2,1.8,0.2
		h12c0.4,0,0.6,0.3,0.6,0.9c0,0.9-0.3,1.3-0.8,1.3H86.6c-0.9,0-1.5,0.1-1.7,0.2c-0.3,0.2-0.4,0.7-0.4,1.5v9.4c0,3.3,0.4,5.4,1.2,6.2
		c0.8,0.8,6.6,1.2,17.3,1.2c1.4,0,1.9,0,1.5-0.1c0.7,0.1,1,0.3,1,0.8c0,0.3-0.1,0.6-0.3,1c-0.2,0.4-0.4,0.6-0.7,0.6H79.9z M50,41
		v17.6c0,3.3,0,5.8,0.1,7.7c0,0.3,0,0.9,0.1,1.6c0,0.7,0.1,1.2,0.1,1.6c0,0.6-0.3,0.8-0.9,0.8c-0.2,0-0.4-0.1-0.5-0.3
		c-0.5-0.6-1.3-1.6-2.3-2.8c-1.3-1.5-3.2-3.7-5.7-6.5L26,44.1c-1.6-1.9-4.1-4.8-7.4-8.6h-0.1c-0.2,0.9-0.3,2.3-0.3,4.1v29.2
		c0,0.4-0.7,0.6-2.1,0.6c-0.4,0-0.6-0.2-0.6-0.6l0.1-33.7c0-1.7-0.3-3-0.8-3.8c-0.5-1-1.6-1.7-3.1-2c-0.5-0.1-1.3-0.2-2.3-0.4
		c-0.4-0.1-0.6-0.4-0.6-0.8c0-0.5,0.2-0.7,0.6-0.7h8.2c1.1,0,1.8,0.1,2,0.2c0.7,0.9,1.7,2.2,2.9,3.7c1.7,2.3,4.3,5.5,7.8,9.9
		c3.6,4.2,9.2,10.3,16.7,18.5H47c0.2-0.5,0.3-1.3,0.3-2.7v-29c0-0.4,0.2-0.6,0.6-0.6c0.8,0,1.9,0,3.5,0.1c1.6,0,2.7,0.1,3.5,0.1
		c0.5,0,0.7,0.2,0.7,0.7c0,0.4-0.7,0.7-2.1,1c-1.5,0.3-2.4,0.7-2.7,1.1C50.3,31.6,50,35.1,50,41"/>
	<path class="st0" d="M171.2,27.9c-0.5,1-2.9,6.4-3.2,7.3c-0.8,6.5,0.1,13.6,1.7,20c1.5,4.1,3.2,6.9,6.3,10.1c3,2.6,6.1,4.8,9.9,6.1
		c3.6,0.8,7.2,1.1,10.9,1.1c5.8-0.9,11.4-2.9,16.3-6.2c0.3-0.3,0.8-1.1,1.2-1.2c0-0.1,0-0.2,0.1-0.3c2.5-4.3,2.5-4.3,5.2-8.3
		c1.4-3.4,2.1-6.7,2.4-10.3c0.3-6.4-0.5-13.6-3.9-19.1c-1.5-1.6-2.9-3.1-4.3-4.6c-0.9-0.6-1.8-1.1-2.7-1.7
		c-8.5-4.2-17.1-4.8-26.3-2.8c-4.1,1.7-7.4,3.5-10.8,6.4c-1.4,1.7-1.3,1.7-1.8,2L171.2,27.9z M218.7,31.6c0.7,3.9,0.7,3.9,1.6,10.4
		c0,4.6-0.5,9.1-2.4,13.4c-1.9,2.9-3.7,5.8-5.5,8.7c-3.2,3-8.1,4.5-12.2,5.8c-1.2,0.3-2.4,0.5-3.6,0.8c-4.4-0.1-8.7-0.3-12.7-1.9
		c-5.8-3.1-10.2-7-12.5-13.3c-1.2-5.8-2-11.6-2.1-17.4c0.2-1.2,0.4-2.3,0.5-3.5c1.2-3.5,2.9-6.4,5.4-9.1c1.8-1.5,1.8-1.5,3.7-2.8
		c5.9-3.6,13.1-5.2,20-4.3C206.6,20.2,215.8,23.2,218.7,31.6"/>
	<path class="st0" d="M171.2,27.9c-0.5,1-2.9,6.4-3.2,7.3c-0.8,6.5,0.1,13.6,1.7,20c1.5,4.1,3.2,6.9,6.3,10.1c3,2.6,6.1,4.8,9.9,6.1
		c3.6,0.8,7.2,1.1,10.9,1.1c5.8-0.9,11.4-2.9,16.3-6.2c0.3-0.3,0.8-1.1,1.2-1.2c0-0.1,0-0.2,0.1-0.3c2.5-4.3,2.5-4.3,5.2-8.3
		c1.4-3.4,2.1-6.7,2.4-10.3c0.3-6.4-0.5-13.6-3.9-19.1c-1.5-1.6-2.9-3.1-4.3-4.6c-0.9-0.6-1.8-1.1-2.7-1.7
		c-8.5-4.2-17.1-4.8-26.3-2.8c-4.1,1.7-7.4,3.5-10.8,6.4c-1.4,1.7-1.3,1.7-1.8,2L171.2,27.9z M218.7,31.6c0.7,3.9,0.7,3.9,1.6,10.4
		c0,4.6-0.5,9.1-2.4,13.4c-1.9,2.9-3.7,5.8-5.5,8.7c-3.2,3-8.1,4.5-12.2,5.8c-1.2,0.3-2.4,0.5-3.6,0.8c-4.4-0.1-8.7-0.3-12.7-1.9
		c-5.8-3.1-10.2-7-12.5-13.3c-1.2-5.8-2-11.6-2.1-17.4c0.2-1.2,0.4-2.3,0.5-3.5c1.2-3.5,2.9-6.4,5.4-9.1c1.8-1.5,1.8-1.5,3.7-2.8
		c5.9-3.6,13.1-5.2,20-4.3C206.6,20.2,215.8,23.2,218.7,31.6z"/>
	<path class="st0" d="M250.3,30.3c1-0.8,2.8-2,4.5-2.8c0.1-0.2,0.4-0.3,4-1.6c2.7-0.3,3.2-0.3,3.7-0.6c2.2-0.1,3.9,0,6-0.1
		c1.5,0.4,7,0.7,10.1,3.8c4.6,3.4,11.2,14.5,8.6,20.8c-1,0.6-0.8-0.5-1-1.1c1.2-3.5-1.4-9.2-3.5-12.9c-4.3-5.6-7.6-8.1-12.3-8.3
		c-2.7-0.4-5.3-0.6-8-0.5c-5,0-10.3,4.8-13.4,7.7c-2.6,3.4-4.8,6.2-6.3,9.2c-2.4,5-3.5,9.9-6.3,14.8c-1,2.4-4.3,6-5.8,7.8
		c-1.7,1.6-3.7,3.2-5.4,4.8c-4.6,2.9-9.4,5-14.3,7.3c-4.9,0.9-9.7,1.6-14.6,0.7C186,76.4,178,72.2,172,63.6l-6.3-12
		c-1.2-3.8-2.2-7.5-2.8-11.5c0-2,0.1-3.9,0.2-5.9c0.8-2.2,1.5-4.4,2.3-6.5c2.6-5.8,5.8-10.2,11.4-13.8c1.1-0.5,2.6-1.5,5.7-3.2
		c5.5-2.5,10.3-3.4,16.5-4.1c-0.1,0.5,4.4,1.6,3,2c-1.9,0.1-3.8,0.2-5.7,0.3c-11.5,1.7-21,6.3-27,15.6c-2,4.3-3.4,7.8-4.2,12.3
		c0.1,1.7,0.2,3.5,0.3,5.2c1.2,6.4,3.8,12.3,6.7,18.2c1.1,1.6,2.2,3.2,3.3,4.8c2.7,2.9,5.2,4.5,8.4,7c5.2,3.1,10.1,5,16.3,5.9
		c3-0.2,6-0.3,8.9-0.8c4.9-1.7,9.6-4.2,13.9-6.7c2-1.8,5.2-4.2,6.5-6.5c0.6-1,0.4-0.2,1-1.2c0.2-0.2,5.6-6.4,5.5-7.5
		c0.5-0.8,2.2-4.4,2.1-5.5C241.1,40.2,248.5,32.4,250.3,30.3"/>
	<path class="st0" d="M250.3,30.3c1-0.8,2.8-2,4.5-2.8c0.1-0.2,0.4-0.3,4-1.6c2.7-0.3,3.2-0.3,3.7-0.6c2.2-0.1,3.9,0,6-0.1
		c1.5,0.4,7,0.7,10.1,3.8c4.6,3.4,11.2,14.5,8.6,20.8c-1,0.6-0.8-0.5-1-1.1c1.2-3.5-1.4-9.2-3.5-12.9c-4.3-5.6-7.6-8.1-12.3-8.3
		c-2.7-0.4-5.3-0.6-8-0.5c-5,0-10.3,4.8-13.4,7.7c-2.6,3.4-4.8,6.2-6.3,9.2c-2.4,5-3.5,9.9-6.3,14.8c-1,2.4-4.3,6-5.8,7.8
		c-1.7,1.6-3.7,3.2-5.4,4.8c-4.6,2.9-9.4,5-14.3,7.3c-4.9,0.9-9.7,1.6-14.6,0.7C186,76.4,178,72.2,172,63.6l-6.3-12
		c-1.2-3.8-2.2-7.5-2.8-11.5c0-2,0.1-3.9,0.2-5.9c0.8-2.2,1.5-4.4,2.3-6.5c2.6-5.8,5.8-10.2,11.4-13.8c1.1-0.5,2.6-1.5,5.7-3.2
		c5.5-2.5,10.3-3.4,16.5-4.1c-0.1,0.5,4.4,1.6,3,2c-1.9,0.1-3.8,0.2-5.7,0.3c-11.5,1.7-21,6.3-27,15.6c-2,4.3-3.4,7.8-4.2,12.3
		c0.1,1.7,0.2,3.5,0.3,5.2c1.2,6.4,3.8,12.3,6.7,18.2c1.1,1.6,2.2,3.2,3.3,4.8c2.7,2.9,5.2,4.5,8.4,7c5.2,3.1,10.1,5,16.3,5.9
		c3-0.2,6-0.3,8.9-0.8c4.9-1.7,9.6-4.2,13.9-6.7c2-1.8,5.2-4.2,6.5-6.5c0.6-1,0.4-0.2,1-1.2c0.2-0.2,5.6-6.4,5.5-7.5
		c0.5-0.8,2.2-4.4,2.1-5.5C241.1,40.2,248.5,32.4,250.3,30.3z"/>
</g>
</svg>
