<?xml version="1.0" encoding="utf-8"?>
<!-- Generator: Adobe Illustrator 25.2.0, SVG Export Plug-In . SVG Version: 6.00 Build 0)  -->
<svg version="1.1" id="Layer_1" xmlns="http://www.w3.org/2000/svg" xmlns:xlink="http://www.w3.org/1999/xlink" x="0px" y="0px"
	 viewBox="0 0 800 330" style="enable-background:new 0 0 800 330;" xml:space="preserve">
<style type="text/css">
	.st0{fill-rule:evenodd;clip-rule:evenodd;fill:#FFFFFF;}
</style>
<g>
	<path class="st0" d="M183.1,181.4c4.7-30.8-18.6-60.8-32-74.4C137.4,92.7,111,71.9,92.8,57.8c-19.6,14.1-42.6,33.1-56.2,46.7
		C23,118.4,0,143.8,0,179.3c0,41.8,28.8,78.9,69.9,88.9C39.5,255,18.2,225,18.2,191.5c0-32.5,14.3-51.3,28.1-66.1
		c9.5-10.1,34.1-30.4,51.4-40.9c16.3,9.5,42.2,27.5,56.2,40.1C163.3,133.5,181.5,155.4,183.1,181.4"/>
	<path class="st0" d="M144.5,201.7c0.6-0.2,1.4-0.2,1.9-0.2c23.6-0.8,23.1-28.5,13.6-52.9c11.6,15.1,16.1,31.2,15.9,48.3
		c-0.4,18.2-8.5,35.4-15.5,44.4c-4.9,6-10.1,11.2-15.9,15.5V201.7z M144.5,193.6c0.8,0,1.7,0,2.5-0.2c6-1.3,9.9-7.4,8.7-13.6
		c-1.2-5.2-6-8.9-11.2-8.9V193.6z M89.7,215.3c19.8,2.3,34.1-3.3,44-8.7c3.3-1.8,7.2-4.1,10.9-4.9v55
		c-18.6,13.9-42.2,18.8-65.7,13.2c24.6-1.4,51.2-13.2,62.4-28.3c-20.7,15.5-53.3,16.7-73.6,7.5c27.5,3.3,62.2-9.3,72.7-31.8
		C124.8,221.7,109.6,223.1,89.7,215.3 M144.5,170.9v22.7c-5.2,0-9.9-3.7-11-8.9c-1.4-6.2,2.5-12.2,8.7-13.6
		C143,170.9,143.8,170.9,144.5,170.9"/>
	<path class="st0" d="M736.6,251.1v-9.9c2.3,0,4.3-1,5.6-2.9c1.4-1.7,1.9-4.5,1.9-8.1c0-3.5-0.6-6.2-1.9-8.1
		c-1.4-1.7-3.3-2.7-5.6-2.7v-9.9c6.4,0,11.4,1.8,15.1,5.4c3.7,3.7,5.4,8.9,5.4,15.3c0,6.6-1.7,11.6-5.4,15.3
		C748.1,249.2,743,251.1,736.6,251.1 M762.2,238h12.6c0.2,1.7,0.8,2.9,1.9,3.9c1.2,0.8,2.9,1.2,5,1.2c1.7,0,3.1-0.2,4.1-1
		c1.2-0.8,1.6-1.5,1.6-2.7c0-1.6-1.9-2.9-6-3.9c-2.1-0.6-3.9-1-5-1.6c-5-1.6-8.3-3.1-10.1-4.8s-2.7-4.1-2.7-7c0-3.9,1.6-7,4.4-9.3
		c3.1-2.1,7.2-3.3,12.6-3.3c5.6,0,9.9,1,13,2.9s4.7,4.8,5,8.5h-12.2c-0.2-1.2-0.8-2.3-1.7-2.9c-1-0.6-2.1-1-3.9-1
		c-1.5,0-2.7,0.4-3.5,1s-1.4,1.3-1.4,2.5c0,1.6,2.1,2.7,6.4,3.9c1,0.4,1.7,0.6,2.3,0.8c3.9,1,6.4,1.9,7.9,2.5c1.5,0.4,2.7,1,3.3,1.5
		c1.4,1,2.5,2.1,3.1,3.5s1,2.9,1,4.8c0,4.3-1.6,7.5-4.8,9.9c-3.3,2.3-8,3.5-13.8,3.5s-10.5-1-13.8-3.3
		C764.3,245.3,762.4,242,762.2,238 M736.6,209.5v9.9c-2.5,0-4.4,1-5.6,2.7c-1.4,1.9-1.9,4.7-1.9,8.1c0,3.7,0.6,6.4,1.9,8.3
		c1.2,1.7,3.1,2.7,5.6,2.7v9.9c-6.6,0-11.6-1.9-15.3-5.6c-3.7-3.7-5.4-8.7-5.4-15.3c0-6.4,1.9-11.6,5.4-15.3
		C725,211.2,730.1,209.5,736.6,209.5 M530.1,265.5v-8.9h0.2c2.7,0,4.7-0.6,5.8-1.9c1.2-1.2,1.8-3.5,1.8-6.6V244
		c-1.4,2.1-3.1,3.7-5,4.6c-0.8,0.4-1.7,0.8-2.7,1v-9.5c2.5,0,4.3-1,5.6-2.5c1.4-1.9,1.9-4.3,1.9-7.4c0-3.5-0.6-6-1.9-7.8
		c-1.2-1.9-3.1-2.7-5.4-2.7h-0.2v-9.5c1.2,0.4,1.9,0.6,2.9,1.2c1.9,1,3.7,2.5,5.2,4.6v-5.2h12V243c0,4.9-0.2,8.3-0.6,10.3
		c-0.4,1.9-1,3.5-1.7,4.9c-1.5,2.3-3.9,4.3-6.8,5.4c-2.9,1.4-6.4,1.9-10.5,1.9H530.1z M596,210.8v39h-12.4v-5.4
		c-1.5,2.1-3.3,3.9-5.2,4.8c-1.9,1-4.1,1.6-6.6,1.6c-4.3,0-7.5-1.2-9.7-3.3c-2.1-2.3-3.3-5.4-3.3-9.9v-26.7h12.8v21.7
		c0,3.3,0.4,5.4,1.2,6.8c0.8,1.2,2.1,1.7,4.2,1.7c2.1,0,3.7-0.8,4.8-2.1c1-1.6,1.4-3.9,1.4-7.4v-20.7H596V210.8z M604.9,197.1h12.6
		v10.3h-12.6V197.1z M604.9,210.8h12.6v39h-12.6V210.8z M626.6,249.8v-39H639v5.4c1.4-2.1,2.9-3.7,4.8-4.8c1.9-1,4.3-1.6,7-1.6
		c4.5,0,7.7,1.2,9.9,3.5c1.9,2.3,3.1,6,3.1,11v25.4H651v-19.6c0-4.6-0.4-7.6-1.2-8.7c-0.8-1.4-2.1-1.9-4.3-1.9s-3.9,0.8-4.8,2.3
		c-1,1.3-1.6,3.9-1.6,7v20.9h-12.5V249.8z M672.3,249.8v-52.7h12.8v18.8c1.4-2.1,3.1-3.7,5-4.6c1.9-1,4.3-1.4,7-1.4
		c4.1,0,7.2,1.2,9.3,3.3c2.1,2.3,3.1,5.6,3.1,9.9v26.7h-12.8v-19.6c0-4.6-0.4-7.6-1-8.7c-0.8-1.4-2.3-1.9-4.3-1.9
		c-2.3,0-3.9,0.8-5,2.3c-1,1.3-1.6,3.9-1.6,7v20.9H672.3z M530.1,210.3v9.5c-2.3,0-4.1,1-5.4,2.7c-1.4,1.8-1.9,4.3-1.9,7.8
		c0,3.1,0.6,5.4,1.9,7.2c1.4,1.9,3.1,2.7,5.4,2.7v9.5c-1.4,0.4-2.7,0.6-4.3,0.6c-4.8,0-8.7-1.9-11.8-5.6c-2.9-3.7-4.5-8.5-4.5-14.3
		c0-6,1.5-11,4.5-14.7c3.1-3.7,7-5.6,11.8-5.6C527.4,209.9,528.9,210.1,530.1,210.3 M530.1,256.6v8.9c-5.6,0-9.9-1.2-12.8-3.1
		c-3.1-1.9-5-5-5.6-9.3h12.8c0.4,1.2,1,1.9,1.9,2.5C527.4,256.2,528.5,256.6,530.1,256.6 M439.2,250v-7.4c1.6-0.2,2.9-0.8,3.9-1.7
		c1.4-1.4,2.1-2.9,2.1-5v-4.5c-1,0.8-2.7,1.4-5.2,1.7c-0.2,0.2-0.6,0.2-0.8,0.2V226c4.1-0.8,6-1.7,6-3.1v-0.8c0-1.2-0.4-2.1-1.4-2.7
		c-0.8-0.6-1.9-0.8-3.7-0.8h-1v-8.7h1.2c3.5,0,6.4,0.4,8.7,1.4c2.5,0.8,4.3,1.9,5.6,3.7c1,1.4,1.5,2.7,1.9,4.5
		c0.4,1.6,0.6,4.3,0.6,8v14.9c0,1.7,0.2,3.1,0.6,4.1s0.8,1.7,1.4,1.9v1.6h-13c0-0.6-0.2-1.2-0.4-1.9c0-0.6-0.2-1.4-0.2-2.2
		c-1.7,1.9-3.7,3.1-5.8,4.1C439.6,249.8,439.4,250,439.2,250 M465.8,249.8v-39h12.6v5.4c1.4-2.1,2.9-3.7,4.9-4.8
		c1.9-1,4.3-1.6,7-1.6c4.5,0,7.8,1.2,9.9,3.5c1.9,2.3,2.9,6,2.9,11v25.4h-12.6v-19.6c0-4.6-0.4-7.6-1.2-8.7
		c-0.8-1.4-2.1-1.9-4.3-1.9c-2.3,0-3.9,0.8-4.8,2.3c-1.2,1.3-1.6,3.9-1.6,7v20.9h-12.8V249.8z M439.2,209.9v8.7
		c-1.4,0.2-2.5,0.6-3.3,1.2c-1.2,0.6-1.7,1.7-2.1,3.1h-11.6c0.6-4.3,2.3-7.5,5.4-9.7C430.3,211.2,434.2,210.1,439.2,209.9
		 M439.2,226v7.4c-0.8,0.2-1.4,0.4-1.9,0.4c-1.6,0.6-2.5,1-3.1,1.7c-0.8,0.6-1,1.5-1,2.7c0,1.4,0.4,2.5,1.2,3.3
		c1,0.8,2.1,1.4,3.5,1.4c0.4,0,1-0.2,1.4-0.2v7.4c-1.9,0.8-3.9,1-6,1c-3.7,0-6.8-1-8.9-3.1c-2.1-1.9-3.3-4.9-3.3-8.3
		c0-3.1,1-5.8,2.5-7.7c1.7-2.1,4.5-3.5,7.7-4.3c1.9-0.4,4.5-1,7.4-1.4C438.8,226.1,439,226,439.2,226 M302.8,251.1v-9.9
		c2.5,0,4.3-1,5.6-2.9c1.4-1.7,1.9-4.5,1.9-8.1c0-3.5-0.6-6.2-1.9-8.1c-1.4-1.7-3.1-2.7-5.6-2.7v-9.9c6.4,0,11.4,1.8,15.1,5.4
		c3.7,3.7,5.6,8.9,5.6,15.3c0,6.6-1.9,11.6-5.6,15.3C314.3,249.2,309.2,251.1,302.8,251.1 M329.2,225h18.4v10.7h-18.4V225z
		 M356.3,249.8v-52.7h18.6l6.8,25.6c0.8,2.3,1.4,4.5,1.7,6.6c0.6,2.1,1,4.3,1.4,6.4c0.4-2.1,1-4.5,1.5-6.8c0.6-2.3,1.2-4.8,1.9-7.5
		l6.6-24.2h18.6v52.7H401v-23.4c0-1.6,0-3.9,0.2-6.8c0-3.1,0.2-6.4,0.4-10.3l-10.3,40.5H378l-9.9-40.5c0.2,4.7,0.4,8.7,0.4,12.6
		c0.2,3.7,0.2,6.6,0.2,8.7v19.2h-12.4V249.8z M231.7,217.6h2.1c2.3,0,4.1-0.4,5-1.2c1.2-1,1.7-2.1,1.7-3.9c0-1.6-0.6-2.9-1.5-3.7
		c-1.2-0.8-2.7-1.2-4.7-1.2h-2.7V197h3.9c6.2,0,10.7,1.2,13.6,3.3c2.9,2.1,4.5,5.6,4.5,10.3c0,2.7-0.6,5-1.9,7
		c-1.3,1.7-3.3,3.3-6,4.3c3.1,0.8,5.4,2.1,7,4.3c1.7,1.9,2.5,4.5,2.5,7.6c0,2.9-0.6,5.6-1.9,7.9c-1.4,2.5-3.3,4.3-5.8,5.6
		c-1.6,1-3.5,1.6-6,1.9c-2.1,0.4-5.2,0.6-9.7,0.6v-10.5h1.6c3.1,0,5.4-0.4,6.6-1.4c1.4-1,1.9-2.3,1.9-4.5c0-1.9-0.6-3.5-1.7-4.5
		c-1.2-1-3.1-1.3-5.4-1.3h-2.9v-10H231.7z M302.8,209.5v9.9c-2.5,0-4.3,1-5.6,2.7c-1.3,1.9-1.9,4.7-1.9,8.1c0,3.7,0.6,6.4,1.9,8.3
		c1.4,1.7,3.1,2.7,5.6,2.7v9.9c-6.6,0-11.6-1.9-15.1-5.6c-3.7-3.7-5.4-8.7-5.4-15.3c0-6.4,1.7-11.6,5.4-15.3
		C291.4,211.2,296.4,209.5,302.8,209.5 M262.7,197.1h12.8v10.3h-12.8V197.1z M262.7,210.8h12.8v39h-12.8V210.8z M223,217.6h8.7v10.1
		H223v11.6h8.7v10.5h-1H210v-52.7h21.7v10.6H223V217.6z"/>
	<path class="st0" d="M580.1,122.3v-2.7c1.4-0.2,2.3-0.6,3.3-1.4c1.2-1,1.7-2.1,1.7-3.5v-2.9c-1,0.4-2.5,0.8-4.7,1
		c-0.2,0.2-0.2,0.2-0.4,0.2v-2.9h1c1.6-0.2,2.7-0.4,3.1-0.6c0.4-0.2,0.6-0.4,0.8-0.6c0-0.2,0.2-0.8,0.2-1.5c0-1-0.4-1.7-1.2-2.3
		c-0.8-0.6-1.9-0.8-3.3-0.8H580v-2.9h0.6c2.7,0,4.7,0.4,6,1.3c1.2,1,1.7,2.7,1.7,4.8v9.9c0,1,0.2,1.4,0.4,1.7c0.2,0.2,0.6,0.4,1,0.4
		h0.4c0.2-0.2,0.4-0.2,0.6-0.2v2.7c-0.6,0-0.8,0.2-1.2,0.2h-0.8c-1.2,0-2.1-0.2-2.5-0.8c-0.6-0.4-1-1.2-1-2.1v-0.2
		c-1,1.2-2.1,1.9-3.3,2.5C581.4,122.1,580.9,122.3,580.1,122.3 M580.1,101.4v2.9c-1.3,0-2.3,0.4-3.1,1s-1.1,1.6-1.1,2.7h-3.1v-0.2
		c0-1.9,0.6-3.5,2.1-4.6C576.2,101.9,578,101.4,580.1,101.4 M580.1,110.1v2.9c-0.6,0-1,0-1.3,0.2c-1.4,0.2-2.1,0.6-2.7,1
		c-0.6,0.6-0.8,1.4-0.8,2.3c0,1,0.4,1.7,1,2.3c0.6,0.6,1.6,0.8,2.7,0.8h1.2v2.7c-0.6,0.2-1.2,0.2-1.7,0.2c-2.1,0-3.7-0.4-4.8-1.5
		c-1.2-1-1.7-2.5-1.7-4.5c0-1.7,0.6-3.1,1.7-4.3c1.2-1,2.7-1.7,5-1.9C578.9,110.3,579.5,110.1,580.1,110.1 M550.2,164v-3.9
		c0.4-0.4,0.6-1,0.6-1.6c0-0.8-0.2-1.4-0.6-1.7v-3.9c1.2,0.4,1.9,1,2.5,1.6c1,0.8,1.4,1.9,1.4,3.7c0,1.9-0.8,3.7-2.1,4.9
		C551.4,163.4,550.8,163.6,550.2,164 M550.2,149v-4.6c0.4,0.2,0.8,0.4,1.2,0.8c1.5,1,2.1,2.5,2.1,4.5h-3.3V149z M550.2,130.2v-2.7
		c2.1,0,3.5-0.6,4.5-1.4s1.4-2.1,1.4-3.9v-2.7c-0.8,1-1.7,1.7-2.7,2.3c-1,0.4-1.9,0.6-3.1,0.6v-2.9c1.9,0,3.5-0.6,4.5-1.9
		c1-1.2,1.6-3.1,1.6-5.6s-0.6-4.5-1.6-5.8c-1-1.2-2.5-1.9-4.5-1.9v-2.9c1.2,0,2.1,0.2,3.1,0.6c1,0.6,1.9,1.4,2.7,2.5V102h3.3v19.6
		c0,3.1-0.8,5.2-2.1,6.8C555.7,129.5,553.4,130.2,550.2,130.2 M564.4,94.4h3.5v3.9h-3.5V94.4z M564.4,101.9h3.5v20h-3.5V101.9z
		 M550.2,101.4v2.9c-1.9,0-3.5,0.8-4.4,1.9c-1,1.3-1.6,3.3-1.6,5.8c0,2.3,0.6,4.3,1.6,5.6c1.2,1.2,2.5,1.9,4.4,1.9v2.9
		c-0.2,0.2-0.4,0.2-0.6,0.2c-2.7,0-4.9-1.2-6.4-3.1c-1.7-1.9-2.5-4.5-2.5-7.7c0-3.1,0.8-5.6,2.5-7.6c1.5-1.9,3.9-2.9,6.6-2.9
		L550.2,101.4L550.2,101.4z M550.2,127.5v2.7H550c-2.7,0-4.8-0.4-6.2-1.6c-1.6-1-2.3-2.5-2.3-4.3v-0.2h3.3v0.2c0,1,0.4,1.7,1.4,2.3
		c1,0.4,2.1,0.8,3.9,0.8h0.1V127.5z M550.2,144.4v4.6c-0.2-0.8-0.6-1.4-1.2-1.9c-0.8-0.6-1.9-0.8-3.3-0.8c-1.4,0-2.3,0.2-3.1,0.6
		c-0.6,0.6-1,1.2-1,2.1c0,0.6,0.2,1.2,0.6,1.6c0.4,0.4,1.4,0.8,2.5,1l3.3,0.8c0.8,0.2,1.6,0.4,2.1,0.6v3.9c-0.6-0.4-1.3-0.8-2.5-1
		l-3.7-1c-2.1-0.6-3.7-1.2-4.5-2.1c-0.8-0.8-1.3-1.9-1.3-3.5c0-1.7,0.8-3.3,2.1-4.3c1.4-1,3.1-1.6,5.4-1.6
		C547.5,143.4,549.1,143.6,550.2,144.4 M550.2,160.1v3.9c-1.2,0.4-2.7,0.8-4.4,0.8c-2.5,0-4.5-0.8-5.8-1.9c-1.3-1.2-2.1-2.9-2.1-5.2
		h3.1c0.2,1.4,0.8,2.3,1.6,3.1c0.8,0.6,2.1,1,3.7,1c1.4,0,2.5-0.2,3.3-0.8C549.9,160.7,550.1,160.5,550.2,160.1 M528,164.4v-3.1
		c0.8-0.4,1.6-1,2.1-1.6c1-1.4,1.5-3.3,1.5-5.6c0-2.5-0.6-4.5-1.5-5.8c-0.6-0.6-1.4-1.2-2.1-1.4v-3.3c1.9,0.4,3.5,1.2,4.7,2.5
		c1.6,1.9,2.5,4.5,2.5,8c0,3.3-1,5.8-2.5,7.7C531.5,163.2,529.9,164,528,164.4 M528,122.5v-2.9c2.1,0,3.5-0.6,4.7-1.9
		c1-1.4,1.6-3.3,1.6-5.8c0-2.3-0.6-4.3-1.6-5.6c-1.2-1.4-2.5-1.9-4.7-1.9v-2.9c3.1,0,5.4,0.8,7.2,2.7c1.8,1.9,2.5,4.5,2.5,7.8
		c0,3.5-0.8,6-2.5,7.9C533.4,121.7,531.1,122.5,528,122.5 M528,101.4v2.9c-1.9,0-3.5,0.6-4.5,1.9c-1.2,1.3-1.6,3.3-1.6,5.6
		c0,2.5,0.4,4.5,1.6,5.8c1,1.2,2.5,1.9,4.5,1.9v2.9c-2.9,0-5.2-0.8-7-2.7c-1.7-1.9-2.5-4.5-2.5-7.9c0-3.3,0.8-5.8,2.5-7.8
		C522.7,102.2,525.1,101.4,528,101.4 M528,143.6v3.3c-0.6-0.4-1.6-0.6-2.5-0.6c-1.9,0-3.5,0.8-4.4,1.9c-1.2,1.4-1.6,3.3-1.6,5.8
		c0,2.3,0.4,4.3,1.6,5.6c1,1.4,2.5,1.9,4.4,1.9c1,0,1.9-0.2,2.5-0.4v3.1c-0.8,0.2-1.6,0.4-2.5,0.4c-2.9,0-5.4-1-7-2.9
		c-1.7-1.7-2.5-4.4-2.5-7.7c0-3.5,0.8-6,2.5-8c1.6-1.7,4.1-2.7,7-2.7C526.4,143.4,527.2,143.4,528,143.6 M497.2,160.3v-12.4
		c0.4-0.6,0.8-1.2,1.2-1.8c1.6-1.7,3.9-2.7,6.6-2.7c2.5,0,4.7,0.6,6.2,1.9c1.4,1.4,2.3,3.1,2.3,5.2h-3.3c-0.2-1.4-0.6-2.3-1.6-3.1
		c-0.8-0.8-2.1-1.2-3.7-1.2c-1.7,0-3.1,0.8-4.1,2.1c-1,1.2-1.6,3.1-1.6,5.4c0,2.5,0.6,4.4,1.3,5.8c1,1.2,2.3,1.9,4.1,1.9
		c1.6,0,2.9-0.4,3.9-1.4c1-0.8,1.6-1.9,1.7-3.5h3.1c-0.2,2.5-1,4.4-2.5,5.8c-1.6,1.4-3.7,2.1-6.2,2.1c-2.9,0-5-1-6.6-2.9
		C497.7,161.4,497.4,160.9,497.2,160.3 M497.2,122.5v-2.9c1.9,0,3.5-0.6,4.4-1.9c1.2-1.4,1.7-3.3,1.7-5.8c0-2.3-0.6-4.3-1.7-5.6
		c-1-1.4-2.5-1.9-4.4-1.9v-2.9c3.1,0,5.4,0.8,7,2.7c1.7,1.9,2.7,4.5,2.7,7.8c0,3.5-1,6-2.5,7.9C502.6,121.7,500.3,122.5,497.2,122.5
		 M510.9,94.4h3.3v27.5h-3.3L510.9,94.4L510.9,94.4z M497.2,101.4v2.9c-1.9,0-3.5,0.6-4.5,1.9c-1.2,1.3-1.7,3.3-1.7,5.6
		c0,2.5,0.6,4.5,1.7,5.8c1,1.2,2.5,1.9,4.5,1.9v2.9c-3.1,0-5.4-0.8-7-2.7c-1.7-1.9-2.5-4.5-2.5-7.9c0-3.3,0.8-5.8,2.5-7.8
		C491.7,102.2,494.1,101.4,497.2,101.4 M497.2,147.9v12.4c-1-1.8-1.4-3.7-1.4-6.2C495.8,151.6,496.2,149.6,497.2,147.9 M474.1,172.3
		v-2.7c2.1,0,3.5-0.4,4.5-1.2c1-1,1.4-2.3,1.4-4.1v-2.7c-0.8,1-1.6,1.7-2.7,2.3c-1,0.4-1.9,0.6-3.1,0.8v-3.1c2.1,0,3.5-0.6,4.5-1.7
		c1-1.4,1.5-3.1,1.5-5.8c0-2.5-0.6-4.5-1.5-5.6c-1-1.4-2.5-2.1-4.5-2.1v-2.9c1.2,0,2.1,0.2,3.1,0.8c1,0.4,1.9,1.2,2.7,2.3V144h3.3
		v19.6c0,3.1-0.8,5.4-2.1,6.8C479.5,171.7,477.2,172.3,474.1,172.3 M474.1,104.7v-2.9c0.8-0.2,1.6-0.4,2.3-0.4
		c1.5,0,2.9,0.2,3.9,0.8c1,0.4,1.7,1.2,2.3,1.9c0.4,0.6,0.6,1.2,0.8,1.7c0,0.8,0.2,1.7,0.2,3.1v1v12h-3.5v-12.2
		c0-2.1-0.2-3.5-0.8-4.1c-0.6-0.8-1.7-1.2-3.1-1.2C475.5,104.5,474.7,104.5,474.1,104.7 M488.4,136.4h3.3v3.9h-3.3V136.4z
		 M488.4,144h3.3v20h-3.3V144z M474.1,101.8v2.9c-1,0.2-1.7,0.8-2.3,1.3c-1,1-1.6,2.5-1.6,4.5v11.4h-3.3v-20h3.1v2.9
		c0.8-1.2,1.7-1.9,2.7-2.5C473.1,102.2,473.7,101.9,474.1,101.8 M474.1,143.4v2.9c-1.9,0-3.5,0.8-4.5,2.1c-1,1.2-1.6,3.1-1.6,5.6
		c0,2.3,0.6,4.3,1.6,5.6c1.2,1.4,2.5,1.9,4.5,1.9v3.1h-0.4c-2.7,0-5-1-6.6-2.9c-1.7-2.1-2.5-4.7-2.5-7.9c0-3.1,0.8-5.6,2.5-7.6
		c1.6-1.9,3.9-2.9,6.6-2.9L474.1,143.4L474.1,143.4z M474.1,169.6v2.7h-0.2c-2.7,0-4.7-0.4-6.2-1.6c-1.6-0.9-2.3-2.3-2.3-4.3v-0.2
		h3.3v0.2c0,1,0.6,1.7,1.4,2.3C471,169.2,472.2,169.6,474.1,169.6 M451.8,164.7v-3.1h0.2c1.9,0,3.5-0.6,4.5-1.9
		c1-1.4,1.6-3.3,1.6-5.6c0-2.5-0.6-4.5-1.6-5.8c-1-1.2-2.5-1.9-4.5-1.9h-0.2v-2.9c3.1,0,5.4,1,7.2,2.7c1.7,1.9,2.5,4.5,2.5,8
		c0,3.3-0.8,5.8-2.5,7.7s-4.1,2.9-7,2.9L451.8,164.7L451.8,164.7z M451.8,140.9v-4.1l1.4-2.1h3.7L451.8,140.9z M451.8,122.3v-3.5
		c0.8,0.4,1.7,0.8,2.9,0.8c1.5,0,2.7-0.6,3.7-1.4s1.5-1.9,1.7-3.5h3.3c-0.2,2.5-1.2,4.5-2.7,5.8c-1.6,1.4-3.5,1.9-6.2,1.9
		C453.6,122.5,452.8,122.5,451.8,122.3 M451.8,105v-3.3c1-0.4,1.9-0.4,3.1-0.4c2.5,0,4.5,0.6,6,1.9c1.6,1.2,2.3,3.1,2.5,5.2H460
		c0-1.4-0.6-2.3-1.4-3.1c-1-0.8-2.1-1.2-3.7-1.2C453.8,104.3,452.8,104.7,451.8,105 M451.8,101.8v3.3c-0.4,0.4-0.8,0.8-1.2,1.2
		c-1,1.3-1.3,3.3-1.3,5.6c0,2.5,0.4,4.5,1.3,5.6c0.4,0.6,0.8,1,1.2,1.4v3.5c-1.4-0.6-2.7-1.4-3.7-2.5c-1.5-1.9-2.3-4.5-2.3-7.7
		c0-3.3,0.8-6,2.3-7.9C449.1,102.9,450.5,102.2,451.8,101.8 M451.8,136.8v4.1l-0.4,0.4h-2.1L451.8,136.8z M451.8,143.4v2.9
		c-2,0-3.5,0.8-4.5,1.9c-1,1.4-1.6,3.3-1.6,5.8c0,2.3,0.6,4.3,1.6,5.6c1.2,1.4,2.5,1.9,4.5,1.9v3.1c-2.9,0-5.2-1-7-2.9
		c-1.8-1.7-2.5-4.4-2.5-7.7c0-3.5,0.8-6,2.5-8C446.6,144.4,448.9,143.4,451.8,143.4 M434,122.7v-3.1h0.2c1.4,0,2.5-0.4,3.5-1.2
		c0.8-0.6,1.4-1.6,1.6-2.9h3.5c-0.4,2.1-1.4,3.9-2.9,5.2C438.3,121.9,436.3,122.7,434,122.7 M434,113v-2.9h5.4
		c0-1.7-0.6-3.3-1.4-4.3c-1-1-2.3-1.6-4.1-1.6v-2.9c2.7,0,5,0.8,6.6,2.5s2.3,4.3,2.3,7.6v1v0.6C442.8,113,434,113,434,113z
		 M434.8,136.4h3.5V164h-3.5V136.4z M434,101.4v2.9c-1.8,0-2.9,0.6-3.9,1.6s-1.5,2.3-1.7,4.3h5.6v2.9h-5.6c0,1.9,0.6,3.7,1.6,4.8
		c1,1,2.3,1.6,4.1,1.7v3.1h-0.2c-2.7,0-4.8-1-6.6-2.9c-0.4-0.6-0.8-1-1-1.7v-12.2c0.2-0.6,0.6-1.2,1-1.7c1.7-1.9,3.9-2.7,6.6-2.7
		h0.1V101.4z M426.2,163.4v-4.7c0.6-1.2,1-2.7,1-4.6c0-1.9-0.4-3.7-1-4.8v-4.7c0.6,0.4,1.4,1,1.9,1.5c1.6,1.9,2.5,4.5,2.5,8
		c0,3.3-1,5.8-2.5,7.7C427.6,162.4,426.8,163,426.2,163.4 M426.2,94.4h1.2v3.3h-1.2V94.4z M426.2,94.4v3.3h-7.6v24.2H415V97.7h-8.7
		v-3.3C406.3,94.4,426.2,94.4,426.2,94.4z M426.2,105.8c-1,1.7-1.4,3.9-1.4,6.4c0,2.3,0.4,4.3,1.4,5.8V105.8z M426.2,144.6v4.7
		c-0.2-0.4-0.4-0.6-0.6-1c-1.2-1.2-2.7-1.9-4.7-1.9c-1.9,0-3.5,0.8-4.5,1.9c-1.2,1.4-1.7,3.3-1.7,5.8c0,2.3,0.6,4.3,1.7,5.6
		c1,1.4,2.5,1.9,4.5,1.9c1.9,0,3.5-0.6,4.7-1.9c0.2-0.2,0.4-0.6,0.6-1v4.7c-1.6,0.8-3.1,1.4-5.2,1.4c-2.9,0-5.4-1-7-2.9
		c-1.7-1.7-2.5-4.4-2.5-7.7c0-3.5,0.8-6,2.5-8c1.6-1.7,3.9-2.7,7-2.7C422.9,143.4,424.7,143.8,426.2,144.6 M385.2,162.2v-4.1
		c0.2,0.6,0.6,1,0.8,1.6c1.2,1.4,2.5,1.9,4.5,1.9c1.9,0,3.3-0.6,4.5-1.9c1-1.4,1.5-3.1,1.5-5.4c0-2.5-0.6-4.4-1.5-5.8
		c-1-1.4-2.5-2.1-4.5-2.1c-1.9,0-3.5,0.8-4.5,1.9c-0.2,0.4-0.6,1-0.8,1.4v-3.5c0.6-0.8,1.3-1.5,2.3-1.9c1-0.6,2.3-0.8,3.7-0.8
		c2.5,0,4.7,1,6.4,2.9c1.6,1.9,2.3,4.5,2.3,7.8s-0.8,5.8-2.3,7.7s-3.7,2.9-6.4,2.9c-1.4,0-2.7-0.4-3.7-0.8
		C386.7,163.6,385.9,163,385.2,162.2 M385.2,122.7v-3.1h0.4c1.4,0,2.5-0.4,3.3-1.2c1-0.6,1.6-1.6,1.7-2.9h3.3
		c-0.4,2.1-1.4,3.9-2.9,5.2C389.4,121.9,387.5,122.7,385.2,122.7 M385.2,113v-2.9h5.4c0-1.7-0.4-3.3-1.4-4.3s-2.1-1.6-3.9-1.6h-0.2
		v-2.9c2.9,0,5,0.8,6.8,2.5c1.6,1.7,2.3,4.3,2.3,7.6v1c0,0.2,0,0.4-0.2,0.6C394,113,385.2,113,385.2,113z M404,136.4h3.3v3.9H404
		V136.4z M404,144h3.3v20H404V144z M385.2,101.4v2.9c-1.6,0-2.9,0.6-3.9,1.6c-0.8,1-1.4,2.3-1.6,4.3h5.4v2.9h-5.4
		c0,1.9,0.6,3.7,1.6,4.8c1,1,2.3,1.6,3.9,1.7v3.1c-2.7,0-5-1-6.6-2.9c-1.5-1.9-2.3-4.5-2.3-7.5c0-3.5,0.8-6.2,2.3-8.1
		C380.1,102.2,382.5,101.4,385.2,101.4 M385.2,146.1v3.5c-0.4,1.2-0.6,2.5-0.6,4.3c0,1.7,0.2,3.1,0.6,4.3v4.1
		c-0.2-0.2-0.4-0.4-0.6-0.8v2.5h-3.3v-27.5h3.3v10.3C384.8,146.5,385,146.3,385.2,146.1 M362.9,163.6v-4.3c0,0.2,0,0.2,0.2,0.4
		c1,1.4,2.5,1.9,4.4,1.9s3.5-0.6,4.7-1.9c1-1.4,1.5-3.3,1.5-5.6c0-2.5-0.6-4.5-1.5-5.8c-1.2-1.2-2.7-1.9-4.7-1.9s-3.5,0.8-4.4,1.9
		c-0.2,0.2-0.2,0.2-0.2,0.4v-4.3c1.4-0.6,2.9-1,4.7-1c3.1,0,5.4,1,7.2,2.7c1.5,1.9,2.5,4.5,2.5,8c0,3.3-1,5.8-2.5,7.7
		c-1.7,1.9-4.1,2.9-7.2,2.9C365.8,164.7,364.2,164.4,362.9,163.6 M362.9,122.5v-2.9c1.8,0,3.3-0.8,4.3-1.9c1.2-1.4,1.5-3.3,1.5-5.8
		s-0.4-4.5-1.3-5.6c-1.2-1.4-2.5-1.9-4.5-1.9v-2.9c1,0,2.1,0.2,2.9,0.8c1.2,0.4,2.1,1.2,2.9,2.3V94.4h3.3v27.5h-3.3v-2.5
		c-1,1.2-1.9,1.9-2.9,2.3C364.8,122.3,363.9,122.5,362.9,122.5 M362.9,101.4v2.9c-1.9,0-3.5,0.8-4.4,2.1c-1,1.4-1.6,3.3-1.6,5.8
		c0,2.3,0.6,4.1,1.6,5.4c1.2,1.2,2.5,1.9,4.4,1.9v2.9h-0.8c-2.7,0-4.8-1-6.4-2.7c-1.6-1.9-2.3-4.7-2.3-7.7c0-3.3,0.8-5.8,2.3-7.8
		c1.7-1.9,3.9-2.9,6.4-2.9L362.9,101.4L362.9,101.4z M362.9,144.4v4.3c-1,1.2-1.4,3.1-1.4,5.4c0,2.1,0.4,4.1,1.4,5.2v4.3
		c-1-0.4-1.7-1-2.3-1.7c-1.7-1.7-2.5-4.4-2.5-7.7c0-3.5,0.8-6,2.5-8C361.1,145.4,361.9,144.8,362.9,144.4 M330.3,144h1.7v20h-1.7
		V144z M330.3,122.5v-2.9c1.9,0,3.5-0.6,4.5-1.9c1-1.4,1.5-3.3,1.5-5.8c0-2.3-0.6-4.3-1.5-5.6c-1-1.4-2.5-1.9-4.5-1.9v-2.9
		c2.9,0,5.2,0.8,7,2.7c1.7,1.9,2.5,4.5,2.5,7.8c0,3.5-0.8,6-2.5,7.9C335.6,121.7,333.2,122.5,330.3,122.5 M350.7,164v-12.2
		c0-1.9-0.4-3.3-1-4.1s-1.7-1.2-3.1-1.2c-1.9,0-3.3,0.6-4.5,1.6c-1,1.2-1.6,2.5-1.6,4.6V164h-3.3v-20h3.1v2.9
		c0.8-1.2,1.7-1.9,2.9-2.5c1-0.6,2.1-1,3.7-1c1.4,0,2.7,0.4,3.7,0.8c1.2,0.4,1.9,1.2,2.5,2.1c0.2,0.4,0.4,1,0.6,1.6
		c0.2,0.8,0.2,1.7,0.2,3.1v1v12L350.7,164L350.7,164z M330.3,101.4v2.9c-2.1,0-3.5,0.6-4.7,1.9c-1,1.3-1.6,3.3-1.6,5.6
		c0,2.5,0.6,4.5,1.6,5.8c1.2,1.2,2.5,1.9,4.7,1.9v2.9c-3.1,0-5.4-0.8-7.2-2.7c-1.7-1.9-2.5-4.5-2.5-7.9c0-3.3,0.8-5.8,2.5-7.8
		C324.9,102.2,327.2,101.4,330.3,101.4 M330.3,144v20H329v-3c-0.8,1.2-1.6,1.9-2.7,2.5c-1.2,0.6-2.5,1-3.9,1c-1.6,0-2.7-0.2-3.7-0.8
		c-1-0.4-1.9-1.2-2.3-1.9c-0.4-0.6-0.6-1.2-0.8-1.7c-0.2-0.6-0.2-1.7-0.2-3.1v-1v-12h3.5v12.2c0,2.1,0.2,3.5,0.8,4.3
		c0.8,0.8,1.7,1.2,3.3,1.2c1.9,0,3.3-0.6,4.3-1.7c1-1.2,1.6-2.9,1.6-5v-11H330.3z M216.6,164.7v-3.1h0.4c1.4,0,2.5-0.4,3.5-1.2
		c0.8-0.6,1.4-1.5,1.6-2.9h3.5c-0.4,2.1-1.4,3.9-2.9,5.2C221.1,164,219.1,164.7,216.6,164.7 M216.6,155v-2.9h5.6
		c0-1.7-0.6-3.3-1.6-4.3c-0.8-1-2.1-1.6-3.9-1.6h-0.2v-2.9c2.9,0,5.2,0.8,6.8,2.5c1.6,1.9,2.3,4.3,2.3,7.6v1v0.6L216.6,155
		L216.6,155z M231.7,121.9v-12.2c0-2.1-0.2-3.5-0.8-4.1c-0.6-0.8-1.7-1.2-3.1-1.2c-1.9,0-3.5,0.4-4.5,1.5c-1,1-1.5,2.5-1.5,4.5v11.4
		h-3.3v-20h3.1v2.9c0.8-1.2,1.7-1.9,2.7-2.5c1.2-0.6,2.3-1,3.7-1c1.6,0,2.9,0.2,3.9,0.8c1,0.4,1.7,1.2,2.3,1.9
		c0.4,0.6,0.6,1.2,0.8,1.7c0.2,0.8,0.2,1.7,0.2,3.1v1v12h-3.5V121.9z M238.9,115.5h3.3c0,1.3,0.6,2.3,1.4,3.1c0.8,0.6,2.1,1,3.7,1
		c1.4,0,2.5-0.4,3.3-0.8c1-0.6,1.4-1.4,1.4-2.3c0-0.8-0.2-1.4-0.6-1.7c-0.4-0.4-1.3-0.8-2.5-1l-3.7-1c-2.1-0.6-3.7-1.4-4.5-2.1
		c-0.8-0.8-1.2-1.9-1.2-3.5c0-1.9,0.6-3.3,1.9-4.3c1.4-1.2,3.1-1.6,5.4-1.6c2.5,0,4.3,0.6,5.8,1.6c1.4,1.2,1.9,2.7,1.9,4.5v0.2h-3.1
		c-0.2-1.2-0.6-1.9-1.4-2.5c-0.8-0.6-1.9-0.8-3.3-0.8c-1.4,0-2.3,0.2-3.1,0.6c-0.6,0.6-1,1.2-1,2.1c0,0.6,0.2,1.2,0.6,1.6
		c0.6,0.4,1.3,0.6,2.5,1l3.3,0.8c2.3,0.6,3.9,1.2,4.8,2.1c0.8,0.8,1.2,1.9,1.2,3.5c0,2.1-0.8,3.7-2.1,4.8c-1.6,1.2-3.5,1.7-6.2,1.7
		c-2.5,0-4.5-0.6-5.8-1.7C239.7,119.6,238.9,117.8,238.9,115.5 M263.1,116.9c0,1,0.2,1.6,0.4,1.7c0.4,0.4,0.8,0.6,1.4,0.6h0.8
		c0.4,0,0.8-0.2,1.2-0.2v2.9c-0.6,0-1.2,0.2-1.6,0.2s-0.8,0.2-1.2,0.2c-1.6,0-2.7-0.4-3.3-1c-0.6-0.6-1-1.7-1-3.3v-13.4h-3.1v-2.7
		h3.1v-5.6h3.3v5.6h3.7v2.7h-3.7L263.1,116.9L263.1,116.9z M269.9,94.4h3.5v3.9h-3.5V94.4z M269.9,101.9h3.5v20h-3.5V101.9z
		 M282.5,116.9c0,1,0,1.6,0.4,1.7c0.2,0.4,0.6,0.6,1.3,0.6h0.8c0.2,0,0.6-0.2,1-0.2v2.9c-0.6,0-1,0.2-1.6,0.2
		c-0.4,0-0.8,0.2-1.2,0.2c-1.6,0-2.7-0.4-3.3-1c-0.6-0.6-1-1.7-1-3.3v-13.4H276v-2.7h2.9v-5.6h3.5v5.6h3.5v2.7h-3.5v12.3H282.5z
		 M292.6,101.9v12.2c0,1.9,0.2,3.3,1,4.1c0.6,0.8,1.5,1.2,3.1,1.2c1.9,0,3.3-0.6,4.4-1.6c1-1.2,1.4-2.9,1.4-5v-10.9h3.5v20h-3.3V119
		c-0.8,1.2-1.6,1.9-2.7,2.5c-1.2,0.6-2.3,1-3.9,1c-1.4,0-2.7-0.2-3.7-0.8c-1-0.4-1.7-1.2-2.3-1.9c-0.4-0.6-0.6-1.2-0.8-1.7
		c0-0.8-0.2-1.7-0.2-3.1v-1v-12L292.6,101.9L292.6,101.9z M314.8,116.9c0,1,0.2,1.6,0.4,1.7c0.4,0.4,0.8,0.6,1.6,0.6h0.6
		c0.4,0,0.8-0.2,1.2-0.2v2.9c-0.6,0-1.2,0.2-1.6,0.2s-0.8,0.2-1.2,0.2c-1.6,0-2.7-0.4-3.3-1c-0.6-0.6-1-1.7-1-3.3v-13.4h-2.9v-2.7
		h2.9v-5.6h3.3v5.6h3.7v2.7h-3.7V116.9z M254,164v-12.2c0-2.1-0.4-3.5-1-4.3c-0.4-0.6-1.4-1-2.7-1c-1.7,0-2.9,0.4-3.9,1.4
		c-0.8,1.2-1.4,2.5-1.4,4.3V164h-3.3v-12.2c0-2.1-0.4-3.5-1-4.3c-0.4-0.6-1.4-1-2.7-1c-1.7,0-2.9,0.4-3.9,1.6
		c-0.8,1-1.4,2.3-1.4,4.1V164h-3.3v-20h3.1v2.9c0.8-1.2,1.7-1.9,2.7-2.5s2.3-1,3.7-1c1.2,0,2.3,0.4,3.1,0.8c1,0.6,1.7,1.4,2.3,2.5
		c0.8-1.2,1.7-1.9,2.9-2.5c1-0.4,2.1-0.8,3.5-0.8s2.5,0.4,3.3,0.8c1,0.6,1.7,1.2,2.3,2.1c0.2,0.4,0.4,1,0.6,1.8s0.2,1.7,0.2,3.3v0.6
		v12L254,164L254,164z M273.4,136.4h3.7V164h-3.7V136.4z M307.1,164v-12.2c0-2.1-0.4-3.5-0.8-4.3c-0.6-0.6-1.6-1-2.9-1
		c-1.6,0-2.9,0.4-3.9,1.4c-0.8,1.2-1.4,2.5-1.4,4.3V164h-3.3v-12.2c0-2.1-0.4-3.5-0.8-4.3c-0.6-0.6-1.6-1-2.9-1
		c-1.6,0-2.9,0.4-3.9,1.6c-0.8,1-1.4,2.3-1.4,4.1V164h-3.3v-20h3.3v2.9c0.8-1.2,1.6-1.9,2.5-2.5c1.2-0.6,2.3-1,3.7-1
		c1.2,0,2.3,0.4,3.1,0.8c1,0.6,1.7,1.4,2.3,2.5c1-1.2,1.9-1.9,2.9-2.5c1-0.4,2.1-0.8,3.5-0.8s2.5,0.4,3.5,0.8c1,0.6,1.6,1.2,2.1,2.1
		c0.4,0.4,0.6,1,0.6,1.8c0.2,0.8,0.2,1.7,0.2,3.3v0.6v12L307.1,164L307.1,164z M209,94.4h3.9v27.5H209V94.4z M216.6,143.4v2.9
		c-1.6,0-2.7,0.6-3.7,1.6s-1.6,2.5-1.7,4.3h5.4v2.9h-5.4c0,2.1,0.6,3.7,1.6,4.8c1,1.2,2.3,1.7,3.9,1.7v3.1c-2.7,0-4.8-1-6.6-2.9
		c-1.6-1.7-2.3-4.3-2.3-7.6c0-3.5,0.8-6.2,2.3-7.9C211.8,144.4,213.9,143.4,216.6,143.4"/>
</g>
</svg>
